0
SECTION
2
HEADER
9
$ACADVER
1
AC1009
9
$INSUNITS
70
4
0
ENDSEC
0
SECTION
2
TABLES
0
TABLE
2
LAYER
70
1
0
LAYER
2
RIVERS
70
0
62
5
6
CONTINUOUS
0
ENDTAB
0
ENDSEC
0
SECTION
2
ENTITIES
0
LINE
8
RIVERS
10
93.515625
20
0.000000
30
0.0
11
93.750000
21
1.093750
31
0.0
0
LINE
8
RIVERS
10
93.750000
20
1.093750
30
0.0
11
93.515625
21
2.500000
31
0.0
0
LINE
8
RIVERS
10
93.515625
20
2.500000
30
0.0
11
93.828125
21
3.046875
31
0.0
0
LINE
8
RIVERS
10
93.828125
20
3.046875
30
0.0
11
93.437500
21
3.828125
31
0.0
0
LINE
8
RIVERS
10
93.437500
20
3.828125
30
0.0
11
95.156250
21
6.250000
31
0.0
0
LINE
8
RIVERS
10
95.156250
20
6.250000
30
0.0
11
96.328125
21
6.718750
31
0.0
0
LINE
8
RIVERS
10
96.328125
20
6.718750
30
0.0
11
96.562500
21
5.156250
31
0.0
0
LINE
8
RIVERS
10
96.562500
20
5.156250
30
0.0
11
97.265625
21
4.609375
31
0.0
0
LINE
8
RIVERS
10
97.343750
20
0.000000
30
0.0
11
96.171875
21
1.875000
31
0.0
0
LINE
8
RIVERS
10
96.171875
20
1.875000
30
0.0
11
97.031250
21
2.812500
31
0.0
0
LINE
8
RIVERS
10
87.500000
20
1.640625
30
0.0
11
87.656250
21
2.734375
31
0.0
0
LINE
8
RIVERS
10
87.656250
20
2.734375
30
0.0
11
87.109375
21
2.890625
31
0.0
0
LINE
8
RIVERS
10
87.109375
20
2.890625
30
0.0
11
86.953125
21
3.750000
31
0.0
0
LINE
8
RIVERS
10
86.953125
20
3.750000
30
0.0
11
88.125000
21
4.921875
31
0.0
0
LINE
8
RIVERS
10
88.125000
20
4.921875
30
0.0
11
88.281250
21
5.937500
31
0.0
0
LINE
8
RIVERS
10
88.281250
20
5.937500
30
0.0
11
88.984375
21
5.781250
31
0.0
0
LINE
8
RIVERS
10
88.984375
20
5.781250
30
0.0
11
89.843750
21
6.640625
31
0.0
0
LINE
8
RIVERS
10
89.843750
20
6.640625
30
0.0
11
90.781250
21
6.875000
31
0.0
0
LINE
8
RIVERS
10
83.046875
20
3.515625
30
0.0
11
83.984375
21
4.218750
31
0.0
0
LINE
8
RIVERS
10
78.984375
20
3.984375
30
0.0
11
78.750000
21
4.921875
31
0.0
0
LINE
8
RIVERS
10
78.750000
20
4.921875
30
0.0
11
78.906250
21
6.015625
31
0.0
0
LINE
8
RIVERS
10
78.906250
20
6.015625
30
0.0
11
78.671875
21
7.031250
31
0.0
0
LINE
8
RIVERS
10
78.671875
20
7.031250
30
0.0
11
79.687500
21
7.812500
31
0.0
0
LINE
8
RIVERS
10
79.687500
20
7.812500
30
0.0
11
79.921875
21
8.437500
31
0.0
0
LINE
8
RIVERS
10
79.921875
20
8.437500
30
0.0
11
81.093750
21
8.984375
31
0.0
0
LINE
8
RIVERS
10
81.093750
20
8.984375
30
0.0
11
82.031250
21
9.843750
31
0.0
0
LINE
8
RIVERS
10
82.031250
20
9.843750
30
0.0
11
82.500000
21
10.859375
31
0.0
0
LINE
8
RIVERS
10
82.500000
20
10.859375
30
0.0
11
82.187500
21
11.328125
31
0.0
0
LINE
8
RIVERS
10
82.187500
20
11.328125
30
0.0
11
82.968750
21
12.656250
31
0.0
0
LINE
8
RIVERS
10
82.968750
20
12.656250
30
0.0
11
82.968750
21
14.218750
31
0.0
0
LINE
8
RIVERS
10
82.968750
20
14.218750
30
0.0
11
84.843750
21
14.296875
31
0.0
0
LINE
8
RIVERS
10
84.843750
20
14.296875
30
0.0
11
85.468750
21
13.828125
31
0.0
0
LINE
8
RIVERS
10
85.468750
20
13.828125
30
0.0
11
87.734375
21
14.375000
31
0.0
0
LINE
8
RIVERS
10
87.734375
20
14.375000
30
0.0
11
90.390625
21
15.859375
31
0.0
0
LINE
8
RIVERS
10
90.390625
20
15.859375
30
0.0
11
91.562500
21
16.875000
31
0.0
0
LINE
8
RIVERS
10
91.562500
20
16.875000
30
0.0
11
92.500000
21
17.031250
31
0.0
0
LINE
8
RIVERS
10
92.500000
20
17.031250
30
0.0
11
94.375000
21
18.671875
31
0.0
0
LINE
8
RIVERS
10
87.500000
20
4.687500
30
0.0
11
88.046875
21
7.109375
31
0.0
0
LINE
8
RIVERS
10
88.046875
20
7.109375
30
0.0
11
88.593750
21
7.187500
31
0.0
0
LINE
8
RIVERS
10
88.593750
20
7.187500
30
0.0
11
88.671875
21
8.281250
31
0.0
0
LINE
8
RIVERS
10
88.671875
20
8.281250
30
0.0
11
91.093750
21
10.625000
31
0.0
0
LINE
8
RIVERS
10
91.093750
20
10.625000
30
0.0
11
91.171875
21
11.171875
31
0.0
0
LINE
8
RIVERS
10
91.171875
20
11.171875
30
0.0
11
92.109375
21
12.187500
31
0.0
0
LINE
8
RIVERS
10
92.109375
20
12.187500
30
0.0
11
92.890625
21
11.875000
31
0.0
0
LINE
8
RIVERS
10
92.890625
20
11.875000
30
0.0
11
94.765625
21
12.343750
31
0.0
0
LINE
8
RIVERS
10
94.765625
20
12.343750
30
0.0
11
97.578125
21
13.359375
31
0.0
0
LINE
8
RIVERS
10
97.578125
20
13.359375
30
0.0
11
98.281250
21
13.125000
31
0.0
0
LINE
8
RIVERS
10
96.796875
20
6.640625
30
0.0
11
97.968750
21
6.562500
31
0.0
0
LINE
8
RIVERS
10
97.968750
20
6.562500
30
0.0
11
99.062500
21
7.031250
31
0.0
0
LINE
8
RIVERS
10
96.406250
20
6.718750
30
0.0
11
96.015625
21
6.875000
31
0.0
0
LINE
8
RIVERS
10
96.015625
20
6.875000
30
0.0
11
96.406250
21
7.890625
31
0.0
0
LINE
8
RIVERS
10
96.406250
20
7.890625
30
0.0
11
97.343750
21
9.140625
31
0.0
0
LINE
8
RIVERS
10
97.343750
20
9.140625
30
0.0
11
99.921875
21
10.312500
31
0.0
0
LINE
8
RIVERS
10
78.671875
20
7.109375
30
0.0
11
78.906250
21
9.609375
31
0.0
0
LINE
8
RIVERS
10
78.906250
20
9.609375
30
0.0
11
78.046875
21
10.156250
31
0.0
0
LINE
8
RIVERS
10
68.750000
20
9.375000
30
0.0
11
68.906250
21
10.625000
31
0.0
0
LINE
8
RIVERS
10
68.906250
20
10.625000
30
0.0
11
69.218750
21
10.546875
31
0.0
0
LINE
8
RIVERS
10
69.218750
20
10.546875
30
0.0
11
70.781250
21
12.109375
31
0.0
0
LINE
8
RIVERS
10
70.781250
20
12.109375
30
0.0
11
71.484375
21
13.125000
31
0.0
0
LINE
8
RIVERS
10
71.484375
20
13.125000
30
0.0
11
72.265625
21
13.437500
31
0.0
0
LINE
8
RIVERS
10
72.265625
20
13.437500
30
0.0
11
73.046875
21
14.843750
31
0.0
0
LINE
8
RIVERS
10
73.046875
20
14.843750
30
0.0
11
73.906250
21
15.078125
31
0.0
0
LINE
8
RIVERS
10
73.906250
20
15.078125
30
0.0
11
74.296875
21
15.937500
31
0.0
0
LINE
8
RIVERS
10
74.296875
20
15.937500
30
0.0
11
73.906250
21
16.953125
31
0.0
0
LINE
8
RIVERS
10
73.906250
20
16.953125
30
0.0
11
75.312500
21
17.500000
31
0.0
0
LINE
8
RIVERS
10
75.312500
20
17.500000
30
0.0
11
76.015625
21
18.125000
31
0.0
0
LINE
8
RIVERS
10
76.015625
20
18.125000
30
0.0
11
77.578125
21
18.203125
31
0.0
0
LINE
8
RIVERS
10
77.578125
20
18.203125
30
0.0
11
78.359375
21
17.968750
31
0.0
0
LINE
8
RIVERS
10
78.359375
20
17.968750
30
0.0
11
79.453125
21
18.437500
31
0.0
0
LINE
8
RIVERS
10
79.453125
20
18.437500
30
0.0
11
79.531250
21
17.109375
31
0.0
0
LINE
8
RIVERS
10
79.531250
20
17.109375
30
0.0
11
78.828125
21
15.546875
31
0.0
0
LINE
8
RIVERS
10
68.046875
20
9.843750
30
0.0
11
68.125000
21
11.718750
31
0.0
0
LINE
8
RIVERS
10
68.125000
20
11.718750
30
0.0
11
69.140625
21
12.812500
31
0.0
0
LINE
8
RIVERS
10
69.140625
20
12.812500
30
0.0
11
68.984375
21
14.140625
31
0.0
0
LINE
8
RIVERS
10
68.984375
20
14.140625
30
0.0
11
68.515625
21
14.687500
31
0.0
0
LINE
8
RIVERS
10
68.515625
20
14.687500
30
0.0
11
69.296875
21
15.546875
31
0.0
0
LINE
8
RIVERS
10
69.296875
20
15.546875
30
0.0
11
71.250000
21
16.171875
31
0.0
0
LINE
8
RIVERS
10
71.250000
20
16.171875
30
0.0
11
71.171875
21
16.953125
31
0.0
0
LINE
8
RIVERS
10
71.171875
20
16.953125
30
0.0
11
69.921875
21
18.203125
31
0.0
0
LINE
8
RIVERS
10
69.921875
20
18.203125
30
0.0
11
67.109375
21
18.593750
31
0.0
0
LINE
8
RIVERS
10
67.109375
20
18.593750
30
0.0
11
66.562500
21
18.203125
31
0.0
0
LINE
8
RIVERS
10
66.562500
20
18.203125
30
0.0
11
65.390625
21
18.437500
31
0.0
0
LINE
8
RIVERS
10
65.390625
20
18.437500
30
0.0
11
65.000000
21
17.734375
31
0.0
0
LINE
8
RIVERS
10
65.000000
20
17.734375
30
0.0
11
62.265625
21
17.968750
31
0.0
0
LINE
8
RIVERS
10
62.265625
20
17.968750
30
0.0
11
60.937500
21
17.265625
31
0.0
0
LINE
8
RIVERS
10
60.937500
20
17.265625
30
0.0
11
61.171875
21
16.250000
31
0.0
0
LINE
8
RIVERS
10
61.171875
20
16.250000
30
0.0
11
60.781250
21
16.171875
31
0.0
0
LINE
8
RIVERS
10
77.109375
20
11.250000
30
0.0
11
77.109375
21
12.109375
31
0.0
0
LINE
8
RIVERS
10
96.718750
20
13.203125
30
0.0
11
96.640625
21
14.843750
31
0.0
0
LINE
8
RIVERS
10
83.671875
20
14.765625
30
0.0
11
83.046875
21
16.171875
31
0.0
0
LINE
8
RIVERS
10
83.046875
20
16.171875
30
0.0
11
82.968750
21
17.031250
31
0.0
0
LINE
8
RIVERS
10
82.968750
20
17.031250
30
0.0
11
85.000000
21
18.828125
31
0.0
0
LINE
8
RIVERS
10
73.437500
20
15.000000
30
0.0
11
73.984375
21
15.312500
31
0.0
0
LINE
8
RIVERS
10
60.859375
20
17.187500
30
0.0
11
59.375000
21
19.453125
31
0.0
0
LINE
8
RIVERS
10
99.921875
20
18.437500
30
0.0
11
98.906250
21
19.609375
31
0.0
0
LINE
8
RIVERS
10
98.906250
20
19.609375
30
0.0
11
98.437500
21
19.609375
31
0.0
0
LINE
8
RIVERS
10
98.437500
20
19.609375
30
0.0
11
96.953125
21
21.250000
31
0.0
0
LINE
8
RIVERS
10
96.953125
20
21.250000
30
0.0
11
96.562500
21
22.500000
31
0.0
0
LINE
8
RIVERS
10
96.562500
20
22.500000
30
0.0
11
96.015625
21
22.578125
31
0.0
0
LINE
8
RIVERS
10
96.015625
20
22.578125
30
0.0
11
94.296875
21
25.156250
31
0.0
0
LINE
8
RIVERS
10
94.296875
20
25.156250
30
0.0
11
94.218750
21
26.093750
31
0.0
0
LINE
8
RIVERS
10
94.218750
20
26.093750
30
0.0
11
93.046875
21
26.875000
31
0.0
0
LINE
8
RIVERS
10
93.046875
20
26.875000
30
0.0
11
91.015625
21
26.718750
31
0.0
0
LINE
8
RIVERS
10
91.015625
20
26.718750
30
0.0
11
87.343750
21
26.796875
31
0.0
0
LINE
8
RIVERS
10
87.343750
20
26.796875
30
0.0
11
86.953125
21
27.187500
31
0.0
0
LINE
8
RIVERS
10
86.953125
20
27.187500
30
0.0
11
85.312500
21
27.265625
31
0.0
0
LINE
8
RIVERS
10
85.312500
20
27.265625
30
0.0
11
83.906250
21
28.906250
31
0.0
0
LINE
8
RIVERS
10
83.906250
20
28.906250
30
0.0
11
83.125000
21
29.375000
31
0.0
0
LINE
8
RIVERS
10
83.125000
20
29.375000
30
0.0
11
81.640625
21
28.671875
31
0.0
0
LINE
8
RIVERS
10
81.640625
20
28.671875
30
0.0
11
80.781250
21
29.921875
31
0.0
0
LINE
8
RIVERS
10
80.781250
20
29.921875
30
0.0
11
79.687500
21
30.390625
31
0.0
0
LINE
8
RIVERS
10
79.687500
20
30.390625
30
0.0
11
79.140625
21
31.171875
31
0.0
0
LINE
8
RIVERS
10
79.140625
20
31.171875
30
0.0
11
77.031250
21
29.921875
31
0.0
0
LINE
8
RIVERS
10
77.031250
20
29.921875
30
0.0
11
77.343750
21
30.625000
31
0.0
0
LINE
8
RIVERS
10
77.343750
20
30.625000
30
0.0
11
78.125000
21
30.781250
31
0.0
0
LINE
8
RIVERS
10
78.125000
20
30.781250
30
0.0
11
77.968750
21
32.109375
31
0.0
0
LINE
8
RIVERS
10
77.968750
20
32.109375
30
0.0
11
77.265625
21
32.500000
31
0.0
0
LINE
8
RIVERS
10
77.265625
20
32.500000
30
0.0
11
75.703125
21
34.453125
31
0.0
0
LINE
8
RIVERS
10
75.703125
20
34.453125
30
0.0
11
74.765625
21
34.921875
31
0.0
0
LINE
8
RIVERS
10
74.765625
20
34.921875
30
0.0
11
74.921875
21
36.015625
31
0.0
0
LINE
8
RIVERS
10
74.921875
20
36.015625
30
0.0
11
76.171875
21
36.640625
31
0.0
0
LINE
8
RIVERS
10
76.171875
20
36.640625
30
0.0
11
77.578125
21
36.015625
31
0.0
0
LINE
8
RIVERS
10
77.578125
20
36.015625
30
0.0
11
78.437500
21
36.171875
31
0.0
0
LINE
8
RIVERS
10
78.437500
20
36.171875
30
0.0
11
81.093750
21
35.937500
31
0.0
0
LINE
8
RIVERS
10
81.093750
20
35.937500
30
0.0
11
83.593750
21
35.156250
31
0.0
0
LINE
8
RIVERS
10
83.593750
20
35.156250
30
0.0
11
84.140625
21
34.609375
31
0.0
0
LINE
8
RIVERS
10
84.140625
20
34.609375
30
0.0
11
85.390625
21
34.453125
31
0.0
0
LINE
8
RIVERS
10
85.390625
20
34.453125
30
0.0
11
86.718750
21
32.734375
31
0.0
0
LINE
8
RIVERS
10
86.718750
20
32.734375
30
0.0
11
87.109375
21
32.656250
31
0.0
0
LINE
8
RIVERS
10
80.078125
20
19.531250
30
0.0
11
79.531250
21
18.515625
31
0.0
0
LINE
8
RIVERS
10
80.078125
20
19.609375
30
0.0
11
80.312500
21
20.312500
31
0.0
0
LINE
8
RIVERS
10
80.312500
20
20.312500
30
0.0
11
81.484375
21
20.703125
31
0.0
0
LINE
8
RIVERS
10
74.531250
20
19.687500
30
0.0
11
75.703125
21
19.843750
31
0.0
0
LINE
8
RIVERS
10
75.703125
20
19.843750
30
0.0
11
76.796875
21
20.468750
31
0.0
0
LINE
8
RIVERS
10
56.328125
20
19.843750
30
0.0
11
56.875000
21
20.312500
31
0.0
0
LINE
8
RIVERS
10
56.875000
20
20.312500
30
0.0
11
57.265625
21
22.187500
31
0.0
0
LINE
8
RIVERS
10
57.265625
20
22.187500
30
0.0
11
57.812500
21
22.812500
31
0.0
0
LINE
8
RIVERS
10
57.812500
20
22.812500
30
0.0
11
57.265625
21
24.218750
31
0.0
0
LINE
8
RIVERS
10
57.265625
20
24.218750
30
0.0
11
58.437500
21
24.687500
31
0.0
0
LINE
8
RIVERS
10
58.437500
20
24.687500
30
0.0
11
58.515625
21
25.468750
31
0.0
0
LINE
8
RIVERS
10
58.515625
20
25.468750
30
0.0
11
59.218750
21
26.953125
31
0.0
0
LINE
8
RIVERS
10
59.218750
20
26.953125
30
0.0
11
59.921875
21
26.796875
31
0.0
0
LINE
8
RIVERS
10
59.921875
20
26.796875
30
0.0
11
60.468750
21
27.500000
31
0.0
0
LINE
8
RIVERS
10
60.468750
20
27.500000
30
0.0
11
61.875000
21
27.578125
31
0.0
0
LINE
8
RIVERS
10
61.875000
20
27.578125
30
0.0
11
62.890625
21
28.046875
31
0.0
0
LINE
8
RIVERS
10
62.890625
20
28.046875
30
0.0
11
63.359375
21
29.218750
31
0.0
0
LINE
8
RIVERS
10
63.359375
20
29.218750
30
0.0
11
64.921875
21
29.843750
31
0.0
0
LINE
8
RIVERS
10
64.921875
20
29.843750
30
0.0
11
65.546875
21
30.468750
31
0.0
0
LINE
8
RIVERS
10
65.546875
20
30.468750
30
0.0
11
66.250000
21
30.468750
31
0.0
0
LINE
8
RIVERS
10
66.250000
20
30.468750
30
0.0
11
67.421875
21
29.843750
31
0.0
0
LINE
8
RIVERS
10
67.421875
20
29.843750
30
0.0
11
69.375000
21
27.656250
31
0.0
0
LINE
8
RIVERS
10
69.375000
20
27.656250
30
0.0
11
70.781250
21
27.968750
31
0.0
0
LINE
8
RIVERS
10
70.781250
20
27.968750
30
0.0
11
71.796875
21
28.984375
31
0.0
0
LINE
8
RIVERS
10
71.796875
20
28.984375
30
0.0
11
72.656250
21
29.375000
31
0.0
0
LINE
8
RIVERS
10
72.656250
20
29.375000
30
0.0
11
74.375000
21
28.906250
31
0.0
0
LINE
8
RIVERS
10
74.375000
20
28.906250
30
0.0
11
74.843750
21
29.453125
31
0.0
0
LINE
8
RIVERS
10
74.843750
20
29.453125
30
0.0
11
76.093750
21
29.843750
31
0.0
0
LINE
8
RIVERS
10
76.093750
20
29.843750
30
0.0
11
76.640625
21
28.125000
31
0.0
0
LINE
8
RIVERS
10
72.187500
20
20.000000
30
0.0
11
74.453125
21
19.687500
31
0.0
0
LINE
8
RIVERS
10
71.640625
20
20.312500
30
0.0
11
70.703125
21
20.937500
31
0.0
0
LINE
8
RIVERS
10
70.703125
20
20.937500
30
0.0
11
69.921875
21
22.578125
31
0.0
0
LINE
8
RIVERS
10
69.921875
20
22.578125
30
0.0
11
68.125000
21
23.125000
31
0.0
0
LINE
8
RIVERS
10
68.125000
20
23.125000
30
0.0
11
66.953125
21
23.828125
31
0.0
0
LINE
8
RIVERS
10
66.953125
20
23.828125
30
0.0
11
66.250000
21
23.906250
31
0.0
0
LINE
8
RIVERS
10
66.250000
20
23.906250
30
0.0
11
64.921875
21
24.843750
31
0.0
0
LINE
8
RIVERS
10
64.921875
20
24.843750
30
0.0
11
64.843750
21
25.546875
31
0.0
0
LINE
8
RIVERS
10
64.843750
20
25.546875
30
0.0
11
63.281250
21
27.265625
31
0.0
0
LINE
8
RIVERS
10
63.281250
20
27.265625
30
0.0
11
62.968750
21
27.968750
31
0.0
0
LINE
8
RIVERS
10
57.187500
20
22.109375
30
0.0
11
56.875000
21
22.578125
31
0.0
0
LINE
8
RIVERS
10
56.875000
20
22.578125
30
0.0
11
57.187500
21
23.906250
31
0.0
0
LINE
8
RIVERS
10
89.765625
20
22.656250
30
0.0
11
90.312500
21
22.656250
31
0.0
0
LINE
8
RIVERS
10
89.296875
20
22.968750
30
0.0
11
88.671875
21
23.828125
31
0.0
0
LINE
8
RIVERS
10
88.671875
20
23.828125
30
0.0
11
86.796875
21
24.687500
31
0.0
0
LINE
8
RIVERS
10
86.796875
20
24.687500
30
0.0
11
84.921875
21
24.687500
31
0.0
0
LINE
8
RIVERS
10
84.921875
20
24.687500
30
0.0
11
84.062500
21
25.000000
31
0.0
0
LINE
8
RIVERS
10
84.062500
20
25.000000
30
0.0
11
82.890625
21
26.796875
31
0.0
0
LINE
8
RIVERS
10
82.890625
20
26.796875
30
0.0
11
83.125000
21
27.343750
31
0.0
0
LINE
8
RIVERS
10
83.125000
20
27.343750
30
0.0
11
81.953125
21
28.437500
31
0.0
0
LINE
8
RIVERS
10
78.125000
20
23.281250
30
0.0
11
78.593750
21
24.062500
31
0.0
0
LINE
8
RIVERS
10
78.593750
20
24.062500
30
0.0
11
78.671875
21
25.234375
31
0.0
0
LINE
8
RIVERS
10
78.671875
20
25.234375
30
0.0
11
78.281250
21
25.937500
31
0.0
0
LINE
8
RIVERS
10
78.281250
20
25.937500
30
0.0
11
78.125000
21
27.578125
31
0.0
0
LINE
8
RIVERS
10
78.125000
20
27.578125
30
0.0
11
78.906250
21
29.062500
31
0.0
0
LINE
8
RIVERS
10
78.906250
20
29.062500
30
0.0
11
79.531250
21
29.531250
31
0.0
0
LINE
8
RIVERS
10
79.531250
20
29.531250
30
0.0
11
79.609375
21
30.390625
31
0.0
0
LINE
8
RIVERS
10
49.140625
20
24.765625
30
0.0
11
50.156250
21
25.546875
31
0.0
0
LINE
8
RIVERS
10
50.156250
20
25.546875
30
0.0
11
52.031250
21
25.390625
31
0.0
0
LINE
8
RIVERS
10
52.031250
20
25.390625
30
0.0
11
52.109375
21
26.953125
31
0.0
0
LINE
8
RIVERS
10
52.109375
20
26.953125
30
0.0
11
52.500000
21
28.437500
31
0.0
0
LINE
8
RIVERS
10
52.500000
20
28.437500
30
0.0
11
53.750000
21
28.515625
31
0.0
0
LINE
8
RIVERS
10
53.750000
20
28.515625
30
0.0
11
53.593750
21
30.000000
31
0.0
0
LINE
8
RIVERS
10
53.593750
20
30.000000
30
0.0
11
54.843750
21
29.453125
31
0.0
0
LINE
8
RIVERS
10
54.843750
20
29.453125
30
0.0
11
55.546875
21
30.000000
31
0.0
0
LINE
8
RIVERS
10
55.546875
20
30.000000
30
0.0
11
57.031250
21
30.546875
31
0.0
0
LINE
8
RIVERS
10
57.031250
20
30.546875
30
0.0
11
58.437500
21
33.203125
31
0.0
0
LINE
8
RIVERS
10
58.437500
20
33.203125
30
0.0
11
58.125000
21
33.515625
31
0.0
0
LINE
8
RIVERS
10
58.125000
20
33.515625
30
0.0
11
58.828125
21
34.296875
31
0.0
0
LINE
8
RIVERS
10
58.828125
20
34.296875
30
0.0
11
60.312500
21
35.078125
31
0.0
0
LINE
8
RIVERS
10
60.312500
20
35.078125
30
0.0
11
60.859375
21
35.859375
31
0.0
0
LINE
8
RIVERS
10
60.859375
20
35.859375
30
0.0
11
61.875000
21
36.171875
31
0.0
0
LINE
8
RIVERS
10
61.875000
20
36.171875
30
0.0
11
62.968750
21
37.812500
31
0.0
0
LINE
8
RIVERS
10
62.968750
20
37.812500
30
0.0
11
64.453125
21
38.359375
31
0.0
0
LINE
8
RIVERS
10
64.453125
20
38.359375
30
0.0
11
65.234375
21
38.125000
31
0.0
0
LINE
8
RIVERS
10
65.234375
20
38.125000
30
0.0
11
66.093750
21
37.343750
31
0.0
0
LINE
8
RIVERS
10
48.828125
20
25.234375
30
0.0
11
48.593750
21
26.953125
31
0.0
0
LINE
8
RIVERS
10
48.593750
20
26.953125
30
0.0
11
49.296875
21
26.953125
31
0.0
0
LINE
8
RIVERS
10
49.296875
20
26.953125
30
0.0
11
49.140625
21
27.656250
31
0.0
0
LINE
8
RIVERS
10
49.140625
20
27.656250
30
0.0
11
49.687500
21
28.125000
31
0.0
0
LINE
8
RIVERS
10
49.687500
20
28.125000
30
0.0
11
49.453125
21
28.750000
31
0.0
0
LINE
8
RIVERS
10
49.453125
20
28.750000
30
0.0
11
50.312500
21
28.906250
31
0.0
0
LINE
8
RIVERS
10
50.312500
20
28.906250
30
0.0
11
50.078125
21
29.375000
31
0.0
0
LINE
8
RIVERS
10
50.078125
20
29.375000
30
0.0
11
50.468750
21
30.312500
31
0.0
0
LINE
8
RIVERS
10
50.468750
20
30.312500
30
0.0
11
51.640625
21
31.484375
31
0.0
0
LINE
8
RIVERS
10
51.640625
20
31.484375
30
0.0
11
51.796875
21
32.421875
31
0.0
0
LINE
8
RIVERS
10
51.796875
20
32.421875
30
0.0
11
52.890625
21
33.671875
31
0.0
0
LINE
8
RIVERS
10
52.890625
20
33.671875
30
0.0
11
52.812500
21
35.937500
31
0.0
0
LINE
8
RIVERS
10
52.812500
20
35.937500
30
0.0
11
52.968750
21
36.718750
31
0.0
0
LINE
8
RIVERS
10
52.968750
20
36.718750
30
0.0
11
54.531250
21
37.031250
31
0.0
0
LINE
8
RIVERS
10
54.531250
20
37.031250
30
0.0
11
55.546875
21
35.156250
31
0.0
0
LINE
8
RIVERS
10
55.546875
20
35.156250
30
0.0
11
55.781250
21
33.750000
31
0.0
0
LINE
8
RIVERS
10
55.781250
20
33.750000
30
0.0
11
55.390625
21
33.046875
31
0.0
0
LINE
8
RIVERS
10
48.203125
20
25.781250
30
0.0
11
47.578125
21
26.718750
31
0.0
0
LINE
8
RIVERS
10
47.578125
20
26.718750
30
0.0
11
47.734375
21
27.656250
31
0.0
0
LINE
8
RIVERS
10
47.734375
20
27.656250
30
0.0
11
48.750000
21
28.359375
31
0.0
0
LINE
8
RIVERS
10
48.750000
20
28.359375
30
0.0
11
47.890625
21
29.765625
31
0.0
0
LINE
8
RIVERS
10
75.234375
20
29.687500
30
0.0
11
76.015625
21
30.078125
31
0.0
0
LINE
8
RIVERS
10
91.640625
20
31.093750
30
0.0
11
92.421875
21
30.625000
31
0.0
0
LINE
8
RIVERS
10
91.562500
20
31.171875
30
0.0
11
91.171875
21
31.562500
31
0.0
0
LINE
8
RIVERS
10
91.171875
20
31.562500
30
0.0
11
91.250000
21
33.437500
31
0.0
0
LINE
8
RIVERS
10
91.250000
20
33.437500
30
0.0
11
90.781250
21
34.609375
31
0.0
0
LINE
8
RIVERS
10
90.781250
20
34.609375
30
0.0
11
89.375000
21
35.390625
31
0.0
0
LINE
8
RIVERS
10
89.375000
20
35.390625
30
0.0
11
89.453125
21
34.453125
31
0.0
0
LINE
8
RIVERS
10
89.453125
20
34.453125
30
0.0
11
88.359375
21
32.031250
31
0.0
0
LINE
8
RIVERS
10
88.359375
20
32.031250
30
0.0
11
88.437500
21
31.093750
31
0.0
0
LINE
8
RIVERS
10
42.031250
20
31.484375
30
0.0
11
43.125000
21
32.890625
31
0.0
0
LINE
8
RIVERS
10
43.125000
20
32.890625
30
0.0
11
43.515625
21
32.656250
31
0.0
0
LINE
8
RIVERS
10
43.515625
20
32.656250
30
0.0
11
44.453125
21
33.671875
31
0.0
0
LINE
8
RIVERS
10
44.453125
20
33.671875
30
0.0
11
43.671875
21
34.218750
31
0.0
0
LINE
8
RIVERS
10
43.671875
20
34.218750
30
0.0
11
45.703125
21
35.312500
31
0.0
0
LINE
8
RIVERS
10
45.703125
20
35.312500
30
0.0
11
46.484375
21
35.156250
31
0.0
0
LINE
8
RIVERS
10
46.484375
20
35.156250
30
0.0
11
46.640625
21
35.781250
31
0.0
0
LINE
8
RIVERS
10
46.640625
20
35.781250
30
0.0
11
47.500000
21
35.546875
31
0.0
0
LINE
8
RIVERS
10
47.500000
20
35.546875
30
0.0
11
46.640625
21
38.750000
31
0.0
0
LINE
8
RIVERS
10
46.640625
20
38.750000
30
0.0
11
45.625000
21
39.609375
31
0.0
0
LINE
8
RIVERS
10
45.625000
20
39.609375
30
0.0
11
43.515625
21
41.796875
31
0.0
0
LINE
8
RIVERS
10
43.515625
20
41.796875
30
0.0
11
43.437500
21
42.343750
31
0.0
0
LINE
8
RIVERS
10
43.437500
20
42.343750
30
0.0
11
45.546875
21
42.109375
31
0.0
0
LINE
8
RIVERS
10
45.546875
20
42.109375
30
0.0
11
46.796875
21
43.125000
31
0.0
0
LINE
8
RIVERS
10
46.796875
20
43.125000
30
0.0
11
48.359375
21
42.890625
31
0.0
0
LINE
8
RIVERS
10
48.359375
20
42.890625
30
0.0
11
49.296875
21
43.281250
31
0.0
0
LINE
8
RIVERS
10
49.296875
20
43.281250
30
0.0
11
50.000000
21
45.390625
31
0.0
0
LINE
8
RIVERS
10
50.000000
20
45.390625
30
0.0
11
49.531250
21
45.859375
31
0.0
0
LINE
8
RIVERS
10
35.312500
20
32.656250
30
0.0
11
35.468750
21
33.750000
31
0.0
0
LINE
8
RIVERS
10
35.468750
20
33.750000
30
0.0
11
36.718750
21
34.296875
31
0.0
0
LINE
8
RIVERS
10
36.718750
20
34.296875
30
0.0
11
37.656250
21
35.078125
31
0.0
0
LINE
8
RIVERS
10
37.656250
20
35.078125
30
0.0
11
38.593750
21
36.640625
31
0.0
0
LINE
8
RIVERS
10
38.593750
20
36.640625
30
0.0
11
38.203125
21
37.734375
31
0.0
0
LINE
8
RIVERS
10
38.203125
20
37.734375
30
0.0
11
38.437500
21
38.203125
31
0.0
0
LINE
8
RIVERS
10
38.437500
20
38.203125
30
0.0
11
38.281250
21
39.687500
31
0.0
0
LINE
8
RIVERS
10
38.281250
20
39.687500
30
0.0
11
38.593750
21
40.468750
31
0.0
0
LINE
8
RIVERS
10
38.593750
20
40.468750
30
0.0
11
37.656250
21
42.656250
31
0.0
0
LINE
8
RIVERS
10
37.656250
20
42.656250
30
0.0
11
38.125000
21
43.750000
31
0.0
0
LINE
8
RIVERS
10
38.125000
20
43.750000
30
0.0
11
38.046875
21
44.453125
31
0.0
0
LINE
8
RIVERS
10
38.046875
20
44.453125
30
0.0
11
36.796875
21
45.859375
31
0.0
0
LINE
8
RIVERS
10
36.796875
20
45.859375
30
0.0
11
37.109375
21
47.187500
31
0.0
0
LINE
8
RIVERS
10
37.109375
20
47.187500
30
0.0
11
36.328125
21
48.203125
31
0.0
0
LINE
8
RIVERS
10
36.328125
20
48.203125
30
0.0
11
36.328125
21
49.140625
31
0.0
0
LINE
8
RIVERS
10
36.328125
20
49.140625
30
0.0
11
35.625000
21
49.843750
31
0.0
0
LINE
8
RIVERS
10
35.625000
20
49.843750
30
0.0
11
34.921875
21
51.796875
31
0.0
0
LINE
8
RIVERS
10
34.921875
20
51.796875
30
0.0
11
33.437500
21
52.343750
31
0.0
0
LINE
8
RIVERS
10
33.437500
20
52.343750
30
0.0
11
32.343750
21
53.828125
31
0.0
0
LINE
8
RIVERS
10
32.343750
20
53.828125
30
0.0
11
31.953125
21
55.078125
31
0.0
0
LINE
8
RIVERS
10
31.953125
20
55.078125
30
0.0
11
30.234375
21
56.953125
31
0.0
0
LINE
8
RIVERS
10
30.234375
20
56.953125
30
0.0
11
29.765625
21
58.046875
31
0.0
0
LINE
8
RIVERS
10
29.765625
20
58.046875
30
0.0
11
28.828125
21
58.671875
31
0.0
0
LINE
8
RIVERS
10
28.828125
20
58.671875
30
0.0
11
28.671875
21
59.218750
31
0.0
0
LINE
8
RIVERS
10
28.671875
20
59.218750
30
0.0
11
27.890625
21
59.375000
31
0.0
0
LINE
8
RIVERS
10
27.890625
20
59.375000
30
0.0
11
27.031250
21
61.093750
31
0.0
0
LINE
8
RIVERS
10
27.031250
20
61.093750
30
0.0
11
26.171875
21
61.093750
31
0.0
0
LINE
8
RIVERS
10
26.171875
20
61.093750
30
0.0
11
25.312500
21
61.562500
31
0.0
0
LINE
8
RIVERS
10
25.312500
20
61.562500
30
0.0
11
24.531250
21
62.812500
31
0.0
0
LINE
8
RIVERS
10
24.531250
20
62.812500
30
0.0
11
24.609375
21
63.828125
31
0.0
0
LINE
8
RIVERS
10
24.609375
20
63.828125
30
0.0
11
26.093750
21
66.015625
31
0.0
0
LINE
8
RIVERS
10
26.093750
20
66.015625
30
0.0
11
27.578125
21
64.843750
31
0.0
0
LINE
8
RIVERS
10
27.578125
20
64.843750
30
0.0
11
28.750000
21
64.375000
31
0.0
0
LINE
8
RIVERS
10
28.750000
20
64.375000
30
0.0
11
29.765625
21
65.312500
31
0.0
0
LINE
8
RIVERS
10
29.765625
20
65.312500
30
0.0
11
30.859375
21
65.234375
31
0.0
0
LINE
8
RIVERS
10
30.859375
20
65.234375
30
0.0
11
32.031250
21
65.781250
31
0.0
0
LINE
8
RIVERS
10
99.921875
20
33.046875
30
0.0
11
99.531250
21
33.281250
31
0.0
0
LINE
8
RIVERS
10
99.531250
20
33.281250
30
0.0
11
96.562500
21
33.750000
31
0.0
0
LINE
8
RIVERS
10
74.375000
20
35.078125
30
0.0
11
72.890625
21
35.156250
31
0.0
0
LINE
8
RIVERS
10
72.890625
20
35.156250
30
0.0
11
72.187500
21
35.859375
31
0.0
0
LINE
8
RIVERS
10
72.187500
20
35.859375
30
0.0
11
69.765625
21
36.250000
31
0.0
0
LINE
8
RIVERS
10
69.765625
20
36.250000
30
0.0
11
68.515625
21
35.859375
31
0.0
0
LINE
8
RIVERS
10
68.515625
20
35.859375
30
0.0
11
66.640625
21
36.484375
31
0.0
0
LINE
8
RIVERS
10
66.640625
20
36.484375
30
0.0
11
66.171875
21
35.625000
31
0.0
0
LINE
8
RIVERS
10
18.281250
20
35.156250
30
0.0
11
19.921875
21
35.625000
31
0.0
0
LINE
8
RIVERS
10
19.921875
20
35.625000
30
0.0
11
20.859375
21
36.328125
31
0.0
0
LINE
8
RIVERS
10
18.671875
20
35.390625
30
0.0
11
19.453125
21
36.328125
31
0.0
0
LINE
8
RIVERS
10
19.453125
20
36.328125
30
0.0
11
19.140625
21
37.421875
31
0.0
0
LINE
8
RIVERS
10
19.140625
20
37.421875
30
0.0
11
20.468750
21
38.359375
31
0.0
0
LINE
8
RIVERS
10
20.468750
20
38.359375
30
0.0
11
21.250000
21
38.437500
31
0.0
0
LINE
8
RIVERS
10
21.250000
20
38.437500
30
0.0
11
21.250000
21
37.343750
31
0.0
0
LINE
8
RIVERS
10
21.250000
20
37.343750
30
0.0
11
22.656250
21
37.890625
31
0.0
0
LINE
8
RIVERS
10
22.656250
20
37.890625
30
0.0
11
22.187500
21
38.437500
31
0.0
0
LINE
8
RIVERS
10
22.187500
20
38.437500
30
0.0
11
23.750000
21
38.828125
31
0.0
0
LINE
8
RIVERS
10
23.750000
20
38.828125
30
0.0
11
24.296875
21
39.453125
31
0.0
0
LINE
8
RIVERS
10
24.296875
20
39.453125
30
0.0
11
27.109375
21
40.156250
31
0.0
0
LINE
8
RIVERS
10
27.109375
20
40.156250
30
0.0
11
28.437500
21
42.734375
31
0.0
0
LINE
8
RIVERS
10
28.437500
20
42.734375
30
0.0
11
29.140625
21
43.203125
31
0.0
0
LINE
8
RIVERS
10
29.140625
20
43.203125
30
0.0
11
28.984375
21
45.156250
31
0.0
0
LINE
8
RIVERS
10
28.984375
20
45.156250
30
0.0
11
29.296875
21
46.640625
31
0.0
0
LINE
8
RIVERS
10
29.296875
20
46.640625
30
0.0
11
29.843750
21
47.500000
31
0.0
0
LINE
8
RIVERS
10
52.578125
20
35.625000
30
0.0
11
51.875000
21
36.718750
31
0.0
0
LINE
8
RIVERS
10
51.875000
20
36.718750
30
0.0
11
50.625000
21
37.187500
31
0.0
0
LINE
8
RIVERS
10
50.625000
20
37.187500
30
0.0
11
51.250000
21
38.984375
31
0.0
0
LINE
8
RIVERS
10
51.250000
20
38.984375
30
0.0
11
50.625000
21
39.453125
31
0.0
0
LINE
8
RIVERS
10
50.625000
20
39.453125
30
0.0
11
50.859375
21
41.953125
31
0.0
0
LINE
8
RIVERS
10
50.859375
20
41.953125
30
0.0
11
51.328125
21
42.421875
31
0.0
0
LINE
8
RIVERS
10
51.328125
20
42.421875
30
0.0
11
52.656250
21
42.265625
31
0.0
0
LINE
8
RIVERS
10
52.656250
20
42.265625
30
0.0
11
53.906250
21
43.203125
31
0.0
0
LINE
8
RIVERS
10
53.906250
20
43.203125
30
0.0
11
53.515625
21
43.593750
31
0.0
0
LINE
8
RIVERS
10
89.453125
20
35.625000
30
0.0
11
89.140625
21
37.656250
31
0.0
0
LINE
8
RIVERS
10
89.140625
20
37.656250
30
0.0
11
88.203125
21
39.140625
31
0.0
0
LINE
8
RIVERS
10
88.203125
20
39.140625
30
0.0
11
87.421875
21
41.015625
31
0.0
0
LINE
8
RIVERS
10
87.421875
20
41.015625
30
0.0
11
85.625000
21
42.734375
31
0.0
0
LINE
8
RIVERS
10
85.625000
20
42.734375
30
0.0
11
85.312500
21
43.828125
31
0.0
0
LINE
8
RIVERS
10
79.687500
20
36.015625
30
0.0
11
80.937500
21
36.015625
31
0.0
0
LINE
8
RIVERS
10
76.171875
20
36.718750
30
0.0
11
75.859375
21
37.109375
31
0.0
0
LINE
8
RIVERS
10
75.859375
20
37.109375
30
0.0
11
76.328125
21
38.906250
31
0.0
0
LINE
8
RIVERS
10
76.328125
20
38.906250
30
0.0
11
75.390625
21
39.531250
31
0.0
0
LINE
8
RIVERS
10
75.390625
20
39.531250
30
0.0
11
74.765625
21
40.859375
31
0.0
0
LINE
8
RIVERS
10
54.453125
20
37.109375
30
0.0
11
55.312500
21
38.515625
31
0.0
0
LINE
8
RIVERS
10
55.312500
20
38.515625
30
0.0
11
54.531250
21
39.609375
31
0.0
0
LINE
8
RIVERS
10
38.203125
20
37.187500
30
0.0
11
37.265625
21
37.578125
31
0.0
0
LINE
8
RIVERS
10
37.265625
20
37.578125
30
0.0
11
36.718750
21
38.281250
31
0.0
0
LINE
8
RIVERS
10
36.718750
20
38.281250
30
0.0
11
33.671875
21
40.000000
31
0.0
0
LINE
8
RIVERS
10
33.671875
20
40.000000
30
0.0
11
31.875000
21
41.640625
31
0.0
0
LINE
8
RIVERS
10
31.875000
20
41.640625
30
0.0
11
30.859375
21
42.109375
31
0.0
0
LINE
8
RIVERS
10
30.859375
20
42.109375
30
0.0
11
30.546875
21
42.656250
31
0.0
0
LINE
8
RIVERS
10
30.546875
20
42.656250
30
0.0
11
30.937500
21
43.671875
31
0.0
0
LINE
8
RIVERS
10
62.500000
20
37.265625
30
0.0
11
61.093750
21
37.890625
31
0.0
0
LINE
8
RIVERS
10
61.093750
20
37.890625
30
0.0
11
59.375000
21
39.140625
31
0.0
0
LINE
8
RIVERS
10
59.375000
20
39.140625
30
0.0
11
58.203125
21
39.531250
31
0.0
0
LINE
8
RIVERS
10
58.203125
20
39.531250
30
0.0
11
56.406250
21
41.093750
31
0.0
0
LINE
8
RIVERS
10
56.406250
20
41.093750
30
0.0
11
55.000000
21
41.328125
31
0.0
0
LINE
8
RIVERS
10
18.906250
20
37.890625
30
0.0
11
17.734375
21
38.515625
31
0.0
0
LINE
8
RIVERS
10
24.687500
20
39.609375
30
0.0
11
25.234375
21
40.781250
31
0.0
0
LINE
8
RIVERS
10
25.234375
20
40.781250
30
0.0
11
25.703125
21
40.703125
31
0.0
0
LINE
8
RIVERS
10
25.703125
20
40.703125
30
0.0
11
26.093750
21
41.562500
31
0.0
0
LINE
8
RIVERS
10
26.093750
20
41.562500
30
0.0
11
27.812500
21
42.734375
31
0.0
0
LINE
8
RIVERS
10
27.812500
20
42.734375
30
0.0
11
27.109375
21
44.375000
31
0.0
0
LINE
8
RIVERS
10
27.109375
20
44.375000
30
0.0
11
25.781250
21
45.312500
31
0.0
0
LINE
8
RIVERS
10
25.781250
20
45.312500
30
0.0
11
23.984375
21
47.031250
31
0.0
0
LINE
8
RIVERS
10
23.984375
20
47.031250
30
0.0
11
23.281250
21
47.031250
31
0.0
0
LINE
8
RIVERS
10
23.281250
20
47.031250
30
0.0
11
22.265625
21
48.515625
31
0.0
0
LINE
8
RIVERS
10
22.265625
20
48.515625
30
0.0
11
21.718750
21
48.828125
31
0.0
0
LINE
8
RIVERS
10
21.718750
20
48.828125
30
0.0
11
21.328125
21
50.312500
31
0.0
0
LINE
8
RIVERS
10
21.328125
20
50.312500
30
0.0
11
21.093750
21
52.421875
31
0.0
0
LINE
8
RIVERS
10
21.093750
20
52.421875
30
0.0
11
19.218750
21
54.218750
31
0.0
0
LINE
8
RIVERS
10
19.218750
20
54.218750
30
0.0
11
19.296875
21
57.031250
31
0.0
0
LINE
8
RIVERS
10
19.296875
20
57.031250
30
0.0
11
18.906250
21
57.421875
31
0.0
0
LINE
8
RIVERS
10
18.906250
20
57.421875
30
0.0
11
18.984375
21
59.843750
31
0.0
0
LINE
8
RIVERS
10
80.781250
20
39.843750
30
0.0
11
80.781250
21
40.625000
31
0.0
0
LINE
8
RIVERS
10
80.781250
20
40.625000
30
0.0
11
80.234375
21
41.328125
31
0.0
0
LINE
8
RIVERS
10
80.234375
20
41.328125
30
0.0
11
79.921875
21
42.812500
31
0.0
0
LINE
8
RIVERS
10
79.921875
20
42.812500
30
0.0
11
78.046875
21
43.750000
31
0.0
0
LINE
8
RIVERS
10
78.046875
20
43.750000
30
0.0
11
75.312500
21
43.984375
31
0.0
0
LINE
8
RIVERS
10
75.312500
20
43.984375
30
0.0
11
74.453125
21
43.203125
31
0.0
0
LINE
8
RIVERS
10
74.453125
20
43.203125
30
0.0
11
73.515625
21
43.125000
31
0.0
0
LINE
8
RIVERS
10
73.515625
20
43.125000
30
0.0
11
73.671875
21
42.265625
31
0.0
0
LINE
8
RIVERS
10
73.671875
20
42.265625
30
0.0
11
72.968750
21
41.796875
31
0.0
0
LINE
8
RIVERS
10
72.968750
20
41.796875
30
0.0
11
72.343750
21
40.312500
31
0.0
0
LINE
8
RIVERS
10
15.625000
20
40.000000
30
0.0
11
16.406250
21
40.390625
31
0.0
0
LINE
8
RIVERS
10
16.406250
20
40.390625
30
0.0
11
17.500000
21
42.500000
31
0.0
0
LINE
8
RIVERS
10
17.500000
20
42.500000
30
0.0
11
18.593750
21
42.968750
31
0.0
0
LINE
8
RIVERS
10
18.593750
20
42.968750
30
0.0
11
19.843750
21
42.968750
31
0.0
0
LINE
8
RIVERS
10
19.843750
20
42.968750
30
0.0
11
21.875000
21
43.750000
31
0.0
0
LINE
8
RIVERS
10
79.687500
20
40.546875
30
0.0
11
80.234375
21
41.171875
31
0.0
0
LINE
8
RIVERS
10
92.734375
20
40.781250
30
0.0
11
91.875000
21
42.265625
31
0.0
0
LINE
8
RIVERS
10
91.875000
20
42.265625
30
0.0
11
91.796875
21
43.046875
31
0.0
0
LINE
8
RIVERS
10
91.796875
20
43.046875
30
0.0
11
90.703125
21
44.921875
31
0.0
0
LINE
8
RIVERS
10
90.703125
20
44.921875
30
0.0
11
90.000000
21
50.000000
31
0.0
0
LINE
8
RIVERS
10
90.000000
20
50.000000
30
0.0
11
89.687500
21
50.859375
31
0.0
0
LINE
8
RIVERS
10
89.687500
20
50.859375
30
0.0
11
88.671875
21
52.343750
31
0.0
0
LINE
8
RIVERS
10
88.671875
20
52.343750
30
0.0
11
89.062500
21
53.593750
31
0.0
0
LINE
8
RIVERS
10
89.062500
20
53.593750
30
0.0
11
88.515625
21
54.296875
31
0.0
0
LINE
8
RIVERS
10
88.515625
20
54.296875
30
0.0
11
88.984375
21
54.531250
31
0.0
0
LINE
8
RIVERS
10
88.984375
20
54.531250
30
0.0
11
88.593750
21
55.703125
31
0.0
0
LINE
8
RIVERS
10
88.593750
20
55.703125
30
0.0
11
88.750000
21
56.718750
31
0.0
0
LINE
8
RIVERS
10
88.750000
20
56.718750
30
0.0
11
89.687500
21
58.437500
31
0.0
0
LINE
8
RIVERS
10
89.687500
20
58.437500
30
0.0
11
89.062500
21
59.062500
31
0.0
0
LINE
8
RIVERS
10
89.062500
20
59.062500
30
0.0
11
89.765625
21
59.843750
31
0.0
0
LINE
8
RIVERS
10
89.765625
20
59.843750
30
0.0
11
90.312500
21
61.796875
31
0.0
0
LINE
8
RIVERS
10
90.312500
20
61.796875
30
0.0
11
92.187500
21
63.828125
31
0.0
0
LINE
8
RIVERS
10
92.187500
20
63.828125
30
0.0
11
93.125000
21
64.218750
31
0.0
0
LINE
8
RIVERS
10
93.125000
20
64.218750
30
0.0
11
93.281250
21
65.859375
31
0.0
0
LINE
8
RIVERS
10
93.281250
20
65.859375
30
0.0
11
93.984375
21
66.562500
31
0.0
0
LINE
8
RIVERS
10
93.984375
20
66.562500
30
0.0
11
94.140625
21
68.437500
31
0.0
0
LINE
8
RIVERS
10
94.140625
20
68.437500
30
0.0
11
94.687500
21
68.515625
31
0.0
0
LINE
8
RIVERS
10
94.687500
20
68.515625
30
0.0
11
95.000000
21
65.703125
31
0.0
0
LINE
8
RIVERS
10
95.000000
20
65.703125
30
0.0
11
94.843750
21
64.531250
31
0.0
0
LINE
8
RIVERS
10
94.843750
20
64.531250
30
0.0
11
96.640625
21
62.656250
31
0.0
0
LINE
8
RIVERS
10
96.640625
20
62.656250
30
0.0
11
97.265625
21
60.625000
31
0.0
0
LINE
8
RIVERS
10
97.265625
20
60.625000
30
0.0
11
96.953125
21
58.203125
31
0.0
0
LINE
8
RIVERS
10
96.953125
20
58.203125
30
0.0
11
97.343750
21
56.328125
31
0.0
0
LINE
8
RIVERS
10
97.343750
20
56.328125
30
0.0
11
96.796875
21
55.781250
31
0.0
0
LINE
8
RIVERS
10
63.437500
20
42.343750
30
0.0
11
64.218750
21
42.734375
31
0.0
0
LINE
8
RIVERS
10
64.218750
20
42.734375
30
0.0
11
67.578125
21
42.734375
31
0.0
0
LINE
8
RIVERS
10
67.578125
20
42.734375
30
0.0
11
68.828125
21
43.359375
31
0.0
0
LINE
8
RIVERS
10
68.828125
20
43.359375
30
0.0
11
69.140625
21
43.906250
31
0.0
0
LINE
8
RIVERS
10
69.140625
20
43.906250
30
0.0
11
68.984375
21
45.468750
31
0.0
0
LINE
8
RIVERS
10
68.984375
20
45.468750
30
0.0
11
69.453125
21
45.859375
31
0.0
0
LINE
8
RIVERS
10
69.453125
20
45.859375
30
0.0
11
70.703125
21
45.625000
31
0.0
0
LINE
8
RIVERS
10
70.703125
20
45.625000
30
0.0
11
71.406250
21
44.765625
31
0.0
0
LINE
8
RIVERS
10
71.406250
20
44.765625
30
0.0
11
72.109375
21
44.765625
31
0.0
0
LINE
8
RIVERS
10
72.109375
20
44.765625
30
0.0
11
73.281250
21
43.906250
31
0.0
0
LINE
8
RIVERS
10
73.281250
20
43.906250
30
0.0
11
73.515625
21
43.203125
31
0.0
0
LINE
8
RIVERS
10
43.515625
20
42.421875
30
0.0
11
43.203125
21
43.828125
31
0.0
0
LINE
8
RIVERS
10
43.203125
20
43.828125
30
0.0
11
41.875000
21
45.078125
31
0.0
0
LINE
8
RIVERS
10
41.875000
20
45.078125
30
0.0
11
41.328125
21
46.328125
31
0.0
0
LINE
8
RIVERS
10
41.328125
20
46.328125
30
0.0
11
42.187500
21
47.890625
31
0.0
0
LINE
8
RIVERS
10
42.187500
20
47.890625
30
0.0
11
42.968750
21
47.968750
31
0.0
0
LINE
8
RIVERS
10
42.968750
20
47.968750
30
0.0
11
44.062500
21
48.828125
31
0.0
0
LINE
8
RIVERS
10
44.062500
20
48.828125
30
0.0
11
44.609375
21
48.828125
31
0.0
0
LINE
8
RIVERS
10
44.609375
20
48.828125
30
0.0
11
45.468750
21
47.734375
31
0.0
0
LINE
8
RIVERS
10
45.468750
20
47.734375
30
0.0
11
47.187500
21
48.203125
31
0.0
0
LINE
8
RIVERS
10
57.890625
20
42.734375
30
0.0
11
58.593750
21
43.125000
31
0.0
0
LINE
8
RIVERS
10
58.593750
20
43.125000
30
0.0
11
59.375000
21
42.890625
31
0.0
0
LINE
8
RIVERS
10
59.375000
20
42.890625
30
0.0
11
61.562500
21
44.140625
31
0.0
0
LINE
8
RIVERS
10
61.562500
20
44.140625
30
0.0
11
62.421875
21
46.406250
31
0.0
0
LINE
8
RIVERS
10
62.421875
20
46.406250
30
0.0
11
62.421875
21
47.187500
31
0.0
0
LINE
8
RIVERS
10
62.421875
20
47.187500
30
0.0
11
63.828125
21
48.515625
31
0.0
0
LINE
8
RIVERS
10
63.828125
20
48.515625
30
0.0
11
66.250000
21
48.906250
31
0.0
0
LINE
8
RIVERS
10
66.250000
20
48.906250
30
0.0
11
67.734375
21
48.828125
31
0.0
0
LINE
8
RIVERS
10
67.734375
20
48.828125
30
0.0
11
69.453125
21
47.343750
31
0.0
0
LINE
8
RIVERS
10
69.453125
20
47.343750
30
0.0
11
69.531250
21
45.937500
31
0.0
0
LINE
8
RIVERS
10
65.781250
20
44.140625
30
0.0
11
66.562500
21
44.218750
31
0.0
0
LINE
8
RIVERS
10
66.562500
20
44.218750
30
0.0
11
67.343750
21
44.921875
31
0.0
0
LINE
8
RIVERS
10
67.343750
20
44.921875
30
0.0
11
68.828125
21
45.156250
31
0.0
0
LINE
8
RIVERS
10
58.281250
20
44.296875
30
0.0
11
59.296875
21
46.015625
31
0.0
0
LINE
8
RIVERS
10
59.296875
20
46.015625
30
0.0
11
59.218750
21
46.953125
31
0.0
0
LINE
8
RIVERS
10
59.218750
20
46.953125
30
0.0
11
59.765625
21
47.343750
31
0.0
0
LINE
8
RIVERS
10
59.765625
20
47.343750
30
0.0
11
61.562500
21
47.500000
31
0.0
0
LINE
8
RIVERS
10
61.562500
20
47.500000
30
0.0
11
62.421875
21
47.343750
31
0.0
0
LINE
8
RIVERS
10
84.531250
20
44.765625
30
0.0
11
84.062500
21
47.343750
31
0.0
0
LINE
8
RIVERS
10
84.062500
20
47.343750
30
0.0
11
83.046875
21
47.890625
31
0.0
0
LINE
8
RIVERS
10
83.046875
20
47.890625
30
0.0
11
82.734375
21
49.062500
31
0.0
0
LINE
8
RIVERS
10
82.734375
20
49.062500
30
0.0
11
81.875000
21
49.765625
31
0.0
0
LINE
8
RIVERS
10
23.125000
20
44.843750
30
0.0
11
23.359375
21
45.234375
31
0.0
0
LINE
8
RIVERS
10
12.734375
20
45.078125
30
0.0
11
13.203125
21
45.703125
31
0.0
0
LINE
8
RIVERS
10
13.203125
20
45.703125
30
0.0
11
15.234375
21
46.171875
31
0.0
0
LINE
8
RIVERS
10
15.234375
20
46.171875
30
0.0
11
15.859375
21
46.875000
31
0.0
0
LINE
8
RIVERS
10
15.859375
20
46.875000
30
0.0
11
17.187500
21
46.796875
31
0.0
0
LINE
8
RIVERS
10
17.187500
20
46.796875
30
0.0
11
18.281250
21
46.015625
31
0.0
0
LINE
8
RIVERS
10
55.078125
20
45.234375
30
0.0
11
55.781250
21
45.625000
31
0.0
0
LINE
8
RIVERS
10
55.781250
20
45.625000
30
0.0
11
56.015625
21
46.796875
31
0.0
0
LINE
8
RIVERS
10
56.015625
20
46.796875
30
0.0
11
56.953125
21
47.890625
31
0.0
0
LINE
8
RIVERS
10
56.953125
20
47.890625
30
0.0
11
57.578125
21
49.062500
31
0.0
0
LINE
8
RIVERS
10
57.578125
20
49.062500
30
0.0
11
57.109375
21
50.078125
31
0.0
0
LINE
8
RIVERS
10
57.109375
20
50.078125
30
0.0
11
55.625000
21
50.859375
31
0.0
0
LINE
8
RIVERS
10
55.625000
20
50.859375
30
0.0
11
55.937500
21
51.875000
31
0.0
0
LINE
8
RIVERS
10
55.937500
20
51.875000
30
0.0
11
57.031250
21
51.875000
31
0.0
0
LINE
8
RIVERS
10
57.031250
20
51.875000
30
0.0
11
58.515625
21
53.046875
31
0.0
0
LINE
8
RIVERS
10
58.515625
20
53.046875
30
0.0
11
61.953125
21
53.750000
31
0.0
0
LINE
8
RIVERS
10
61.953125
20
53.750000
30
0.0
11
62.500000
21
53.515625
31
0.0
0
LINE
8
RIVERS
10
62.500000
20
53.515625
30
0.0
11
63.750000
21
54.218750
31
0.0
0
LINE
8
RIVERS
10
63.750000
20
54.218750
30
0.0
11
64.609375
21
54.375000
31
0.0
0
LINE
8
RIVERS
10
64.609375
20
54.375000
30
0.0
11
66.015625
21
52.890625
31
0.0
0
LINE
8
RIVERS
10
66.015625
20
52.890625
30
0.0
11
66.093750
21
52.265625
31
0.0
0
LINE
8
RIVERS
10
66.093750
20
52.265625
30
0.0
11
67.031250
21
51.562500
31
0.0
0
LINE
8
RIVERS
10
67.031250
20
51.562500
30
0.0
11
67.421875
21
49.531250
31
0.0
0
LINE
8
RIVERS
10
67.421875
20
49.531250
30
0.0
11
67.968750
21
49.218750
31
0.0
0
LINE
8
RIVERS
10
67.968750
20
49.218750
30
0.0
11
67.187500
21
50.546875
31
0.0
0
LINE
8
RIVERS
10
54.375000
20
45.312500
30
0.0
11
55.000000
21
45.234375
31
0.0
0
LINE
8
RIVERS
10
8.437500
20
47.578125
30
0.0
11
10.078125
21
48.046875
31
0.0
0
LINE
8
RIVERS
10
10.078125
20
48.046875
30
0.0
11
10.625000
21
48.593750
31
0.0
0
LINE
8
RIVERS
10
10.625000
20
48.593750
30
0.0
11
12.812500
21
48.515625
31
0.0
0
LINE
8
RIVERS
10
12.812500
20
48.515625
30
0.0
11
13.593750
21
47.968750
31
0.0
0
LINE
8
RIVERS
10
13.593750
20
47.968750
30
0.0
11
15.312500
21
47.968750
31
0.0
0
LINE
8
RIVERS
10
15.312500
20
47.968750
30
0.0
11
17.031250
21
48.671875
31
0.0
0
LINE
8
RIVERS
10
17.031250
20
48.671875
30
0.0
11
19.687500
21
48.984375
31
0.0
0
LINE
8
RIVERS
10
19.687500
20
48.984375
30
0.0
11
19.218750
21
50.000000
31
0.0
0
LINE
8
RIVERS
10
19.218750
20
50.000000
30
0.0
11
17.578125
21
51.718750
31
0.0
0
LINE
8
RIVERS
10
17.578125
20
51.718750
30
0.0
11
17.187500
21
51.875000
31
0.0
0
LINE
8
RIVERS
10
41.718750
20
47.578125
30
0.0
11
41.171875
21
49.062500
31
0.0
0
LINE
8
RIVERS
10
41.171875
20
49.062500
30
0.0
11
41.250000
21
50.703125
31
0.0
0
LINE
8
RIVERS
10
41.250000
20
50.703125
30
0.0
11
41.640625
21
51.562500
31
0.0
0
LINE
8
RIVERS
10
41.640625
20
51.562500
30
0.0
11
42.656250
21
51.718750
31
0.0
0
LINE
8
RIVERS
10
42.656250
20
51.718750
30
0.0
11
42.890625
21
51.328125
31
0.0
0
LINE
8
RIVERS
10
32.968750
20
48.281250
30
0.0
11
33.750000
21
49.296875
31
0.0
0
LINE
8
RIVERS
10
33.750000
20
49.296875
30
0.0
11
34.531250
21
49.296875
31
0.0
0
LINE
8
RIVERS
10
34.531250
20
49.296875
30
0.0
11
35.546875
21
49.843750
31
0.0
0
LINE
8
RIVERS
10
11.718750
20
48.750000
30
0.0
11
12.109375
21
49.140625
31
0.0
0
LINE
8
RIVERS
10
12.109375
20
49.140625
30
0.0
11
13.281250
21
52.890625
31
0.0
0
LINE
8
RIVERS
10
44.687500
20
48.828125
30
0.0
11
46.015625
21
50.156250
31
0.0
0
LINE
8
RIVERS
10
52.734375
20
48.906250
30
0.0
11
53.203125
21
50.312500
31
0.0
0
LINE
8
RIVERS
10
53.203125
20
50.312500
30
0.0
11
54.140625
21
51.171875
31
0.0
0
LINE
8
RIVERS
10
54.140625
20
51.171875
30
0.0
11
54.453125
21
52.265625
31
0.0
0
LINE
8
RIVERS
10
54.453125
20
52.265625
30
0.0
11
55.234375
21
52.578125
31
0.0
0
LINE
8
RIVERS
10
55.234375
20
52.578125
30
0.0
11
55.859375
21
51.953125
31
0.0
0
LINE
8
RIVERS
10
59.453125
20
49.531250
30
0.0
11
60.000000
21
49.921875
31
0.0
0
LINE
8
RIVERS
10
60.000000
20
49.921875
30
0.0
11
62.031250
21
50.234375
31
0.0
0
LINE
8
RIVERS
10
62.031250
20
50.234375
30
0.0
11
63.750000
21
51.484375
31
0.0
0
LINE
8
RIVERS
10
63.750000
20
51.484375
30
0.0
11
65.156250
21
51.484375
31
0.0
0
LINE
8
RIVERS
10
65.156250
20
51.484375
30
0.0
11
66.015625
21
52.265625
31
0.0
0
LINE
8
RIVERS
10
5.390625
20
50.468750
30
0.0
11
6.015625
21
51.562500
31
0.0
0
LINE
8
RIVERS
10
6.015625
20
51.562500
30
0.0
11
7.187500
21
50.781250
31
0.0
0
LINE
8
RIVERS
10
7.187500
20
50.781250
30
0.0
11
8.359375
21
50.781250
31
0.0
0
LINE
8
RIVERS
10
8.359375
20
50.781250
30
0.0
11
8.906250
21
51.640625
31
0.0
0
LINE
8
RIVERS
10
8.906250
20
51.640625
30
0.0
11
10.546875
21
51.484375
31
0.0
0
LINE
8
RIVERS
10
49.609375
20
50.859375
30
0.0
11
48.906250
21
51.718750
31
0.0
0
LINE
8
RIVERS
10
48.906250
20
51.718750
30
0.0
11
48.906250
21
52.578125
31
0.0
0
LINE
8
RIVERS
10
48.906250
20
52.578125
30
0.0
11
47.968750
21
53.828125
31
0.0
0
LINE
8
RIVERS
10
47.968750
20
53.828125
30
0.0
11
47.109375
21
52.812500
31
0.0
0
LINE
8
RIVERS
10
41.562500
20
51.406250
30
0.0
11
41.718750
21
53.046875
31
0.0
0
LINE
8
RIVERS
10
41.718750
20
53.046875
30
0.0
11
43.046875
21
55.234375
31
0.0
0
LINE
8
RIVERS
10
43.046875
20
55.234375
30
0.0
11
44.453125
21
55.078125
31
0.0
0
LINE
8
RIVERS
10
34.687500
20
52.031250
30
0.0
11
34.609375
21
53.046875
31
0.0
0
LINE
8
RIVERS
10
34.609375
20
53.046875
30
0.0
11
35.625000
21
53.593750
31
0.0
0
LINE
8
RIVERS
10
35.625000
20
53.593750
30
0.0
11
37.734375
21
53.515625
31
0.0
0
LINE
8
RIVERS
10
37.734375
20
53.515625
30
0.0
11
38.046875
21
55.078125
31
0.0
0
LINE
8
RIVERS
10
38.046875
20
55.078125
30
0.0
11
37.421875
21
55.937500
31
0.0
0
LINE
8
RIVERS
10
37.421875
20
55.937500
30
0.0
11
36.093750
21
57.109375
31
0.0
0
LINE
8
RIVERS
10
36.093750
20
57.109375
30
0.0
11
36.250000
21
58.437500
31
0.0
0
LINE
8
RIVERS
10
36.250000
20
58.437500
30
0.0
11
36.015625
21
59.609375
31
0.0
0
LINE
8
RIVERS
10
36.015625
20
59.609375
30
0.0
11
35.156250
21
61.093750
31
0.0
0
LINE
8
RIVERS
10
35.156250
20
61.093750
30
0.0
11
33.828125
21
61.953125
31
0.0
0
LINE
8
RIVERS
10
33.828125
20
61.953125
30
0.0
11
33.671875
21
62.734375
31
0.0
0
LINE
8
RIVERS
10
33.671875
20
62.734375
30
0.0
11
34.296875
21
63.359375
31
0.0
0
LINE
8
RIVERS
10
34.296875
20
63.359375
30
0.0
11
35.859375
21
63.359375
31
0.0
0
LINE
8
RIVERS
10
2.890625
20
52.500000
30
0.0
11
3.046875
21
53.203125
31
0.0
0
LINE
8
RIVERS
10
3.046875
20
53.203125
30
0.0
11
3.750000
21
52.968750
31
0.0
0
LINE
8
RIVERS
10
3.750000
20
52.968750
30
0.0
11
5.937500
21
52.812500
31
0.0
0
LINE
8
RIVERS
10
5.937500
20
52.812500
30
0.0
11
6.250000
21
52.500000
31
0.0
0
LINE
8
RIVERS
10
6.250000
20
52.500000
30
0.0
11
7.265625
21
53.203125
31
0.0
0
LINE
8
RIVERS
10
80.156250
20
52.578125
30
0.0
11
81.015625
21
52.734375
31
0.0
0
LINE
8
RIVERS
10
81.015625
20
52.734375
30
0.0
11
80.390625
21
53.906250
31
0.0
0
LINE
8
RIVERS
10
80.390625
20
53.906250
30
0.0
11
79.531250
21
56.875000
31
0.0
0
LINE
8
RIVERS
10
79.531250
20
56.875000
30
0.0
11
79.062500
21
57.500000
31
0.0
0
LINE
8
RIVERS
10
79.062500
20
57.500000
30
0.0
11
77.968750
21
59.921875
31
0.0
0
LINE
8
RIVERS
10
77.968750
20
59.921875
30
0.0
11
76.953125
21
63.281250
31
0.0
0
LINE
8
RIVERS
10
76.953125
20
63.281250
30
0.0
11
75.390625
21
65.546875
31
0.0
0
LINE
8
RIVERS
10
75.390625
20
65.546875
30
0.0
11
76.484375
21
66.093750
31
0.0
0
LINE
8
RIVERS
10
76.484375
20
66.093750
30
0.0
11
76.718750
21
67.656250
31
0.0
0
LINE
8
RIVERS
10
76.718750
20
67.656250
30
0.0
11
78.750000
21
66.718750
31
0.0
0
LINE
8
RIVERS
10
78.750000
20
66.718750
30
0.0
11
79.140625
21
66.093750
31
0.0
0
LINE
8
RIVERS
10
79.140625
20
66.093750
30
0.0
11
80.000000
21
65.937500
31
0.0
0
LINE
8
RIVERS
10
80.000000
20
65.937500
30
0.0
11
81.640625
21
64.296875
31
0.0
0
LINE
8
RIVERS
10
81.640625
20
64.296875
30
0.0
11
82.343750
21
64.140625
31
0.0
0
LINE
8
RIVERS
10
82.343750
20
64.140625
30
0.0
11
83.281250
21
61.562500
31
0.0
0
LINE
8
RIVERS
10
83.281250
20
61.562500
30
0.0
11
84.296875
21
60.078125
31
0.0
0
LINE
8
RIVERS
10
84.296875
20
60.078125
30
0.0
11
85.078125
21
57.968750
31
0.0
0
LINE
8
RIVERS
10
85.078125
20
57.968750
30
0.0
11
85.781250
21
55.000000
31
0.0
0
LINE
8
RIVERS
10
54.843750
20
52.734375
30
0.0
11
54.062500
21
53.828125
31
0.0
0
LINE
8
RIVERS
10
54.062500
20
53.828125
30
0.0
11
52.031250
21
54.531250
31
0.0
0
LINE
8
RIVERS
10
52.031250
20
54.531250
30
0.0
11
51.484375
21
55.156250
31
0.0
0
LINE
8
RIVERS
10
51.484375
20
55.156250
30
0.0
11
49.765625
21
55.625000
31
0.0
0
LINE
8
RIVERS
10
49.765625
20
55.625000
30
0.0
11
49.531250
21
55.156250
31
0.0
0
LINE
8
RIVERS
10
49.531250
20
55.156250
30
0.0
11
48.203125
21
54.687500
31
0.0
0
LINE
8
RIVERS
10
48.203125
20
54.687500
30
0.0
11
47.890625
21
54.062500
31
0.0
0
LINE
8
RIVERS
10
47.890625
20
54.062500
30
0.0
11
47.500000
21
54.921875
31
0.0
0
LINE
8
RIVERS
10
47.500000
20
54.921875
30
0.0
11
46.796875
21
55.078125
31
0.0
0
LINE
8
RIVERS
10
46.796875
20
55.078125
30
0.0
11
46.718750
21
56.328125
31
0.0
0
LINE
8
RIVERS
10
46.718750
20
56.328125
30
0.0
11
46.015625
21
56.484375
31
0.0
0
LINE
8
RIVERS
10
9.921875
20
53.828125
30
0.0
11
9.296875
21
54.921875
31
0.0
0
LINE
8
RIVERS
10
9.296875
20
54.921875
30
0.0
11
9.296875
21
56.171875
31
0.0
0
LINE
8
RIVERS
10
9.296875
20
56.171875
30
0.0
11
8.359375
21
56.953125
31
0.0
0
LINE
8
RIVERS
10
8.359375
20
56.953125
30
0.0
11
5.468750
21
57.109375
31
0.0
0
LINE
8
RIVERS
10
5.468750
20
57.109375
30
0.0
11
4.531250
21
56.718750
31
0.0
0
LINE
8
RIVERS
10
4.531250
20
56.718750
30
0.0
11
3.984375
21
57.109375
31
0.0
0
LINE
8
RIVERS
10
3.984375
20
57.109375
30
0.0
11
4.375000
21
57.812500
31
0.0
0
LINE
8
RIVERS
10
4.375000
20
57.812500
30
0.0
11
5.312500
21
58.046875
31
0.0
0
LINE
8
RIVERS
10
42.343750
20
54.140625
30
0.0
11
42.109375
21
56.562500
31
0.0
0
LINE
8
RIVERS
10
42.109375
20
56.562500
30
0.0
11
42.500000
21
56.796875
31
0.0
0
LINE
8
RIVERS
10
42.500000
20
56.796875
30
0.0
11
44.609375
21
57.031250
31
0.0
0
LINE
8
RIVERS
10
64.609375
20
54.453125
30
0.0
11
64.921875
21
56.015625
31
0.0
0
LINE
8
RIVERS
10
64.921875
20
56.015625
30
0.0
11
64.218750
21
56.562500
31
0.0
0
LINE
8
RIVERS
10
64.218750
20
56.562500
30
0.0
11
64.531250
21
57.890625
31
0.0
0
LINE
8
RIVERS
10
16.015625
20
55.468750
30
0.0
11
15.625000
21
56.718750
31
0.0
0
LINE
8
RIVERS
10
15.625000
20
56.718750
30
0.0
11
15.000000
21
57.421875
31
0.0
0
LINE
8
RIVERS
10
15.000000
20
57.421875
30
0.0
11
15.000000
21
58.125000
31
0.0
0
LINE
8
RIVERS
10
15.000000
20
58.125000
30
0.0
11
14.218750
21
58.437500
31
0.0
0
LINE
8
RIVERS
10
14.218750
20
58.437500
30
0.0
11
15.234375
21
58.750000
31
0.0
0
LINE
8
RIVERS
10
15.234375
20
58.750000
30
0.0
11
15.390625
21
60.781250
31
0.0
0
LINE
8
RIVERS
10
15.390625
20
60.781250
30
0.0
11
15.781250
21
61.250000
31
0.0
0
LINE
8
RIVERS
10
42.031250
20
56.562500
30
0.0
11
41.015625
21
58.046875
31
0.0
0
LINE
8
RIVERS
10
41.015625
20
58.046875
30
0.0
11
40.312500
21
58.437500
31
0.0
0
LINE
8
RIVERS
10
40.312500
20
58.437500
30
0.0
11
40.078125
21
59.296875
31
0.0
0
LINE
8
RIVERS
10
40.078125
20
59.296875
30
0.0
11
39.062500
21
60.781250
31
0.0
0
LINE
8
RIVERS
10
39.062500
20
60.781250
30
0.0
11
39.062500
21
61.328125
31
0.0
0
LINE
8
RIVERS
10
11.562500
20
57.109375
30
0.0
11
14.140625
21
58.437500
31
0.0
0
LINE
8
RIVERS
10
41.640625
20
57.109375
30
0.0
11
41.796875
21
57.500000
31
0.0
0
LINE
8
RIVERS
10
10.703125
20
57.500000
30
0.0
11
9.687500
21
58.281250
31
0.0
0
LINE
8
RIVERS
10
9.687500
20
58.281250
30
0.0
11
9.062500
21
60.000000
31
0.0
0
LINE
8
RIVERS
10
9.062500
20
60.000000
30
0.0
11
9.453125
21
60.390625
31
0.0
0
LINE
8
RIVERS
10
9.453125
20
60.390625
30
0.0
11
9.453125
21
61.953125
31
0.0
0
LINE
8
RIVERS
10
9.453125
20
61.953125
30
0.0
11
9.765625
21
62.109375
31
0.0
0
LINE
8
RIVERS
10
9.765625
20
62.109375
30
0.0
11
9.375000
21
64.453125
31
0.0
0
LINE
8
RIVERS
10
9.375000
20
64.453125
30
0.0
11
9.531250
21
65.000000
31
0.0
0
LINE
8
RIVERS
10
9.531250
20
65.000000
30
0.0
11
10.781250
21
65.390625
31
0.0
0
LINE
8
RIVERS
10
10.781250
20
65.390625
30
0.0
11
12.265625
21
65.078125
31
0.0
0
LINE
8
RIVERS
10
12.265625
20
65.078125
30
0.0
11
13.046875
21
64.296875
31
0.0
0
LINE
8
RIVERS
10
13.046875
20
64.296875
30
0.0
11
13.750000
21
64.218750
31
0.0
0
LINE
8
RIVERS
10
13.750000
20
64.218750
30
0.0
11
15.000000
21
64.765625
31
0.0
0
LINE
8
RIVERS
10
15.000000
20
64.765625
30
0.0
11
16.250000
21
64.765625
31
0.0
0
LINE
8
RIVERS
10
16.250000
20
64.765625
30
0.0
11
16.562500
21
63.984375
31
0.0
0
LINE
8
RIVERS
10
45.859375
20
59.062500
30
0.0
11
46.796875
21
59.843750
31
0.0
0
LINE
8
RIVERS
10
46.796875
20
59.843750
30
0.0
11
47.031250
21
61.093750
31
0.0
0
LINE
8
RIVERS
10
47.031250
20
61.093750
30
0.0
11
46.250000
21
61.796875
31
0.0
0
LINE
8
RIVERS
10
46.250000
20
61.796875
30
0.0
11
45.937500
21
63.359375
31
0.0
0
LINE
8
RIVERS
10
45.937500
20
63.359375
30
0.0
11
44.375000
21
65.781250
31
0.0
0
LINE
8
RIVERS
10
44.375000
20
65.781250
30
0.0
11
43.671875
21
67.890625
31
0.0
0
LINE
8
RIVERS
10
43.671875
20
67.890625
30
0.0
11
43.281250
21
69.687500
31
0.0
0
LINE
8
RIVERS
10
43.281250
20
69.687500
30
0.0
11
43.515625
21
70.937500
31
0.0
0
LINE
8
RIVERS
10
43.515625
20
70.937500
30
0.0
11
42.343750
21
71.406250
31
0.0
0
LINE
8
RIVERS
10
42.343750
20
71.406250
30
0.0
11
41.484375
21
73.046875
31
0.0
0
LINE
8
RIVERS
10
41.484375
20
73.046875
30
0.0
11
40.781250
21
72.890625
31
0.0
0
LINE
8
RIVERS
10
40.781250
20
72.890625
30
0.0
11
39.609375
21
73.515625
31
0.0
0
LINE
8
RIVERS
10
39.609375
20
73.515625
30
0.0
11
39.062500
21
73.203125
31
0.0
0
LINE
8
RIVERS
10
39.062500
20
73.203125
30
0.0
11
36.718750
21
73.125000
31
0.0
0
LINE
8
RIVERS
10
36.718750
20
73.125000
30
0.0
11
35.234375
21
71.562500
31
0.0
0
LINE
8
RIVERS
10
35.234375
20
71.562500
30
0.0
11
35.312500
21
68.515625
31
0.0
0
LINE
8
RIVERS
10
35.312500
20
68.515625
30
0.0
11
35.937500
21
65.625000
31
0.0
0
LINE
8
RIVERS
10
54.609375
20
59.765625
30
0.0
11
56.171875
21
60.390625
31
0.0
0
LINE
8
RIVERS
10
56.171875
20
60.390625
30
0.0
11
57.500000
21
60.546875
31
0.0
0
LINE
8
RIVERS
10
57.500000
20
60.546875
30
0.0
11
57.968750
21
60.937500
31
0.0
0
LINE
8
RIVERS
10
57.968750
20
60.937500
30
0.0
11
61.015625
21
61.406250
31
0.0
0
LINE
8
RIVERS
10
61.015625
20
61.406250
30
0.0
11
63.203125
21
62.421875
31
0.0
0
LINE
8
RIVERS
10
8.828125
20
61.250000
30
0.0
11
9.218750
21
61.328125
31
0.0
0
LINE
8
RIVERS
10
9.218750
20
61.328125
30
0.0
11
9.218750
21
62.656250
31
0.0
0
LINE
8
RIVERS
10
8.593750
20
61.406250
30
0.0
11
8.359375
21
62.812500
31
0.0
0
LINE
8
RIVERS
10
8.359375
20
62.812500
30
0.0
11
7.734375
21
63.750000
31
0.0
0
LINE
8
RIVERS
10
45.625000
20
61.718750
30
0.0
11
46.093750
21
62.031250
31
0.0
0
LINE
8
RIVERS
10
24.531250
20
63.593750
30
0.0
11
24.375000
21
63.984375
31
0.0
0
LINE
8
RIVERS
10
24.375000
20
63.984375
30
0.0
11
22.187500
21
63.750000
31
0.0
0
LINE
8
RIVERS
10
22.187500
20
63.750000
30
0.0
11
21.250000
21
64.765625
31
0.0
0
LINE
8
RIVERS
10
21.250000
20
64.765625
30
0.0
11
20.468750
21
65.156250
31
0.0
0
LINE
8
RIVERS
10
14.218750
20
64.609375
30
0.0
11
14.453125
21
65.859375
31
0.0
0
LINE
8
RIVERS
10
14.453125
20
65.859375
30
0.0
11
15.156250
21
66.718750
31
0.0
0
LINE
8
RIVERS
10
15.156250
20
66.718750
30
0.0
11
16.328125
21
66.953125
31
0.0
0
LINE
8
RIVERS
10
60.703125
20
64.609375
30
0.0
11
61.796875
21
64.609375
31
0.0
0
LINE
8
RIVERS
10
61.796875
20
64.609375
30
0.0
11
63.359375
21
65.000000
31
0.0
0
LINE
8
RIVERS
10
9.453125
20
64.843750
30
0.0
11
9.062500
21
67.343750
31
0.0
0
LINE
8
RIVERS
10
9.062500
20
67.343750
30
0.0
11
9.140625
21
68.203125
31
0.0
0
LINE
8
RIVERS
10
9.140625
20
68.203125
30
0.0
11
9.765625
21
67.734375
31
0.0
0
LINE
8
RIVERS
10
9.765625
20
67.734375
30
0.0
11
11.171875
21
69.062500
31
0.0
0
LINE
8
RIVERS
10
11.171875
20
69.062500
30
0.0
11
11.953125
21
70.390625
31
0.0
0
LINE
8
RIVERS
10
11.953125
20
70.390625
30
0.0
11
13.125000
21
70.937500
31
0.0
0
LINE
8
RIVERS
10
13.125000
20
70.937500
30
0.0
11
14.609375
21
70.625000
31
0.0
0
LINE
8
RIVERS
10
14.609375
20
70.625000
30
0.0
11
15.000000
21
69.062500
31
0.0
0
LINE
8
RIVERS
10
15.000000
20
69.062500
30
0.0
11
16.171875
21
68.125000
31
0.0
0
LINE
8
RIVERS
10
60.468750
20
64.921875
30
0.0
11
60.000000
21
65.078125
31
0.0
0
LINE
8
RIVERS
10
40.781250
20
65.312500
30
0.0
11
41.953125
21
65.546875
31
0.0
0
LINE
8
RIVERS
10
41.953125
20
65.546875
30
0.0
11
43.984375
21
65.546875
31
0.0
0
LINE
8
RIVERS
10
43.984375
20
65.546875
30
0.0
11
44.296875
21
65.859375
31
0.0
0
LINE
8
RIVERS
10
53.671875
20
65.312500
30
0.0
11
56.015625
21
66.718750
31
0.0
0
LINE
8
RIVERS
10
56.015625
20
66.718750
30
0.0
11
57.734375
21
66.953125
31
0.0
0
LINE
8
RIVERS
10
57.734375
20
66.953125
30
0.0
11
60.937500
21
68.203125
31
0.0
0
LINE
8
RIVERS
10
75.312500
20
65.703125
30
0.0
11
71.406250
21
68.984375
31
0.0
0
LINE
8
RIVERS
10
71.406250
20
68.984375
30
0.0
11
69.921875
21
71.796875
31
0.0
0
LINE
8
RIVERS
10
69.921875
20
71.796875
30
0.0
11
69.609375
21
78.203125
31
0.0
0
LINE
8
RIVERS
10
69.609375
20
78.203125
30
0.0
11
68.437500
21
81.328125
31
0.0
0
LINE
8
RIVERS
10
68.437500
20
81.328125
30
0.0
11
68.593750
21
83.515625
31
0.0
0
LINE
8
RIVERS
10
68.593750
20
83.515625
30
0.0
11
68.125000
21
83.906250
31
0.0
0
LINE
8
RIVERS
10
68.125000
20
83.906250
30
0.0
11
68.125000
21
85.859375
31
0.0
0
LINE
8
RIVERS
10
68.125000
20
85.859375
30
0.0
11
67.500000
21
86.328125
31
0.0
0
LINE
8
RIVERS
10
67.500000
20
86.328125
30
0.0
11
65.546875
21
86.093750
31
0.0
0
LINE
8
RIVERS
10
65.546875
20
86.093750
30
0.0
11
65.546875
21
87.656250
31
0.0
0
LINE
8
RIVERS
10
65.546875
20
87.656250
30
0.0
11
66.328125
21
88.281250
31
0.0
0
LINE
8
RIVERS
10
66.328125
20
88.281250
30
0.0
11
67.343750
21
88.281250
31
0.0
0
LINE
8
RIVERS
10
67.343750
20
88.281250
30
0.0
11
69.531250
21
89.687500
31
0.0
0
LINE
8
RIVERS
10
69.531250
20
89.687500
30
0.0
11
70.468750
21
89.765625
31
0.0
0
LINE
8
RIVERS
10
70.468750
20
89.765625
30
0.0
11
69.531250
21
91.093750
31
0.0
0
LINE
8
RIVERS
10
69.531250
20
91.093750
30
0.0
11
70.937500
21
92.343750
31
0.0
0
LINE
8
RIVERS
10
70.937500
20
92.343750
30
0.0
11
72.734375
21
92.500000
31
0.0
0
LINE
8
RIVERS
10
72.734375
20
92.500000
30
0.0
11
73.593750
21
93.281250
31
0.0
0
LINE
8
RIVERS
10
73.593750
20
93.281250
30
0.0
11
73.125000
21
93.828125
31
0.0
0
LINE
8
RIVERS
10
73.125000
20
93.828125
30
0.0
11
73.671875
21
95.156250
31
0.0
0
LINE
8
RIVERS
10
73.671875
20
95.156250
30
0.0
11
73.593750
21
96.718750
31
0.0
0
LINE
8
RIVERS
10
73.593750
20
96.718750
30
0.0
11
74.218750
21
96.640625
31
0.0
0
LINE
8
RIVERS
10
74.218750
20
96.640625
30
0.0
11
73.828125
21
97.734375
31
0.0
0
LINE
8
RIVERS
10
73.828125
20
97.734375
30
0.0
11
73.984375
21
98.828125
31
0.0
0
LINE
8
RIVERS
10
73.984375
20
98.828125
30
0.0
11
74.375000
21
98.984375
31
0.0
0
LINE
8
RIVERS
10
74.375000
20
98.984375
30
0.0
11
73.750000
21
99.921875
31
0.0
0
LINE
8
RIVERS
10
25.937500
20
65.937500
30
0.0
11
25.859375
21
66.718750
31
0.0
0
LINE
8
RIVERS
10
25.859375
20
66.718750
30
0.0
11
23.046875
21
67.812500
31
0.0
0
LINE
8
RIVERS
10
23.046875
20
67.812500
30
0.0
11
22.031250
21
68.828125
31
0.0
0
LINE
8
RIVERS
10
22.031250
20
68.828125
30
0.0
11
21.328125
21
71.328125
31
0.0
0
LINE
8
RIVERS
10
21.328125
20
71.328125
30
0.0
11
19.375000
21
71.796875
31
0.0
0
LINE
8
RIVERS
10
19.375000
20
71.796875
30
0.0
11
18.281250
21
71.015625
31
0.0
0
LINE
8
RIVERS
10
0.000000
20
67.656250
30
0.0
11
0.859375
21
70.000000
31
0.0
0
LINE
8
RIVERS
10
0.859375
20
70.000000
30
0.0
11
1.015625
21
73.906250
31
0.0
0
LINE
8
RIVERS
10
1.015625
20
73.906250
30
0.0
11
1.171875
21
74.921875
31
0.0
0
LINE
8
RIVERS
10
1.171875
20
74.921875
30
0.0
11
1.718750
21
74.531250
31
0.0
0
LINE
8
RIVERS
10
1.718750
20
74.531250
30
0.0
11
1.093750
21
73.984375
31
0.0
0
LINE
8
RIVERS
10
9.375000
20
68.281250
30
0.0
11
9.218750
21
69.062500
31
0.0
0
LINE
8
RIVERS
10
9.218750
20
69.062500
30
0.0
11
8.281250
21
69.765625
31
0.0
0
LINE
8
RIVERS
10
8.281250
20
69.765625
30
0.0
11
8.593750
21
70.546875
31
0.0
0
LINE
8
RIVERS
10
8.593750
20
70.546875
30
0.0
11
7.578125
21
71.171875
31
0.0
0
LINE
8
RIVERS
10
7.578125
20
71.171875
30
0.0
11
7.109375
21
72.421875
31
0.0
0
LINE
8
RIVERS
10
7.109375
20
72.421875
30
0.0
11
4.921875
21
77.265625
31
0.0
0
LINE
8
RIVERS
10
4.921875
20
77.265625
30
0.0
11
2.187500
21
76.640625
31
0.0
0
LINE
8
RIVERS
10
2.187500
20
76.640625
30
0.0
11
1.640625
21
75.000000
31
0.0
0
LINE
8
RIVERS
10
83.906250
20
68.750000
30
0.0
11
82.656250
21
70.390625
31
0.0
0
LINE
8
RIVERS
10
82.656250
20
70.390625
30
0.0
11
81.640625
21
74.062500
31
0.0
0
LINE
8
RIVERS
10
81.640625
20
74.062500
30
0.0
11
81.171875
21
74.609375
31
0.0
0
LINE
8
RIVERS
10
81.171875
20
74.609375
30
0.0
11
80.000000
21
74.687500
31
0.0
0
LINE
8
RIVERS
10
80.000000
20
74.687500
30
0.0
11
76.796875
21
75.468750
31
0.0
0
LINE
8
RIVERS
10
76.796875
20
75.468750
30
0.0
11
75.468750
21
75.546875
31
0.0
0
LINE
8
RIVERS
10
75.468750
20
75.546875
30
0.0
11
75.000000
21
75.156250
31
0.0
0
LINE
8
RIVERS
10
75.000000
20
75.156250
30
0.0
11
71.953125
21
75.937500
31
0.0
0
LINE
8
RIVERS
10
94.531250
20
68.828125
30
0.0
11
95.234375
21
70.312500
31
0.0
0
LINE
8
RIVERS
10
95.234375
20
70.312500
30
0.0
11
96.562500
21
71.171875
31
0.0
0
LINE
8
RIVERS
10
96.562500
20
71.171875
30
0.0
11
97.734375
21
72.343750
31
0.0
0
LINE
8
RIVERS
10
97.734375
20
72.343750
30
0.0
11
99.921875
21
73.828125
31
0.0
0
LINE
8
RIVERS
10
43.515625
20
70.390625
30
0.0
11
44.609375
21
72.031250
31
0.0
0
LINE
8
RIVERS
10
44.609375
20
72.031250
30
0.0
11
46.250000
21
71.718750
31
0.0
0
LINE
8
RIVERS
10
46.250000
20
71.718750
30
0.0
11
47.890625
21
73.046875
31
0.0
0
LINE
8
RIVERS
10
47.890625
20
73.046875
30
0.0
11
48.125000
21
74.687500
31
0.0
0
LINE
8
RIVERS
10
48.125000
20
74.687500
30
0.0
11
47.500000
21
73.437500
31
0.0
0
LINE
8
RIVERS
10
47.500000
20
73.437500
30
0.0
11
47.578125
21
72.890625
31
0.0
0
LINE
8
RIVERS
10
47.578125
20
72.890625
30
0.0
11
46.640625
21
72.109375
31
0.0
0
LINE
8
RIVERS
10
27.031250
20
70.625000
30
0.0
11
27.343750
21
72.031250
31
0.0
0
LINE
8
RIVERS
10
27.343750
20
72.031250
30
0.0
11
27.343750
21
74.062500
31
0.0
0
LINE
8
RIVERS
10
27.343750
20
74.062500
30
0.0
11
29.218750
21
74.375000
31
0.0
0
LINE
8
RIVERS
10
29.218750
20
74.375000
30
0.0
11
29.843750
21
73.593750
31
0.0
0
LINE
8
RIVERS
10
29.843750
20
73.593750
30
0.0
11
30.078125
21
72.031250
31
0.0
0
LINE
8
RIVERS
10
12.421875
20
70.703125
30
0.0
11
11.875000
21
72.578125
31
0.0
0
LINE
8
RIVERS
10
11.875000
20
72.578125
30
0.0
11
10.703125
21
73.750000
31
0.0
0
LINE
8
RIVERS
10
10.703125
20
73.750000
30
0.0
11
9.843750
21
73.984375
31
0.0
0
LINE
8
RIVERS
10
9.843750
20
73.984375
30
0.0
11
8.906250
21
75.781250
31
0.0
0
LINE
8
RIVERS
10
31.484375
20
71.250000
30
0.0
11
30.937500
21
71.406250
31
0.0
0
LINE
8
RIVERS
10
86.015625
20
71.562500
30
0.0
11
86.484375
21
72.734375
31
0.0
0
LINE
8
RIVERS
10
86.484375
20
72.734375
30
0.0
11
85.859375
21
74.062500
31
0.0
0
LINE
8
RIVERS
10
85.859375
20
74.062500
30
0.0
11
84.765625
21
74.453125
31
0.0
0
LINE
8
RIVERS
10
84.765625
20
74.453125
30
0.0
11
84.062500
21
75.234375
31
0.0
0
LINE
8
RIVERS
10
84.062500
20
75.234375
30
0.0
11
84.375000
21
76.953125
31
0.0
0
LINE
8
RIVERS
10
84.375000
20
76.953125
30
0.0
11
85.781250
21
78.906250
31
0.0
0
LINE
8
RIVERS
10
85.781250
20
78.906250
30
0.0
11
84.453125
21
80.234375
31
0.0
0
LINE
8
RIVERS
10
84.453125
20
80.234375
30
0.0
11
84.140625
21
79.609375
31
0.0
0
LINE
8
RIVERS
10
84.140625
20
79.609375
30
0.0
11
81.718750
21
80.156250
31
0.0
0
LINE
8
RIVERS
10
81.718750
20
80.156250
30
0.0
11
81.015625
21
80.000000
31
0.0
0
LINE
8
RIVERS
10
81.015625
20
80.000000
30
0.0
11
78.906250
21
80.625000
31
0.0
0
LINE
8
RIVERS
10
78.906250
20
80.625000
30
0.0
11
77.968750
21
80.625000
31
0.0
0
LINE
8
RIVERS
10
77.968750
20
80.625000
30
0.0
11
77.343750
21
80.000000
31
0.0
0
LINE
8
RIVERS
10
77.343750
20
80.000000
30
0.0
11
77.109375
21
78.984375
31
0.0
0
LINE
8
RIVERS
10
25.312500
20
72.109375
30
0.0
11
26.093750
21
74.453125
31
0.0
0
LINE
8
RIVERS
10
26.093750
20
74.453125
30
0.0
11
27.421875
21
74.140625
31
0.0
0
LINE
8
RIVERS
10
5.468750
20
72.734375
30
0.0
11
6.171875
21
73.437500
31
0.0
0
LINE
8
RIVERS
10
14.218750
20
73.671875
30
0.0
11
13.359375
21
74.375000
31
0.0
0
LINE
8
RIVERS
10
13.359375
20
74.375000
30
0.0
11
12.187500
21
75.937500
31
0.0
0
LINE
8
RIVERS
10
12.187500
20
75.937500
30
0.0
11
12.421875
21
76.718750
31
0.0
0
LINE
8
RIVERS
10
12.421875
20
76.718750
30
0.0
11
12.500000
21
79.140625
31
0.0
0
LINE
8
RIVERS
10
12.500000
20
79.140625
30
0.0
11
13.281250
21
81.250000
31
0.0
0
LINE
8
RIVERS
10
13.281250
20
81.250000
30
0.0
11
13.984375
21
82.265625
31
0.0
0
LINE
8
RIVERS
10
13.984375
20
82.265625
30
0.0
11
14.296875
21
83.828125
31
0.0
0
LINE
8
RIVERS
10
14.296875
20
83.828125
30
0.0
11
15.546875
21
83.828125
31
0.0
0
LINE
8
RIVERS
10
15.546875
20
83.828125
30
0.0
11
16.015625
21
83.203125
31
0.0
0
LINE
8
RIVERS
10
16.015625
20
83.203125
30
0.0
11
16.171875
21
81.953125
31
0.0
0
LINE
8
RIVERS
10
16.171875
20
81.953125
30
0.0
11
16.640625
21
81.328125
31
0.0
0
LINE
8
RIVERS
10
16.640625
20
81.328125
30
0.0
11
16.484375
21
80.625000
31
0.0
0
LINE
8
RIVERS
10
16.484375
20
80.625000
30
0.0
11
16.718750
21
79.062500
31
0.0
0
LINE
8
RIVERS
10
16.718750
20
79.062500
30
0.0
11
17.656250
21
78.125000
31
0.0
0
LINE
8
RIVERS
10
17.656250
20
78.125000
30
0.0
11
18.125000
21
76.640625
31
0.0
0
LINE
8
RIVERS
10
18.125000
20
76.640625
30
0.0
11
18.984375
21
75.859375
31
0.0
0
LINE
8
RIVERS
10
18.984375
20
75.859375
30
0.0
11
19.687500
21
75.781250
31
0.0
0
LINE
8
RIVERS
10
19.687500
20
75.781250
30
0.0
11
20.937500
21
75.000000
31
0.0
0
LINE
8
RIVERS
10
20.937500
20
75.000000
30
0.0
11
26.015625
21
74.453125
31
0.0
0
LINE
8
RIVERS
10
28.828125
20
74.453125
30
0.0
11
29.140625
21
74.765625
31
0.0
0
LINE
8
RIVERS
10
29.140625
20
74.765625
30
0.0
11
29.062500
21
76.250000
31
0.0
0
LINE
8
RIVERS
10
29.062500
20
76.250000
30
0.0
11
29.531250
21
76.796875
31
0.0
0
LINE
8
RIVERS
10
29.531250
20
76.796875
30
0.0
11
31.015625
21
77.421875
31
0.0
0
LINE
8
RIVERS
10
31.015625
20
77.421875
30
0.0
11
32.109375
21
77.031250
31
0.0
0
LINE
8
RIVERS
10
27.109375
20
76.640625
30
0.0
11
28.203125
21
76.718750
31
0.0
0
LINE
8
RIVERS
10
27.031250
20
76.718750
30
0.0
11
26.093750
21
77.421875
31
0.0
0
LINE
8
RIVERS
10
26.093750
20
77.421875
30
0.0
11
24.453125
21
80.937500
31
0.0
0
LINE
8
RIVERS
10
24.453125
20
80.937500
30
0.0
11
23.515625
21
81.875000
31
0.0
0
LINE
8
RIVERS
10
23.515625
20
81.875000
30
0.0
11
23.828125
21
83.984375
31
0.0
0
LINE
8
RIVERS
10
23.828125
20
83.984375
30
0.0
11
23.515625
21
85.078125
31
0.0
0
LINE
8
RIVERS
10
23.515625
20
85.078125
30
0.0
11
23.437500
21
86.875000
31
0.0
0
LINE
8
RIVERS
10
23.437500
20
86.875000
30
0.0
11
23.671875
21
88.281250
31
0.0
0
LINE
8
RIVERS
10
23.671875
20
88.281250
30
0.0
11
23.593750
21
90.312500
31
0.0
0
LINE
8
RIVERS
10
23.593750
20
90.312500
30
0.0
11
22.734375
21
92.109375
31
0.0
0
LINE
8
RIVERS
10
22.734375
20
92.109375
30
0.0
11
21.562500
21
92.968750
31
0.0
0
LINE
8
RIVERS
10
21.562500
20
92.968750
30
0.0
11
21.328125
21
93.671875
31
0.0
0
LINE
8
RIVERS
10
21.328125
20
93.671875
30
0.0
11
20.000000
21
95.390625
31
0.0
0
LINE
8
RIVERS
10
20.000000
20
95.390625
30
0.0
11
19.531250
21
96.640625
31
0.0
0
LINE
8
RIVERS
10
19.531250
20
96.640625
30
0.0
11
18.515625
21
98.359375
31
0.0
0
LINE
8
RIVERS
10
18.515625
20
98.359375
30
0.0
11
18.750000
21
99.296875
31
0.0
0
LINE
8
RIVERS
10
18.750000
20
99.296875
30
0.0
11
18.125000
21
99.765625
31
0.0
0
LINE
8
RIVERS
10
18.125000
20
99.765625
30
0.0
11
17.812500
21
97.968750
31
0.0
0
LINE
8
RIVERS
10
17.812500
20
97.968750
30
0.0
11
16.953125
21
97.187500
31
0.0
0
LINE
8
RIVERS
10
16.953125
20
97.187500
30
0.0
11
16.718750
21
95.937500
31
0.0
0
LINE
8
RIVERS
10
16.718750
20
95.937500
30
0.0
11
15.703125
21
95.312500
31
0.0
0
LINE
8
RIVERS
10
15.703125
20
95.312500
30
0.0
11
16.171875
21
92.343750
31
0.0
0
LINE
8
RIVERS
10
16.171875
20
92.343750
30
0.0
11
15.859375
21
91.171875
31
0.0
0
LINE
8
RIVERS
10
15.859375
20
91.171875
30
0.0
11
17.031250
21
89.609375
31
0.0
0
LINE
8
RIVERS
10
17.031250
20
89.609375
30
0.0
11
16.640625
21
88.437500
31
0.0
0
LINE
8
RIVERS
10
16.640625
20
88.437500
30
0.0
11
15.859375
21
87.578125
31
0.0
0
LINE
8
RIVERS
10
15.859375
20
87.578125
30
0.0
11
15.703125
21
86.171875
31
0.0
0
LINE
8
RIVERS
10
15.703125
20
86.171875
30
0.0
11
14.453125
21
84.687500
31
0.0
0
LINE
8
RIVERS
10
14.453125
20
84.687500
30
0.0
11
14.609375
21
84.062500
31
0.0
0
LINE
8
RIVERS
10
4.453125
20
77.343750
30
0.0
11
4.218750
21
78.281250
31
0.0
0
LINE
8
RIVERS
10
4.218750
20
78.281250
30
0.0
11
4.453125
21
79.453125
31
0.0
0
LINE
8
RIVERS
10
4.453125
20
79.453125
30
0.0
11
3.593750
21
80.468750
31
0.0
0
LINE
8
RIVERS
10
3.593750
20
80.468750
30
0.0
11
3.906250
21
83.984375
31
0.0
0
LINE
8
RIVERS
10
3.906250
20
83.984375
30
0.0
11
4.296875
21
85.468750
31
0.0
0
LINE
8
RIVERS
10
4.296875
20
85.468750
30
0.0
11
3.750000
21
85.703125
31
0.0
0
LINE
8
RIVERS
10
3.750000
20
85.703125
30
0.0
11
3.984375
21
87.421875
31
0.0
0
LINE
8
RIVERS
10
3.984375
20
87.421875
30
0.0
11
4.531250
21
88.359375
31
0.0
0
LINE
8
RIVERS
10
4.531250
20
88.359375
30
0.0
11
5.937500
21
88.281250
31
0.0
0
LINE
8
RIVERS
10
5.937500
20
88.281250
30
0.0
11
7.187500
21
87.343750
31
0.0
0
LINE
8
RIVERS
10
48.671875
20
77.656250
30
0.0
11
49.296875
21
79.453125
31
0.0
0
LINE
8
RIVERS
10
49.296875
20
79.453125
30
0.0
11
51.171875
21
81.015625
31
0.0
0
LINE
8
RIVERS
10
51.171875
20
81.015625
30
0.0
11
52.343750
21
80.937500
31
0.0
0
LINE
8
RIVERS
10
52.343750
20
80.937500
30
0.0
11
53.046875
21
81.562500
31
0.0
0
LINE
8
RIVERS
10
53.046875
20
81.562500
30
0.0
11
53.125000
21
83.359375
31
0.0
0
LINE
8
RIVERS
10
53.125000
20
83.359375
30
0.0
11
53.828125
21
83.593750
31
0.0
0
LINE
8
RIVERS
10
53.828125
20
83.593750
30
0.0
11
54.765625
21
82.500000
31
0.0
0
LINE
8
RIVERS
10
35.000000
20
77.734375
30
0.0
11
35.390625
21
79.062500
31
0.0
0
LINE
8
RIVERS
10
35.390625
20
79.062500
30
0.0
11
35.000000
21
79.531250
31
0.0
0
LINE
8
RIVERS
10
35.000000
20
79.531250
30
0.0
11
35.000000
21
80.859375
31
0.0
0
LINE
8
RIVERS
10
35.000000
20
80.859375
30
0.0
11
34.375000
21
81.718750
31
0.0
0
LINE
8
RIVERS
10
34.375000
20
81.718750
30
0.0
11
34.375000
21
82.578125
31
0.0
0
LINE
8
RIVERS
10
34.375000
20
82.578125
30
0.0
11
33.828125
21
82.421875
31
0.0
0
LINE
8
RIVERS
10
33.828125
20
82.421875
30
0.0
11
34.218750
21
83.828125
31
0.0
0
LINE
8
RIVERS
10
34.218750
20
83.828125
30
0.0
11
33.984375
21
85.703125
31
0.0
0
LINE
8
RIVERS
10
33.984375
20
85.703125
30
0.0
11
35.781250
21
86.718750
31
0.0
0
LINE
8
RIVERS
10
35.781250
20
86.718750
30
0.0
11
37.500000
21
88.046875
31
0.0
0
LINE
8
RIVERS
10
37.500000
20
88.046875
30
0.0
11
38.046875
21
89.140625
31
0.0
0
LINE
8
RIVERS
10
38.046875
20
89.140625
30
0.0
11
37.890625
21
90.468750
31
0.0
0
LINE
8
RIVERS
10
37.890625
20
90.468750
30
0.0
11
38.359375
21
92.265625
31
0.0
0
LINE
8
RIVERS
10
38.359375
20
92.265625
30
0.0
11
38.906250
21
93.437500
31
0.0
0
LINE
8
RIVERS
10
38.906250
20
93.437500
30
0.0
11
39.531250
21
96.093750
31
0.0
0
LINE
8
RIVERS
10
39.531250
20
96.093750
30
0.0
11
39.375000
21
97.109375
31
0.0
0
LINE
8
RIVERS
10
39.375000
20
97.109375
30
0.0
11
38.359375
21
98.281250
31
0.0
0
LINE
8
RIVERS
10
38.359375
20
98.281250
30
0.0
11
38.437500
21
98.593750
31
0.0
0
LINE
8
RIVERS
10
38.437500
20
98.593750
30
0.0
11
37.421875
21
99.843750
31
0.0
0
LINE
8
RIVERS
10
37.421875
20
99.843750
30
0.0
11
37.031250
21
99.921875
31
0.0
0
LINE
8
RIVERS
10
2.656250
20
80.390625
30
0.0
11
3.515625
21
80.937500
31
0.0
0
LINE
8
RIVERS
10
2.500000
20
80.468750
30
0.0
11
1.406250
21
80.781250
31
0.0
0
LINE
8
RIVERS
10
50.625000
20
80.625000
30
0.0
11
50.546875
21
83.515625
31
0.0
0
LINE
8
RIVERS
10
50.546875
20
83.515625
30
0.0
11
51.015625
21
83.671875
31
0.0
0
LINE
8
RIVERS
10
51.015625
20
83.671875
30
0.0
11
51.562500
21
85.078125
31
0.0
0
LINE
8
RIVERS
10
51.562500
20
85.078125
30
0.0
11
51.953125
21
87.187500
31
0.0
0
LINE
8
RIVERS
10
51.953125
20
87.187500
30
0.0
11
51.718750
21
87.265625
31
0.0
0
LINE
8
RIVERS
10
51.718750
20
87.265625
30
0.0
11
52.031250
21
89.609375
31
0.0
0
LINE
8
RIVERS
10
52.031250
20
89.609375
30
0.0
11
49.609375
21
91.328125
31
0.0
0
LINE
8
RIVERS
10
49.609375
20
91.328125
30
0.0
11
48.828125
21
92.656250
31
0.0
0
LINE
8
RIVERS
10
48.828125
20
92.656250
30
0.0
11
48.281250
21
92.500000
31
0.0
0
LINE
8
RIVERS
10
48.281250
20
92.500000
30
0.0
11
47.890625
21
90.781250
31
0.0
0
LINE
8
RIVERS
10
47.890625
20
90.781250
30
0.0
11
46.796875
21
90.468750
31
0.0
0
LINE
8
RIVERS
10
46.796875
20
90.468750
30
0.0
11
46.562500
21
89.218750
31
0.0
0
LINE
8
RIVERS
10
46.562500
20
89.218750
30
0.0
11
46.796875
21
87.656250
31
0.0
0
LINE
8
RIVERS
10
46.796875
20
87.656250
30
0.0
11
45.781250
21
86.953125
31
0.0
0
LINE
8
RIVERS
10
84.453125
20
81.015625
30
0.0
11
83.984375
21
82.656250
31
0.0
0
LINE
8
RIVERS
10
83.984375
20
82.656250
30
0.0
11
83.125000
21
83.593750
31
0.0
0
LINE
8
RIVERS
10
83.125000
20
83.593750
30
0.0
11
83.125000
21
84.140625
31
0.0
0
LINE
8
RIVERS
10
83.125000
20
84.140625
30
0.0
11
82.109375
21
85.625000
31
0.0
0
LINE
8
RIVERS
10
82.109375
20
85.625000
30
0.0
11
81.562500
21
87.187500
31
0.0
0
LINE
8
RIVERS
10
81.562500
20
87.187500
30
0.0
11
81.718750
21
88.437500
31
0.0
0
LINE
8
RIVERS
10
81.718750
20
88.437500
30
0.0
11
82.343750
21
88.437500
31
0.0
0
LINE
8
RIVERS
10
82.343750
20
88.437500
30
0.0
11
82.968750
21
90.234375
31
0.0
0
LINE
8
RIVERS
10
82.968750
20
90.234375
30
0.0
11
83.125000
21
92.578125
31
0.0
0
LINE
8
RIVERS
10
83.125000
20
92.578125
30
0.0
11
83.515625
21
92.812500
31
0.0
0
LINE
8
RIVERS
10
83.515625
20
92.812500
30
0.0
11
83.046875
21
96.718750
31
0.0
0
LINE
8
RIVERS
10
83.046875
20
96.718750
30
0.0
11
83.828125
21
98.593750
31
0.0
0
LINE
8
RIVERS
10
83.828125
20
98.593750
30
0.0
11
82.812500
21
98.437500
31
0.0
0
LINE
8
RIVERS
10
82.812500
20
98.437500
30
0.0
11
83.046875
21
99.296875
31
0.0
0
LINE
8
RIVERS
10
83.046875
20
99.296875
30
0.0
11
82.421875
21
99.921875
31
0.0
0
LINE
8
RIVERS
10
2.265625
20
81.796875
30
0.0
11
3.281250
21
82.265625
31
0.0
0
LINE
8
RIVERS
10
1.562500
20
81.953125
30
0.0
11
2.109375
21
81.875000
31
0.0
0
LINE
8
RIVERS
10
0.390625
20
83.671875
30
0.0
11
2.031250
21
84.609375
31
0.0
0
LINE
8
RIVERS
10
2.031250
20
84.609375
30
0.0
11
3.437500
21
84.609375
31
0.0
0
LINE
8
RIVERS
10
3.437500
20
84.609375
30
0.0
11
3.906250
21
84.062500
31
0.0
0
LINE
8
RIVERS
10
3.281250
20
85.312500
30
0.0
11
2.187500
21
86.328125
31
0.0
0
LINE
8
RIVERS
10
7.265625
20
85.468750
30
0.0
11
6.015625
21
86.562500
31
0.0
0
LINE
8
RIVERS
10
6.015625
20
86.562500
30
0.0
11
4.765625
21
86.562500
31
0.0
0
LINE
8
RIVERS
10
4.765625
20
86.562500
30
0.0
11
4.218750
21
85.546875
31
0.0
0
LINE
8
RIVERS
10
99.062500
20
85.781250
30
0.0
11
99.921875
21
86.328125
31
0.0
0
LINE
8
RIVERS
10
8.515625
20
85.859375
30
0.0
11
9.062500
21
87.812500
31
0.0
0
LINE
8
RIVERS
10
9.062500
20
87.812500
30
0.0
11
9.765625
21
89.140625
31
0.0
0
LINE
8
RIVERS
10
9.765625
20
89.140625
30
0.0
11
9.531250
21
90.625000
31
0.0
0
LINE
8
RIVERS
10
9.531250
20
90.625000
30
0.0
11
10.390625
21
90.546875
31
0.0
0
LINE
8
RIVERS
10
10.390625
20
90.546875
30
0.0
11
11.796875
21
89.765625
31
0.0
0
LINE
8
RIVERS
10
11.796875
20
89.765625
30
0.0
11
12.500000
21
90.078125
31
0.0
0
LINE
8
RIVERS
10
12.500000
20
90.078125
30
0.0
11
15.468750
21
90.703125
31
0.0
0
LINE
8
RIVERS
10
15.468750
20
90.703125
30
0.0
11
15.781250
21
91.562500
31
0.0
0
LINE
8
RIVERS
10
63.125000
20
85.859375
30
0.0
11
64.609375
21
86.406250
31
0.0
0
LINE
8
RIVERS
10
64.609375
20
86.406250
30
0.0
11
65.156250
21
87.656250
31
0.0
0
LINE
8
RIVERS
10
65.156250
20
87.656250
30
0.0
11
63.515625
21
89.375000
31
0.0
0
LINE
8
RIVERS
10
63.515625
20
89.375000
30
0.0
11
62.734375
21
91.171875
31
0.0
0
LINE
8
RIVERS
10
62.734375
20
91.171875
30
0.0
11
61.562500
21
92.421875
31
0.0
0
LINE
8
RIVERS
10
61.562500
20
92.421875
30
0.0
11
60.000000
21
93.593750
31
0.0
0
LINE
8
RIVERS
10
60.000000
20
93.593750
30
0.0
11
59.531250
21
94.921875
31
0.0
0
LINE
8
RIVERS
10
59.531250
20
94.921875
30
0.0
11
58.281250
21
96.640625
31
0.0
0
LINE
8
RIVERS
10
58.281250
20
96.640625
30
0.0
11
57.812500
21
99.218750
31
0.0
0
LINE
8
RIVERS
10
57.812500
20
99.218750
30
0.0
11
57.187500
21
99.921875
31
0.0
0
LINE
8
RIVERS
10
4.062500
20
87.578125
30
0.0
11
3.671875
21
88.593750
31
0.0
0
LINE
8
RIVERS
10
3.671875
20
88.593750
30
0.0
11
2.343750
21
89.453125
31
0.0
0
LINE
8
RIVERS
10
2.343750
20
89.453125
30
0.0
11
1.250000
21
89.218750
31
0.0
0
LINE
8
RIVERS
10
4.218750
20
88.593750
30
0.0
11
4.062500
21
89.843750
31
0.0
0
LINE
8
RIVERS
10
4.062500
20
89.843750
30
0.0
11
5.156250
21
92.031250
31
0.0
0
LINE
8
RIVERS
10
5.156250
20
92.031250
30
0.0
11
5.078125
21
93.671875
31
0.0
0
LINE
8
RIVERS
10
5.078125
20
93.671875
30
0.0
11
5.312500
21
94.921875
31
0.0
0
LINE
8
RIVERS
10
5.312500
20
94.921875
30
0.0
11
3.750000
21
96.953125
31
0.0
0
LINE
8
RIVERS
10
3.750000
20
96.953125
30
0.0
11
2.187500
21
98.125000
31
0.0
0
LINE
8
RIVERS
10
2.187500
20
98.125000
30
0.0
11
0.000000
21
97.812500
31
0.0
0
LINE
8
RIVERS
10
9.296875
20
90.625000
30
0.0
11
8.203125
21
91.250000
31
0.0
0
LINE
8
RIVERS
10
8.203125
20
91.250000
30
0.0
11
7.578125
21
91.015625
31
0.0
0
LINE
8
RIVERS
10
18.750000
20
91.406250
30
0.0
11
19.062500
21
92.968750
31
0.0
0
LINE
8
RIVERS
10
19.062500
20
92.968750
30
0.0
11
19.531250
21
93.515625
31
0.0
0
LINE
8
RIVERS
10
19.531250
20
93.515625
30
0.0
11
19.375000
21
96.015625
31
0.0
0
LINE
8
RIVERS
10
19.375000
20
96.015625
30
0.0
11
21.953125
21
98.515625
31
0.0
0
LINE
8
RIVERS
10
21.953125
20
98.515625
30
0.0
11
22.734375
21
98.515625
31
0.0
0
LINE
8
RIVERS
10
22.734375
20
98.515625
30
0.0
11
23.437500
21
97.734375
31
0.0
0
LINE
8
RIVERS
10
23.437500
20
97.734375
30
0.0
11
25.390625
21
97.265625
31
0.0
0
LINE
8
RIVERS
10
44.453125
20
93.515625
30
0.0
11
42.968750
21
96.406250
31
0.0
0
LINE
8
RIVERS
10
42.968750
20
96.406250
30
0.0
11
42.890625
21
97.187500
31
0.0
0
LINE
8
RIVERS
10
42.890625
20
97.187500
30
0.0
11
43.984375
21
98.281250
31
0.0
0
LINE
8
RIVERS
10
43.984375
20
98.281250
30
0.0
11
44.843750
21
98.515625
31
0.0
0
LINE
8
RIVERS
10
44.843750
20
98.515625
30
0.0
11
44.609375
21
99.921875
31
0.0
0
LINE
8
RIVERS
10
16.406250
20
96.718750
30
0.0
11
15.468750
21
97.187500
31
0.0
0
LINE
8
RIVERS
10
15.468750
20
97.187500
30
0.0
11
14.140625
21
97.031250
31
0.0
0
LINE
8
RIVERS
10
26.406250
20
97.734375
30
0.0
11
25.859375
21
99.062500
31
0.0
0
LINE
8
RIVERS
10
25.859375
20
99.062500
30
0.0
11
24.218750
21
99.921875
31
0.0
0
LINE
8
RIVERS
10
4.843750
20
98.906250
30
0.0
11
5.234375
21
99.765625
31
0.0
0
LINE
8
RIVERS
10
18.828125
20
98.984375
30
0.0
11
19.218750
21
99.921875
31
0.0
0
LINE
8
RIVERS
10
7.734375
20
99.218750
30
0.0
11
9.609375
21
99.921875
31
0.0
0
LINE
8
RIVERS
10
80.234375
20
99.921875
30
0.0
11
81.093750
21
99.921875
31
0.0
0
LINE
8
RIVERS
10
22.109375
20
37.734375
30
0.0
11
22.421875
21
38.046875
31
0.0
0
LINE
8
RIVERS
10
12.031250
20
44.843750
30
0.0
11
12.656250
21
45.000000
31
0.0
0
ENDSEC
0
EOF
