0
SECTION
2
HEADER
9
$ACADVER
1
AC1015
9
$INSUNITS
70
4
0
ENDSEC
0
SECTION
2
TABLES
0
TABLE
2
LAYER
70
1
0
LAYER
2
RIVERS
70
0
62
5
6
CONTINUOUS
0
ENDTAB
0
ENDSEC
0
SECTION
2
ENTITIES
0
LWPOLYLINE
8
RIVERS
90
11
70
0
10
96.480938
20
10.654936
10
96.871945
20
10.752688
10
97.360704
20
11.241447
10
98.338221
20
11.730205
10
98.533724
20
12.316716
10
99.022483
20
12.805474
10
99.706745
20
13.098729
10
100.000000
20
13.685239
10
99.608993
20
14.173998
10
99.608993
20
14.467253
10
100.000000
20
14.467253
0
LWPOLYLINE
8
RIVERS
90
15
70
0
10
95.503421
20
11.925709
10
95.796676
20
11.925709
10
95.894428
20
12.316716
10
96.383187
20
12.903226
10
96.480938
20
13.489736
10
96.676442
20
13.587488
10
96.676442
20
14.565005
10
96.969697
20
15.347019
10
97.458456
20
15.444770
10
97.947214
20
16.226784
10
97.947214
20
16.911046
10
98.142717
20
17.595308
10
98.435973
20
17.986315
10
98.435973
20
18.377322
10
98.826979
20
18.670577
0
LWPOLYLINE
8
RIVERS
90
14
70
0
10
94.721408
20
13.000978
10
94.819159
20
13.489736
10
95.210166
20
13.685239
10
95.405670
20
14.173998
10
95.503421
20
15.347019
10
95.894428
20
15.738025
10
95.894428
20
16.129032
10
96.480938
20
16.617791
10
97.067449
20
17.399804
10
97.067449
20
18.279570
10
96.871945
20
18.768328
10
97.360704
20
19.354839
10
98.142717
20
19.452590
10
98.826979
20
19.745846
0
LWPOLYLINE
8
RIVERS
90
4
70
0
10
88.856305
20
16.129032
10
88.465298
20
16.911046
10
88.465298
20
16.520039
10
88.074291
20
17.204301
0
LWPOLYLINE
8
RIVERS
90
15
70
0
10
86.999022
20
17.790811
10
87.781036
20
17.986315
10
88.563050
20
18.670577
10
88.660802
20
18.572825
10
89.931574
20
18.768328
10
91.006843
20
18.475073
10
91.397849
20
18.670577
10
91.886608
20
18.475073
10
93.255132
20
18.475073
10
94.134897
20
18.279570
10
95.210166
20
18.279570
10
95.601173
20
18.670577
10
95.796676
20
19.354839
10
96.285435
20
19.354839
10
96.578690
20
19.745846
0
LWPOLYLINE
8
RIVERS
90
10
70
0
10
90.615836
20
18.963832
10
91.397849
20
19.159335
10
91.691105
20
19.648094
10
93.352884
20
19.648094
10
93.548387
20
19.452590
10
94.134897
20
19.452590
10
94.232649
20
19.648094
10
95.210166
20
20.039101
10
96.089932
20
21.016618
10
96.774194
20
21.114370
0
LWPOLYLINE
8
RIVERS
90
15
70
0
10
86.412512
20
19.257087
10
86.510264
20
19.843597
10
86.901271
20
19.745846
10
87.683284
20
20.723363
10
87.878788
20
21.700880
10
88.563050
20
21.700880
10
89.247312
20
21.114370
10
89.345064
20
20.527859
10
90.029326
20
20.136852
10
90.615836
20
20.136852
10
91.397849
20
20.821114
10
91.300098
20
21.016618
10
91.300098
20
22.091887
10
91.202346
20
22.482893
10
91.397849
20
23.362659
0
LWPOLYLINE
8
RIVERS
90
11
70
0
10
91.788856
20
19.843597
10
92.277615
20
20.332356
10
93.157380
20
20.723363
10
93.352884
20
21.407625
10
94.037146
20
21.994135
10
94.232649
20
22.580645
10
94.428152
20
22.580645
10
94.916911
20
23.167155
10
95.503421
20
23.167155
10
96.089932
20
23.460411
10
96.676442
20
23.558162
0
LWPOLYLINE
8
RIVERS
90
23
70
0
10
85.434995
20
20.332356
10
86.021505
20
20.332356
10
86.021505
20
20.625611
10
86.608016
20
21.114370
10
86.901271
20
21.603128
10
86.901271
20
22.287390
10
87.487781
20
22.482893
10
87.683284
20
23.264907
10
87.390029
20
23.753666
10
87.585533
20
24.046921
10
87.194526
20
24.437928
10
88.074291
20
25.219941
10
88.172043
20
26.099707
10
88.660802
20
26.197458
10
88.660802
20
26.588465
10
90.420332
20
26.490714
10
90.909091
20
26.588465
10
91.495601
20
26.979472
10
91.984360
20
26.979472
10
92.473118
20
27.468231
10
93.352884
20
27.663734
10
93.743891
20
27.272727
10
93.743891
20
26.295210
0
LWPOLYLINE
8
RIVERS
90
9
70
0
10
93.743891
20
22.678397
10
93.255132
20
23.362659
10
93.255132
20
23.949169
10
93.548387
20
24.340176
10
94.232649
20
24.633431
10
95.405670
20
24.633431
10
95.796676
20
24.731183
10
95.698925
20
25.317693
10
96.089932
20
25.708700
0
LWPOLYLINE
8
RIVERS
90
10
70
0
10
83.382209
20
23.362659
10
83.284457
20
23.753666
10
83.968719
20
23.753666
10
84.750733
20
24.633431
10
85.337243
20
24.437928
10
85.923754
20
24.926686
10
85.826002
20
25.317693
10
85.434995
20
25.513196
10
85.141740
20
26.099707
10
85.630499
20
26.686217
0
LWPOLYLINE
8
RIVERS
90
12
70
0
10
82.306940
20
24.535679
10
82.795699
20
24.340176
10
83.479961
20
24.926686
10
83.675464
20
25.708700
10
83.479961
20
26.588465
10
83.577713
20
27.663734
10
84.164223
20
28.250244
10
84.261975
20
28.641251
10
84.652981
20
29.032258
10
85.239492
20
29.227761
10
85.337243
20
28.347996
10
85.826002
20
27.859238
0
LWPOLYLINE
8
RIVERS
90
10
70
0
10
79.765396
20
26.001955
10
79.863148
20
26.686217
10
79.472141
20
26.783969
10
79.374389
20
27.272727
10
79.765396
20
27.956989
10
80.156403
20
28.152493
10
80.156403
20
28.641251
10
80.742913
20
28.641251
10
81.133920
20
29.130010
10
81.818182
20
29.325513
0
LWPOLYLINE
8
RIVERS
90
12
70
0
10
88.563050
20
26.392962
10
88.465298
20
27.174976
10
88.074291
20
27.468231
10
88.269795
20
28.445748
10
88.465298
20
28.641251
10
88.269795
20
30.107527
10
89.247312
20
30.889541
10
89.638319
20
30.889541
10
89.736070
20
31.182796
10
90.224829
20
31.280547
10
90.518084
20
31.573803
10
91.202346
20
31.671554
0
LWPOLYLINE
8
RIVERS
90
18
70
0
10
74.389052
20
27.468231
10
74.291300
20
28.054741
10
74.389052
20
28.739003
10
74.193548
20
29.423265
10
74.877810
20
29.912023
10
75.073314
20
30.303030
10
75.366569
20
30.303030
10
75.757576
20
30.791789
10
76.344086
20
31.182796
10
76.637341
20
31.671554
10
76.441838
20
32.160313
10
76.930596
20
32.942326
10
76.832845
20
33.626588
10
77.126100
20
34.506354
10
77.419355
20
34.506354
10
76.930596
20
35.092864
10
76.930596
20
35.679374
10
78.201369
20
36.852395
0
LWPOLYLINE
8
RIVERS
90
4
70
0
10
95.601173
20
27.565982
10
95.210166
20
28.152493
10
95.307918
20
28.739003
10
96.285435
20
28.641251
0
LWPOLYLINE
8
RIVERS
90
13
70
0
10
79.667644
20
28.054741
10
79.765396
20
29.032258
10
80.449658
20
29.521017
10
80.449658
20
30.205279
10
81.524927
20
31.280547
10
82.013685
20
31.671554
10
82.013685
20
31.964809
10
82.502444
20
32.551320
10
82.991202
20
32.649071
10
83.186706
20
32.355816
10
84.652981
20
32.746823
10
85.532747
20
33.235582
10
86.412512
20
33.235582
0
LWPOLYLINE
8
RIVERS
90
5
70
0
10
85.141740
20
29.325513
10
85.337243
20
30.009775
10
86.021505
20
30.791789
10
87.292278
20
31.280547
10
88.172043
20
31.867058
0
LWPOLYLINE
8
RIVERS
90
6
70
0
10
88.563050
20
29.423265
10
88.758553
20
29.618768
10
90.518084
20
29.521017
10
91.300098
20
30.303030
10
91.691105
20
30.303030
10
92.179863
20
30.694037
0
LWPOLYLINE
8
RIVERS
90
13
70
0
10
98.044966
20
30.303030
10
97.947214
20
31.378299
10
98.435973
20
31.964809
10
98.533724
20
32.453568
10
98.826979
20
32.844575
10
99.902248
20
33.333333
10
100.000000
20
33.724340
10
99.902248
20
34.408602
10
99.511241
20
34.995112
10
99.511241
20
36.461388
10
99.120235
20
37.536657
10
99.804497
20
38.611926
10
100.000000
20
39.491691
0
LWPOLYLINE
8
RIVERS
90
18
70
0
10
68.035191
20
30.987292
10
68.132942
20
31.671554
10
68.426197
20
31.769306
10
69.794721
20
33.235582
10
70.185728
20
33.431085
10
70.185728
20
33.724340
10
70.772239
20
34.310850
10
71.358749
20
34.506354
10
71.456500
20
35.092864
10
71.260997
20
35.581623
10
71.554252
20
35.874878
10
72.043011
20
35.874878
10
72.629521
20
36.363636
10
73.704790
20
36.363636
10
74.682307
20
36.559140
10
74.780059
20
35.679374
10
74.486804
20
35.386119
10
74.291300
20
34.701857
0
LWPOLYLINE
8
RIVERS
90
14
70
0
10
67.644184
20
31.182796
10
67.741935
20
31.573803
10
67.546432
20
31.867058
10
67.644184
20
32.355816
10
68.132942
20
32.844575
10
68.328446
20
33.333333
10
68.132942
20
33.528837
10
67.937439
20
34.408602
10
68.328446
20
34.701857
10
68.719453
20
34.701857
10
69.110459
20
34.995112
10
69.501466
20
34.995112
10
69.501466
20
35.581623
10
68.719453
20
36.363636
0
LWPOLYLINE
8
RIVERS
90
43
70
0
10
92.570870
20
32.258065
10
92.179863
20
32.746823
10
92.179863
20
33.333333
10
91.593353
20
33.724340
10
91.006843
20
34.310850
10
90.518084
20
34.408602
10
90.420332
20
34.701857
10
89.442815
20
35.581623
10
88.856305
20
35.972630
10
88.172043
20
36.070381
10
87.096774
20
36.852395
10
86.901271
20
37.243402
10
86.608016
20
37.243402
10
86.119257
20
37.634409
10
86.119257
20
38.025415
10
85.630499
20
38.318671
10
85.434995
20
39.100684
10
84.946237
20
39.198436
10
84.848485
20
39.589443
10
84.457478
20
39.882698
10
84.261975
20
40.469208
10
83.968719
20
40.762463
10
83.968719
20
41.251222
10
83.088954
20
41.739980
10
81.036168
20
41.739980
10
80.156403
20
41.935484
10
79.667644
20
41.739980
10
79.178886
20
42.130987
10
78.396872
20
42.033236
10
78.005865
20
42.521994
10
77.517107
20
42.815249
10
77.419355
20
43.206256
10
76.735093
20
43.304008
10
76.246334
20
42.815249
10
75.562072
20
43.695015
10
74.877810
20
43.988270
10
74.780059
20
43.499511
10
74.193548
20
42.913001
10
73.900293
20
42.326491
10
73.998045
20
41.153470
10
74.193548
20
40.860215
10
74.193548
20
40.175953
10
73.900293
20
39.589443
0
LWPOLYLINE
8
RIVERS
90
8
70
0
10
79.569892
20
33.919844
10
80.156403
20
34.310850
10
80.645161
20
34.408602
10
80.938416
20
34.701857
10
81.818182
20
35.092864
10
82.306940
20
35.581623
10
82.697947
20
35.581623
10
84.066471
20
36.656891
0
LWPOLYLINE
8
RIVERS
90
47
70
0
10
95.698925
20
34.604106
10
95.405670
20
34.701857
10
95.014663
20
35.190616
10
94.428152
20
35.386119
10
94.428152
20
36.363636
10
94.134897
20
37.047898
10
93.841642
20
37.341153
10
93.841642
20
38.709677
10
93.450635
20
39.393939
10
93.548387
20
40.566960
10
92.961877
20
41.837732
10
92.961877
20
42.717498
10
92.766373
20
43.206256
10
93.059629
20
43.597263
10
93.059629
20
43.988270
10
92.766373
20
44.379277
10
92.179863
20
45.747801
10
91.984360
20
47.116325
10
91.691105
20
47.214076
10
90.909091
20
47.996090
10
90.811339
20
48.875855
10
90.518084
20
49.071359
10
90.518084
20
49.462366
10
90.127077
20
49.755621
10
90.224829
20
50.733138
10
88.758553
20
49.364614
10
88.465298
20
48.778104
10
88.465298
20
48.387097
10
88.074291
20
47.507331
10
88.074291
20
46.334311
10
88.269795
20
46.236559
10
88.367546
20
45.552297
10
88.367546
20
43.890518
10
88.269795
20
43.206256
10
88.660802
20
42.815249
10
88.758553
20
42.424242
10
89.149560
20
42.130987
10
89.540567
20
40.762463
10
90.029326
20
40.469208
10
90.127077
20
40.078201
10
90.713587
20
39.784946
10
90.713587
20
39.491691
10
91.104594
20
39.002933
10
91.104594
20
38.514174
10
91.397849
20
38.123167
10
91.495601
20
37.243402
10
91.886608
20
36.656891
0
LWPOLYLINE
8
RIVERS
90
13
70
0
10
63.049853
20
35.092864
10
63.245357
20
35.190616
10
63.147605
20
35.874878
10
63.636364
20
35.874878
10
63.929619
20
36.265885
10
64.613881
20
36.265885
10
65.004888
20
36.070381
10
65.689150
20
36.070381
10
65.884653
20
36.461388
10
66.568915
20
36.363636
10
66.959922
20
36.656891
10
67.546432
20
36.461388
10
68.132942
20
36.559140
0
LWPOLYLINE
8
RIVERS
90
29
70
0
10
60.312805
20
37.438905
10
60.606061
20
37.732160
10
60.606061
20
38.220919
10
60.899316
20
38.709677
10
60.801564
20
38.905181
10
61.192571
20
39.296188
10
60.899316
20
39.687195
10
60.899316
20
40.273705
10
61.583578
20
40.469208
10
61.583578
20
40.860215
10
61.974585
20
41.837732
10
62.658847
20
41.837732
10
62.854350
20
42.228739
10
63.734115
20
42.228739
10
64.418377
20
42.521994
10
64.613881
20
42.033236
10
65.493646
20
41.153470
10
65.591398
20
40.566960
10
66.373412
20
39.980450
10
66.764418
20
39.980450
10
67.253177
20
39.589443
10
68.035191
20
39.491691
10
68.817204
20
39.100684
10
69.110459
20
38.709677
10
69.208211
20
38.123167
10
69.696970
20
37.732160
10
70.967742
20
37.341153
10
72.434018
20
37.438905
10
73.020528
20
37.829912
0
LWPOLYLINE
8
RIVERS
90
10
70
0
10
80.742913
20
39.589443
10
80.449658
20
39.980450
10
79.667644
20
40.175953
10
79.276637
20
40.469208
10
78.983382
20
40.273705
10
78.396872
20
40.566960
10
77.614858
20
40.566960
10
76.930596
20
41.544477
10
77.028348
20
42.130987
10
76.344086
20
42.717498
0
LWPOLYLINE
8
RIVERS
90
25
70
0
10
55.718475
20
40.566960
10
56.402737
20
40.957967
10
56.989247
20
40.860215
10
57.478006
20
41.153470
10
57.869013
20
42.815249
10
58.260020
20
42.619746
10
58.651026
20
42.913001
10
58.455523
20
43.108504
10
58.553275
20
43.695015
10
59.042033
20
43.695015
10
59.335288
20
43.401760
10
59.824047
20
43.792766
10
60.508309
20
43.988270
10
60.997067
20
44.477028
10
61.094819
20
44.965787
10
61.485826
20
45.650049
10
61.388074
20
46.041056
10
62.463343
20
46.823069
10
63.147605
20
47.507331
10
63.734115
20
47.605083
10
64.418377
20
48.680352
10
65.004888
20
48.973607
10
65.493646
20
48.973607
10
66.177908
20
48.680352
10
66.373412
20
48.387097
0
LWPOLYLINE
8
RIVERS
90
14
70
0
10
55.620723
20
40.664712
10
55.425220
20
41.837732
10
55.718475
20
41.739980
10
55.718475
20
42.228739
10
56.109482
20
42.619746
10
56.011730
20
43.010753
10
56.500489
20
43.108504
10
56.402737
20
43.597263
10
56.695992
20
44.086022
10
57.282502
20
44.574780
10
57.184751
20
45.259042
10
57.380254
20
45.259042
10
58.064516
20
46.041056
10
57.966764
20
46.334311
0
LWPOLYLINE
8
RIVERS
90
6
70
0
10
55.131965
20
41.153470
10
54.838710
20
41.739980
10
55.034213
20
41.837732
10
54.936461
20
42.326491
10
55.327468
20
42.521994
10
55.327468
20
42.913001
0
LWPOLYLINE
8
RIVERS
90
10
70
0
10
68.328446
20
42.326491
10
69.403715
20
42.521994
10
69.794721
20
43.108504
10
70.283480
20
43.108504
10
70.478983
20
43.401760
10
71.554252
20
43.108504
10
71.749756
20
43.401760
10
72.629521
20
43.695015
10
72.629521
20
43.304008
10
72.922776
20
42.619746
0
LWPOLYLINE
8
RIVERS
90
7
70
0
10
68.230694
20
42.424242
10
67.937439
20
42.913001
10
67.155425
20
43.695015
10
65.982405
20
44.086022
10
65.395894
20
43.499511
10
64.516129
20
43.206256
10
64.320626
20
42.619746
0
LWPOLYLINE
8
RIVERS
90
8
70
0
10
72.043011
20
43.597263
10
72.531769
20
43.988270
10
73.118280
20
43.890518
10
73.411535
20
44.183773
10
73.900293
20
44.086022
10
73.900293
20
44.379277
10
74.584555
20
44.477028
10
74.877810
20
44.086022
0
LWPOLYLINE
8
RIVERS
90
8
70
0
10
82.893451
20
44.086022
10
82.013685
20
44.770283
10
82.013685
20
46.334311
10
80.938416
20
47.214076
10
80.938416
20
46.334311
10
80.547410
20
45.845552
10
80.254154
20
45.063539
10
80.351906
20
44.379277
0
LWPOLYLINE
8
RIVERS
90
20
70
0
10
73.998045
20
44.477028
10
73.802542
20
45.063539
10
73.313783
20
45.356794
10
73.118280
20
45.747801
10
72.531769
20
46.236559
10
72.434018
20
46.529814
10
72.043011
20
46.529814
10
71.749756
20
46.920821
10
71.749756
20
47.409580
10
72.434018
20
47.605083
10
72.629521
20
47.898338
10
73.313783
20
47.800587
10
73.607038
20
47.507331
10
75.757576
20
47.507331
10
76.344086
20
47.214076
10
77.321603
20
47.018573
10
78.005865
20
46.529814
10
78.494624
20
46.529814
10
78.787879
20
46.041056
10
79.472141
20
45.454545
0
LWPOLYLINE
8
RIVERS
90
22
70
0
10
51.710655
20
45.356794
10
52.785924
20
46.041056
10
52.297165
20
46.138807
10
52.297165
20
46.432063
10
53.274682
20
46.823069
10
53.470186
20
47.018573
10
54.056696
20
47.018573
10
54.154448
20
47.409580
10
54.740958
20
47.214076
10
54.545455
20
48.093842
10
54.252199
20
48.582600
10
54.154448
20
49.266862
10
53.665689
20
49.462366
10
53.567937
20
49.755621
10
52.492669
20
50.830890
10
52.199413
20
51.515152
10
53.861193
20
51.417400
10
54.252199
20
52.003910
10
55.522972
20
51.906158
10
56.011730
20
52.297165
10
56.304985
20
53.372434
10
56.011730
20
53.665689
0
LWPOLYLINE
8
RIVERS
90
15
70
0
10
47.116325
20
45.454545
10
47.116325
20
46.041056
10
47.996090
20
46.432063
10
48.484848
20
46.920821
10
49.169110
20
47.996090
10
48.973607
20
48.387097
10
48.289345
20
48.484848
10
47.898338
20
49.071359
10
47.018573
20
49.462366
10
46.920821
20
49.657869
10
45.943304
20
50.048876
10
44.965787
20
51.026393
10
44.574780
20
51.124145
10
44.086022
20
51.710655
10
44.379277
20
52.297165
0
LWPOLYLINE
8
RIVERS
90
7
70
0
10
59.628543
20
45.650049
10
59.921799
20
46.138807
10
59.726295
20
47.116325
10
59.335288
20
47.507331
10
59.139785
20
48.289345
10
59.628543
20
48.778104
10
59.139785
20
49.755621
0
LWPOLYLINE
8
RIVERS
90
11
70
0
10
57.966764
20
46.823069
10
57.771261
20
47.702835
10
57.380254
20
47.996090
10
56.695992
20
48.191593
10
56.695992
20
48.680352
10
56.989247
20
49.169110
10
56.695992
20
50.733138
10
56.989247
20
51.515152
10
57.869013
20
51.417400
10
58.748778
20
52.003910
10
58.455523
20
52.199413
0
LWPOLYLINE
8
RIVERS
90
8
70
0
10
70.772239
20
47.018573
10
70.185728
20
47.409580
10
69.403715
20
47.409580
10
68.914956
20
47.702835
10
67.741935
20
47.409580
10
67.350929
20
47.702835
10
66.666667
20
47.800587
10
66.373412
20
47.311828
0
LWPOLYLINE
8
RIVERS
90
9
70
0
10
36.656891
20
47.214076
10
37.145650
20
47.605083
10
37.145650
20
48.680352
10
37.536657
20
48.680352
10
37.829912
20
48.973607
10
38.318671
20
48.973607
10
38.416422
20
48.680352
10
38.905181
20
48.484848
10
39.002933
20
48.778104
0
LWPOLYLINE
8
RIVERS
90
9
70
0
10
80.938416
20
47.311828
10
80.742913
20
48.582600
10
80.156403
20
49.462366
10
79.765396
20
50.537634
10
78.983382
20
51.417400
10
78.592375
20
51.612903
10
78.592375
20
52.003910
10
78.299120
20
52.785924
10
78.103617
20
52.688172
0
LWPOLYLINE
8
RIVERS
90
6
70
0
10
88.074291
20
47.605083
10
87.976540
20
47.996090
10
88.269795
20
48.484848
10
88.367546
20
49.364614
10
88.954057
20
50.146628
10
89.345064
20
50.244379
0
LWPOLYLINE
8
RIVERS
90
5
70
0
10
72.531769
20
47.996090
10
72.434018
20
48.484848
10
72.727273
20
49.364614
10
72.238514
20
49.657869
10
71.749756
20
50.537634
0
LWPOLYLINE
8
RIVERS
90
8
70
0
10
64.027370
20
48.289345
10
63.831867
20
48.582600
10
63.245357
20
48.680352
10
62.854350
20
49.071359
10
61.583578
20
49.657869
10
60.703812
20
50.439883
10
60.019550
20
50.830890
10
59.433040
20
50.830890
0
LWPOLYLINE
8
RIVERS
90
35
70
0
10
48.875855
20
48.484848
10
49.071359
20
48.875855
10
48.875855
20
50.537634
10
48.582600
20
51.906158
10
48.875855
20
52.394917
10
48.778104
20
52.883675
10
47.996090
20
53.763441
10
48.191593
20
54.545455
10
47.800587
20
54.936461
10
47.702835
20
55.718475
10
47.409580
20
56.011730
10
47.116325
20
56.989247
10
46.823069
20
57.478006
10
46.432063
20
57.478006
10
45.747801
20
57.869013
10
45.161290
20
58.748778
10
44.965787
20
59.530792
10
43.890518
20
60.606061
10
43.597263
20
61.388074
10
43.010753
20
61.681329
10
42.913001
20
62.072336
10
42.424242
20
62.170088
10
41.935484
20
63.245357
10
41.348974
20
63.245357
10
40.762463
20
63.538612
10
40.371457
20
64.222874
10
40.371457
20
64.907136
10
40.957967
20
65.591398
10
41.348974
20
66.275660
10
41.837732
20
66.080156
10
42.326491
20
65.493646
10
42.913001
20
65.298143
10
43.401760
20
65.786901
10
44.477028
20
65.884653
10
45.063539
20
66.177908
0
LWPOLYLINE
8
RIVERS
90
13
70
0
10
38.611926
20
48.875855
10
39.002933
20
49.364614
10
39.784946
20
49.266862
10
40.664712
20
49.853372
10
41.153470
20
49.853372
10
41.446725
20
50.146628
10
41.935484
20
50.146628
10
42.228739
20
50.830890
10
42.717498
20
51.319648
10
42.913001
20
51.808407
10
43.206256
20
52.003910
10
43.304008
20
54.154448
10
43.597263
20
54.643206
0
LWPOLYLINE
8
RIVERS
90
12
70
0
10
40.371457
20
49.853372
10
40.762463
20
50.439883
10
41.055718
20
50.439883
10
41.153470
20
50.830890
10
42.424242
20
51.710655
10
42.130987
20
52.003910
10
42.130987
20
52.492669
10
41.251222
20
53.372434
10
41.055718
20
53.372434
10
39.980450
20
54.447703
10
39.491691
20
54.447703
10
39.296188
20
54.740958
0
LWPOLYLINE
8
RIVERS
90
14
70
0
10
75.562072
20
49.951124
10
75.366569
20
50.733138
10
75.171065
20
50.635386
10
75.171065
20
51.319648
10
74.975562
20
51.808407
10
74.584555
20
51.906158
10
74.095797
20
52.297165
10
73.118280
20
52.492669
10
72.043011
20
52.492669
10
71.554252
20
52.003910
10
71.065494
20
52.003910
10
71.163245
20
51.417400
10
70.576735
20
51.124145
10
70.185728
20
50.048876
0
LWPOLYLINE
8
RIVERS
90
8
70
0
10
34.799609
20
50.048876
10
35.288368
20
50.244379
10
35.288368
20
50.733138
10
35.972630
20
51.612903
10
36.852395
20
51.906158
10
37.341153
20
51.808407
10
38.318671
20
52.297165
10
38.611926
20
52.297165
0
LWPOLYLINE
8
RIVERS
90
10
70
0
10
82.893451
20
50.733138
10
82.502444
20
51.417400
10
82.404692
20
52.003910
10
82.013685
20
52.394917
10
82.013685
20
52.785924
10
81.720430
20
53.079179
10
81.720430
20
53.763441
10
81.524927
20
54.154448
10
81.524927
20
54.838710
10
81.231672
20
55.620723
0
LWPOLYLINE
8
RIVERS
90
5
70
0
10
90.127077
20
50.830890
10
90.127077
20
51.417400
10
89.833822
20
51.710655
10
89.736070
20
51.417400
10
90.029326
20
51.026393
0
LWPOLYLINE
8
RIVERS
90
13
70
0
10
64.809384
20
51.515152
10
65.591398
20
51.710655
10
67.253177
20
51.710655
10
68.132942
20
52.199413
10
68.230694
20
52.883675
10
68.132942
20
53.372434
10
68.621701
20
53.665689
10
69.208211
20
53.567937
10
69.696970
20
52.981427
10
70.185728
20
52.981427
10
70.283480
20
52.688172
10
70.869990
20
52.492669
10
70.967742
20
52.003910
0
LWPOLYLINE
8
RIVERS
90
13
70
0
10
52.199413
20
51.612903
10
52.003910
20
51.808407
10
52.003910
20
52.492669
10
51.612903
20
52.590420
10
50.928641
20
53.763441
10
51.124145
20
54.838710
10
51.906158
20
55.034213
10
52.492669
20
55.522972
10
52.981427
20
55.522972
10
53.176931
20
55.131965
10
53.567937
20
54.936461
10
54.252199
20
54.936461
10
54.545455
20
55.131965
0
LWPOLYLINE
8
RIVERS
90
14
70
0
10
61.290323
20
51.808407
10
62.072336
20
51.808407
10
62.658847
20
52.199413
10
63.538612
20
52.590420
10
63.538612
20
52.883675
10
63.929619
20
53.470186
10
64.027370
20
54.447703
10
64.711632
20
55.229717
10
65.102639
20
55.425220
10
65.786901
20
55.425220
10
66.471163
20
55.620723
10
67.350929
20
55.620723
10
68.426197
20
54.643206
10
68.523949
20
53.763441
0
LWPOLYLINE
8
RIVERS
90
19
70
0
10
89.345064
20
52.394917
10
89.638319
20
52.394917
10
88.856305
20
53.079179
10
89.345064
20
53.470186
10
89.638319
20
54.154448
10
89.638319
20
58.553275
10
89.931574
20
59.042033
10
90.518084
20
59.530792
10
92.864125
20
59.824047
10
93.059629
20
59.433040
10
93.743891
20
59.335288
10
93.646139
20
59.139785
10
94.037146
20
58.651026
10
94.525904
20
58.651026
10
94.525904
20
59.042033
10
95.992180
20
59.139785
10
97.165200
20
59.726295
10
98.338221
20
60.117302
10
100.000000
20
61.094819
0
LWPOLYLINE
8
RIVERS
90
7
70
0
10
61.485826
20
52.688172
10
62.072336
20
53.665689
10
62.072336
20
54.447703
10
62.365591
20
54.643206
10
63.538612
20
54.740958
10
63.734115
20
54.447703
10
64.027370
20
54.643206
0
LWPOLYLINE
8
RIVERS
90
9
70
0
10
32.453568
20
52.981427
10
32.844575
20
53.079179
10
33.235582
20
53.567937
10
33.724340
20
53.567937
10
34.017595
20
53.861193
10
34.506354
20
53.861193
10
34.995112
20
54.349951
10
35.777126
20
54.252199
10
36.363636
20
53.861193
0
LWPOLYLINE
8
RIVERS
90
3
70
0
10
77.810362
20
53.079179
10
77.810362
20
53.861193
10
77.517107
20
54.349951
0
LWPOLYLINE
8
RIVERS
90
22
70
0
10
58.944282
20
53.274682
10
59.726295
20
53.372434
10
59.921799
20
53.958944
10
60.703812
20
55.034213
10
60.997067
20
55.913978
10
60.606061
20
56.402737
10
59.824047
20
56.793744
10
60.019550
20
57.478006
10
60.801564
20
57.478006
10
60.997067
20
57.869013
10
62.365591
20
58.455523
10
64.027370
20
58.455523
10
64.418377
20
58.748778
10
65.395894
20
59.042033
10
65.982405
20
58.260020
10
66.275660
20
58.162268
10
66.373412
20
57.673509
10
66.959922
20
57.282502
10
66.959922
20
56.402737
10
67.155425
20
56.011730
10
67.546432
20
55.913978
10
67.057674
20
56.598240
0
LWPOLYLINE
8
RIVERS
90
12
70
0
10
30.303030
20
54.740958
10
31.573803
20
55.327468
10
33.040078
20
55.327468
10
33.431085
20
55.034213
10
34.310850
20
54.936461
10
34.799609
20
55.229717
10
35.581623
20
55.425220
10
36.950147
20
55.522972
10
37.145650
20
55.425220
10
37.047898
20
56.304985
10
35.874878
20
57.478006
10
35.777126
20
57.478006
0
LWPOLYLINE
8
RIVERS
90
6
70
0
10
51.026393
20
54.838710
10
50.830890
20
55.913978
10
50.830890
20
56.598240
10
51.026393
20
57.282502
10
51.612903
20
57.380254
10
51.808407
20
57.086999
0
LWPOLYLINE
8
RIVERS
90
4
70
0
10
39.002933
20
55.131965
10
38.611926
20
55.522972
10
38.611926
20
56.011730
10
38.318671
20
56.500489
0
LWPOLYLINE
8
RIVERS
90
5
70
0
10
76.832845
20
55.131965
10
76.832845
20
55.620723
10
76.050831
20
56.304985
10
75.855327
20
57.673509
10
75.757576
20
57.282502
0
LWPOLYLINE
8
RIVERS
90
3
70
0
10
32.355816
20
55.522972
10
32.551320
20
55.718475
10
33.333333
20
58.064516
0
LWPOLYLINE
8
RIVERS
90
6
70
0
10
57.966764
20
55.620723
10
58.260020
20
56.500489
10
58.846530
20
56.989247
10
59.042033
20
57.673509
10
59.628543
20
57.869013
10
59.921799
20
57.478006
0
LWPOLYLINE
8
RIVERS
90
8
70
0
10
62.170088
20
55.913978
10
62.463343
20
56.207234
10
63.245357
20
56.207234
10
64.027370
20
56.695992
10
64.418377
20
56.793744
10
64.809384
20
57.184751
10
66.080156
20
57.282502
10
66.275660
20
57.673509
0
LWPOLYLINE
8
RIVERS
90
37
70
0
10
81.231672
20
56.109482
10
81.133920
20
56.793744
10
80.742913
20
57.282502
10
80.449658
20
58.162268
10
80.645161
20
58.357771
10
80.449658
20
59.042033
10
80.645161
20
59.139785
10
80.449658
20
60.215054
10
80.840665
20
60.703812
10
80.938416
20
61.388074
10
80.742913
20
61.681329
10
80.840665
20
62.267840
10
81.133920
20
62.463343
10
81.524927
20
63.147605
10
81.524927
20
63.734115
10
81.818182
20
63.831867
10
82.209189
20
64.320626
10
82.209189
20
64.711632
10
82.795699
20
65.102639
10
83.186706
20
65.102639
10
83.382209
20
65.689150
10
83.382209
20
66.275660
10
83.773216
20
66.568915
10
83.870968
20
67.839687
10
84.261975
20
67.839687
10
84.359726
20
67.253177
10
84.359726
20
65.298143
10
84.457478
20
65.004888
10
85.141740
20
64.711632
10
85.434995
20
64.320626
10
85.630499
20
63.245357
10
85.826002
20
63.049853
10
85.826002
20
62.267840
10
85.630499
20
61.876833
10
85.728250
20
60.801564
10
85.923754
20
60.215054
10
85.532747
20
59.921799
0
LWPOLYLINE
8
RIVERS
90
6
70
0
10
98.240469
20
56.109482
10
98.338221
20
57.478006
10
98.044966
20
57.869013
10
98.435973
20
58.357771
10
98.826979
20
59.237537
10
100.000000
20
60.215054
0
LWPOLYLINE
8
RIVERS
90
8
70
0
10
28.347996
20
56.598240
10
28.445748
20
56.989247
10
28.836755
20
57.282502
10
29.521017
20
56.793744
10
30.205279
20
56.793744
10
30.498534
20
57.282502
10
31.280547
20
57.380254
10
31.573803
20
57.184751
0
LWPOLYLINE
8
RIVERS
90
9
70
0
10
38.318671
20
56.989247
10
38.220919
20
57.771261
10
37.829912
20
57.966764
10
37.047898
20
58.846530
10
36.950147
20
59.824047
10
37.145650
20
60.508309
10
36.852395
20
60.899316
10
36.950147
20
62.072336
10
36.852395
20
62.365591
0
LWPOLYLINE
8
RIVERS
90
5
70
0
10
55.913978
20
56.989247
10
55.620723
20
57.282502
10
55.620723
20
57.869013
10
55.131965
20
58.553275
10
54.545455
20
58.064516
0
LWPOLYLINE
8
RIVERS
90
6
70
0
10
51.026393
20
57.380254
10
51.221896
20
58.553275
10
51.515152
20
58.748778
10
51.319648
20
60.312805
10
51.906158
20
60.606061
10
52.883675
20
60.703812
0
LWPOLYLINE
8
RIVERS
90
13
70
0
10
46.529814
20
57.673509
10
46.627566
20
58.162268
10
47.311828
20
58.553275
10
47.507331
20
58.455523
10
48.582600
20
58.455523
10
48.778104
20
59.530792
10
47.996090
20
60.117302
10
47.605083
20
60.703812
10
47.605083
20
61.974585
10
47.018573
20
63.147605
10
46.236559
20
63.734115
10
46.041056
20
64.125122
10
46.432063
20
64.613881
0
LWPOLYLINE
8
RIVERS
90
4
70
0
10
26.783969
20
57.869013
10
27.077224
20
58.357771
10
27.468231
20
58.064516
10
29.227761
20
58.064516
0
LWPOLYLINE
8
RIVERS
90
27
70
0
10
75.073314
20
57.869013
10
75.659824
20
57.966764
10
75.171065
20
58.748778
10
75.171065
20
59.335288
10
74.975562
20
59.628543
10
74.682307
20
60.606061
10
74.291300
20
61.485826
10
73.900293
20
62.072336
10
73.118280
20
64.613881
10
72.238514
20
65.982405
10
72.825024
20
66.373412
10
72.922776
20
67.253177
10
73.313783
20
67.253177
10
73.900293
20
66.959922
10
74.486804
20
66.373412
10
74.975562
20
66.275660
10
75.757576
20
65.591398
10
75.757576
20
65.395894
10
76.344086
20
65.200391
10
76.637341
20
64.907136
10
76.735093
20
64.222874
10
77.712610
20
62.658847
10
77.810362
20
62.072336
10
78.201369
20
61.388074
10
78.201369
20
60.606061
10
78.494624
20
60.215054
10
78.494624
20
59.824047
0
LWPOLYLINE
8
RIVERS
90
4
70
0
10
59.237537
20
58.064516
10
58.553275
20
58.846530
10
57.478006
20
59.139785
10
56.793744
20
59.824047
0
LWPOLYLINE
8
RIVERS
90
6
70
0
10
31.182796
20
58.651026
10
30.889541
20
59.237537
10
30.889541
20
60.019550
10
30.205279
20
60.703812
10
29.130010
20
60.606061
10
28.445748
20
60.703812
0
LWPOLYLINE
8
RIVERS
90
4
70
0
10
54.936461
20
58.651026
10
55.131965
20
59.237537
10
55.718475
20
59.335288
10
56.207234
20
59.824047
0
LWPOLYLINE
8
RIVERS
90
5
70
0
10
65.493646
20
59.042033
10
65.591398
20
60.117302
10
65.200391
20
60.312805
10
65.102639
20
60.703812
10
65.395894
20
61.192571
0
LWPOLYLINE
8
RIVERS
90
9
70
0
10
34.995112
20
59.726295
10
34.799609
20
60.508309
10
34.408602
20
60.801564
10
34.408602
20
61.388074
10
33.919844
20
61.583578
10
34.506354
20
61.681329
10
34.604106
20
61.876833
10
34.604106
20
63.049853
10
34.897361
20
63.245357
0
LWPOLYLINE
8
RIVERS
90
6
70
0
10
50.830890
20
60.801564
10
50.733138
20
61.290323
10
50.146628
20
61.681329
10
50.048876
20
62.267840
10
49.462366
20
62.952102
10
49.462366
20
63.343109
0
LWPOLYLINE
8
RIVERS
90
15
70
0
10
31.182796
20
61.388074
10
30.694037
20
62.170088
10
30.694037
20
62.952102
10
30.889541
20
62.952102
10
30.889541
20
63.734115
10
31.085044
20
63.831867
10
30.889541
20
64.809384
10
30.889541
20
65.395894
10
31.182796
20
65.786901
10
32.355816
20
65.786901
10
33.235582
20
65.200391
10
33.724340
20
65.200391
10
34.115347
20
65.591398
10
35.190616
20
65.493646
10
35.386119
20
65.004888
0
LWPOLYLINE
8
RIVERS
90
5
70
0
10
53.665689
20
61.974585
10
54.349951
20
62.658847
10
54.447703
20
63.147605
10
53.861193
20
63.734115
10
53.567937
20
63.636364
0
LWPOLYLINE
8
RIVERS
90
6
70
0
10
59.237537
20
62.365591
10
60.019550
20
62.756598
10
60.997067
20
62.854350
10
61.290323
20
63.147605
10
63.538612
20
63.538612
10
64.516129
20
64.027370
0
LWPOLYLINE
8
RIVERS
90
37
70
0
10
23.558162
20
63.929619
10
23.851417
20
64.125122
10
23.851417
20
64.613881
10
24.437928
20
65.200391
10
24.828935
20
65.786901
10
24.828935
20
67.057674
10
25.219941
20
67.741935
10
25.513196
20
68.621701
10
25.610948
20
69.403715
10
25.610948
20
71.260997
10
26.099707
20
71.847507
10
26.099707
20
72.434018
10
26.295210
20
72.922776
10
26.979472
20
72.922776
10
27.859238
20
73.313783
10
28.347996
20
72.727273
10
28.641251
20
71.945259
10
29.618768
20
70.185728
10
29.716520
20
69.501466
10
30.009775
20
69.501466
10
30.107527
20
69.110459
10
30.400782
20
69.110459
10
30.205279
20
68.621701
10
30.498534
20
68.523949
10
30.498534
20
68.132942
10
30.791789
20
68.132942
10
30.791789
20
67.644184
10
31.085044
20
67.350929
10
31.867058
20
68.230694
10
32.258065
20
68.426197
10
32.258065
20
68.817204
10
32.844575
20
69.305963
10
33.724340
20
69.403715
10
34.017595
20
69.305963
10
34.310850
20
68.817204
10
34.408602
20
68.132942
10
35.092864
20
67.644184
0
LWPOLYLINE
8
RIVERS
90
7
70
0
10
53.861193
20
63.929619
10
53.763441
20
64.613881
10
53.470186
20
64.907136
10
52.688172
20
66.275660
10
52.394917
20
65.982405
10
50.635386
20
65.982405
10
50.439883
20
65.884653
0
LWPOLYLINE
8
RIVERS
90
4
70
0
10
33.919844
20
65.493646
10
34.017595
20
66.177908
10
34.506354
20
66.764418
10
35.190616
20
66.862170
0
LWPOLYLINE
8
RIVERS
90
6
70
0
10
30.889541
20
65.591398
10
31.182796
20
65.884653
10
30.889541
20
66.177908
10
30.889541
20
66.959922
10
30.694037
20
67.057674
10
30.694037
20
67.644184
0
LWPOLYLINE
8
RIVERS
90
16
70
0
10
20.625611
20
65.786901
10
21.016618
20
66.080156
10
21.407625
20
66.764418
10
21.700880
20
66.764418
10
21.700880
20
67.350929
10
21.896383
20
67.937439
10
21.700880
20
68.523949
10
21.309873
20
69.012708
10
21.505376
20
69.892473
10
21.994135
20
70.381232
10
22.580645
20
70.381232
10
23.264907
20
71.163245
10
23.264907
20
71.749756
10
22.873900
20
72.140762
10
22.971652
20
73.216031
10
23.069404
20
73.216031
0
LWPOLYLINE
8
RIVERS
90
6
70
0
10
58.553275
20
65.884653
10
59.237537
20
66.177908
10
60.019550
20
66.764418
10
61.485826
20
66.959922
10
62.561095
20
67.644184
10
63.147605
20
67.644184
0
LWPOLYLINE
8
RIVERS
90
19
70
0
10
47.507331
20
66.080156
10
47.507331
20
66.764418
10
47.311828
20
66.862170
10
47.311828
20
67.448680
10
47.116325
20
67.741935
10
47.018573
20
69.794721
10
47.311828
20
70.283480
10
47.996090
20
70.772239
10
49.462366
20
70.772239
10
49.755621
20
70.967742
10
50.537634
20
70.576735
10
51.026393
20
70.674487
10
51.417400
20
70.087977
10
51.612903
20
69.501466
10
52.199413
20
69.403715
10
52.199413
20
68.230694
10
52.297165
20
67.546432
10
52.688172
20
66.764418
10
52.688172
20
66.373412
0
LWPOLYLINE
8
RIVERS
90
33
70
0
10
72.140762
20
66.080156
10
71.163245
20
66.959922
10
69.599218
20
68.230694
10
69.403715
20
68.719453
10
68.914956
20
69.403715
10
68.719453
20
69.990225
10
68.719453
20
71.554252
10
68.621701
20
71.652004
10
68.621701
20
73.411535
10
68.523949
20
74.095797
10
67.839687
20
75.855327
10
67.937439
20
77.223851
10
67.644184
20
77.419355
10
67.644184
20
78.690127
10
67.253177
20
78.983382
10
66.568915
20
78.983382
10
66.471163
20
78.787879
10
65.982405
20
78.885630
10
66.177908
20
79.276637
10
65.884653
20
79.276637
10
65.982405
20
79.765396
10
64.711632
20
80.938416
10
64.711632
20
81.133920
10
64.125122
20
82.209189
10
63.147605
20
82.991202
10
62.365591
20
83.773216
10
62.365591
20
84.164223
10
61.485826
20
85.434995
10
61.192571
20
86.999022
10
60.801564
20
87.390029
10
60.606061
20
87.976540
10
59.139785
20
89.345064
10
58.846530
20
90.029326
0
LWPOLYLINE
8
RIVERS
90
6
70
0
10
39.393939
20
67.448680
10
38.709677
20
68.230694
10
38.709677
20
68.621701
10
38.416422
20
69.599218
10
37.243402
20
69.892473
10
36.461388
20
69.403715
0
LWPOLYLINE
8
RIVERS
90
27
70
0
10
84.164223
20
68.132942
10
84.555230
20
68.914956
10
85.043988
20
69.403715
10
85.434995
20
69.501466
10
86.217009
20
70.381232
10
86.901271
20
70.674487
10
87.390029
20
71.163245
10
88.758553
20
71.065494
10
89.345064
20
70.772239
10
89.345064
20
70.478983
10
89.931574
20
69.990225
10
90.615836
20
69.892473
10
90.811339
20
69.501466
10
91.691105
20
68.719453
10
91.886608
20
68.328446
10
93.059629
20
68.426197
10
93.548387
20
68.621701
10
93.939394
20
69.012708
10
95.698925
20
69.110459
10
96.187683
20
69.403715
10
96.383187
20
69.892473
10
96.676442
20
69.990225
10
96.676442
20
70.576735
10
96.480938
20
71.065494
10
98.142717
20
72.238514
10
99.315738
20
72.140762
10
100.000000
20
72.531769
0
LWPOLYLINE
8
RIVERS
90
15
70
0
10
76.930596
20
68.621701
10
76.735093
20
69.012708
10
76.637341
20
69.892473
10
76.344086
20
70.185728
10
76.148583
20
71.163245
10
75.464321
20
71.749756
10
74.389052
20
71.847507
10
74.095797
20
72.043011
10
73.509286
20
72.043011
10
73.020528
20
72.238514
10
72.140762
20
72.238514
10
71.847507
20
71.945259
10
71.456500
20
72.238514
10
70.478983
20
72.238514
10
70.087977
20
72.531769
0
LWPOLYLINE
8
RIVERS
90
7
70
0
10
41.935484
20
69.110459
10
41.837732
20
69.599218
10
42.130987
20
70.087977
10
42.130987
20
71.358749
10
43.206256
20
71.554252
10
43.695015
20
71.065494
10
43.792766
20
70.087977
0
LWPOLYLINE
8
RIVERS
90
9
70
0
10
52.297165
20
69.110459
10
52.590420
20
69.794721
10
53.176931
20
70.087977
10
53.372434
20
69.794721
10
53.958944
20
69.892473
10
54.643206
20
70.283480
10
55.034213
20
70.869990
10
55.034213
20
71.260997
10
54.740958
20
70.674487
0
LWPOLYLINE
8
RIVERS
90
6
70
0
10
32.746823
20
69.305963
10
32.355816
20
70.478983
10
31.671554
20
71.163245
10
31.182796
20
71.358749
10
30.791789
20
71.749756
10
30.596285
20
72.434018
0
LWPOLYLINE
8
RIVERS
90
63
70
0
10
78.787879
20
69.794721
10
79.081134
20
70.283480
10
78.983382
20
70.967742
10
78.690127
20
71.358749
10
77.517107
20
72.140762
10
77.712610
20
73.118280
10
78.299120
20
73.704790
10
78.690127
20
74.389052
10
78.005865
20
74.975562
10
77.810362
20
75.366569
10
77.810362
20
75.953079
10
77.614858
20
76.637341
10
76.930596
20
77.419355
10
76.735093
20
78.201369
10
76.344086
20
78.592375
10
76.050831
20
79.667644
10
76.246334
20
79.863148
10
76.148583
20
80.351906
10
76.539589
20
80.351906
10
76.637341
20
80.938416
10
76.930596
20
81.427175
10
77.028348
20
82.111437
10
76.930596
20
82.795699
10
77.223851
20
82.991202
10
77.223851
20
83.968719
10
77.028348
20
84.066471
10
76.930596
20
85.532747
10
77.126100
20
86.119257
10
77.419355
20
86.314761
10
77.419355
20
86.705767
10
76.735093
20
86.608016
10
76.930596
20
87.194526
10
76.539589
20
87.585533
10
76.050831
20
87.683284
10
75.268817
20
87.390029
10
74.877810
20
87.683284
10
74.389052
20
88.367546
10
73.998045
20
89.247312
10
73.411535
20
89.638319
10
72.434018
20
89.736070
10
72.043011
20
89.442815
10
71.749756
20
89.638319
10
71.065494
20
89.442815
10
71.260997
20
88.465298
10
70.967742
20
88.172043
10
71.163245
20
87.390029
10
71.554252
20
86.999022
10
71.260997
20
86.803519
10
71.163245
20
86.217009
10
71.358749
20
86.021505
10
71.358749
20
85.337243
10
70.967742
20
84.848485
10
70.772239
20
83.675464
10
71.065494
20
83.382209
10
70.381232
20
82.795699
10
69.403715
20
82.795699
10
68.817204
20
82.600196
10
68.914956
20
81.231672
10
68.132942
20
80.742913
10
67.741935
20
80.645161
10
67.253177
20
80.254154
10
66.471163
20
80.254154
10
66.080156
20
79.863148
0
LWPOLYLINE
8
RIVERS
90
5
70
0
10
40.860215
20
70.087977
10
41.055718
20
70.381232
10
41.055718
20
71.065494
10
41.348974
20
71.554252
10
42.033236
20
71.358749
0
LWPOLYLINE
8
RIVERS
90
23
70
0
10
33.528837
20
71.260997
10
33.235582
20
71.945259
10
32.649071
20
72.434018
10
32.746823
20
72.922776
10
32.746823
20
74.486804
10
33.040078
20
74.780059
10
33.333333
20
75.953079
10
33.626588
20
76.148583
10
34.017595
20
77.517107
10
34.799609
20
77.419355
10
34.995112
20
76.637341
10
35.190616
20
76.637341
10
35.386119
20
75.953079
10
35.386119
20
74.584555
10
36.168133
20
73.704790
10
36.363636
20
72.922776
10
36.852395
20
72.434018
10
37.341153
20
72.434018
10
38.318671
20
71.847507
10
39.687195
20
71.847507
10
39.687195
20
71.749756
10
40.860215
20
71.749756
10
41.251222
20
71.554252
0
LWPOLYLINE
8
RIVERS
90
5
70
0
10
43.108504
20
71.652004
10
43.206256
20
72.825024
10
43.499511
20
73.118280
10
44.379277
20
73.411535
10
45.063539
20
73.216031
0
LWPOLYLINE
8
RIVERS
90
4
70
0
10
55.131965
20
71.652004
10
55.327468
20
72.043011
10
55.131965
20
72.434018
10
55.522972
20
73.118280
0
LWPOLYLINE
8
RIVERS
90
27
70
0
10
41.642229
20
73.118280
10
41.251222
20
73.509286
10
41.153470
20
73.998045
10
40.762463
20
74.584555
10
40.762463
20
74.877810
10
40.371457
20
75.562072
10
39.687195
20
76.246334
10
39.882698
20
76.832845
10
39.882698
20
77.908113
10
39.687195
20
78.005865
10
39.687195
20
78.592375
10
39.882698
20
79.178886
10
39.687195
20
79.472141
10
39.882698
20
79.960899
10
39.784946
20
80.449658
10
39.784946
20
81.524927
10
39.393939
20
82.013685
10
39.296188
20
82.502444
10
38.807429
20
82.795699
10
38.318671
20
83.382209
10
38.318671
20
83.675464
10
37.927664
20
84.066471
10
37.145650
20
85.239492
10
37.145650
20
83.773216
10
37.243402
20
83.577713
10
36.852395
20
82.991202
10
36.754643
20
82.209189
0
LWPOLYLINE
8
RIVERS
90
13
70
0
10
28.054741
20
73.216031
10
27.663734
20
73.607038
10
27.761486
20
74.682307
10
27.272727
20
75.268817
10
27.174976
20
76.735093
10
27.468231
20
77.028348
10
27.468231
20
77.614858
10
27.663734
20
77.908113
10
27.663734
20
78.592375
10
27.859238
20
79.081134
10
28.836755
20
79.081134
10
29.227761
20
78.592375
10
29.521017
20
78.494624
0
LWPOLYLINE
8
RIVERS
90
7
70
0
10
21.407625
20
73.509286
10
20.821114
20
74.291300
10
20.234604
20
74.486804
10
20.039101
20
75.171065
10
19.745846
20
75.464321
10
19.745846
20
76.246334
10
19.941349
20
76.735093
0
LWPOLYLINE
8
RIVERS
90
12
70
0
10
55.425220
20
73.607038
10
55.522972
20
74.193548
10
55.816227
20
74.682307
10
56.304985
20
74.975562
10
56.304985
20
75.366569
10
56.989247
20
75.659824
10
57.771261
20
75.659824
10
58.260020
20
76.148583
10
58.162268
20
77.028348
10
58.455523
20
77.321603
10
59.237537
20
76.832845
10
59.237537
20
76.637341
0
LWPOLYLINE
8
RIVERS
90
87
70
0
10
47.018573
20
73.704790
10
47.214076
20
74.291300
10
46.823069
20
74.975562
10
46.920821
20
75.659824
10
46.529814
20
76.050831
10
46.334311
20
78.396872
10
46.236559
20
78.592375
10
47.605083
20
79.374389
10
48.289345
20
79.863148
10
48.778104
20
80.645161
10
48.778104
20
81.427175
10
48.973607
20
82.697947
10
49.364614
20
83.479961
10
49.266862
20
83.870968
10
49.657869
20
84.652981
10
49.657869
20
85.728250
10
49.071359
20
86.412512
10
49.071359
20
86.705767
10
48.387097
20
87.390029
10
47.800587
20
87.585533
10
47.605083
20
87.878788
10
47.409580
20
89.051808
10
47.409580
20
90.127077
10
47.018573
20
90.615836
10
47.018573
20
91.006843
10
46.432063
20
91.691105
10
46.529814
20
92.082111
10
46.529814
20
93.255132
10
46.432063
20
93.743891
10
46.725318
20
93.841642
10
46.920821
20
94.623656
10
47.507331
20
95.210166
10
47.702835
20
94.721408
10
47.996090
20
95.014663
10
49.169110
20
95.112414
10
49.560117
20
94.525904
10
49.951124
20
94.525904
10
50.048876
20
94.916911
10
50.342131
20
95.014663
10
50.342131
20
95.992180
10
50.830890
20
96.383187
10
51.026393
20
96.187683
10
51.808407
20
96.089932
10
51.906158
20
95.796676
10
52.590420
20
95.698925
10
52.981427
20
95.894428
10
53.274682
20
95.698925
10
53.665689
20
95.894428
10
54.643206
20
95.894428
10
54.838710
20
96.089932
10
56.109482
20
95.992180
10
56.695992
20
96.383187
10
57.282502
20
96.383187
10
58.064516
20
96.676442
10
58.748778
20
97.360704
10
59.628543
20
97.458456
10
59.921799
20
97.653959
10
59.921799
20
98.533724
10
60.410557
20
98.631476
10
60.606061
20
98.338221
10
60.312805
20
97.262952
10
60.606061
20
96.676442
10
61.192571
20
96.383187
10
61.290323
20
95.698925
10
61.583578
20
95.698925
10
62.072336
20
96.480938
10
63.245357
20
97.556207
10
63.440860
20
98.338221
10
64.711632
20
99.608993
10
65.395894
20
99.315738
10
65.982405
20
98.631476
10
66.080156
20
98.142717
10
66.471163
20
98.142717
10
66.764418
20
97.653959
10
66.764418
20
95.992180
10
67.155425
20
95.210166
10
68.328446
20
93.841642
10
69.012708
20
92.375367
10
69.501466
20
91.886608
10
69.501466
20
91.495601
10
69.990225
20
91.300098
10
69.794721
20
90.322581
10
69.794721
20
89.736070
10
70.185728
20
89.540567
10
70.185728
20
89.247312
10
70.576735
20
89.149560
10
70.967742
20
89.345064
0
LWPOLYLINE
8
RIVERS
90
12
70
0
10
72.825024
20
74.389052
10
73.216031
20
74.389052
10
73.411535
20
75.171065
10
73.802542
20
75.464321
10
74.389052
20
75.464321
10
74.682307
20
75.268817
10
75.268817
20
75.268817
10
75.562072
20
75.073314
10
76.539589
20
75.171065
10
77.028348
20
74.877810
10
77.614858
20
74.780059
10
77.908113
20
75.171065
0
LWPOLYLINE
8
RIVERS
90
10
70
0
10
14.369501
20
75.171065
10
14.760508
20
75.268817
10
14.467253
20
75.659824
10
14.956012
20
75.659824
10
15.347019
20
76.441838
10
14.858260
20
77.517107
10
14.565005
20
77.712610
10
14.565005
20
78.787879
10
14.369501
20
79.374389
10
14.956012
20
79.667644
0
LWPOLYLINE
8
RIVERS
90
19
70
0
10
56.500489
20
76.637341
10
56.695992
20
76.735093
10
56.695992
20
77.321603
10
57.282502
20
78.103617
10
57.282502
20
79.178886
10
57.380254
20
79.569892
10
57.380254
20
80.742913
10
57.575758
20
81.036168
10
57.086999
20
81.524927
10
56.109482
20
82.013685
10
56.011730
20
82.404692
10
55.522972
20
82.991202
10
55.229717
20
82.893451
10
55.131965
20
82.111437
10
54.740958
20
81.720430
10
54.349951
20
81.720430
10
54.154448
20
81.231672
10
54.252199
20
79.765396
10
53.665689
20
79.374389
0
LWPOLYLINE
8
RIVERS
90
11
70
0
10
22.873900
20
76.735093
10
22.971652
20
77.614858
10
22.776149
20
78.299120
10
22.580645
20
78.396872
10
22.482893
20
78.983382
10
21.896383
20
79.472141
10
22.189638
20
80.156403
10
22.189638
20
80.645161
10
22.482893
20
80.742913
10
21.896383
20
80.938416
10
21.407625
20
81.622678
0
LWPOLYLINE
8
RIVERS
90
5
70
0
10
25.415445
20
77.419355
10
25.806452
20
77.517107
10
26.197458
20
77.908113
10
27.174976
20
77.908113
10
27.370479
20
77.614858
0
LWPOLYLINE
8
RIVERS
90
14
70
0
10
34.115347
20
77.614858
10
34.017595
20
77.810362
10
34.897361
20
79.081134
10
34.799609
20
79.569892
10
35.386119
20
80.254154
10
35.679374
20
81.036168
10
34.897361
20
82.111437
10
35.092864
20
83.088954
10
34.897361
20
83.675464
10
34.897361
20
84.750733
10
35.483871
20
85.043988
10
35.483871
20
85.630499
10
36.265885
20
86.510264
10
36.461388
20
87.878788
0
LWPOLYLINE
8
RIVERS
90
8
70
0
10
27.174976
20
78.103617
10
27.370479
20
78.396872
10
27.468231
20
79.667644
10
27.859238
20
79.863148
10
27.859238
20
80.254154
10
28.739003
20
80.254154
10
28.934506
20
79.960899
10
29.521017
20
79.667644
0
LWPOLYLINE
8
RIVERS
90
9
70
0
10
30.400782
20
78.396872
10
30.400782
20
79.081134
10
30.694037
20
79.472141
10
30.694037
20
80.058651
10
31.085044
20
80.742913
10
30.987292
20
81.720430
10
31.476051
20
81.622678
10
31.867058
20
81.329423
10
32.551320
20
81.133920
0
LWPOLYLINE
8
RIVERS
90
12
70
0
10
87.096774
20
78.787879
10
87.683284
20
78.983382
10
87.781036
20
79.765396
10
87.976540
20
80.058651
10
88.367546
20
80.058651
10
88.660802
20
80.449658
10
88.660802
20
81.036168
10
89.149560
20
81.427175
10
89.442815
20
81.915934
10
89.442815
20
82.306940
10
90.224829
20
82.893451
10
90.713587
20
83.088954
0
LWPOLYLINE
8
RIVERS
90
41
70
0
10
91.397849
20
78.885630
10
91.397849
20
79.374389
10
90.811339
20
79.863148
10
90.420332
20
80.840665
10
90.811339
20
81.720430
10
90.811339
20
83.088954
10
91.495601
20
84.066471
10
91.593353
20
85.337243
10
91.788856
20
85.532747
10
91.788856
20
86.608016
10
91.495601
20
87.487781
10
91.593353
20
88.367546
10
91.006843
20
89.345064
10
90.518084
20
89.736070
10
90.518084
20
90.127077
10
90.127077
20
90.713587
10
89.442815
20
90.713587
10
89.442815
20
90.909091
10
88.758553
20
91.397849
10
88.563050
20
91.984360
10
88.758553
20
92.961877
10
88.465298
20
93.157380
10
87.585533
20
94.232649
10
87.096774
20
94.525904
10
86.412512
20
94.525904
10
86.021505
20
95.014663
10
86.021505
20
95.601173
10
85.630499
20
96.285435
10
84.750733
20
96.969697
10
84.164223
20
97.751711
10
84.555230
20
97.653959
10
85.141740
20
98.240469
10
85.434995
20
98.826979
10
86.119257
20
98.729228
10
86.901271
20
98.435973
10
87.194526
20
98.044966
10
88.074291
20
98.044966
10
88.660802
20
97.653959
10
89.442815
20
97.458456
10
90.127077
20
96.969697
10
90.518084
20
96.969697
0
LWPOLYLINE
8
RIVERS
90
4
70
0
10
27.468231
20
79.765396
10
27.370479
20
80.351906
10
26.686217
20
80.938416
10
25.806452
20
80.840665
0
LWPOLYLINE
8
RIVERS
90
12
70
0
10
27.761486
20
80.156403
10
27.663734
20
80.840665
10
27.956989
20
82.306940
10
28.250244
20
82.600196
10
28.250244
20
83.675464
10
28.347996
20
84.359726
10
27.565982
20
85.239492
10
26.392962
20
86.412512
10
24.926686
20
86.217009
10
24.144673
20
85.630499
10
24.046921
20
84.848485
10
23.655914
20
84.359726
0
LWPOLYLINE
8
RIVERS
90
5
70
0
10
18.963832
20
80.254154
10
17.888563
20
81.622678
10
17.693060
20
82.209189
10
17.497556
20
81.915934
10
17.790811
20
81.622678
0
LWPOLYLINE
8
RIVERS
90
6
70
0
10
33.040078
20
80.840665
10
32.942326
20
81.427175
10
34.115347
20
81.524927
10
34.310850
20
81.818182
10
34.604106
20
81.720430
10
34.799609
20
82.209189
0
LWPOLYLINE
8
RIVERS
90
10
70
0
10
17.008798
20
82.013685
10
16.324536
20
82.404692
10
15.835777
20
82.404692
10
15.640274
20
82.697947
10
15.640274
20
83.479961
10
15.444770
20
83.773216
10
14.956012
20
83.773216
10
14.467253
20
84.457478
10
14.467253
20
85.141740
10
13.978495
20
85.239492
0
LWPOLYLINE
8
RIVERS
90
4
70
0
10
11.925709
20
83.284457
10
10.948192
20
84.750733
10
10.166178
20
84.750733
10
9.970674
20
85.239492
0
LWPOLYLINE
8
RIVERS
90
22
70
0
10
52.785924
20
83.479961
10
52.394917
20
83.870968
10
52.394917
20
84.261975
10
51.906158
20
85.239492
10
51.906158
20
85.826002
10
52.590420
20
86.510264
10
53.079179
20
86.705767
10
52.981427
20
87.487781
10
52.688172
20
87.781036
10
52.394917
20
88.660802
10
52.785924
20
89.149560
10
52.785924
20
89.442815
10
54.447703
20
90.909091
10
54.056696
20
91.397849
10
53.372434
20
91.691105
10
52.981427
20
92.179863
10
53.274682
20
92.570870
10
53.665689
20
93.450635
10
53.763441
20
94.134897
10
53.567937
20
94.428152
10
53.665689
20
95.014663
10
54.447703
20
95.698925
0
LWPOLYLINE
8
RIVERS
90
9
70
0
10
19.257087
20
83.773216
10
18.866080
20
84.261975
10
18.475073
20
84.164223
10
17.888563
20
84.457478
10
17.888563
20
84.848485
10
18.572825
20
85.239492
10
18.475073
20
85.728250
10
18.084066
20
85.728250
10
17.595308
20
85.239492
0
LWPOLYLINE
8
RIVERS
90
17
70
0
10
16.226784
20
84.457478
10
16.520039
20
84.555230
10
16.422287
20
85.337243
10
16.813294
20
85.532747
10
17.106549
20
86.314761
10
17.595308
20
86.510264
10
17.888563
20
86.901271
10
18.768328
20
87.585533
10
18.963832
20
88.367546
10
19.257087
20
88.758553
10
19.257087
20
89.540567
10
19.648094
20
90.029326
10
19.843597
20
90.615836
10
20.821114
20
91.495601
10
20.723363
20
91.984360
10
21.114370
20
91.886608
10
21.016618
20
92.179863
0
LWPOLYLINE
8
RIVERS
90
7
70
0
10
37.145650
20
85.337243
10
37.536657
20
85.532747
10
38.709677
20
86.608016
10
39.296188
20
86.608016
10
39.687195
20
86.119257
10
40.273705
20
86.119257
10
40.860215
20
85.826002
0
LWPOLYLINE
8
RIVERS
90
4
70
0
10
37.145650
20
85.532747
10
36.656891
20
86.412512
10
36.852395
20
86.901271
10
36.950147
20
87.683284
0
LWPOLYLINE
8
RIVERS
90
7
70
0
10
41.446725
20
86.217009
10
41.251222
20
86.901271
10
40.957967
20
87.194526
10
40.273705
20
87.390029
10
39.980450
20
87.683284
10
40.078201
20
87.976540
10
40.664712
20
88.074291
0
LWPOLYLINE
8
RIVERS
90
10
70
0
10
15.738025
20
86.705767
10
15.933529
20
87.096774
10
16.617791
20
87.585533
10
16.617791
20
87.976540
10
16.911046
20
88.465298
10
17.399804
20
88.660802
10
17.693060
20
89.149560
10
18.084066
20
89.247312
10
18.572825
20
89.638319
10
19.257087
20
89.736070
0
LWPOLYLINE
8
RIVERS
90
15
70
0
10
29.814272
20
87.096774
10
30.498534
20
87.194526
10
31.280547
20
87.683284
10
31.280547
20
87.976540
10
31.769306
20
88.269795
10
32.258065
20
89.247312
10
32.844575
20
89.638319
10
33.333333
20
90.322581
10
33.528837
20
90.224829
10
34.408602
20
91.104594
10
34.310850
20
91.300098
10
34.897361
20
92.179863
10
35.581623
20
92.375367
10
35.679374
20
92.179863
10
36.168133
20
92.277615
0
LWPOLYLINE
8
RIVERS
90
5
70
0
10
12.316716
20
87.194526
10
12.023460
20
87.976540
10
11.339198
20
88.172043
10
11.045943
20
87.781036
10
10.459433
20
87.683284
0
LWPOLYLINE
8
RIVERS
90
13
70
0
10
14.565005
20
87.683284
10
14.662757
20
88.172043
10
14.956012
20
88.269795
10
15.640274
20
88.954057
10
15.640274
20
89.442815
10
15.933529
20
90.029326
10
15.933529
20
91.006843
10
15.444770
20
91.593353
10
15.738025
20
91.984360
10
16.324536
20
92.082111
10
16.422287
20
92.375367
10
16.813294
20
92.375367
10
17.399804
20
92.961877
0
LWPOLYLINE
8
RIVERS
90
17
70
0
10
28.445748
20
88.954057
10
28.543500
20
90.224829
10
29.130010
20
90.811339
10
29.130010
20
91.104594
10
29.521017
20
91.593353
10
29.618768
20
92.277615
10
29.912023
20
92.277615
10
30.009775
20
92.864125
10
30.596285
20
93.646139
10
31.573803
20
94.623656
10
32.453568
20
94.623656
10
32.746823
20
94.330401
10
32.942326
20
93.646139
10
33.333333
20
93.157380
10
34.017595
20
92.766373
10
34.506354
20
92.766373
10
34.799609
20
92.179863
0
LWPOLYLINE
8
RIVERS
90
4
70
0
10
37.438905
20
88.954057
10
38.318671
20
89.149560
10
39.491691
20
89.149560
10
39.296188
20
89.247312
0
LWPOLYLINE
8
RIVERS
90
11
70
0
10
87.096774
20
89.149560
10
87.194526
20
89.833822
10
86.608016
20
90.615836
10
85.923754
20
91.006843
10
85.923754
20
91.495601
10
86.217009
20
92.277615
10
86.021505
20
92.864125
10
86.119257
20
93.255132
10
85.728250
20
94.134897
10
85.728250
20
94.721408
10
85.923754
20
95.112414
0
LWPOLYLINE
8
RIVERS
90
9
70
0
10
6.842620
20
89.540567
10
6.940371
20
89.736070
10
7.917889
20
89.736070
10
8.895406
20
90.127077
10
8.895406
20
90.518084
10
9.188661
20
90.811339
10
9.872923
20
90.909091
10
10.557185
20
91.593353
10
11.045943
20
91.788856
0
LWPOLYLINE
8
RIVERS
90
27
70
0
10
26.099707
20
90.127077
10
25.513196
20
90.615836
10
25.219941
20
90.615836
10
24.731183
20
91.104594
10
24.731183
20
91.691105
10
24.046921
20
92.179863
10
24.046921
20
92.473118
10
23.558162
20
93.450635
10
23.753666
20
94.525904
10
23.460411
20
95.210166
10
23.362659
20
96.187683
10
23.362659
20
97.458456
10
23.167155
20
97.556207
10
22.971652
20
98.240469
10
23.558162
20
98.142717
10
24.633431
20
98.142717
10
25.024438
20
98.240469
10
25.415445
20
97.458456
10
25.806452
20
97.165200
10
25.904203
20
96.480938
10
26.392962
20
95.698925
10
26.783969
20
95.503421
10
26.686217
20
94.623656
10
26.881720
20
94.428152
10
26.881720
20
93.743891
10
26.686217
20
93.352884
10
26.979472
20
92.179863
0
LWPOLYLINE
8
RIVERS
90
5
70
0
10
12.609971
20
90.713587
10
13.880743
20
90.811339
10
14.467253
20
91.202346
10
14.760508
20
91.691105
10
15.347019
20
91.788856
0
LWPOLYLINE
8
RIVERS
90
7
70
0
10
5.767351
20
91.691105
10
5.474096
20
91.984360
10
4.789834
20
92.277615
10
4.594330
20
92.570870
10
4.105572
20
92.570870
10
3.714565
20
92.277615
10
2.150538
20
91.984360
0
LWPOLYLINE
8
RIVERS
90
11
70
0
10
8.993157
20
92.082111
10
9.188661
20
92.375367
10
9.090909
20
93.059629
10
9.872923
20
93.548387
10
9.970674
20
93.841642
10
10.948192
20
93.646139
10
11.143695
20
93.841642
10
12.023460
20
93.743891
10
12.121212
20
94.623656
10
12.414467
20
94.721408
10
12.609971
20
95.503421
0
LWPOLYLINE
8
RIVERS
90
7
70
0
10
7.429130
20
93.255132
10
6.647116
20
93.352884
10
6.256109
20
93.743891
10
5.376344
20
93.841642
10
4.594330
20
94.330401
10
3.812317
20
94.232649
10
3.519062
20
94.330401
0
LWPOLYLINE
8
RIVERS
90
7
70
0
10
14.662757
20
93.841642
10
14.760508
20
93.841642
10
14.760508
20
94.916911
10
14.565005
20
95.601173
10
14.271750
20
95.992180
10
13.880743
20
97.067449
10
13.294233
20
97.262952
0
LWPOLYLINE
8
RIVERS
90
5
70
0
10
15.347019
20
96.285435
10
15.151515
20
97.165200
10
14.369501
20
97.849462
10
14.271750
20
97.165200
10
14.760508
20
96.578690
0
LWPOLYLINE
8
RIVERS
90
8
70
0
10
1.955034
20
96.383187
10
2.443793
20
96.676442
10
3.323558
20
96.383187
10
3.910068
20
96.969697
10
4.985337
20
97.067449
10
4.985337
20
97.849462
10
5.376344
20
98.142717
10
5.767351
20
98.142717
0
LWPOLYLINE
8
RIVERS
90
5
70
0
10
84.066471
20
97.947214
10
83.186706
20
98.338221
10
82.600196
20
98.924731
10
82.600196
20
99.706745
10
82.306940
20
99.902248
0
LWPOLYLINE
8
RIVERS
90
4
70
0
10
31.182796
20
98.044966
10
31.573803
20
98.240469
10
31.769306
20
99.315738
10
31.280547
20
100.000000
0
LWPOLYLINE
8
RIVERS
90
5
70
0
10
66.373412
20
98.240469
10
66.373412
20
98.729228
10
67.155425
20
99.511241
10
67.644184
20
99.608993
10
68.426197
20
100.000000
0
ENDSEC
0
EOF
