0
SECTION
2
HEADER
9
$ACADVER
1
AC1015
0
ENDSEC
0
SECTION
2
TABLES
0
TABLE
2
LAYER
70
1
0
LAYER
2
LAKES
70
0
62
5
6
CONTINUOUS
0
ENDTAB
0
ENDSEC
0
SECTION
2
ENTITIES
0
LWPOLYLINE
8
LAKES
90
163
70
0
10
15.655577
20
100.000000
10
18.199609
20
100.000000
10
18.395303
20
99.804305
10
18.395303
20
98.238748
10
18.786693
20
97.651663
10
18.786693
20
97.064579
10
18.590998
20
96.673190
10
17.808219
20
95.890411
10
17.612524
20
95.890411
10
16.634051
20
94.911937
10
16.634051
20
93.933464
10
16.242661
20
93.346380
10
16.242661
20
92.172211
10
16.046967
20
91.976517
10
16.046967
20
91.585127
10
15.851272
20
91.389432
10
15.851272
20
90.998043
10
15.264188
20
90.410959
10
15.264188
20
90.215264
10
14.481409
20
89.432485
10
14.481409
20
89.041096
10
14.285714
20
88.845401
10
14.285714
20
88.454012
10
13.894325
20
88.062622
10
13.894325
20
87.866928
10
12.915851
20
86.888454
10
12.915851
20
86.497065
10
12.720157
20
86.301370
10
12.720157
20
85.714286
10
12.524462
20
85.518591
10
12.524462
20
85.127202
10
11.937378
20
84.148728
10
11.937378
20
82.778865
10
11.154599
20
81.996086
10
11.154599
20
81.409002
10
10.958904
20
81.213307
10
10.958904
20
80.821918
10
10.763209
20
80.626223
10
10.763209
20
80.234834
10
10.176125
20
79.256360
10
10.176125
20
78.473581
10
10.371820
20
78.277886
10
10.371820
20
77.886497
10
10.176125
20
77.690802
10
10.176125
20
77.103718
10
9.980431
20
76.908023
10
9.980431
20
76.516634
10
9.784736
20
76.125245
10
9.393346
20
75.733855
10
9.589041
20
75.538160
10
9.589041
20
74.951076
10
9.784736
20
74.559687
10
10.176125
20
74.168297
10
10.567515
20
73.189824
10
10.958904
20
72.798434
10
10.958904
20
72.407045
10
12.133072
20
71.232877
10
12.720157
20
71.819961
10
13.111546
20
72.015656
10
13.894325
20
72.015656
10
14.090020
20
71.819961
10
14.872798
20
71.819961
10
15.264188
20
72.015656
10
15.459883
20
71.819961
10
15.851272
20
71.819961
10
16.242661
20
71.624266
10
16.829746
20
71.037182
10
17.808219
20
70.645793
10
18.199609
20
70.058708
10
18.590998
20
69.863014
10
18.982387
20
69.863014
10
20.156556
20
68.688845
10
20.156556
20
68.493151
10
20.547945
20
68.101761
10
20.547945
20
67.906067
10
20.939335
20
67.514677
10
21.135029
20
66.927593
10
21.330724
20
66.731898
10
21.330724
20
65.362035
10
21.917808
20
64.383562
10
21.917808
20
63.405088
10
21.722114
20
63.013699
10
22.113503
20
62.426614
10
22.113503
20
62.035225
10
22.309198
20
61.839530
10
22.113503
20
61.643836
10
22.113503
20
61.056751
10
21.917808
20
60.861057
10
21.917808
20
60.469667
10
22.504892
20
59.491194
10
23.091977
20
59.295499
10
23.483366
20
58.708415
10
23.483366
20
56.555773
10
22.896282
20
55.577299
10
22.896282
20
54.990215
10
23.091977
20
54.794521
10
23.091977
20
54.403131
10
23.287671
20
54.011742
10
24.070450
20
53.228963
10
24.266145
20
52.837573
10
24.266145
20
52.446184
10
26.223092
20
50.489237
10
26.418787
20
49.902153
10
26.614481
20
49.706458
10
27.984344
20
49.706458
10
28.571429
20
49.119374
10
28.571429
20
48.923679
10
28.962818
20
48.532290
10
29.158513
20
48.727984
10
29.745597
20
48.727984
10
29.941292
20
48.923679
10
30.724070
20
48.923679
10
31.311155
20
48.532290
10
31.506849
20
48.532290
10
31.898239
20
48.140900
10
32.093933
20
47.749511
10
32.093933
20
47.358121
10
32.289628
20
47.162427
10
32.681018
20
47.162427
10
33.659491
20
46.575342
10
33.855186
20
46.183953
10
33.855186
20
45.792564
10
34.050881
20
45.596869
10
34.050881
20
43.835616
10
33.659491
20
43.444227
10
33.659491
20
42.857143
10
34.050881
20
42.465753
10
34.442270
20
42.857143
10
35.029354
20
43.052838
10
35.616438
20
43.639922
10
35.616438
20
43.835616
10
36.203523
20
43.835616
10
36.399217
20
44.031311
10
36.203523
20
44.422701
10
36.399217
20
44.618395
10
36.399217
20
45.401174
10
36.790607
20
45.401174
10
37.377691
20
45.792564
10
37.377691
20
46.379648
10
38.356164
20
47.358121
10
39.334638
20
47.749511
10
39.530333
20
47.945205
10
39.921722
20
47.945205
10
40.508806
20
48.336595
10
40.900196
20
48.336595
10
41.095890
20
48.532290
10
41.487280
20
48.532290
10
41.682975
20
48.727984
10
42.074364
20
48.727984
10
42.270059
20
48.923679
10
42.661448
20
48.923679
10
43.444227
20
49.706458
10
43.444227
20
52.054795
10
43.835616
20
52.250489
10
43.835616
20
52.446184
10
43.444227
20
52.837573
10
43.052838
20
52.837573
10
42.661448
20
53.424658
10
42.465753
20
53.228963
10
42.465753
20
52.837573
10
42.270059
20
52.837573
10
42.270059
20
52.446184
10
42.661448
20
52.641879
0
LWPOLYLINE
8
LAKES
90
488
70
0
10
56.751468
20
100.000000
10
60.469667
20
100.000000
10
60.273973
20
99.804305
10
60.273973
20
99.217221
10
59.882583
20
98.825832
10
59.882583
20
98.238748
10
59.686888
20
97.847358
10
59.295499
20
97.651663
10
59.491194
20
97.260274
10
60.665362
20
96.086106
10
60.665362
20
95.694716
10
60.861057
20
95.499022
10
60.861057
20
94.129159
10
61.448141
20
93.542074
10
61.643836
20
93.150685
10
61.643836
20
92.563601
10
61.839530
20
92.367906
10
61.839530
20
91.780822
10
62.035225
20
91.585127
10
62.035225
20
88.845401
10
62.230920
20
88.649706
10
62.230920
20
88.062622
10
62.035225
20
87.866928
10
62.035225
20
87.084149
10
61.839530
20
86.888454
10
61.839530
20
85.909980
10
61.643836
20
85.714286
10
61.643836
20
84.735812
10
61.448141
20
84.540117
10
61.448141
20
82.778865
10
61.056751
20
82.583170
10
61.056751
20
81.604697
10
60.861057
20
81.409002
10
60.861057
20
79.843444
10
60.665362
20
79.647750
10
60.665362
20
79.256360
10
60.469667
20
79.060665
10
60.469667
20
77.299413
10
60.273973
20
77.103718
10
60.273973
20
76.125245
10
60.078278
20
75.929550
10
60.078278
20
75.342466
10
59.882583
20
75.146771
10
59.882583
20
74.755382
10
59.686888
20
74.559687
10
59.686888
20
74.168297
10
59.295499
20
73.581213
10
59.295499
20
72.015656
10
59.099804
20
71.819961
10
59.099804
20
71.428571
10
58.708415
20
70.841487
10
58.708415
20
69.667319
10
58.512720
20
69.471624
10
58.512720
20
68.884540
10
58.317025
20
68.688845
10
58.317025
20
68.297456
10
58.121331
20
68.101761
10
58.121331
20
67.514677
10
57.925636
20
67.318982
10
57.925636
20
66.927593
10
57.729941
20
66.731898
10
57.729941
20
66.144814
10
57.534247
20
65.949119
10
57.534247
20
65.557730
10
57.338552
20
65.362035
10
57.338552
20
64.579256
10
57.142857
20
64.383562
10
57.142857
20
63.600783
10
56.751468
20
63.013699
10
56.751468
20
62.622309
10
56.164384
20
61.643836
10
56.164384
20
61.448141
10
54.403131
20
59.686888
10
54.207436
20
59.295499
10
53.620352
20
59.295499
10
53.228963
20
58.904110
10
53.033268
20
58.512720
10
53.033268
20
58.121331
10
52.641879
20
57.925636
10
50.684932
20
55.968689
10
50.097847
20
55.772994
10
49.902153
20
55.381605
10
49.510763
20
54.990215
10
49.510763
20
54.207436
10
48.923679
20
53.816047
10
48.532290
20
53.816047
10
48.140900
20
53.620352
10
47.553816
20
53.033268
10
47.358121
20
52.641879
10
47.358121
20
52.250489
10
47.553816
20
52.054795
10
47.553816
20
51.272016
10
47.358121
20
51.076321
10
47.358121
20
50.684932
10
47.162427
20
50.293542
10
47.749511
20
49.315068
10
48.140900
20
49.315068
10
48.532290
20
48.727984
10
48.532290
20
46.183953
10
48.727984
20
45.988258
10
48.727984
20
45.401174
10
48.923679
20
45.205479
10
48.923679
20
44.422701
10
49.119374
20
44.227006
10
49.119374
20
42.270059
10
49.315068
20
42.074364
10
49.315068
20
40.704501
10
49.510763
20
40.313112
10
50.293542
20
39.530333
10
50.293542
20
39.334638
10
50.684932
20
38.943249
10
50.880626
20
38.943249
10
51.272016
20
38.551859
10
52.446184
20
38.551859
10
52.641879
20
38.747554
10
53.424658
20
38.747554
10
53.816047
20
38.943249
10
54.794521
20
39.921722
10
54.990215
20
40.508806
10
54.794521
20
40.704501
10
54.794521
20
41.095890
10
54.403131
20
41.487280
10
54.403131
20
43.444227
10
54.207436
20
43.639922
10
54.207436
20
45.792564
10
53.620352
20
46.379648
10
53.228963
20
46.575342
10
53.228963
20
49.706458
10
52.837573
20
50.097847
10
52.837573
20
50.684932
10
52.446184
20
51.272016
10
52.446184
20
51.467710
10
52.054795
20
51.859100
10
51.272016
20
51.859100
10
50.684932
20
52.250489
10
50.293542
20
52.250489
10
49.902153
20
52.641879
10
49.706458
20
53.033268
10
49.902153
20
53.424658
10
50.293542
20
53.424658
10
50.684932
20
53.620352
10
51.076321
20
53.424658
10
51.859100
20
52.641879
10
53.424658
20
52.641879
10
53.620352
20
52.250489
10
54.011742
20
51.859100
10
54.011742
20
51.467710
10
54.207436
20
51.076321
10
54.990215
20
50.293542
10
54.990215
20
50.097847
10
55.577299
20
49.510763
10
55.968689
20
49.510763
10
56.360078
20
48.923679
10
56.164384
20
48.727984
10
56.164384
20
48.336595
10
56.555773
20
47.749511
10
56.555773
20
45.596869
10
55.577299
20
44.618395
10
55.381605
20
44.227006
10
55.381605
20
43.444227
10
55.185910
20
43.248532
10
55.185910
20
42.661448
10
55.577299
20
42.270059
10
55.577299
20
41.682975
10
55.185910
20
41.291585
10
55.381605
20
41.095890
10
55.381605
20
40.704501
10
55.772994
20
40.313112
10
55.968689
20
40.313112
10
56.360078
20
39.921722
10
56.555773
20
40.117417
10
56.751468
20
39.921722
10
57.338552
20
39.921722
10
57.729941
20
39.726027
10
57.925636
20
39.921722
10
58.512720
20
39.921722
10
58.904110
20
39.726027
10
59.295499
20
39.334638
10
59.686888
20
39.138943
10
59.882583
20
38.551859
10
59.491194
20
37.964775
10
58.708415
20
37.964775
10
58.512720
20
37.769080
10
57.925636
20
37.769080
10
57.729941
20
37.573386
10
56.947162
20
37.573386
10
56.555773
20
37.181996
10
56.555773
20
36.790607
10
56.360078
20
36.399217
10
56.555773
20
36.007828
10
56.947162
20
35.616438
10
57.534247
20
35.420744
10
57.534247
20
35.225049
10
57.925636
20
35.225049
10
58.708415
20
36.007828
10
59.295499
20
35.420744
10
59.882583
20
35.420744
10
60.078278
20
35.225049
10
60.469667
20
35.225049
10
60.665362
20
35.029354
10
61.448141
20
35.029354
10
61.643836
20
34.833659
10
62.035225
20
34.833659
10
62.230920
20
34.637965
10
62.622309
20
34.637965
10
62.818004
20
34.833659
10
62.818004
20
35.225049
10
63.013699
20
35.225049
10
63.405088
20
35.616438
10
63.796477
20
35.812133
10
64.774951
20
35.812133
10
64.970646
20
36.203523
10
65.362035
20
36.594912
10
65.949119
20
36.594912
10
66.144814
20
36.790607
10
67.123288
20
36.203523
10
67.123288
20
36.007828
10
67.514677
20
35.616438
10
68.297456
20
35.616438
10
68.493151
20
35.420744
10
68.884540
20
35.420744
10
69.471624
20
36.007828
10
69.471624
20
37.964775
10
69.275930
20
38.160470
10
69.275930
20
40.313112
10
69.471624
20
40.704501
10
69.863014
20
41.095890
10
69.863014
20
41.291585
10
70.645793
20
42.074364
10
70.645793
20
42.661448
10
70.058708
20
43.639922
10
70.058708
20
45.988258
10
70.254403
20
45.792564
10
70.645793
20
45.792564
10
71.232877
20
46.183953
10
72.407045
20
46.183953
10
72.407045
20
44.814090
10
72.211350
20
44.422701
10
72.798434
20
43.444227
10
72.798434
20
42.661448
10
72.994129
20
42.465753
10
72.994129
20
41.682975
10
72.798434
20
41.487280
10
72.798434
20
41.095890
10
72.407045
20
40.508806
10
71.428571
20
39.530333
10
71.428571
20
38.943249
10
71.624266
20
38.747554
10
71.624266
20
38.160470
10
71.819961
20
37.964775
10
71.819961
20
36.986301
10
71.624266
20
36.790607
10
71.624266
20
35.029354
10
71.232877
20
34.442270
10
70.645793
20
33.855186
10
70.058708
20
33.659491
10
69.667319
20
33.268102
10
69.080235
20
33.072407
10
68.884540
20
32.876712
10
68.297456
20
32.876712
10
68.101761
20
33.072407
10
67.710372
20
33.072407
10
67.514677
20
32.876712
10
66.731898
20
32.876712
10
66.144814
20
33.268102
10
65.557730
20
32.681018
10
65.557730
20
32.485323
10
64.970646
20
31.898239
10
64.970646
20
31.702544
10
65.557730
20
31.115460
10
65.753425
20
31.115460
10
66.731898
20
30.136986
10
67.318982
20
30.136986
10
67.514677
20
30.332681
10
68.493151
20
30.332681
10
68.688845
20
30.136986
10
69.080235
20
30.136986
10
69.667319
20
29.745597
10
70.058708
20
29.745597
10
70.450098
20
29.549902
10
71.624266
20
28.375734
10
72.015656
20
28.375734
10
72.211350
20
28.180039
10
72.602740
20
28.180039
10
72.798434
20
27.984344
10
73.189824
20
27.984344
10
74.168297
20
27.397260
10
74.951076
20
26.614481
10
75.538160
20
26.418787
10
75.733855
20
26.614481
10
76.320939
20
26.614481
10
76.908023
20
26.223092
10
77.299413
20
25.831703
10
77.495108
20
25.244618
10
77.299413
20
25.048924
10
77.299413
20
24.461840
10
76.320939
20
23.483366
10
76.516634
20
23.287671
10
76.516634
20
22.700587
10
77.103718
20
22.113503
10
77.103718
20
20.743640
10
77.495108
20
20.352250
10
77.886497
20
20.156556
10
79.843444
20
20.156556
10
80.039139
20
19.960861
10
81.213307
20
19.960861
10
81.409002
20
19.765166
10
81.996086
20
19.765166
10
82.583170
20
19.373777
10
82.778865
20
19.373777
10
83.561644
20
18.590998
10
83.757339
20
18.590998
10
85.322896
20
17.025440
10
85.322896
20
16.046967
10
85.127202
20
15.655577
10
84.344423
20
14.872798
10
84.540117
20
14.481409
10
84.540117
20
13.502935
10
84.931507
20
13.111546
10
84.931507
20
12.915851
10
85.322896
20
12.524462
10
85.322896
20
12.133072
10
85.518591
20
11.937378
10
85.518591
20
11.154599
10
85.322896
20
10.958904
10
85.322896
20
10.371820
10
85.518591
20
10.176125
10
85.518591
20
9.784736
10
85.909980
20
9.589041
10
86.301370
20
9.197652
10
86.497065
20
9.197652
10
86.497065
20
8.806262
10
86.692759
20
8.610568
10
86.692759
20
7.632094
10
86.497065
20
7.436399
10
86.497065
20
7.045010
10
86.692759
20
6.849315
10
86.692759
20
6.262231
10
86.497065
20
6.066536
10
86.497065
20
5.675147
10
86.301370
20
5.283757
10
85.714286
20
4.696673
10
86.105675
20
4.109589
10
86.105675
20
3.718200
10
86.692759
20
3.326810
10
87.279843
20
2.739726
10
87.084149
20
2.544031
10
87.279843
20
2.348337
10
87.279843
20
1.761252
10
86.888454
20
1.174168
10
86.888454
20
0.978474
10
86.301370
20
0.391389
10
86.105675
20
0.391389
10
85.714286
20
0.000000
10
83.365949
20
0.000000
10
83.365949
20
0.587084
10
83.561644
20
0.978474
10
84.344423
20
1.761252
10
84.344423
20
1.956947
10
83.953033
20
2.348337
10
83.953033
20
3.326810
10
83.757339
20
3.522505
10
83.757339
20
3.913894
10
83.561644
20
4.109589
10
83.561644
20
5.675147
10
83.757339
20
6.066536
10
84.148728
20
6.457926
10
84.148728
20
6.653620
10
83.757339
20
7.045010
10
83.561644
20
7.045010
10
83.170254
20
7.436399
10
83.170254
20
7.827789
10
82.974560
20
8.023483
10
82.974560
20
9.001957
10
83.170254
20
9.393346
10
82.778865
20
9.980431
10
82.778865
20
11.154599
10
82.974560
20
11.350294
10
82.974560
20
11.741683
10
82.387476
20
12.328767
10
82.387476
20
13.698630
10
81.996086
20
14.285714
10
81.996086
20
14.872798
10
81.800391
20
15.264188
10
81.996086
20
15.459883
10
81.996086
20
15.851272
10
82.387476
20
16.438356
10
82.387476
20
16.634051
10
81.604697
20
17.416830
10
81.213307
20
17.612524
10
80.821918
20
17.612524
10
80.626223
20
17.808219
10
79.452055
20
17.808219
10
79.256360
20
18.003914
10
76.908023
20
18.003914
10
76.516634
20
18.395303
10
76.125245
20
18.590998
10
74.951076
20
18.590998
10
74.559687
20
18.786693
10
74.168297
20
19.178082
10
73.972603
20
19.569472
10
73.972603
20
20.352250
10
73.581213
20
20.547945
10
72.994129
20
21.135029
10
72.798434
20
21.526419
10
72.798434
20
22.309198
10
72.994129
20
22.700587
10
73.581213
20
23.287671
10
73.385519
20
23.483366
10
72.602740
20
23.483366
10
72.211350
20
23.679061
10
71.819961
20
24.070450
10
71.624266
20
24.461840
10
71.624266
20
24.853229
10
71.428571
20
25.048924
10
71.428571
20
26.027397
10
70.841487
20
26.418787
10
70.450098
20
26.418787
10
69.667319
20
27.201566
10
69.471624
20
27.201566
10
68.884540
20
27.788650
10
68.493151
20
27.788650
10
68.297456
20
27.984344
10
65.949119
20
27.984344
10
65.753425
20
28.180039
10
65.362035
20
28.180039
10
63.992172
20
29.549902
10
63.600783
20
29.549902
10
63.405088
20
29.745597
10
62.818004
20
29.158513
10
62.622309
20
28.571429
10
62.230920
20
28.180039
10
62.230920
20
27.984344
10
61.643836
20
27.397260
10
61.448141
20
27.397260
10
60.665362
20
26.614481
10
60.273973
20
26.418787
10
60.273973
20
26.223092
10
59.882583
20
25.831703
10
59.882583
20
25.244618
10
59.491194
20
24.657534
10
59.491194
20
24.461840
10
59.099804
20
24.070450
10
58.904110
20
23.679061
10
58.904110
20
23.091977
10
58.708415
20
22.700587
10
58.317025
20
22.309198
10
57.925636
20
21.330724
10
56.164384
20
19.569472
10
56.164384
20
19.373777
10
55.772994
20
18.982387
10
55.577299
20
18.982387
10
54.990215
20
18.395303
10
54.990215
20
18.199609
10
54.207436
20
17.416830
10
53.228963
20
17.025440
10
52.837573
20
16.634051
10
52.837573
20
16.438356
10
52.250489
20
15.851272
10
52.054795
20
15.851272
10
51.663405
20
15.459883
10
51.467710
20
15.459883
10
50.684932
20
14.677104
10
50.489237
20
14.285714
10
50.684932
20
13.894325
10
50.489237
20
13.698630
10
50.489237
20
13.111546
10
50.293542
20
12.915851
10
50.293542
20
12.524462
10
50.097847
20
12.133072
10
49.119374
20
11.154599
10
49.119374
20
10.958904
10
48.532290
20
10.371820
10
48.336595
20
9.784736
10
47.945205
20
9.393346
10
47.945205
20
9.001957
10
47.553816
20
8.610568
10
47.553816
20
8.414873
10
46.966732
20
7.827789
10
46.966732
20
7.436399
10
46.771037
20
7.240705
10
46.771037
20
6.849315
10
46.966732
20
6.653620
10
46.966732
20
5.870841
10
46.575342
20
5.283757
10
46.575342
20
4.892368
10
46.379648
20
4.500978
10
46.575342
20
4.500978
0
LWPOLYLINE
8
LAKES
90
176
70
0
10
92.954990
20
100.000000
10
97.260274
20
100.000000
10
96.673190
20
98.630137
10
96.477495
20
98.434442
10
96.477495
20
98.043053
10
95.890411
20
97.455969
10
95.890411
20
97.064579
10
95.694716
20
96.673190
10
95.303327
20
96.281800
10
95.303327
20
95.890411
10
95.107632
20
95.694716
10
95.107632
20
94.716243
10
95.499022
20
94.129159
10
95.499022
20
93.933464
10
95.107632
20
93.542074
10
95.107632
20
93.150685
10
94.911937
20
92.954990
10
94.911937
20
92.563601
10
95.107632
20
92.367906
10
95.107632
20
91.193738
10
94.716243
20
90.606654
10
94.716243
20
90.215264
10
94.520548
20
90.019569
10
94.520548
20
89.628180
10
94.129159
20
89.041096
10
94.129159
20
88.649706
10
93.933464
20
88.454012
10
93.933464
20
88.062622
10
93.542074
20
87.475538
10
93.542074
20
87.084149
10
93.346380
20
86.888454
10
93.346380
20
86.497065
10
93.150685
20
86.301370
10
93.150685
20
85.714286
10
92.759295
20
85.518591
10
92.563601
20
85.127202
10
92.563601
20
82.583170
10
92.954990
20
82.387476
10
93.346380
20
82.778865
10
93.933464
20
82.974560
10
94.129159
20
83.170254
10
94.520548
20
83.170254
10
94.716243
20
83.365949
10
95.107632
20
83.365949
10
95.890411
20
84.148728
10
96.477495
20
84.344423
10
96.868885
20
84.931507
10
96.868885
20
85.127202
10
97.651663
20
85.909980
10
98.434442
20
85.909980
10
98.825832
20
86.105675
10
99.804305
20
87.084149
10
100.000000
20
87.084149
10
100.000000
20
83.953033
10
99.608611
20
83.757339
10
99.608611
20
83.365949
10
99.217221
20
83.561644
10
98.825832
20
83.561644
10
98.238748
20
82.974560
10
98.238748
20
82.778865
10
97.651663
20
82.191781
10
97.260274
20
82.191781
10
96.868885
20
81.996086
10
96.281800
20
81.409002
10
95.890411
20
81.213307
10
95.499022
20
81.213307
10
94.911937
20
80.821918
10
94.520548
20
80.821918
10
94.129159
20
80.430528
10
93.737769
20
80.234834
10
93.150685
20
80.234834
10
92.563601
20
79.843444
10
91.389432
20
79.843444
10
90.606654
20
80.626223
10
90.410959
20
81.017613
10
90.410959
20
81.409002
10
90.215264
20
81.604697
10
90.215264
20
82.974560
10
90.019569
20
83.170254
10
89.628180
20
82.974560
10
89.236791
20
82.583170
10
88.845401
20
82.583170
10
88.649706
20
82.387476
10
88.258317
20
82.387476
10
88.062622
20
82.191781
10
87.671233
20
82.191781
10
87.475538
20
81.996086
10
86.888454
20
81.996086
10
86.497065
20
81.604697
10
86.497065
20
81.017613
10
86.301370
20
80.821918
10
86.301370
20
80.430528
10
86.105675
20
80.039139
10
86.301370
20
79.843444
10
86.692759
20
79.843444
10
86.888454
20
79.647750
10
86.888454
20
79.060665
10
87.279843
20
78.669276
10
87.671233
20
78.669276
10
87.475538
20
78.277886
10
87.475538
20
77.886497
10
87.084149
20
77.299413
10
86.105675
20
77.299413
10
85.322896
20
76.516634
10
85.322896
20
76.125245
10
84.540117
20
76.125245
10
84.344423
20
75.929550
10
83.953033
20
75.929550
10
83.561644
20
75.733855
10
83.170254
20
75.342466
10
82.778865
20
75.342466
10
82.387476
20
75.146771
10
81.996086
20
74.755382
10
81.800391
20
74.755382
10
81.409002
20
74.363992
10
81.409002
20
73.776908
10
81.213307
20
73.581213
10
81.213307
20
73.189824
10
80.626223
20
72.798434
10
80.626223
20
72.602740
10
80.234834
20
72.211350
10
80.234834
20
71.232877
10
80.430528
20
71.037182
10
80.234834
20
70.645793
10
79.647750
20
70.058708
10
79.647750
20
68.688845
10
79.452055
20
68.493151
10
79.452055
20
67.906067
10
78.864971
20
66.927593
10
79.060665
20
66.536204
10
79.060665
20
65.949119
10
78.864971
20
65.753425
10
78.864971
20
63.600783
10
79.060665
20
63.405088
10
78.864971
20
63.209393
10
78.864971
20
61.448141
10
79.256360
20
61.056751
10
79.452055
20
61.056751
10
80.039139
20
61.643836
10
80.430528
20
61.839530
10
81.409002
20
61.839530
10
81.604697
20
62.035225
10
82.387476
20
62.035225
10
82.583170
20
62.230920
10
83.365949
20
62.230920
10
83.561644
20
62.426614
10
85.518591
20
62.426614
10
86.301370
20
63.209393
10
86.888454
20
63.209393
10
87.279843
20
63.405088
10
87.475538
20
63.209393
10
88.062622
20
63.209393
10
88.454012
20
63.013699
10
89.236791
20
62.230920
10
89.432485
20
62.426614
10
90.019569
20
62.426614
10
90.215264
20
62.230920
10
90.410959
20
62.426614
10
91.585127
20
62.426614
10
91.780822
20
62.622309
10
92.367906
20
62.622309
10
92.563601
20
62.818004
10
92.954990
20
62.818004
10
93.346380
20
63.209393
10
95.890411
20
63.209393
10
96.086106
20
63.405088
10
96.868885
20
63.405088
10
97.455969
20
63.796477
10
97.651663
20
63.600783
10
97.847358
20
63.796477
10
98.238748
20
63.600783
10
98.630137
20
63.992172
10
99.021526
20
63.992172
10
99.217221
20
64.187867
10
100.000000
20
64.187867
10
100.000000
20
64.383562
0
LWPOLYLINE
8
LAKES
90
102
70
0
10
55.968689
20
99.804305
10
55.968689
20
99.412916
10
55.772994
20
99.217221
10
55.772994
20
98.825832
10
55.577299
20
98.434442
10
55.185910
20
98.043053
10
55.381605
20
97.847358
10
55.381605
20
97.455969
10
55.577299
20
97.260274
10
55.577299
20
96.673190
10
55.185910
20
96.281800
10
54.598826
20
96.868885
10
54.011742
20
97.064579
10
53.816047
20
97.260274
10
53.424658
20
97.260274
10
53.228963
20
97.455969
10
52.641879
20
97.455969
10
52.446184
20
97.651663
10
51.272016
20
97.651663
10
51.076321
20
97.847358
10
50.684932
20
97.847358
10
50.489237
20
98.043053
10
49.902153
20
98.043053
10
49.706458
20
98.238748
10
49.510763
20
98.043053
10
49.315068
20
98.238748
10
49.119374
20
98.043053
10
48.727984
20
98.043053
10
48.532290
20
98.238748
10
48.140900
20
98.238748
10
47.945205
20
98.434442
10
47.553816
20
98.434442
10
47.358121
20
98.630137
10
46.575342
20
98.630137
10
46.379648
20
98.825832
10
45.401174
20
98.825832
10
45.009785
20
99.021526
10
44.618395
20
99.412916
10
44.031311
20
99.608611
10
43.835616
20
99.804305
10
43.052838
20
99.804305
10
42.857143
20
100.000000
10
36.399217
20
100.000000
10
36.203523
20
99.608611
10
36.790607
20
99.217221
10
37.181996
20
99.217221
10
38.160470
20
98.630137
10
38.747554
20
98.630137
10
38.943249
20
98.434442
10
39.334638
20
98.434442
10
40.313112
20
97.847358
10
40.900196
20
97.847358
10
41.095890
20
98.043053
10
41.487280
20
98.043053
10
41.682975
20
97.847358
10
42.074364
20
97.847358
10
42.270059
20
97.651663
10
43.052838
20
97.651663
10
43.639922
20
97.260274
10
43.835616
20
97.260274
10
44.227006
20
96.868885
10
44.814090
20
96.673190
10
45.009785
20
96.477495
10
45.596869
20
96.477495
10
45.792564
20
96.673190
10
45.988258
20
96.477495
10
46.379648
20
96.477495
10
46.575342
20
96.281800
10
47.358121
20
96.281800
10
47.945205
20
95.890411
10
48.532290
20
95.890411
10
48.727984
20
95.694716
10
49.510763
20
95.694716
10
49.902153
20
95.890411
10
50.097847
20
95.694716
10
50.489237
20
95.694716
10
50.684932
20
95.499022
10
51.272016
20
95.499022
10
51.467710
20
95.303327
10
52.250489
20
95.303327
10
52.837573
20
94.911937
10
53.228963
20
94.911937
10
53.816047
20
94.324853
10
54.011742
20
94.324853
10
54.403131
20
93.933464
10
54.403131
20
92.954990
10
54.598826
20
92.759295
10
54.598826
20
92.172211
10
54.794521
20
91.976517
10
54.403131
20
91.585127
10
53.424658
20
91.976517
10
53.033268
20
92.367906
10
52.641879
20
91.976517
10
52.641879
20
91.780822
10
52.054795
20
91.193738
10
52.054795
20
90.802348
10
52.641879
20
90.215264
10
52.641879
20
89.823875
10
52.250489
20
89.628180
10
51.663405
20
90.019569
10
51.467710
20
90.019569
10
51.467710
20
90.410959
0
LWPOLYLINE
8
LAKES
90
10
70
0
10
13.698630
20
94.716243
10
13.894325
20
95.107632
10
13.894325
20
95.499022
10
14.285714
20
96.086106
10
14.285714
20
96.477495
10
14.677104
20
96.673190
10
14.872798
20
96.477495
10
16.242661
20
97.847358
10
16.242661
20
99.021526
10
15.655577
20
99.608611
0
LWPOLYLINE
8
LAKES
90
74
70
0
10
51.467710
20
89.823875
10
51.272016
20
89.432485
10
50.097847
20
88.258317
10
50.097847
20
86.301370
10
50.293542
20
86.105675
10
51.076321
20
86.105675
10
51.663405
20
86.497065
10
51.859100
20
86.497065
10
52.641879
20
87.279843
10
53.033268
20
86.692759
10
53.033268
20
86.497065
10
53.424658
20
86.105675
10
53.620352
20
85.518591
10
53.816047
20
85.322896
10
53.816047
20
84.931507
10
54.207436
20
84.344423
10
54.207436
20
82.387476
10
54.011742
20
81.996086
10
53.620352
20
81.604697
10
53.424658
20
81.800391
10
53.424658
20
82.778865
10
53.228963
20
82.974560
10
52.641879
20
82.974560
10
52.446184
20
82.778865
10
51.859100
20
83.365949
10
51.859100
20
83.757339
10
51.663405
20
83.953033
10
50.880626
20
83.953033
10
50.684932
20
83.757339
10
50.880626
20
83.561644
10
50.880626
20
82.974560
10
51.272016
20
82.583170
10
51.467710
20
82.191781
10
51.467710
20
81.800391
10
51.663405
20
81.604697
10
51.663405
20
81.213307
10
51.467710
20
81.017613
10
51.076321
20
81.017613
10
50.880626
20
80.821918
10
50.489237
20
80.821918
10
49.706458
20
81.604697
10
49.315068
20
81.604697
10
48.727984
20
81.996086
10
48.532290
20
81.996086
10
48.140900
20
82.387476
10
47.553816
20
82.583170
10
47.358121
20
82.778865
10
46.771037
20
82.778865
10
46.379648
20
83.170254
10
45.988258
20
83.365949
10
45.401174
20
83.365949
10
45.205479
20
83.561644
10
44.618395
20
83.561644
10
44.422701
20
83.757339
10
43.248532
20
83.757339
10
43.052838
20
83.953033
10
41.682975
20
83.953033
10
41.487280
20
84.148728
10
40.900196
20
84.148728
10
40.704501
20
84.344423
10
40.313112
20
84.344423
10
39.921722
20
84.540117
10
39.530333
20
84.931507
10
39.334638
20
84.931507
10
38.943249
20
85.322896
10
38.747554
20
85.322896
10
37.964775
20
86.105675
10
37.573386
20
86.301370
10
36.986301
20
86.301370
10
36.790607
20
86.497065
10
36.203523
20
86.497065
10
35.225049
20
87.475538
10
34.833659
20
87.475538
10
34.833659
20
87.671233
0
LWPOLYLINE
8
LAKES
90
36
70
0
10
2.348337
20
87.671233
10
2.544031
20
87.671233
10
2.935421
20
87.279843
10
3.326810
20
87.279843
10
3.522505
20
87.475538
10
3.913894
20
87.475538
10
4.109589
20
87.279843
10
5.870841
20
87.279843
10
6.066536
20
87.084149
10
6.457926
20
87.084149
10
6.653620
20
87.279843
10
7.045010
20
87.279843
10
7.240705
20
87.475538
10
7.827789
20
87.475538
10
8.023483
20
87.671233
10
8.219178
20
87.475538
10
8.610568
20
87.475538
10
8.806262
20
87.279843
10
9.784736
20
87.279843
10
9.980431
20
87.084149
10
10.567515
20
87.084149
10
10.763209
20
87.279843
10
10.763209
20
87.866928
10
11.350294
20
88.454012
10
11.350294
20
88.649706
10
12.133072
20
89.432485
10
12.328767
20
90.019569
10
12.524462
20
90.215264
10
12.524462
20
90.606654
10
13.111546
20
91.193738
10
13.111546
20
91.389432
10
13.698630
20
91.976517
10
13.894325
20
92.367906
10
13.894325
20
93.346380
10
14.090020
20
93.542074
10
14.090020
20
94.324853
0
LWPOLYLINE
8
LAKES
90
162
70
0
10
0.587084
20
86.888454
10
0.391389
20
86.888454
10
0.391389
20
86.497065
10
0.587084
20
86.301370
10
1.174168
20
86.301370
10
1.174168
20
86.497065
10
1.565558
20
86.888454
10
1.761252
20
86.692759
10
1.369863
20
86.301370
10
1.174168
20
85.714286
10
1.369863
20
85.714286
10
1.761252
20
85.322896
10
2.152642
20
85.127202
10
3.913894
20
85.127202
10
4.109589
20
84.931507
10
9.393346
20
84.931507
10
9.589041
20
84.735812
10
9.393346
20
84.540117
10
9.393346
20
83.365949
10
9.197652
20
83.170254
10
9.197652
20
82.778865
10
9.001957
20
82.583170
10
9.001957
20
81.996086
10
8.610568
20
81.409002
10
8.610568
20
81.213307
10
8.219178
20
80.821918
10
8.219178
20
80.430528
10
7.436399
20
79.647750
10
7.436399
20
78.277886
10
7.827789
20
77.886497
10
7.827789
20
77.299413
10
7.436399
20
76.908023
10
7.436399
20
76.516634
10
7.240705
20
76.320939
10
7.240705
20
75.733855
10
7.045010
20
75.538160
10
7.045010
20
74.363992
10
7.436399
20
73.972603
10
7.436399
20
73.581213
10
7.240705
20
73.385519
10
6.262231
20
73.385519
10
5.870841
20
72.994129
10
5.675147
20
72.994129
10
5.283757
20
72.602740
10
4.696673
20
71.232877
10
4.500978
20
71.037182
10
4.500978
20
70.645793
10
4.109589
20
70.254403
10
3.913894
20
69.863014
10
3.913894
20
69.471624
10
3.718200
20
69.080235
10
3.326810
20
68.688845
10
2.935421
20
68.884540
10
1.761252
20
68.884540
10
1.369863
20
68.688845
10
0.782779
20
68.101761
10
0.391389
20
68.101761
10
0.000000
20
67.906067
10
0.000000
20
65.362035
10
0.391389
20
65.362035
10
2.152642
20
66.340509
10
2.739726
20
66.340509
10
2.935421
20
66.144814
10
3.913894
20
66.144814
10
4.305284
20
66.340509
10
5.870841
20
67.906067
10
5.870841
20
68.493151
10
6.066536
20
68.884540
10
6.457926
20
69.275930
10
6.457926
20
69.667319
10
6.849315
20
70.254403
10
6.849315
20
70.645793
10
7.240705
20
71.037182
10
8.414873
20
71.037182
10
8.806262
20
71.232877
10
9.001957
20
71.037182
10
9.001957
20
70.645793
10
9.197652
20
70.450098
10
9.197652
20
70.058708
10
9.589041
20
69.667319
10
9.784736
20
69.667319
10
10.176125
20
69.275930
10
11.154599
20
68.884540
10
11.350294
20
68.688845
10
12.720157
20
68.688845
10
13.307241
20
69.080235
10
13.894325
20
69.667319
10
14.677104
20
69.667319
10
15.264188
20
69.080235
10
15.459883
20
69.080235
10
16.438356
20
68.101761
10
16.829746
20
67.906067
10
17.221135
20
67.906067
10
17.612524
20
67.514677
10
17.612524
20
66.340509
10
17.808219
20
66.144814
10
17.808219
20
65.753425
10
18.199609
20
65.166341
10
18.199609
20
64.774951
10
18.590998
20
64.383562
10
19.178082
20
64.187867
10
19.373777
20
63.796477
10
19.178082
20
63.600783
10
19.178082
20
63.013699
10
18.982387
20
62.818004
10
18.982387
20
62.230920
10
18.786693
20
62.035225
10
18.786693
20
61.252446
10
18.982387
20
61.056751
10
18.982387
20
60.665362
10
19.178082
20
60.469667
10
19.178082
20
60.078278
10
19.569472
20
59.491194
10
19.569472
20
59.099804
10
19.765166
20
58.904110
10
19.765166
20
58.512720
10
20.156556
20
57.925636
10
20.547945
20
57.534247
10
20.547945
20
55.772994
10
20.352250
20
55.577299
10
20.352250
20
54.794521
10
20.743640
20
54.207436
10
20.743640
20
53.620352
10
20.939335
20
53.228963
10
21.330724
20
52.837573
10
21.526419
20
52.250489
10
21.917808
20
51.859100
10
22.113503
20
51.467710
10
22.113503
20
51.076321
10
22.309198
20
50.684932
10
22.700587
20
50.293542
10
23.679061
20
49.902153
10
23.874755
20
49.510763
10
23.679061
20
49.315068
10
23.679061
20
48.923679
10
23.483366
20
48.532290
10
23.679061
20
48.532290
10
24.657534
20
47.553816
10
25.244618
20
47.553816
10
25.440313
20
47.358121
10
25.440313
20
46.771037
10
25.244618
20
46.575342
10
25.244618
20
46.183953
10
25.440313
20
45.988258
10
25.048924
20
45.596869
10
25.244618
20
45.205479
10
24.853229
20
44.618395
10
24.853229
20
43.248532
10
25.244618
20
42.857143
10
25.244618
20
42.465753
10
25.440313
20
42.270059
10
25.440313
20
40.508806
10
26.810176
20
39.138943
10
26.614481
20
38.943249
10
26.614481
20
38.551859
10
26.810176
20
38.551859
10
27.592955
20
37.769080
10
27.788650
20
37.377691
10
27.788650
20
35.812133
10
27.984344
20
35.616438
10
27.984344
20
34.246575
10
27.788650
20
34.246575
0
LWPOLYLINE
8
LAKES
90
34
70
0
10
82.778865
20
82.974560
10
82.583170
20
82.778865
10
82.778865
20
82.583170
10
83.365949
20
83.170254
10
83.561644
20
83.561644
10
84.148728
20
83.757339
10
84.540117
20
84.148728
10
85.127202
20
84.344423
10
85.518591
20
84.735812
10
85.909980
20
84.931507
10
85.909980
20
85.127202
10
87.671233
20
86.888454
10
87.866928
20
87.475538
10
88.258317
20
87.866928
10
88.649706
20
88.845401
10
89.041096
20
89.236791
10
89.432485
20
90.215264
10
90.606654
20
91.389432
10
90.606654
20
91.976517
10
90.410959
20
92.367906
10
90.802348
20
92.954990
10
90.802348
20
93.542074
10
90.998043
20
93.737769
10
90.998043
20
95.107632
10
91.193738
20
95.303327
10
91.193738
20
95.694716
10
91.389432
20
95.890411
10
91.389432
20
96.281800
10
91.585127
20
96.477495
10
91.585127
20
96.868885
10
91.780822
20
97.064579
10
91.780822
20
98.043053
10
92.563601
20
99.412916
10
92.563601
20
99.608611
0
LWPOLYLINE
8
LAKES
90
7
70
1
10
90.410959
20
80.430528
10
90.410959
20
80.039139
10
90.019569
20
79.647750
10
89.628180
20
80.039139
10
89.236791
20
80.039139
10
89.236791
20
80.234834
10
89.628180
20
80.626223
0
LWPOLYLINE
8
LAKES
90
33
70
0
10
67.318982
20
79.647750
10
67.906067
20
79.452055
10
68.101761
20
79.256360
10
69.080235
20
79.256360
10
69.275930
20
79.060665
10
69.667319
20
79.060665
10
70.058708
20
78.864971
10
70.645793
20
79.256360
10
70.841487
20
79.256360
10
71.232877
20
79.647750
10
71.819961
20
79.647750
10
72.015656
20
79.843444
10
72.602740
20
79.843444
10
73.581213
20
78.864971
10
74.559687
20
78.864971
10
74.755382
20
78.669276
10
74.951076
20
78.864971
10
74.951076
20
79.256360
10
75.146771
20
79.452055
10
75.538160
20
79.256360
10
75.929550
20
79.647750
10
76.712329
20
79.647750
10
77.103718
20
79.843444
10
77.495108
20
80.234834
10
77.690802
20
80.234834
10
78.082192
20
80.626223
10
78.864971
20
80.626223
10
79.060665
20
80.821918
10
79.843444
20
80.821918
10
80.039139
20
81.017613
10
80.430528
20
81.017613
10
81.017613
20
81.604697
10
81.213307
20
81.996086
0
LWPOLYLINE
8
LAKES
90
77
70
0
10
67.318982
20
79.452055
10
66.927593
20
79.256360
10
66.731898
20
79.452055
10
66.536204
20
79.256360
10
66.144814
20
79.256360
10
65.753425
20
79.647750
10
65.753425
20
79.843444
10
65.362035
20
80.234834
10
64.774951
20
80.234834
10
64.579256
20
80.430528
10
64.383562
20
80.234834
10
63.992172
20
80.234834
10
63.796477
20
79.843444
10
64.187867
20
79.647750
10
65.166341
20
78.669276
10
65.166341
20
78.473581
10
65.949119
20
78.473581
10
66.340509
20
78.277886
10
66.731898
20
77.886497
10
67.710372
20
77.886497
10
68.101761
20
77.690802
10
68.493151
20
77.299413
10
69.471624
20
76.908023
10
70.058708
20
76.320939
10
70.058708
20
76.125245
10
71.037182
20
75.146771
10
71.624266
20
74.951076
10
72.211350
20
74.363992
10
72.211350
20
73.581213
10
71.819961
20
73.189824
10
71.428571
20
73.189824
10
71.428571
20
71.037182
10
71.232877
20
70.841487
10
71.232877
20
70.254403
10
70.841487
20
69.667319
10
70.841487
20
69.080235
10
71.232877
20
68.493151
10
71.232877
20
67.123288
10
71.037182
20
66.927593
10
71.037182
20
64.970646
10
71.232877
20
64.774951
10
71.232877
20
64.187867
10
71.428571
20
63.992172
10
71.428571
20
63.405088
10
71.232877
20
63.209393
10
71.232877
20
62.622309
10
71.037182
20
62.426614
10
71.037182
20
62.035225
10
70.841487
20
61.839530
10
70.841487
20
61.252446
10
70.645793
20
61.056751
10
70.645793
20
60.078278
10
70.450098
20
59.882583
10
70.450098
20
59.491194
10
70.254403
20
59.295499
10
70.254403
20
58.904110
10
70.058708
20
58.708415
10
70.058708
20
56.947162
10
70.254403
20
56.751468
10
70.254403
20
55.968689
10
70.058708
20
55.772994
10
70.450098
20
55.381605
10
70.841487
20
54.403131
10
71.037182
20
54.207436
10
71.037182
20
50.684932
10
71.428571
20
50.097847
10
71.232877
20
49.902153
10
71.232877
20
49.510763
10
70.841487
20
48.923679
10
70.841487
20
48.532290
10
70.645793
20
48.336595
10
70.645793
20
47.945205
10
70.450098
20
47.749511
10
70.450098
20
47.358121
10
70.254403
20
47.162427
10
70.254403
20
46.379648
10
70.645793
20
46.183953
0
LWPOLYLINE
8
LAKES
90
37
70
0
10
100.000000
20
63.992172
10
100.000000
20
61.839530
10
99.608611
20
61.839530
10
99.021526
20
61.448141
10
98.434442
20
61.448141
10
98.238748
20
61.252446
10
97.651663
20
61.252446
10
97.455969
20
61.056751
10
96.086106
20
61.056751
10
95.890411
20
60.861057
10
94.129159
20
60.861057
10
93.542074
20
60.469667
10
93.150685
20
60.469667
10
92.954990
20
60.273973
10
92.563601
20
60.273973
10
92.367906
20
60.078278
10
91.780822
20
60.078278
10
91.585127
20
59.882583
10
91.193738
20
59.882583
10
90.998043
20
60.078278
10
90.215264
20
60.078278
10
90.019569
20
59.882583
10
88.454012
20
59.882583
10
87.866928
20
60.469667
10
87.475538
20
60.665362
10
87.084149
20
60.665362
10
86.497065
20
60.273973
10
85.714286
20
60.273973
10
85.518591
20
60.078278
10
84.931507
20
60.078278
10
84.735812
20
60.273973
10
84.148728
20
60.273973
10
83.953033
20
60.078278
10
83.365949
20
60.078278
10
82.974560
20
59.882583
10
82.583170
20
59.491194
10
82.387476
20
58.904110
0
LWPOLYLINE
8
LAKES
90
35
70
0
10
80.234834
20
59.099804
10
80.234834
20
59.491194
10
79.843444
20
59.882583
10
79.647750
20
59.686888
10
79.647750
20
58.317025
10
79.843444
20
58.121331
10
79.647750
20
57.925636
10
79.647750
20
57.142857
10
80.039139
20
56.555773
10
80.039139
20
56.164384
10
80.430528
20
55.577299
10
80.430528
20
54.794521
10
80.821918
20
54.403131
10
80.821918
20
54.011742
10
80.626223
20
53.816047
10
80.626223
20
52.837573
10
81.017613
20
52.250489
10
81.017613
20
50.880626
10
80.821918
20
50.684932
10
80.821918
20
49.706458
10
80.626223
20
49.706458
10
79.843444
20
48.923679
10
79.452055
20
48.923679
10
79.060665
20
48.532290
10
79.060665
20
48.140900
10
77.886497
20
46.966732
10
77.299413
20
46.771037
10
77.103718
20
46.575342
10
76.712329
20
46.575342
10
76.516634
20
46.379648
10
75.146771
20
46.379648
10
74.951076
20
46.183953
10
73.972603
20
46.183953
10
73.776908
20
46.379648
10
72.602740
20
46.379648
0
LWPOLYLINE
8
LAKES
90
6
70
0
10
80.430528
20
58.904110
10
80.821918
20
59.099804
10
81.213307
20
59.099804
10
81.604697
20
59.491194
10
81.996086
20
59.491194
10
82.191781
20
59.295499
0
LWPOLYLINE
8
LAKES
90
11
70
0
10
42.465753
20
58.708415
10
42.270059
20
58.708415
10
42.270059
20
57.925636
10
41.878669
20
57.534247
10
41.878669
20
54.794521
10
41.682975
20
54.598826
10
41.682975
20
54.207436
10
41.878669
20
54.011742
10
41.878669
20
53.620352
10
42.270059
20
53.424658
10
42.465753
20
53.620352
0
LWPOLYLINE
8
LAKES
90
23
70
0
10
91.193738
20
53.816047
10
91.780822
20
53.816047
10
91.976517
20
54.011742
10
92.367906
20
54.011742
10
92.759295
20
53.620352
10
93.150685
20
53.620352
10
93.737769
20
53.228963
10
94.129159
20
52.837573
10
94.129159
20
52.641879
10
94.716243
20
52.054795
10
94.520548
20
51.859100
10
94.716243
20
51.663405
10
94.716243
20
50.684932
10
95.303327
20
50.097847
10
95.303327
20
49.902153
10
95.694716
20
49.510763
10
97.064579
20
49.510763
10
98.043053
20
50.097847
10
98.825832
20
50.097847
10
99.217221
20
50.293542
10
99.412916
20
50.097847
10
100.000000
20
50.097847
10
100.000000
20
50.293542
0
LWPOLYLINE
8
LAKES
90
24
70
0
10
91.193738
20
51.663405
10
91.585127
20
51.663405
10
92.172211
20
51.272016
10
92.172211
20
50.880626
10
92.367906
20
50.684932
10
92.172211
20
50.293542
10
92.367906
20
50.097847
10
92.367906
20
49.510763
10
92.563601
20
49.119374
10
93.150685
20
48.532290
10
93.737769
20
48.336595
10
94.129159
20
47.945205
10
94.324853
20
47.553816
10
94.716243
20
47.358121
10
95.303327
20
47.358121
10
95.499022
20
47.162427
10
97.651663
20
47.162427
10
98.238748
20
47.553816
10
98.434442
20
47.553816
10
98.825832
20
47.945205
10
99.217221
20
47.945205
10
99.412916
20
47.749511
10
100.000000
20
47.749511
10
100.000000
20
49.902153
0
LWPOLYLINE
8
LAKES
90
8
70
1
10
54.794521
20
49.902153
10
54.403131
20
49.706458
10
54.403131
20
49.315068
10
54.207436
20
48.923679
10
54.403131
20
48.532290
10
55.185910
20
47.749511
10
55.381605
20
47.945205
10
55.381605
20
49.315068
0
LWPOLYLINE
8
LAKES
90
186
70
0
10
27.788650
20
44.618395
10
27.788650
20
45.596869
10
28.375734
20
45.988258
10
30.136986
20
45.988258
10
30.724070
20
45.401174
10
31.311155
20
45.205479
10
31.702544
20
44.814090
10
31.506849
20
44.618395
10
31.506849
20
42.074364
10
31.702544
20
41.878669
10
31.702544
20
41.291585
10
31.898239
20
40.900196
10
32.289628
20
40.508806
10
32.485323
20
40.508806
10
33.072407
20
39.921722
10
33.463796
20
39.726027
10
34.833659
20
39.726027
10
35.225049
20
39.921722
10
35.812133
20
40.508806
10
35.812133
20
40.704501
10
36.594912
20
41.487280
10
36.790607
20
41.487280
10
37.377691
20
42.074364
10
37.573386
20
42.074364
10
37.964775
20
42.465753
10
38.160470
20
42.857143
10
38.160470
20
43.444227
10
37.964775
20
43.639922
10
38.160470
20
43.835616
10
38.551859
20
43.835616
10
38.943249
20
43.444227
10
38.943249
20
43.248532
10
39.334638
20
42.857143
10
39.334638
20
42.465753
10
39.726027
20
42.270059
10
40.313112
20
42.661448
10
40.704501
20
42.661448
10
40.900196
20
42.857143
10
42.465753
20
42.857143
10
42.661448
20
43.052838
10
43.052838
20
43.052838
10
43.248532
20
43.248532
10
44.227006
20
43.248532
10
44.422701
20
43.052838
10
44.422701
20
42.661448
10
44.031311
20
42.074364
10
44.031311
20
41.878669
10
43.444227
20
41.291585
10
42.661448
20
41.291585
10
42.270059
20
41.487280
10
42.074364
20
41.291585
10
40.313112
20
41.291585
10
39.921722
20
41.095890
10
39.138943
20
40.313112
10
39.138943
20
39.530333
10
38.747554
20
39.138943
10
38.747554
20
38.551859
10
38.356164
20
38.356164
10
38.356164
20
36.790607
10
38.160470
20
36.399217
10
37.769080
20
36.007828
10
37.573386
20
35.616438
10
37.377691
20
35.812133
10
37.377691
20
36.203523
10
37.181996
20
36.007828
10
36.594912
20
36.594912
10
36.594912
20
37.573386
10
36.986301
20
37.964775
10
37.377691
20
37.964775
10
37.769080
20
38.356164
10
37.769080
20
39.530333
10
37.573386
20
39.726027
10
36.594912
20
39.726027
10
36.203523
20
39.334638
10
35.812133
20
39.334638
10
36.399217
20
37.964775
10
36.203523
20
37.769080
10
35.812133
20
37.769080
10
35.616438
20
37.377691
10
35.225049
20
37.573386
10
34.833659
20
37.573386
10
34.637965
20
37.377691
10
34.442270
20
37.573386
10
34.050881
20
37.573386
10
33.855186
20
37.769080
10
33.659491
20
37.377691
10
34.246575
20
36.986301
10
34.246575
20
36.203523
10
34.050881
20
35.812133
10
34.442270
20
35.420744
10
34.833659
20
35.225049
10
35.225049
20
34.833659
10
35.420744
20
35.029354
10
35.812133
20
35.029354
10
35.812133
20
35.225049
10
36.203523
20
35.616438
10
36.399217
20
35.616438
10
36.986301
20
35.029354
10
36.986301
20
34.050881
10
37.573386
20
33.463796
10
38.160470
20
33.463796
10
38.356164
20
33.268102
10
38.747554
20
33.268102
10
38.943249
20
33.072407
10
39.334638
20
33.463796
10
39.726027
20
33.463796
10
39.726027
20
33.659491
10
40.117417
20
34.050881
10
40.117417
20
34.442270
10
39.921722
20
34.637965
10
39.921722
20
35.225049
10
40.117417
20
35.420744
10
40.117417
20
35.812133
10
40.313112
20
36.203523
10
40.704501
20
36.594912
10
41.095890
20
36.594912
10
41.291585
20
36.790607
10
41.878669
20
36.790607
10
42.270059
20
36.986301
10
42.661448
20
37.377691
10
43.052838
20
37.573386
10
43.444227
20
37.573386
10
44.031311
20
37.181996
10
44.227006
20
37.181996
10
44.618395
20
36.790607
10
44.814090
20
36.399217
10
45.205479
20
36.399217
10
45.205479
20
36.594912
10
45.988258
20
37.377691
10
46.183953
20
37.181996
10
46.183953
20
36.399217
10
46.575342
20
36.203523
10
47.162427
20
35.616438
10
47.162427
20
35.029354
10
47.553816
20
34.637965
10
47.749511
20
34.050881
10
47.945205
20
33.855186
10
47.945205
20
33.463796
10
48.140900
20
33.268102
10
48.140900
20
32.289628
10
48.336595
20
32.093933
10
48.336595
20
31.311155
10
48.923679
20
30.724070
10
49.510763
20
30.724070
10
49.902153
20
30.332681
10
50.293542
20
30.136986
10
50.684932
20
30.136986
10
51.076321
20
29.745597
10
51.272016
20
29.745597
10
51.663405
20
29.354207
10
51.859100
20
28.767123
10
52.250489
20
28.375734
10
52.837573
20
28.180039
10
53.033268
20
28.375734
10
53.620352
20
28.375734
10
54.011742
20
28.571429
10
54.794521
20
29.354207
10
54.598826
20
29.941292
10
54.011742
20
30.136986
10
53.816047
20
30.332681
10
53.816047
20
30.724070
10
53.228963
20
31.311155
10
53.033268
20
31.311155
10
52.446184
20
31.898239
10
52.641879
20
32.093933
10
53.228963
20
32.093933
10
53.424658
20
32.485323
10
53.424658
20
32.876712
10
53.228963
20
33.268102
10
52.837573
20
33.659491
10
52.837573
20
35.029354
10
53.033268
20
35.420744
10
52.837573
20
35.616438
10
52.837573
20
36.007828
10
53.033268
20
36.203523
10
53.620352
20
36.203523
10
54.011742
20
36.594912
10
54.207436
20
36.594912
10
54.598826
20
36.203523
10
54.794521
20
36.203523
10
55.185910
20
35.812133
10
55.772994
20
35.616438
10
55.968689
20
35.420744
10
56.555773
20
35.420744
10
56.751468
20
35.225049
10
57.338552
20
35.225049
0
LWPOLYLINE
8
LAKES
90
25
70
0
10
29.158513
20
40.313112
10
29.549902
20
40.313112
10
29.354207
20
40.117417
10
29.354207
20
39.726027
10
29.549902
20
39.334638
10
30.332681
20
38.551859
10
30.528376
20
38.160470
10
30.528376
20
37.377691
10
30.332681
20
37.181996
10
30.332681
20
36.594912
10
30.724070
20
36.203523
10
30.724070
20
35.029354
10
30.528376
20
34.833659
10
30.724070
20
34.637965
10
30.724070
20
33.463796
10
31.115460
20
32.876712
10
31.115460
20
31.702544
10
30.528376
20
30.724070
10
30.528376
20
30.136986
10
30.724070
20
29.941292
10
30.724070
20
28.962818
10
31.115460
20
28.375734
10
31.115460
20
27.788650
10
31.506849
20
27.592955
10
31.702544
20
27.788650
0
LWPOLYLINE
8
LAKES
90
95
70
0
10
57.729941
20
35.029354
10
57.338552
20
34.637965
10
57.142857
20
34.637965
10
57.142857
20
34.246575
10
57.925636
20
33.463796
10
58.512720
20
33.463796
10
58.708415
20
33.268102
10
59.295499
20
33.268102
10
59.882583
20
32.876712
10
60.861057
20
32.876712
10
61.252446
20
32.485323
10
61.252446
20
31.506849
10
61.448141
20
31.115460
10
61.056751
20
30.724070
10
60.861057
20
30.136986
10
60.273973
20
29.549902
10
60.273973
20
29.354207
10
59.686888
20
28.767123
10
59.491194
20
28.767123
10
58.317025
20
27.592955
10
58.317025
20
27.397260
10
57.925636
20
27.005871
10
57.729941
20
26.614481
10
57.729941
20
26.027397
10
57.338552
20
25.440313
10
57.338552
20
25.244618
10
56.947162
20
24.853229
10
56.751468
20
24.266145
10
56.555773
20
24.070450
10
56.555773
20
23.679061
10
56.164384
20
23.287671
10
55.968689
20
22.700587
10
55.577299
20
22.309198
10
55.381605
20
21.917808
10
55.185910
20
21.917808
10
54.598826
20
21.330724
10
54.598826
20
21.135029
10
54.207436
20
20.743640
10
53.620352
20
20.547945
10
53.033268
20
19.569472
10
52.641879
20
19.373777
10
52.250489
20
19.373777
10
52.054795
20
18.982387
10
51.467710
20
18.786693
10
51.076321
20
18.199609
10
51.076321
20
18.003914
10
50.489237
20
17.416830
10
49.902153
20
17.221135
10
49.119374
20
16.438356
10
49.119374
20
16.242661
10
48.727984
20
15.851272
10
48.532290
20
15.264188
10
48.336595
20
15.068493
10
48.336595
20
13.698630
10
47.945205
20
13.307241
10
47.749511
20
13.307241
10
47.358121
20
12.915851
10
47.162427
20
12.524462
10
47.162427
20
12.133072
10
46.575342
20
11.741683
10
46.575342
20
11.350294
10
45.988258
20
10.763209
10
45.792564
20
10.371820
10
45.792564
20
9.980431
10
45.596869
20
9.589041
10
44.814090
20
8.806262
10
44.814090
20
8.414873
10
44.618395
20
8.219178
10
44.618395
20
6.653620
10
44.227006
20
6.066536
10
44.227006
20
5.675147
10
44.031311
20
5.479452
10
44.031311
20
4.892368
10
43.835616
20
4.696673
10
43.835616
20
3.913894
10
43.639922
20
3.718200
10
43.639922
20
3.131115
10
43.444227
20
2.935421
10
43.444227
20
2.348337
10
43.052838
20
1.956947
10
42.661448
20
1.761252
10
42.661448
20
1.565558
10
42.270059
20
1.174168
10
42.074364
20
0.587084
10
41.682975
20
0.195695
10
41.682975
20
0.000000
10
44.227006
20
0.000000
10
44.618395
20
0.195695
10
45.596869
20
1.174168
10
45.792564
20
1.565558
10
45.792564
20
2.544031
10
45.988258
20
2.739726
10
45.988258
20
3.718200
10
46.183953
20
3.913894
10
46.183953
20
4.305284
0
LWPOLYLINE
8
LAKES
90
49
70
0
10
14.677104
20
33.463796
10
14.481409
20
33.463796
10
14.481409
20
32.289628
10
14.677104
20
32.093933
10
14.677104
20
31.311155
10
15.068493
20
31.311155
10
15.851272
20
30.528376
10
15.851272
20
29.549902
10
16.046967
20
29.354207
10
16.046967
20
28.962818
10
15.851272
20
28.767123
10
15.851272
20
27.984344
10
15.655577
20
27.788650
10
15.655577
20
27.397260
10
15.459883
20
27.201566
10
15.459883
20
26.810176
10
15.264188
20
26.614481
10
15.264188
20
25.831703
10
15.459883
20
25.636008
10
15.459883
20
25.048924
10
15.655577
20
24.853229
10
15.655577
20
24.266145
10
15.851272
20
24.070450
10
15.851272
20
23.679061
10
16.046967
20
23.483366
10
16.046967
20
23.091977
10
16.634051
20
22.504892
10
17.221135
20
22.309198
10
17.416830
20
22.113503
10
18.395303
20
22.113503
10
19.373777
20
21.526419
10
19.373777
20
19.960861
10
18.982387
20
19.373777
10
18.982387
20
19.178082
10
19.373777
20
19.178082
10
19.569472
20
18.982387
10
19.569472
20
18.395303
10
19.765166
20
18.003914
10
20.547945
20
17.221135
10
20.939335
20
17.025440
10
22.113503
20
17.025440
10
22.309198
20
17.221135
10
22.700587
20
17.221135
10
23.483366
20
18.003914
10
23.483366
20
18.199609
10
24.266145
20
18.982387
10
24.266145
20
19.178082
10
25.440313
20
20.352250
10
25.636008
20
20.352250
0
LWPOLYLINE
8
LAKES
90
17
70
0
10
31.311155
20
27.397260
10
31.115460
20
26.810176
10
31.311155
20
26.614481
10
31.311155
20
25.636008
10
30.919765
20
25.048924
10
30.919765
20
24.853229
10
30.528376
20
24.461840
10
30.332681
20
24.461840
10
29.354207
20
23.483366
10
29.158513
20
23.483366
10
28.571429
20
22.896282
10
28.180039
20
22.700587
10
27.788650
20
22.700587
10
27.201566
20
22.113503
10
26.810176
20
22.113503
10
26.418787
20
21.917808
10
25.244618
20
20.743640
0
LWPOLYLINE
8
LAKES
90
19
70
0
10
28.375734
20
26.614481
10
28.375734
20
27.592955
10
28.571429
20
27.984344
10
28.375734
20
28.180039
10
28.375734
20
28.571429
10
28.180039
20
28.767123
10
28.180039
20
29.158513
10
28.375734
20
29.354207
10
28.375734
20
29.941292
10
28.180039
20
30.136986
10
28.180039
20
30.528376
10
28.375734
20
30.724070
10
28.375734
20
31.115460
10
28.180039
20
31.311155
10
28.180039
20
31.898239
10
28.375734
20
32.289628
10
27.984344
20
32.876712
10
27.984344
20
33.659491
10
28.180039
20
34.050881
0
LWPOLYLINE
8
LAKES
90
35
70
0
10
22.504892
20
20.939335
10
22.309198
20
20.743640
10
22.504892
20
20.547945
10
22.113503
20
20.156556
10
21.722114
20
20.352250
10
21.722114
20
21.135029
10
21.526419
20
21.330724
10
21.526419
20
22.309198
10
21.330724
20
22.700587
10
20.939335
20
23.091977
10
20.939335
20
23.287671
10
20.352250
20
23.874755
10
19.960861
20
23.874755
10
19.765166
20
24.070450
10
19.178082
20
24.070450
10
18.982387
20
24.266145
10
18.395303
20
24.266145
10
18.003914
20
24.657534
10
17.808219
20
25.048924
10
17.808219
20
25.440313
10
17.612524
20
25.636008
10
17.612524
20
26.418787
10
17.808219
20
26.614481
10
17.808219
20
27.005871
10
18.003914
20
27.201566
10
18.003914
20
27.984344
10
18.199609
20
28.180039
10
18.199609
20
30.332681
10
18.003914
20
30.528376
10
18.003914
20
31.702544
10
17.221135
20
32.485323
10
17.025440
20
32.485323
10
16.046967
20
33.463796
10
15.655577
20
33.659491
10
14.872798
20
33.659491
0
LWPOLYLINE
8
LAKES
90
75
70
1
10
10.176125
20
16.438356
10
10.567515
20
16.438356
10
10.958904
20
16.046967
10
11.545988
20
15.851272
10
12.133072
20
15.264188
10
11.741683
20
14.872798
10
11.545988
20
14.481409
10
11.350294
20
14.481409
10
10.958904
20
14.090020
10
10.567515
20
13.894325
10
10.567515
20
12.720157
10
10.371820
20
12.328767
10
9.784736
20
11.741683
10
9.784736
20
11.154599
10
9.589041
20
10.958904
10
9.589041
20
10.371820
10
8.610568
20
8.610568
10
8.610568
20
8.219178
10
8.414873
20
8.023483
10
8.414873
20
7.436399
10
8.806262
20
7.045010
10
9.001957
20
7.045010
10
9.784736
20
6.262231
10
9.980431
20
5.675147
10
10.567515
20
5.088063
10
10.958904
20
5.283757
10
11.154599
20
5.088063
10
11.545988
20
5.088063
10
12.133072
20
4.696673
10
12.524462
20
4.696673
10
12.915851
20
4.500978
10
13.111546
20
4.109589
10
13.111546
20
3.718200
10
13.307241
20
3.522505
10
13.307241
20
2.739726
10
13.502935
20
2.544031
10
13.502935
20
1.565558
10
13.111546
20
1.174168
10
13.111546
20
0.587084
10
12.915851
20
0.391389
10
12.915851
20
0.000000
10
10.176125
20
0.000000
10
10.176125
20
0.195695
10
10.567515
20
0.587084
10
10.567515
20
0.978474
10
10.958904
20
1.565558
10
10.958904
20
2.348337
10
11.154599
20
2.544031
10
10.763209
20
2.935421
10
9.784736
20
2.935421
10
9.393346
20
3.131115
10
9.001957
20
3.522505
10
8.806262
20
3.522505
10
8.219178
20
4.109589
10
8.023483
20
4.696673
10
7.240705
20
5.479452
10
7.045010
20
5.479452
10
6.066536
20
6.457926
10
6.066536
20
7.827789
10
6.262231
20
8.023483
10
6.262231
20
8.610568
10
6.457926
20
8.806262
10
6.457926
20
9.393346
10
7.436399
20
11.154599
10
7.436399
20
11.741683
10
7.632094
20
11.937378
10
7.632094
20
12.720157
10
8.219178
20
13.307241
10
8.219178
20
13.698630
10
8.414873
20
13.894325
10
8.414873
20
14.677104
10
8.610568
20
14.872798
10
8.610568
20
15.264188
10
9.197652
20
15.851272
10
9.784736
20
16.046967
0
LWPOLYLINE
8
LAKES
90
4
70
0
10
99.804305
20
0.587084
10
100.000000
20
0.587084
10
100.000000
20
0.000000
10
98.825832
20
0.000000
0
LWPOLYLINE
8
LAKES
90
86
70
0
10
34.637965
20
87.279843
10
33.659491
20
86.301370
10
33.463796
20
85.909980
10
34.246575
20
85.127202
10
34.442270
20
85.127202
10
35.029354
20
84.540117
10
35.420744
20
84.344423
10
36.203523
20
84.344423
10
36.594912
20
84.148728
10
36.986301
20
83.757339
10
37.181996
20
83.757339
10
37.573386
20
83.365949
10
37.769080
20
83.365949
10
38.160470
20
82.974560
10
38.747554
20
82.778865
10
39.138943
20
82.387476
10
39.530333
20
82.191781
10
39.921722
20
82.191781
10
40.117417
20
81.996086
10
40.900196
20
81.996086
10
41.095890
20
81.800391
10
41.878669
20
81.800391
10
42.074364
20
81.604697
10
43.052838
20
81.604697
10
43.248532
20
81.409002
10
43.639922
20
81.409002
10
43.835616
20
81.604697
10
44.031311
20
81.409002
10
44.422701
20
81.409002
10
44.618395
20
81.213307
10
45.205479
20
81.213307
10
45.596869
20
80.821918
10
45.988258
20
80.821918
10
46.183953
20
80.626223
10
46.575342
20
80.626223
10
46.966732
20
80.430528
10
47.358121
20
80.039139
10
47.553816
20
80.039139
10
47.945205
20
79.647750
10
48.336595
20
79.647750
10
49.315068
20
78.669276
10
49.510763
20
78.864971
10
49.706458
20
78.669276
10
50.489237
20
78.669276
10
51.076321
20
78.277886
10
50.880626
20
78.082192
10
50.880626
20
77.103718
10
51.467710
20
76.516634
10
51.467710
20
75.929550
10
52.250489
20
75.146771
10
52.250489
20
74.559687
10
53.033268
20
73.776908
10
53.228963
20
73.385519
10
53.228963
20
71.232877
10
53.033268
20
71.037182
10
53.033268
20
70.254403
10
52.837573
20
70.058708
10
52.837573
20
69.667319
10
52.054795
20
68.884540
10
51.859100
20
68.493151
10
51.859100
20
67.710372
10
51.663405
20
67.514677
10
51.663405
20
66.731898
10
51.467710
20
66.536204
10
51.467710
20
66.144814
10
50.684932
20
64.774951
10
49.315068
20
64.774951
10
48.727984
20
64.187867
10
48.336595
20
63.992172
10
47.945205
20
63.992172
10
47.358121
20
63.600783
10
47.358121
20
63.209393
10
47.162427
20
63.013699
10
46.575342
20
63.013699
10
46.183953
20
62.818004
10
45.792564
20
62.426614
10
45.596869
20
62.426614
10
45.205479
20
62.035225
10
45.205479
20
61.839530
10
44.814090
20
61.448141
10
44.618395
20
60.861057
10
44.031311
20
60.273973
10
43.835616
20
60.273973
10
43.248532
20
59.686888
10
43.248532
20
59.491194
10
42.661448
20
58.904110
0
LWPOLYLINE
8
LAKES
90
7
70
1
10
85.714286
20
78.669276
10
86.105675
20
78.473581
10
85.909980
20
77.886497
10
85.714286
20
77.690802
10
84.931507
20
77.690802
10
84.735812
20
77.886497
10
85.322896
20
78.473581
0
LWPOLYLINE
8
LAKES
90
20
70
1
10
48.336595
20
58.708415
10
48.727984
20
58.708415
10
48.923679
20
58.512720
10
48.923679
20
58.121331
10
48.140900
20
57.338552
10
48.140900
20
57.142857
10
47.749511
20
56.751468
10
47.553816
20
56.751468
10
47.162427
20
56.360078
10
46.966732
20
55.968689
10
46.575342
20
55.968689
10
46.379648
20
55.772994
10
46.183953
20
56.164384
10
45.792564
20
56.555773
10
45.792564
20
56.947162
10
46.379648
20
57.534247
10
46.379648
20
57.729941
10
46.771037
20
58.121331
10
46.966732
20
58.121331
10
47.358121
20
58.512720
0
LWPOLYLINE
8
LAKES
90
14
70
1
10
44.031311
20
47.358121
10
45.401174
20
47.358121
10
45.792564
20
46.966732
10
45.792564
20
46.575342
10
45.205479
20
46.183953
10
44.814090
20
46.183953
10
44.618395
20
45.988258
10
44.227006
20
45.988258
10
43.835616
20
45.596869
10
43.444227
20
45.401174
10
42.857143
20
45.401174
10
42.465753
20
45.792564
10
42.661448
20
46.379648
10
43.248532
20
46.966732
0
LWPOLYLINE
8
LAKES
90
7
70
0
10
27.592955
20
44.227006
10
27.592955
20
42.661448
10
27.788650
20
42.465753
10
27.788650
20
42.074364
10
28.571429
20
41.291585
10
28.767123
20
40.704501
10
28.962818
20
40.508806
0
LWPOLYLINE
8
LAKES
90
14
70
0
10
28.571429
20
26.223092
10
28.375734
20
25.831703
10
27.984344
20
25.440313
10
27.788650
20
25.440313
10
27.201566
20
24.853229
10
26.810176
20
24.853229
10
26.614481
20
24.657534
10
26.223092
20
24.657534
10
25.636008
20
24.266145
10
25.440313
20
24.266145
10
24.657534
20
23.483366
10
24.461840
20
23.483366
10
23.091977
20
22.113503
10
22.700587
20
21.135029
0
ENDSEC
0
EOF
