0
SECTION
2
HEADER
9
$ACADVER
1
AC1009
9
$INSUNITS
70
4
0
ENDSEC
0
SECTION
2
TABLES
0
TABLE
2
LAYER
70
2
0
LAYER
2
HOLES
70
0
62
7
6
CONTINUOUS
0
LAYER
2
HOLE_POINTS
70
0
62
5
6
CONTINUOUS
0
ENDTAB
0
ENDSEC
0
SECTION
2
ENTITIES
0
CIRCLE
8
HOLES
10
9.570312
20
490.924737
30
0.0
40
2.905273
0
POINT
8
HOLE_POINTS
10
9.570312
20
490.924737
30
0.0
0
CIRCLE
8
HOLES
10
28.710938
20
490.924737
30
0.0
40
2.905273
0
POINT
8
HOLE_POINTS
10
28.710938
20
490.924737
30
0.0
0
CIRCLE
8
HOLES
10
47.851562
20
490.924737
30
0.0
40
2.905273
0
POINT
8
HOLE_POINTS
10
47.851562
20
490.924737
30
0.0
0
CIRCLE
8
HOLES
10
66.992188
20
490.924737
30
0.0
40
2.905273
0
POINT
8
HOLE_POINTS
10
66.992188
20
490.924737
30
0.0
0
CIRCLE
8
HOLES
10
86.132812
20
490.924737
30
0.0
40
2.905273
0
POINT
8
HOLE_POINTS
10
86.132812
20
490.924737
30
0.0
0
CIRCLE
8
HOLES
10
105.273438
20
490.924737
30
0.0
40
2.905273
0
POINT
8
HOLE_POINTS
10
105.273438
20
490.924737
30
0.0
0
CIRCLE
8
HOLES
10
124.414062
20
490.924737
30
0.0
40
2.905273
0
POINT
8
HOLE_POINTS
10
124.414062
20
490.924737
30
0.0
0
CIRCLE
8
HOLES
10
143.554688
20
490.924737
30
0.0
40
2.905273
0
POINT
8
HOLE_POINTS
10
143.554688
20
490.924737
30
0.0
0
CIRCLE
8
HOLES
10
162.695312
20
490.924737
30
0.0
40
2.905273
0
POINT
8
HOLE_POINTS
10
162.695312
20
490.924737
30
0.0
0
CIRCLE
8
HOLES
10
181.835938
20
490.924737
30
0.0
40
2.905273
0
POINT
8
HOLE_POINTS
10
181.835938
20
490.924737
30
0.0
0
CIRCLE
8
HOLES
10
200.976562
20
490.924737
30
0.0
40
2.905273
0
POINT
8
HOLE_POINTS
10
200.976562
20
490.924737
30
0.0
0
CIRCLE
8
HOLES
10
220.117188
20
490.924737
30
0.0
40
2.905273
0
POINT
8
HOLE_POINTS
10
220.117188
20
490.924737
30
0.0
0
CIRCLE
8
HOLES
10
239.257812
20
490.924737
30
0.0
40
2.905273
0
POINT
8
HOLE_POINTS
10
239.257812
20
490.924737
30
0.0
0
CIRCLE
8
HOLES
10
258.398438
20
490.924737
30
0.0
40
2.905273
0
POINT
8
HOLE_POINTS
10
258.398438
20
490.924737
30
0.0
0
CIRCLE
8
HOLES
10
277.539062
20
490.924737
30
0.0
40
2.905273
0
POINT
8
HOLE_POINTS
10
277.539062
20
490.924737
30
0.0
0
CIRCLE
8
HOLES
10
296.679688
20
490.924737
30
0.0
40
2.905273
0
POINT
8
HOLE_POINTS
10
296.679688
20
490.924737
30
0.0
0
CIRCLE
8
HOLES
10
19.140625
20
474.348956
30
0.0
40
2.905273
0
POINT
8
HOLE_POINTS
10
19.140625
20
474.348956
30
0.0
0
CIRCLE
8
HOLES
10
38.281250
20
474.348956
30
0.0
40
2.905273
0
POINT
8
HOLE_POINTS
10
38.281250
20
474.348956
30
0.0
0
CIRCLE
8
HOLES
10
57.421875
20
474.348956
30
0.0
40
2.905273
0
POINT
8
HOLE_POINTS
10
57.421875
20
474.348956
30
0.0
0
CIRCLE
8
HOLES
10
76.562500
20
474.348956
30
0.0
40
2.905273
0
POINT
8
HOLE_POINTS
10
76.562500
20
474.348956
30
0.0
0
CIRCLE
8
HOLES
10
95.703125
20
474.348956
30
0.0
40
2.905273
0
POINT
8
HOLE_POINTS
10
95.703125
20
474.348956
30
0.0
0
CIRCLE
8
HOLES
10
114.843750
20
474.348956
30
0.0
40
2.905273
0
POINT
8
HOLE_POINTS
10
114.843750
20
474.348956
30
0.0
0
CIRCLE
8
HOLES
10
133.984375
20
474.348956
30
0.0
40
2.905273
0
POINT
8
HOLE_POINTS
10
133.984375
20
474.348956
30
0.0
0
CIRCLE
8
HOLES
10
153.125000
20
474.348956
30
0.0
40
2.905273
0
POINT
8
HOLE_POINTS
10
153.125000
20
474.348956
30
0.0
0
CIRCLE
8
HOLES
10
172.265625
20
474.348956
30
0.0
40
2.905273
0
POINT
8
HOLE_POINTS
10
172.265625
20
474.348956
30
0.0
0
CIRCLE
8
HOLES
10
191.406250
20
474.348956
30
0.0
40
2.905273
0
POINT
8
HOLE_POINTS
10
191.406250
20
474.348956
30
0.0
0
CIRCLE
8
HOLES
10
210.546875
20
474.348956
30
0.0
40
2.905273
0
POINT
8
HOLE_POINTS
10
210.546875
20
474.348956
30
0.0
0
CIRCLE
8
HOLES
10
229.687500
20
474.348956
30
0.0
40
2.905273
0
POINT
8
HOLE_POINTS
10
229.687500
20
474.348956
30
0.0
0
CIRCLE
8
HOLES
10
248.828125
20
474.348956
30
0.0
40
2.905273
0
POINT
8
HOLE_POINTS
10
248.828125
20
474.348956
30
0.0
0
CIRCLE
8
HOLES
10
9.570312
20
457.773175
30
0.0
40
2.905273
0
POINT
8
HOLE_POINTS
10
9.570312
20
457.773175
30
0.0
0
CIRCLE
8
HOLES
10
28.710938
20
457.773175
30
0.0
40
2.905273
0
POINT
8
HOLE_POINTS
10
28.710938
20
457.773175
30
0.0
0
CIRCLE
8
HOLES
10
47.851562
20
457.773175
30
0.0
40
2.905273
0
POINT
8
HOLE_POINTS
10
47.851562
20
457.773175
30
0.0
0
CIRCLE
8
HOLES
10
66.992188
20
457.773175
30
0.0
40
2.905273
0
POINT
8
HOLE_POINTS
10
66.992188
20
457.773175
30
0.0
0
CIRCLE
8
HOLES
10
86.132812
20
457.773175
30
0.0
40
2.905273
0
POINT
8
HOLE_POINTS
10
86.132812
20
457.773175
30
0.0
0
CIRCLE
8
HOLES
10
105.273438
20
457.773175
30
0.0
40
2.905273
0
POINT
8
HOLE_POINTS
10
105.273438
20
457.773175
30
0.0
0
CIRCLE
8
HOLES
10
124.414062
20
457.773175
30
0.0
40
2.905273
0
POINT
8
HOLE_POINTS
10
124.414062
20
457.773175
30
0.0
0
CIRCLE
8
HOLES
10
143.554688
20
457.773175
30
0.0
40
2.905273
0
POINT
8
HOLE_POINTS
10
143.554688
20
457.773175
30
0.0
0
CIRCLE
8
HOLES
10
162.695312
20
457.773175
30
0.0
40
2.905273
0
POINT
8
HOLE_POINTS
10
162.695312
20
457.773175
30
0.0
0
CIRCLE
8
HOLES
10
181.835938
20
457.773175
30
0.0
40
2.905273
0
POINT
8
HOLE_POINTS
10
181.835938
20
457.773175
30
0.0
0
CIRCLE
8
HOLES
10
200.976562
20
457.773175
30
0.0
40
2.905273
0
POINT
8
HOLE_POINTS
10
200.976562
20
457.773175
30
0.0
0
CIRCLE
8
HOLES
10
220.117188
20
457.773175
30
0.0
40
2.905273
0
POINT
8
HOLE_POINTS
10
220.117188
20
457.773175
30
0.0
0
CIRCLE
8
HOLES
10
239.257812
20
457.773175
30
0.0
40
2.905273
0
POINT
8
HOLE_POINTS
10
239.257812
20
457.773175
30
0.0
0
CIRCLE
8
HOLES
10
19.140625
20
441.197393
30
0.0
40
2.905273
0
POINT
8
HOLE_POINTS
10
19.140625
20
441.197393
30
0.0
0
CIRCLE
8
HOLES
10
38.281250
20
441.197393
30
0.0
40
2.905273
0
POINT
8
HOLE_POINTS
10
38.281250
20
441.197393
30
0.0
0
CIRCLE
8
HOLES
10
57.421875
20
441.197393
30
0.0
40
2.905273
0
POINT
8
HOLE_POINTS
10
57.421875
20
441.197393
30
0.0
0
CIRCLE
8
HOLES
10
76.562500
20
441.197393
30
0.0
40
2.905273
0
POINT
8
HOLE_POINTS
10
76.562500
20
441.197393
30
0.0
0
CIRCLE
8
HOLES
10
95.703125
20
441.197393
30
0.0
40
2.905273
0
POINT
8
HOLE_POINTS
10
95.703125
20
441.197393
30
0.0
0
CIRCLE
8
HOLES
10
114.843750
20
441.197393
30
0.0
40
2.905273
0
POINT
8
HOLE_POINTS
10
114.843750
20
441.197393
30
0.0
0
CIRCLE
8
HOLES
10
133.984375
20
441.197393
30
0.0
40
2.905273
0
POINT
8
HOLE_POINTS
10
133.984375
20
441.197393
30
0.0
0
CIRCLE
8
HOLES
10
153.125000
20
441.197393
30
0.0
40
2.905273
0
POINT
8
HOLE_POINTS
10
153.125000
20
441.197393
30
0.0
0
CIRCLE
8
HOLES
10
172.265625
20
441.197393
30
0.0
40
2.905273
0
POINT
8
HOLE_POINTS
10
172.265625
20
441.197393
30
0.0
0
CIRCLE
8
HOLES
10
191.406250
20
441.197393
30
0.0
40
2.905273
0
POINT
8
HOLE_POINTS
10
191.406250
20
441.197393
30
0.0
0
CIRCLE
8
HOLES
10
210.546875
20
441.197393
30
0.0
40
2.905273
0
POINT
8
HOLE_POINTS
10
210.546875
20
441.197393
30
0.0
0
CIRCLE
8
HOLES
10
9.570312
20
424.621612
30
0.0
40
2.905273
0
POINT
8
HOLE_POINTS
10
9.570312
20
424.621612
30
0.0
0
CIRCLE
8
HOLES
10
28.710938
20
424.621612
30
0.0
40
2.905273
0
POINT
8
HOLE_POINTS
10
28.710938
20
424.621612
30
0.0
0
CIRCLE
8
HOLES
10
47.851562
20
424.621612
30
0.0
40
2.905273
0
POINT
8
HOLE_POINTS
10
47.851562
20
424.621612
30
0.0
0
CIRCLE
8
HOLES
10
66.992188
20
424.621612
30
0.0
40
2.905273
0
POINT
8
HOLE_POINTS
10
66.992188
20
424.621612
30
0.0
0
CIRCLE
8
HOLES
10
86.132812
20
424.621612
30
0.0
40
2.905273
0
POINT
8
HOLE_POINTS
10
86.132812
20
424.621612
30
0.0
0
CIRCLE
8
HOLES
10
105.273438
20
424.621612
30
0.0
40
2.905273
0
POINT
8
HOLE_POINTS
10
105.273438
20
424.621612
30
0.0
0
CIRCLE
8
HOLES
10
124.414062
20
424.621612
30
0.0
40
2.905273
0
POINT
8
HOLE_POINTS
10
124.414062
20
424.621612
30
0.0
0
CIRCLE
8
HOLES
10
143.554688
20
424.621612
30
0.0
40
2.905273
0
POINT
8
HOLE_POINTS
10
143.554688
20
424.621612
30
0.0
0
CIRCLE
8
HOLES
10
162.695312
20
424.621612
30
0.0
40
2.905273
0
POINT
8
HOLE_POINTS
10
162.695312
20
424.621612
30
0.0
0
CIRCLE
8
HOLES
10
181.835938
20
424.621612
30
0.0
40
2.905273
0
POINT
8
HOLE_POINTS
10
181.835938
20
424.621612
30
0.0
0
CIRCLE
8
HOLES
10
200.976562
20
424.621612
30
0.0
40
2.905273
0
POINT
8
HOLE_POINTS
10
200.976562
20
424.621612
30
0.0
0
CIRCLE
8
HOLES
10
19.140625
20
408.045831
30
0.0
40
2.905273
0
POINT
8
HOLE_POINTS
10
19.140625
20
408.045831
30
0.0
0
CIRCLE
8
HOLES
10
38.281250
20
408.045831
30
0.0
40
2.905273
0
POINT
8
HOLE_POINTS
10
38.281250
20
408.045831
30
0.0
0
CIRCLE
8
HOLES
10
57.421875
20
408.045831
30
0.0
40
2.905273
0
POINT
8
HOLE_POINTS
10
57.421875
20
408.045831
30
0.0
0
CIRCLE
8
HOLES
10
76.562500
20
408.045831
30
0.0
40
2.905273
0
POINT
8
HOLE_POINTS
10
76.562500
20
408.045831
30
0.0
0
CIRCLE
8
HOLES
10
95.703125
20
408.045831
30
0.0
40
2.905273
0
POINT
8
HOLE_POINTS
10
95.703125
20
408.045831
30
0.0
0
CIRCLE
8
HOLES
10
114.843750
20
408.045831
30
0.0
40
2.905273
0
POINT
8
HOLE_POINTS
10
114.843750
20
408.045831
30
0.0
0
CIRCLE
8
HOLES
10
133.984375
20
408.045831
30
0.0
40
2.905273
0
POINT
8
HOLE_POINTS
10
133.984375
20
408.045831
30
0.0
0
CIRCLE
8
HOLES
10
153.125000
20
408.045831
30
0.0
40
2.905273
0
POINT
8
HOLE_POINTS
10
153.125000
20
408.045831
30
0.0
0
CIRCLE
8
HOLES
10
9.570312
20
391.470050
30
0.0
40
2.905273
0
POINT
8
HOLE_POINTS
10
9.570312
20
391.470050
30
0.0
0
CIRCLE
8
HOLES
10
28.710938
20
391.470050
30
0.0
40
2.905273
0
POINT
8
HOLE_POINTS
10
28.710938
20
391.470050
30
0.0
0
CIRCLE
8
HOLES
10
47.851562
20
391.470050
30
0.0
40
2.905273
0
POINT
8
HOLE_POINTS
10
47.851562
20
391.470050
30
0.0
0
CIRCLE
8
HOLES
10
66.992188
20
391.470050
30
0.0
40
2.905273
0
POINT
8
HOLE_POINTS
10
66.992188
20
391.470050
30
0.0
0
CIRCLE
8
HOLES
10
86.132812
20
391.470050
30
0.0
40
2.905273
0
POINT
8
HOLE_POINTS
10
86.132812
20
391.470050
30
0.0
0
CIRCLE
8
HOLES
10
105.273438
20
391.470050
30
0.0
40
2.905273
0
POINT
8
HOLE_POINTS
10
105.273438
20
391.470050
30
0.0
0
CIRCLE
8
HOLES
10
19.140625
20
374.894268
30
0.0
40
2.905273
0
POINT
8
HOLE_POINTS
10
19.140625
20
374.894268
30
0.0
0
CIRCLE
8
HOLES
10
38.281250
20
374.894268
30
0.0
40
2.905273
0
POINT
8
HOLE_POINTS
10
38.281250
20
374.894268
30
0.0
0
CIRCLE
8
HOLES
10
57.421875
20
374.894268
30
0.0
40
2.905273
0
POINT
8
HOLE_POINTS
10
57.421875
20
374.894268
30
0.0
0
CIRCLE
8
HOLES
10
76.562500
20
374.894268
30
0.0
40
2.905273
0
POINT
8
HOLE_POINTS
10
76.562500
20
374.894268
30
0.0
0
CIRCLE
8
HOLES
10
9.570312
20
358.318487
30
0.0
40
2.905273
0
POINT
8
HOLE_POINTS
10
9.570312
20
358.318487
30
0.0
0
CIRCLE
8
HOLES
10
28.710938
20
358.318487
30
0.0
40
2.905273
0
POINT
8
HOLE_POINTS
10
28.710938
20
358.318487
30
0.0
0
CIRCLE
8
HOLES
10
47.851562
20
358.318487
30
0.0
40
2.905273
0
POINT
8
HOLE_POINTS
10
47.851562
20
358.318487
30
0.0
0
CIRCLE
8
HOLES
10
66.992188
20
358.318487
30
0.0
40
2.905273
0
POINT
8
HOLE_POINTS
10
66.992188
20
358.318487
30
0.0
0
CIRCLE
8
HOLES
10
19.140625
20
341.742706
30
0.0
40
2.905273
0
POINT
8
HOLE_POINTS
10
19.140625
20
341.742706
30
0.0
0
CIRCLE
8
HOLES
10
38.281250
20
341.742706
30
0.0
40
2.905273
0
POINT
8
HOLE_POINTS
10
38.281250
20
341.742706
30
0.0
0
CIRCLE
8
HOLES
10
9.570312
20
325.166925
30
0.0
40
2.905273
0
POINT
8
HOLE_POINTS
10
9.570312
20
325.166925
30
0.0
0
CIRCLE
8
HOLES
10
28.710938
20
325.166925
30
0.0
40
2.905273
0
POINT
8
HOLE_POINTS
10
28.710938
20
325.166925
30
0.0
0
CIRCLE
8
HOLES
10
19.140625
20
308.591143
30
0.0
40
2.905273
0
POINT
8
HOLE_POINTS
10
19.140625
20
308.591143
30
0.0
0
CIRCLE
8
HOLES
10
9.570312
20
292.015362
30
0.0
40
2.905273
0
POINT
8
HOLE_POINTS
10
9.570312
20
292.015362
30
0.0
0
ENDSEC
0
EOF
