0
SECTION
2
HEADER
9
$ACADVER
1
AC1015
9
$INSUNITS
70
4
0
ENDSEC
0
SECTION
2
TABLES
0
TABLE
2
LAYER
70
1
0
LAYER
2
LAKES
70
0
62
4
6
CONTINUOUS
0
ENDTAB
0
ENDSEC
0
SECTION
2
ENTITIES
0
LWPOLYLINE
8
LAKES
90
13
70
0
10
286.633663
20
306.435644
10
285.643564
20
305.445545
10
286.138614
20
301.485149
10
282.178218
20
294.554455
10
282.178218
20
290.594059
10
279.207921
20
284.653465
10
279.207921
20
279.207921
10
276.237624
20
271.782178
10
273.267327
20
270.792079
10
272.277228
20
268.811881
10
269.306931
20
267.821782
10
267.326733
20
264.851485
10
268.316832
20
262.871287
0
LWPOLYLINE
8
LAKES
90
34
70
0
10
285.148515
20
304.950495
10
283.168317
20
302.970297
10
283.663366
20
299.504950
10
280.198020
20
297.524752
10
276.732673
20
290.099010
10
274.257426
20
279.207921
10
270.792079
20
273.762376
10
263.861386
20
267.326733
10
261.386139
20
265.841584
10
257.920792
20
265.346535
10
253.960396
20
262.871287
10
250.990099
20
264.356436
10
248.514851
20
263.366337
10
244.059406
20
263.861386
10
250.990099
20
257.920792
10
250.000000
20
255.940594
10
249.504950
20
245.544554
10
250.000000
20
243.069307
10
248.514851
20
238.613861
10
248.514851
20
234.158416
10
249.504950
20
232.178218
10
249.504950
20
222.772277
10
257.425743
20
223.267327
10
261.386139
20
227.722772
10
260.891089
20
233.168317
10
259.405941
20
236.138614
10
259.900990
20
239.603960
10
258.415842
20
241.584158
10
258.415842
20
248.019802
10
259.405941
20
251.980198
10
261.881188
20
257.920792
10
265.346535
20
260.396040
10
265.841584
20
262.376238
10
268.316832
20
263.861386
0
LWPOLYLINE
8
LAKES
90
27
70
0
10
235.148515
20
295.049505
10
232.673267
20
292.574257
10
229.702970
20
288.118812
10
230.198020
20
286.138614
10
228.712871
20
283.168317
10
228.712871
20
279.702970
10
226.237624
20
279.702970
10
226.237624
20
274.257426
10
228.217822
20
270.792079
10
227.227723
20
266.336634
10
225.247525
20
268.316832
10
226.237624
20
264.356436
10
224.257426
20
260.891089
10
227.227723
20
255.940594
10
226.732673
20
251.980198
10
225.247525
20
250.495050
10
224.752475
20
247.029703
10
223.267327
20
245.049505
10
221.287129
20
245.049505
10
217.326733
20
242.079208
10
213.366337
20
238.118812
10
212.871287
20
232.178218
10
214.851485
20
230.198020
10
214.851485
20
226.732673
10
213.366337
20
225.247525
10
207.920792
20
223.267327
10
205.445545
20
220.792079
0
LWPOLYLINE
8
LAKES
90
8
70
0
10
202.970297
20
209.900990
10
206.930693
20
208.415842
10
207.920792
20
209.405941
10
209.405941
20
214.851485
10
214.356436
20
215.841584
10
215.346535
20
218.811881
10
209.405941
20
217.821782
10
206.435644
20
219.801980
0
LWPOLYLINE
8
LAKES
90
13
70
0
10
229.702970
20
209.405941
10
227.722772
20
210.891089
10
225.742574
20
209.405941
10
226.237624
20
204.455446
10
225.247525
20
203.960396
10
228.217822
20
200.990099
10
225.742574
20
200.000000
10
220.792079
20
203.465347
10
219.801980
20
207.920792
10
217.326733
20
211.386139
10
211.386139
20
210.891089
10
208.415842
20
205.940594
10
206.435644
20
207.920792
0
LWPOLYLINE
8
LAKES
90
35
70
0
10
87.623762
20
161.881188
10
91.584158
20
161.386139
10
94.059406
20
157.425743
10
97.029703
20
147.524752
10
99.009901
20
146.534653
10
100.000000
20
140.099010
10
101.980198
20
136.138614
10
101.980198
20
129.207921
10
100.990099
20
124.752475
10
103.465347
20
120.792079
10
101.980198
20
116.336634
10
104.950495
20
111.386139
10
106.435644
20
107.425743
10
106.435644
20
104.455446
10
108.910891
20
101.485149
10
111.386139
20
101.980198
10
114.851485
20
104.455446
10
115.841584
20
102.475248
10
117.326733
20
103.465347
10
121.782178
20
103.960396
10
123.762376
20
106.435644
10
126.237624
20
106.930693
10
128.217822
20
105.445545
10
131.683168
20
107.920792
10
134.653465
20
107.920792
10
138.613861
20
111.881188
10
142.079208
20
113.366337
10
146.534653
20
113.366337
10
147.524752
20
111.881188
10
149.009901
20
113.861386
10
152.970297
20
116.336634
10
154.950495
20
116.336634
10
153.960396
20
118.316832
10
150.495050
20
116.831683
10
147.029703
20
113.861386
0
LWPOLYLINE
8
LAKES
90
11
70
1
10
254.950495
20
138.613861
10
254.455446
20
134.653465
10
251.980198
20
130.198020
10
247.029703
20
124.752475
10
245.049505
20
121.287129
10
244.554455
20
115.346535
10
243.564356
20
113.861386
10
242.079208
20
116.831683
10
244.554455
20
123.267327
10
248.514851
20
128.712871
10
250.990099
20
130.693069
0
LWPOLYLINE
8
LAKES
90
20
70
1
10
0.000000
20
136.138614
10
1.485149
20
136.138614
10
4.950495
20
138.613861
10
8.910891
20
138.613861
10
10.891089
20
140.594059
10
9.900990
20
137.128713
10
6.435644
20
137.623762
10
4.455446
20
136.138614
10
4.455446
20
133.168317
10
6.930693
20
130.198020
10
6.435644
20
127.227723
10
7.920792
20
126.237624
10
6.435644
20
124.752475
10
6.435644
20
120.297030
10
4.950495
20
116.336634
10
0.000000
20
111.386139
10
0.000000
20
118.316832
10
1.980198
20
118.316832
10
3.960396
20
120.297030
10
3.960396
20
126.732673
0
LWPOLYLINE
8
LAKES
90
56
70
0
10
143.564356
20
111.881188
10
151.485149
20
108.415842
10
153.465347
20
106.435644
10
152.970297
20
101.485149
10
155.445545
20
100.000000
10
160.396040
20
95.544554
10
160.396040
20
91.584158
10
159.405941
20
90.594059
10
159.900990
20
85.643564
10
158.415842
20
82.673267
10
158.415842
20
77.227723
10
156.930693
20
73.267327
10
157.425743
20
68.811881
10
156.435644
20
64.356436
10
157.425743
20
59.900990
10
160.396040
20
54.950495
10
161.386139
20
49.009901
10
159.900990
20
47.524752
10
159.405941
20
43.069307
10
156.930693
20
39.108911
10
154.455446
20
38.118812
10
152.970297
20
39.603960
10
154.950495
20
42.079208
10
155.445545
20
45.049505
10
155.445545
20
52.970297
10
153.960396
20
57.425743
10
152.475248
20
59.405941
10
151.980198
20
71.287129
10
149.504950
20
72.772277
10
151.980198
20
76.237624
10
152.475248
20
81.683168
10
153.465347
20
83.663366
10
153.465347
20
87.623762
10
150.990099
20
90.594059
10
147.524752
20
93.069307
10
147.524752
20
100.495050
10
144.554455
20
103.960396
10
140.594059
20
104.950495
10
136.138614
20
102.475248
10
127.227723
20
96.039604
10
122.772277
20
96.039604
10
121.287129
20
97.029703
10
118.316832
20
94.554455
10
111.881188
20
93.069307
10
109.405941
20
95.049505
10
105.445545
20
96.039604
10
101.485149
20
98.514851
10
101.485149
20
101.980198
10
96.534653
20
107.425743
10
96.039604
20
112.376238
10
94.059406
20
120.297030
10
90.594059
20
131.188119
10
88.118812
20
135.148515
10
90.099010
20
139.603960
10
87.623762
20
150.990099
10
87.623762
20
160.891089
0
LWPOLYLINE
8
LAKES
90
6
70
0
10
50.990099
20
77.227723
10
51.980198
20
72.772277
10
53.465347
20
71.287129
10
52.475248
20
68.811881
10
54.455446
20
61.386139
10
54.455446
20
57.425743
0
LWPOLYLINE
8
LAKES
90
20
70
0
10
237.128713
20
296.039604
10
237.623762
20
294.554455
10
233.663366
20
287.128713
10
235.643564
20
285.148515
10
237.128713
20
280.198020
10
237.128713
20
272.277228
10
235.643564
20
265.841584
10
235.148515
20
259.900990
10
233.663366
20
256.435644
10
233.663366
20
253.960396
10
231.683168
20
245.544554
10
230.198020
20
242.079208
10
224.752475
20
236.138614
10
218.811881
20
230.693069
10
218.811881
20
226.732673
10
220.297030
20
225.247525
10
221.287129
20
214.851485
10
224.257426
20
211.881188
10
227.227723
20
212.376238
10
228.712871
20
213.861386
0
ENDSEC
0
EOF
