<svg xmlns="http://www.w3.org/2000/svg" width="916" height="916" viewBox="-8 -8 916 916"><rect x="-8" y="-8" width="916" height="916" fill="#111"/><path d="M 899.86 438.75 L 899.07 421.01 L 897.57 403.31 L 895.38 385.69 L 892.50 368.17 L 888.92 350.77 L 884.67 333.53 L 879.73 316.47 L 874.13 299.62 L 867.87 283.00 L 860.95 266.65 L 853.40 250.57 L 845.21 234.81 L 845.34 234.74 L 843.33 235.65 L 841.18 236.15 L 838.98 236.23 L 836.80 235.87 L 834.74 235.09 L 832.86 233.93 L 831.25 232.42 L 829.97 230.63 L 829.06 228.62 L 828.56 226.47 L 828.49 224.26 L 828.84 222.09 L 829.62 220.02 L 830.79 218.15 L 832.29 216.54 L 834.09 215.26 L 833.96 215.33 L 824.41 200.36 L 814.27 185.78 L 803.56 171.62 L 792.30 157.88 L 780.51 144.60 L 768.20 131.80 L 755.40 119.49 L 742.12 107.70 L 728.38 96.44 L 714.22 85.73 L 699.64 75.59 L 684.67 66.04 L 684.74 65.91 L 683.46 67.71 L 681.85 69.21 L 679.98 70.38 L 677.91 71.16 L 675.74 71.51 L 673.53 71.44 L 671.38 70.94 L 669.38 70.03 L 667.58 68.75 L 666.07 67.14 L 664.91 65.26 L 664.13 63.20 L 663.77 61.02 L 663.85 58.82 L 664.35 56.67 L 665.26 54.66 L 665.19 54.79 L 649.43 46.60 L 633.35 39.05 L 617.00 32.13 L 600.38 25.87 L 583.53 20.27 L 566.47 15.33 L 549.23 11.08 L 531.83 7.50 L 514.31 4.62 L 496.69 2.43 L 478.99 0.93 L 461.25 0.14 L 461.25 0.00 L 461.03 2.19 L 460.39 4.31 L 459.35 6.25 L 457.95 7.95 L 456.25 9.35 L 454.31 10.39 L 452.19 11.03 L 450.00 11.25 L 447.81 11.03 L 445.69 10.39 L 443.75 9.35 L 442.05 7.95 L 440.65 6.25 L 439.61 4.31 L 438.97 2.19 L 438.75 0.00 L 438.75 0.14 L 421.01 0.93 L 403.31 2.43 L 385.69 4.62 L 368.17 7.50 L 350.77 11.08 L 333.53 15.33 L 316.47 20.27 L 299.62 25.87 L 283.00 32.13 L 266.65 39.05 L 250.57 46.60 L 234.81 54.79 L 234.74 54.66 L 235.65 56.67 L 236.15 58.82 L 236.23 61.02 L 235.87 63.20 L 235.09 65.26 L 233.93 67.14 L 232.42 68.75 L 230.63 70.03 L 228.62 70.94 L 226.47 71.44 L 224.26 71.51 L 222.09 71.16 L 220.02 70.38 L 218.15 69.21 L 216.54 67.71 L 215.26 65.91 L 215.33 66.04 L 200.36 75.59 L 185.78 85.73 L 171.62 96.44 L 157.88 107.70 L 144.60 119.49 L 131.80 131.80 L 119.49 144.60 L 107.70 157.88 L 96.44 171.62 L 85.73 185.78 L 75.59 200.36 L 66.04 215.33 L 65.91 215.26 L 67.71 216.54 L 69.21 218.15 L 70.38 220.02 L 71.16 222.09 L 71.51 224.26 L 71.44 226.47 L 70.94 228.62 L 70.03 230.63 L 68.75 232.42 L 67.14 233.93 L 65.26 235.09 L 63.20 235.87 L 61.02 236.23 L 58.82 236.15 L 56.67 235.65 L 54.66 234.74 L 54.79 234.81 L 46.60 250.57 L 39.05 266.65 L 32.13 283.00 L 25.87 299.62 L 20.27 316.47 L 15.33 333.53 L 11.08 350.77 L 7.50 368.17 L 4.62 385.69 L 2.43 403.31 L 0.93 421.01 L 0.14 438.75 L 0.00 438.75 L 2.19 438.97 L 4.31 439.61 L 6.25 440.65 L 7.95 442.05 L 9.35 443.75 L 10.39 445.69 L 11.03 447.81 L 11.25 450.00 L 11.03 452.19 L 10.39 454.31 L 9.35 456.25 L 7.95 457.95 L 6.25 459.35 L 4.31 460.39 L 2.19 461.03 L 0.00 461.25 L 0.14 461.25 L 0.93 478.99 L 2.43 496.69 L 4.62 514.31 L 7.50 531.83 L 11.08 549.23 L 15.33 566.47 L 20.27 583.53 L 25.87 600.38 L 32.13 617.00 L 39.05 633.35 L 46.60 649.43 L 54.79 665.19 L 54.66 665.26 L 56.67 664.35 L 58.82 663.85 L 61.02 663.77 L 63.20 664.13 L 65.26 664.91 L 67.14 666.07 L 68.75 667.58 L 70.03 669.37 L 70.94 671.38 L 71.44 673.53 L 71.51 675.74 L 71.16 677.91 L 70.38 679.98 L 69.21 681.85 L 67.71 683.46 L 65.91 684.74 L 66.04 684.67 L 75.59 699.64 L 85.73 714.22 L 96.44 728.38 L 107.70 742.12 L 119.49 755.40 L 131.80 768.20 L 144.60 780.51 L 157.88 792.30 L 171.62 803.56 L 185.78 814.27 L 200.36 824.41 L 215.33 833.96 L 215.26 834.09 L 216.54 832.29 L 218.15 830.79 L 220.02 829.62 L 222.09 828.84 L 224.26 828.49 L 226.47 828.56 L 228.62 829.06 L 230.62 829.97 L 232.42 831.25 L 233.93 832.86 L 235.09 834.74 L 235.87 836.80 L 236.23 838.98 L 236.15 841.18 L 235.65 843.33 L 234.74 845.34 L 234.81 845.21 L 250.57 853.40 L 266.65 860.95 L 283.00 867.87 L 299.62 874.13 L 316.47 879.73 L 333.53 884.67 L 350.77 888.92 L 368.17 892.50 L 385.69 895.38 L 403.31 897.57 L 421.01 899.07 L 438.75 899.86 L 438.75 900.00 L 438.97 897.81 L 439.61 895.69 L 440.65 893.75 L 442.05 892.05 L 443.75 890.65 L 445.69 889.61 L 447.81 888.97 L 450.00 888.75 L 452.19 888.97 L 454.31 889.61 L 456.25 890.65 L 457.95 892.05 L 459.35 893.75 L 460.39 895.69 L 461.03 897.81 L 461.25 900.00 L 461.25 899.86 L 478.99 899.07 L 496.69 897.57 L 514.31 895.38 L 531.83 892.50 L 549.23 888.92 L 566.47 884.67 L 583.53 879.73 L 600.38 874.13 L 617.00 867.87 L 633.35 860.95 L 649.43 853.40 L 665.19 845.21 L 665.26 845.34 L 664.35 843.33 L 663.85 841.18 L 663.77 838.98 L 664.13 836.80 L 664.91 834.74 L 666.07 832.86 L 667.58 831.25 L 669.38 829.97 L 671.38 829.06 L 673.53 828.56 L 675.74 828.49 L 677.91 828.84 L 679.98 829.62 L 681.85 830.79 L 683.46 832.29 L 684.74 834.09 L 684.67 833.96 L 699.64 824.41 L 714.22 814.27 L 728.38 803.56 L 742.12 792.30 L 755.40 780.51 L 768.20 768.20 L 780.51 755.40 L 792.30 742.12 L 803.56 728.38 L 814.27 714.22 L 824.41 699.64 L 833.96 684.67 L 834.09 684.74 L 832.29 683.46 L 830.79 681.85 L 829.62 679.98 L 828.84 677.91 L 828.49 675.74 L 828.56 673.53 L 829.06 671.38 L 829.97 669.38 L 831.25 667.58 L 832.86 666.07 L 834.74 664.91 L 836.80 664.13 L 838.98 663.77 L 841.18 663.85 L 843.33 664.35 L 845.34 665.26 L 845.21 665.19 L 853.40 649.43 L 860.95 633.35 L 867.87 617.00 L 874.13 600.38 L 879.73 583.53 L 884.67 566.47 L 888.92 549.23 L 892.50 531.83 L 895.38 514.31 L 897.57 496.69 L 899.07 478.99 L 899.86 461.25 L 900.00 461.25 L 897.81 461.03 L 895.69 460.39 L 893.75 459.35 L 892.05 457.95 L 890.65 456.25 L 889.61 454.31 L 888.97 452.19 L 888.75 450.00 L 888.97 447.81 L 889.61 445.69 L 890.65 443.75 L 892.05 442.05 L 893.75 440.65 L 895.69 439.61 L 897.81 438.97 L 900.00 438.75 Z" fill="none" stroke="#fff" stroke-width="1.4"/><circle cx="899.86" cy="438.75" r="1.1" fill="#f80" fill-opacity="0.7"/><circle cx="899.07" cy="421.01" r="1.1" fill="#f80" fill-opacity="0.7"/><circle cx="897.57" cy="403.31" r="1.1" fill="#f80" fill-opacity="0.7"/><circle cx="895.38" cy="385.69" r="1.1" fill="#f80" fill-opacity="0.7"/><circle cx="892.50" cy="368.17" r="1.1" fill="#f80" fill-opacity="0.7"/><circle cx="888.92" cy="350.77" r="1.1" fill="#f80" fill-opacity="0.7"/><circle cx="884.67" cy="333.53" r="1.1" fill="#f80" fill-opacity="0.7"/><circle cx="879.73" cy="316.47" r="1.1" fill="#f80" fill-opacity="0.7"/><circle cx="874.13" cy="299.62" r="1.1" fill="#f80" fill-opacity="0.7"/><circle cx="867.87" cy="283.00" r="1.1" fill="#f80" fill-opacity="0.7"/><circle cx="860.95" cy="266.65" r="1.1" fill="#f80" fill-opacity="0.7"/><circle cx="853.40" cy="250.57" r="1.1" fill="#f80" fill-opacity="0.7"/><circle cx="845.21" cy="234.81" r="1.1" fill="#f80" fill-opacity="0.7"/><circle cx="845.34" cy="234.74" r="1.1" fill="#f80" fill-opacity="0.7"/><circle cx="843.33" cy="235.65" r="1.1" fill="#f80" fill-opacity="0.7"/><circle cx="841.18" cy="236.15" r="1.1" fill="#f80" fill-opacity="0.7"/><circle cx="838.98" cy="236.23" r="1.1" fill="#f80" fill-opacity="0.7"/><circle cx="836.80" cy="235.87" r="1.1" fill="#f80" fill-opacity="0.7"/><circle cx="834.74" cy="235.09" r="1.1" fill="#f80" fill-opacity="0.7"/><circle cx="832.86" cy="233.93" r="1.1" fill="#f80" fill-opacity="0.7"/><circle cx="831.25" cy="232.42" r="1.1" fill="#f80" fill-opacity="0.7"/><circle cx="829.97" cy="230.63" r="1.1" fill="#f80" fill-opacity="0.7"/><circle cx="829.06" cy="228.62" r="1.1" fill="#f80" fill-opacity="0.7"/><circle cx="828.56" cy="226.47" r="1.1" fill="#f80" fill-opacity="0.7"/><circle cx="828.49" cy="224.26" r="1.1" fill="#f80" fill-opacity="0.7"/><circle cx="828.84" cy="222.09" r="1.1" fill="#f80" fill-opacity="0.7"/><circle cx="829.62" cy="220.02" r="1.1" fill="#f80" fill-opacity="0.7"/><circle cx="830.79" cy="218.15" r="1.1" fill="#f80" fill-opacity="0.7"/><circle cx="832.29" cy="216.54" r="1.1" fill="#f80" fill-opacity="0.7"/><circle cx="834.09" cy="215.26" r="1.1" fill="#f80" fill-opacity="0.7"/><circle cx="833.96" cy="215.33" r="1.1" fill="#f80" fill-opacity="0.7"/><circle cx="824.41" cy="200.36" r="1.1" fill="#f80" fill-opacity="0.7"/><circle cx="814.27" cy="185.78" r="1.1" fill="#f80" fill-opacity="0.7"/><circle cx="803.56" cy="171.62" r="1.1" fill="#f80" fill-opacity="0.7"/><circle cx="792.30" cy="157.88" r="1.1" fill="#f80" fill-opacity="0.7"/><circle cx="780.51" cy="144.60" r="1.1" fill="#f80" fill-opacity="0.7"/><circle cx="768.20" cy="131.80" r="1.1" fill="#f80" fill-opacity="0.7"/><circle cx="755.40" cy="119.49" r="1.1" fill="#f80" fill-opacity="0.7"/><circle cx="742.12" cy="107.70" r="1.1" fill="#f80" fill-opacity="0.7"/><circle cx="728.38" cy="96.44" r="1.1" fill="#f80" fill-opacity="0.7"/><circle cx="714.22" cy="85.73" r="1.1" fill="#f80" fill-opacity="0.7"/><circle cx="699.64" cy="75.59" r="1.1" fill="#f80" fill-opacity="0.7"/><circle cx="684.67" cy="66.04" r="1.1" fill="#f80" fill-opacity="0.7"/><circle cx="684.74" cy="65.91" r="1.1" fill="#f80" fill-opacity="0.7"/><circle cx="683.46" cy="67.71" r="1.1" fill="#f80" fill-opacity="0.7"/><circle cx="681.85" cy="69.21" r="1.1" fill="#f80" fill-opacity="0.7"/><circle cx="679.98" cy="70.38" r="1.1" fill="#f80" fill-opacity="0.7"/><circle cx="677.91" cy="71.16" r="1.1" fill="#f80" fill-opacity="0.7"/><circle cx="675.74" cy="71.51" r="1.1" fill="#f80" fill-opacity="0.7"/><circle cx="673.53" cy="71.44" r="1.1" fill="#f80" fill-opacity="0.7"/><circle cx="671.38" cy="70.94" r="1.1" fill="#f80" fill-opacity="0.7"/><circle cx="669.38" cy="70.03" r="1.1" fill="#f80" fill-opacity="0.7"/><circle cx="667.58" cy="68.75" r="1.1" fill="#f80" fill-opacity="0.7"/><circle cx="666.07" cy="67.14" r="1.1" fill="#f80" fill-opacity="0.7"/><circle cx="664.91" cy="65.26" r="1.1" fill="#f80" fill-opacity="0.7"/><circle cx="664.13" cy="63.20" r="1.1" fill="#f80" fill-opacity="0.7"/><circle cx="663.77" cy="61.02" r="1.1" fill="#f80" fill-opacity="0.7"/><circle cx="663.85" cy="58.82" r="1.1" fill="#f80" fill-opacity="0.7"/><circle cx="664.35" cy="56.67" r="1.1" fill="#f80" fill-opacity="0.7"/><circle cx="665.26" cy="54.66" r="1.1" fill="#f80" fill-opacity="0.7"/><circle cx="665.19" cy="54.79" r="1.1" fill="#f80" fill-opacity="0.7"/><circle cx="649.43" cy="46.60" r="1.1" fill="#f80" fill-opacity="0.7"/><circle cx="633.35" cy="39.05" r="1.1" fill="#f80" fill-opacity="0.7"/><circle cx="617.00" cy="32.13" r="1.1" fill="#f80" fill-opacity="0.7"/><circle cx="600.38" cy="25.87" r="1.1" fill="#f80" fill-opacity="0.7"/><circle cx="583.53" cy="20.27" r="1.1" fill="#f80" fill-opacity="0.7"/><circle cx="566.47" cy="15.33" r="1.1" fill="#f80" fill-opacity="0.7"/><circle cx="549.23" cy="11.08" r="1.1" fill="#f80" fill-opacity="0.7"/><circle cx="531.83" cy="7.50" r="1.1" fill="#f80" fill-opacity="0.7"/><circle cx="514.31" cy="4.62" r="1.1" fill="#f80" fill-opacity="0.7"/><circle cx="496.69" cy="2.43" r="1.1" fill="#f80" fill-opacity="0.7"/><circle cx="478.99" cy="0.93" r="1.1" fill="#f80" fill-opacity="0.7"/><circle cx="461.25" cy="0.14" r="1.1" fill="#f80" fill-opacity="0.7"/><circle cx="461.25" cy="0.00" r="1.1" fill="#f80" fill-opacity="0.7"/><circle cx="461.03" cy="2.19" r="1.1" fill="#f80" fill-opacity="0.7"/><circle cx="460.39" cy="4.31" r="1.1" fill="#f80" fill-opacity="0.7"/><circle cx="459.35" cy="6.25" r="1.1" fill="#f80" fill-opacity="0.7"/><circle cx="457.95" cy="7.95" r="1.1" fill="#f80" fill-opacity="0.7"/><circle cx="456.25" cy="9.35" r="1.1" fill="#f80" fill-opacity="0.7"/><circle cx="454.31" cy="10.39" r="1.1" fill="#f80" fill-opacity="0.7"/><circle cx="452.19" cy="11.03" r="1.1" fill="#f80" fill-opacity="0.7"/><circle cx="450.00" cy="11.25" r="1.1" fill="#f80" fill-opacity="0.7"/><circle cx="447.81" cy="11.03" r="1.1" fill="#f80" fill-opacity="0.7"/><circle cx="445.69" cy="10.39" r="1.1" fill="#f80" fill-opacity="0.7"/><circle cx="443.75" cy="9.35" r="1.1" fill="#f80" fill-opacity="0.7"/><circle cx="442.05" cy="7.95" r="1.1" fill="#f80" fill-opacity="0.7"/><circle cx="440.65" cy="6.25" r="1.1" fill="#f80" fill-opacity="0.7"/><circle cx="439.61" cy="4.31" r="1.1" fill="#f80" fill-opacity="0.7"/><circle cx="438.97" cy="2.19" r="1.1" fill="#f80" fill-opacity="0.7"/><circle cx="438.75" cy="0.00" r="1.1" fill="#f80" fill-opacity="0.7"/><circle cx="438.75" cy="0.14" r="1.1" fill="#f80" fill-opacity="0.7"/><circle cx="421.01" cy="0.93" r="1.1" fill="#f80" fill-opacity="0.7"/><circle cx="403.31" cy="2.43" r="1.1" fill="#f80" fill-opacity="0.7"/><circle cx="385.69" cy="4.62" r="1.1" fill="#f80" fill-opacity="0.7"/><circle cx="368.17" cy="7.50" r="1.1" fill="#f80" fill-opacity="0.7"/><circle cx="350.77" cy="11.08" r="1.1" fill="#f80" fill-opacity="0.7"/><circle cx="333.53" cy="15.33" r="1.1" fill="#f80" fill-opacity="0.7"/><circle cx="316.47" cy="20.27" r="1.1" fill="#f80" fill-opacity="0.7"/><circle cx="299.62" cy="25.87" r="1.1" fill="#f80" fill-opacity="0.7"/><circle cx="283.00" cy="32.13" r="1.1" fill="#f80" fill-opacity="0.7"/><circle cx="266.65" cy="39.05" r="1.1" fill="#f80" fill-opacity="0.7"/><circle cx="250.57" cy="46.60" r="1.1" fill="#f80" fill-opacity="0.7"/><circle cx="234.81" cy="54.79" r="1.1" fill="#f80" fill-opacity="0.7"/><circle cx="234.74" cy="54.66" r="1.1" fill="#f80" fill-opacity="0.7"/><circle cx="235.65" cy="56.67" r="1.1" fill="#f80" fill-opacity="0.7"/><circle cx="236.15" cy="58.82" r="1.1" fill="#f80" fill-opacity="0.7"/><circle cx="236.23" cy="61.02" r="1.1" fill="#f80" fill-opacity="0.7"/><circle cx="235.87" cy="63.20" r="1.1" fill="#f80" fill-opacity="0.7"/><circle cx="235.09" cy="65.26" r="1.1" fill="#f80" fill-opacity="0.7"/><circle cx="233.93" cy="67.14" r="1.1" fill="#f80" fill-opacity="0.7"/><circle cx="232.42" cy="68.75" r="1.1" fill="#f80" fill-opacity="0.7"/><circle cx="230.63" cy="70.03" r="1.1" fill="#f80" fill-opacity="0.7"/><circle cx="228.62" cy="70.94" r="1.1" fill="#f80" fill-opacity="0.7"/><circle cx="226.47" cy="71.44" r="1.1" fill="#f80" fill-opacity="0.7"/><circle cx="224.26" cy="71.51" r="1.1" fill="#f80" fill-opacity="0.7"/><circle cx="222.09" cy="71.16" r="1.1" fill="#f80" fill-opacity="0.7"/><circle cx="220.02" cy="70.38" r="1.1" fill="#f80" fill-opacity="0.7"/><circle cx="218.15" cy="69.21" r="1.1" fill="#f80" fill-opacity="0.7"/><circle cx="216.54" cy="67.71" r="1.1" fill="#f80" fill-opacity="0.7"/><circle cx="215.26" cy="65.91" r="1.1" fill="#f80" fill-opacity="0.7"/><circle cx="215.33" cy="66.04" r="1.1" fill="#f80" fill-opacity="0.7"/><circle cx="200.36" cy="75.59" r="1.1" fill="#f80" fill-opacity="0.7"/><circle cx="185.78" cy="85.73" r="1.1" fill="#f80" fill-opacity="0.7"/><circle cx="171.62" cy="96.44" r="1.1" fill="#f80" fill-opacity="0.7"/><circle cx="157.88" cy="107.70" r="1.1" fill="#f80" fill-opacity="0.7"/><circle cx="144.60" cy="119.49" r="1.1" fill="#f80" fill-opacity="0.7"/><circle cx="131.80" cy="131.80" r="1.1" fill="#f80" fill-opacity="0.7"/><circle cx="119.49" cy="144.60" r="1.1" fill="#f80" fill-opacity="0.7"/><circle cx="107.70" cy="157.88" r="1.1" fill="#f80" fill-opacity="0.7"/><circle cx="96.44" cy="171.62" r="1.1" fill="#f80" fill-opacity="0.7"/><circle cx="85.73" cy="185.78" r="1.1" fill="#f80" fill-opacity="0.7"/><circle cx="75.59" cy="200.36" r="1.1" fill="#f80" fill-opacity="0.7"/><circle cx="66.04" cy="215.33" r="1.1" fill="#f80" fill-opacity="0.7"/><circle cx="65.91" cy="215.26" r="1.1" fill="#f80" fill-opacity="0.7"/><circle cx="67.71" cy="216.54" r="1.1" fill="#f80" fill-opacity="0.7"/><circle cx="69.21" cy="218.15" r="1.1" fill="#f80" fill-opacity="0.7"/><circle cx="70.38" cy="220.02" r="1.1" fill="#f80" fill-opacity="0.7"/><circle cx="71.16" cy="222.09" r="1.1" fill="#f80" fill-opacity="0.7"/><circle cx="71.51" cy="224.26" r="1.1" fill="#f80" fill-opacity="0.7"/><circle cx="71.44" cy="226.47" r="1.1" fill="#f80" fill-opacity="0.7"/><circle cx="70.94" cy="228.62" r="1.1" fill="#f80" fill-opacity="0.7"/><circle cx="70.03" cy="230.63" r="1.1" fill="#f80" fill-opacity="0.7"/><circle cx="68.75" cy="232.42" r="1.1" fill="#f80" fill-opacity="0.7"/><circle cx="67.14" cy="233.93" r="1.1" fill="#f80" fill-opacity="0.7"/><circle cx="65.26" cy="235.09" r="1.1" fill="#f80" fill-opacity="0.7"/><circle cx="63.20" cy="235.87" r="1.1" fill="#f80" fill-opacity="0.7"/><circle cx="61.02" cy="236.23" r="1.1" fill="#f80" fill-opacity="0.7"/><circle cx="58.82" cy="236.15" r="1.1" fill="#f80" fill-opacity="0.7"/><circle cx="56.67" cy="235.65" r="1.1" fill="#f80" fill-opacity="0.7"/><circle cx="54.66" cy="234.74" r="1.1" fill="#f80" fill-opacity="0.7"/><circle cx="54.79" cy="234.81" r="1.1" fill="#f80" fill-opacity="0.7"/><circle cx="46.60" cy="250.57" r="1.1" fill="#f80" fill-opacity="0.7"/><circle cx="39.05" cy="266.65" r="1.1" fill="#f80" fill-opacity="0.7"/><circle cx="32.13" cy="283.00" r="1.1" fill="#f80" fill-opacity="0.7"/><circle cx="25.87" cy="299.62" r="1.1" fill="#f80" fill-opacity="0.7"/><circle cx="20.27" cy="316.47" r="1.1" fill="#f80" fill-opacity="0.7"/><circle cx="15.33" cy="333.53" r="1.1" fill="#f80" fill-opacity="0.7"/><circle cx="11.08" cy="350.77" r="1.1" fill="#f80" fill-opacity="0.7"/><circle cx="7.50" cy="368.17" r="1.1" fill="#f80" fill-opacity="0.7"/><circle cx="4.62" cy="385.69" r="1.1" fill="#f80" fill-opacity="0.7"/><circle cx="2.43" cy="403.31" r="1.1" fill="#f80" fill-opacity="0.7"/><circle cx="0.93" cy="421.01" r="1.1" fill="#f80" fill-opacity="0.7"/><circle cx="0.14" cy="438.75" r="1.1" fill="#f80" fill-opacity="0.7"/><circle cx="0.00" cy="438.75" r="1.1" fill="#f80" fill-opacity="0.7"/><circle cx="2.19" cy="438.97" r="1.1" fill="#f80" fill-opacity="0.7"/><circle cx="4.31" cy="439.61" r="1.1" fill="#f80" fill-opacity="0.7"/><circle cx="6.25" cy="440.65" r="1.1" fill="#f80" fill-opacity="0.7"/><circle cx="7.95" cy="442.05" r="1.1" fill="#f80" fill-opacity="0.7"/><circle cx="9.35" cy="443.75" r="1.1" fill="#f80" fill-opacity="0.7"/><circle cx="10.39" cy="445.69" r="1.1" fill="#f80" fill-opacity="0.7"/><circle cx="11.03" cy="447.81" r="1.1" fill="#f80" fill-opacity="0.7"/><circle cx="11.25" cy="450.00" r="1.1" fill="#f80" fill-opacity="0.7"/><circle cx="11.03" cy="452.19" r="1.1" fill="#f80" fill-opacity="0.7"/><circle cx="10.39" cy="454.31" r="1.1" fill="#f80" fill-opacity="0.7"/><circle cx="9.35" cy="456.25" r="1.1" fill="#f80" fill-opacity="0.7"/><circle cx="7.95" cy="457.95" r="1.1" fill="#f80" fill-opacity="0.7"/><circle cx="6.25" cy="459.35" r="1.1" fill="#f80" fill-opacity="0.7"/><circle cx="4.31" cy="460.39" r="1.1" fill="#f80" fill-opacity="0.7"/><circle cx="2.19" cy="461.03" r="1.1" fill="#f80" fill-opacity="0.7"/><circle cx="0.00" cy="461.25" r="1.1" fill="#f80" fill-opacity="0.7"/><circle cx="0.14" cy="461.25" r="1.1" fill="#f80" fill-opacity="0.7"/><circle cx="0.93" cy="478.99" r="1.1" fill="#f80" fill-opacity="0.7"/><circle cx="2.43" cy="496.69" r="1.1" fill="#f80" fill-opacity="0.7"/><circle cx="4.62" cy="514.31" r="1.1" fill="#f80" fill-opacity="0.7"/><circle cx="7.50" cy="531.83" r="1.1" fill="#f80" fill-opacity="0.7"/><circle cx="11.08" cy="549.23" r="1.1" fill="#f80" fill-opacity="0.7"/><circle cx="15.33" cy="566.47" r="1.1" fill="#f80" fill-opacity="0.7"/><circle cx="20.27" cy="583.53" r="1.1" fill="#f80" fill-opacity="0.7"/><circle cx="25.87" cy="600.38" r="1.1" fill="#f80" fill-opacity="0.7"/><circle cx="32.13" cy="617.00" r="1.1" fill="#f80" fill-opacity="0.7"/><circle cx="39.05" cy="633.35" r="1.1" fill="#f80" fill-opacity="0.7"/><circle cx="46.60" cy="649.43" r="1.1" fill="#f80" fill-opacity="0.7"/><circle cx="54.79" cy="665.19" r="1.1" fill="#f80" fill-opacity="0.7"/><circle cx="54.66" cy="665.26" r="1.1" fill="#f80" fill-opacity="0.7"/><circle cx="56.67" cy="664.35" r="1.1" fill="#f80" fill-opacity="0.7"/><circle cx="58.82" cy="663.85" r="1.1" fill="#f80" fill-opacity="0.7"/><circle cx="61.02" cy="663.77" r="1.1" fill="#f80" fill-opacity="0.7"/><circle cx="63.20" cy="664.13" r="1.1" fill="#f80" fill-opacity="0.7"/><circle cx="65.26" cy="664.91" r="1.1" fill="#f80" fill-opacity="0.7"/><circle cx="67.14" cy="666.07" r="1.1" fill="#f80" fill-opacity="0.7"/><circle cx="68.75" cy="667.58" r="1.1" fill="#f80" fill-opacity="0.7"/><circle cx="70.03" cy="669.37" r="1.1" fill="#f80" fill-opacity="0.7"/><circle cx="70.94" cy="671.38" r="1.1" fill="#f80" fill-opacity="0.7"/><circle cx="71.44" cy="673.53" r="1.1" fill="#f80" fill-opacity="0.7"/><circle cx="71.51" cy="675.74" r="1.1" fill="#f80" fill-opacity="0.7"/><circle cx="71.16" cy="677.91" r="1.1" fill="#f80" fill-opacity="0.7"/><circle cx="70.38" cy="679.98" r="1.1" fill="#f80" fill-opacity="0.7"/><circle cx="69.21" cy="681.85" r="1.1" fill="#f80" fill-opacity="0.7"/><circle cx="67.71" cy="683.46" r="1.1" fill="#f80" fill-opacity="0.7"/><circle cx="65.91" cy="684.74" r="1.1" fill="#f80" fill-opacity="0.7"/><circle cx="66.04" cy="684.67" r="1.1" fill="#f80" fill-opacity="0.7"/><circle cx="75.59" cy="699.64" r="1.1" fill="#f80" fill-opacity="0.7"/><circle cx="85.73" cy="714.22" r="1.1" fill="#f80" fill-opacity="0.7"/><circle cx="96.44" cy="728.38" r="1.1" fill="#f80" fill-opacity="0.7"/><circle cx="107.70" cy="742.12" r="1.1" fill="#f80" fill-opacity="0.7"/><circle cx="119.49" cy="755.40" r="1.1" fill="#f80" fill-opacity="0.7"/><circle cx="131.80" cy="768.20" r="1.1" fill="#f80" fill-opacity="0.7"/><circle cx="144.60" cy="780.51" r="1.1" fill="#f80" fill-opacity="0.7"/><circle cx="157.88" cy="792.30" r="1.1" fill="#f80" fill-opacity="0.7"/><circle cx="171.62" cy="803.56" r="1.1" fill="#f80" fill-opacity="0.7"/><circle cx="185.78" cy="814.27" r="1.1" fill="#f80" fill-opacity="0.7"/><circle cx="200.36" cy="824.41" r="1.1" fill="#f80" fill-opacity="0.7"/><circle cx="215.33" cy="833.96" r="1.1" fill="#f80" fill-opacity="0.7"/><circle cx="215.26" cy="834.09" r="1.1" fill="#f80" fill-opacity="0.7"/><circle cx="216.54" cy="832.29" r="1.1" fill="#f80" fill-opacity="0.7"/><circle cx="218.15" cy="830.79" r="1.1" fill="#f80" fill-opacity="0.7"/><circle cx="220.02" cy="829.62" r="1.1" fill="#f80" fill-opacity="0.7"/><circle cx="222.09" cy="828.84" r="1.1" fill="#f80" fill-opacity="0.7"/><circle cx="224.26" cy="828.49" r="1.1" fill="#f80" fill-opacity="0.7"/><circle cx="226.47" cy="828.56" r="1.1" fill="#f80" fill-opacity="0.7"/><circle cx="228.62" cy="829.06" r="1.1" fill="#f80" fill-opacity="0.7"/><circle cx="230.62" cy="829.97" r="1.1" fill="#f80" fill-opacity="0.7"/><circle cx="232.42" cy="831.25" r="1.1" fill="#f80" fill-opacity="0.7"/><circle cx="233.93" cy="832.86" r="1.1" fill="#f80" fill-opacity="0.7"/><circle cx="235.09" cy="834.74" r="1.1" fill="#f80" fill-opacity="0.7"/><circle cx="235.87" cy="836.80" r="1.1" fill="#f80" fill-opacity="0.7"/><circle cx="236.23" cy="838.98" r="1.1" fill="#f80" fill-opacity="0.7"/><circle cx="236.15" cy="841.18" r="1.1" fill="#f80" fill-opacity="0.7"/><circle cx="235.65" cy="843.33" r="1.1" fill="#f80" fill-opacity="0.7"/><circle cx="234.74" cy="845.34" r="1.1" fill="#f80" fill-opacity="0.7"/><circle cx="234.81" cy="845.21" r="1.1" fill="#f80" fill-opacity="0.7"/><circle cx="250.57" cy="853.40" r="1.1" fill="#f80" fill-opacity="0.7"/><circle cx="266.65" cy="860.95" r="1.1" fill="#f80" fill-opacity="0.7"/><circle cx="283.00" cy="867.87" r="1.1" fill="#f80" fill-opacity="0.7"/><circle cx="299.62" cy="874.13" r="1.1" fill="#f80" fill-opacity="0.7"/><circle cx="316.47" cy="879.73" r="1.1" fill="#f80" fill-opacity="0.7"/><circle cx="333.53" cy="884.67" r="1.1" fill="#f80" fill-opacity="0.7"/><circle cx="350.77" cy="888.92" r="1.1" fill="#f80" fill-opacity="0.7"/><circle cx="368.17" cy="892.50" r="1.1" fill="#f80" fill-opacity="0.7"/><circle cx="385.69" cy="895.38" r="1.1" fill="#f80" fill-opacity="0.7"/><circle cx="403.31" cy="897.57" r="1.1" fill="#f80" fill-opacity="0.7"/><circle cx="421.01" cy="899.07" r="1.1" fill="#f80" fill-opacity="0.7"/><circle cx="438.75" cy="899.86" r="1.1" fill="#f80" fill-opacity="0.7"/><circle cx="438.75" cy="900.00" r="1.1" fill="#f80" fill-opacity="0.7"/><circle cx="438.97" cy="897.81" r="1.1" fill="#f80" fill-opacity="0.7"/><circle cx="439.61" cy="895.69" r="1.1" fill="#f80" fill-opacity="0.7"/><circle cx="440.65" cy="893.75" r="1.1" fill="#f80" fill-opacity="0.7"/><circle cx="442.05" cy="892.05" r="1.1" fill="#f80" fill-opacity="0.7"/><circle cx="443.75" cy="890.65" r="1.1" fill="#f80" fill-opacity="0.7"/><circle cx="445.69" cy="889.61" r="1.1" fill="#f80" fill-opacity="0.7"/><circle cx="447.81" cy="888.97" r="1.1" fill="#f80" fill-opacity="0.7"/><circle cx="450.00" cy="888.75" r="1.1" fill="#f80" fill-opacity="0.7"/><circle cx="452.19" cy="888.97" r="1.1" fill="#f80" fill-opacity="0.7"/><circle cx="454.31" cy="889.61" r="1.1" fill="#f80" fill-opacity="0.7"/><circle cx="456.25" cy="890.65" r="1.1" fill="#f80" fill-opacity="0.7"/><circle cx="457.95" cy="892.05" r="1.1" fill="#f80" fill-opacity="0.7"/><circle cx="459.35" cy="893.75" r="1.1" fill="#f80" fill-opacity="0.7"/><circle cx="460.39" cy="895.69" r="1.1" fill="#f80" fill-opacity="0.7"/><circle cx="461.03" cy="897.81" r="1.1" fill="#f80" fill-opacity="0.7"/><circle cx="461.25" cy="900.00" r="1.1" fill="#f80" fill-opacity="0.7"/><circle cx="461.25" cy="899.86" r="1.1" fill="#f80" fill-opacity="0.7"/><circle cx="478.99" cy="899.07" r="1.1" fill="#f80" fill-opacity="0.7"/><circle cx="496.69" cy="897.57" r="1.1" fill="#f80" fill-opacity="0.7"/><circle cx="514.31" cy="895.38" r="1.1" fill="#f80" fill-opacity="0.7"/><circle cx="531.83" cy="892.50" r="1.1" fill="#f80" fill-opacity="0.7"/><circle cx="549.23" cy="888.92" r="1.1" fill="#f80" fill-opacity="0.7"/><circle cx="566.47" cy="884.67" r="1.1" fill="#f80" fill-opacity="0.7"/><circle cx="583.53" cy="879.73" r="1.1" fill="#f80" fill-opacity="0.7"/><circle cx="600.38" cy="874.13" r="1.1" fill="#f80" fill-opacity="0.7"/><circle cx="617.00" cy="867.87" r="1.1" fill="#f80" fill-opacity="0.7"/><circle cx="633.35" cy="860.95" r="1.1" fill="#f80" fill-opacity="0.7"/><circle cx="649.43" cy="853.40" r="1.1" fill="#f80" fill-opacity="0.7"/><circle cx="665.19" cy="845.21" r="1.1" fill="#f80" fill-opacity="0.7"/><circle cx="665.26" cy="845.34" r="1.1" fill="#f80" fill-opacity="0.7"/><circle cx="664.35" cy="843.33" r="1.1" fill="#f80" fill-opacity="0.7"/><circle cx="663.85" cy="841.18" r="1.1" fill="#f80" fill-opacity="0.7"/><circle cx="663.77" cy="838.98" r="1.1" fill="#f80" fill-opacity="0.7"/><circle cx="664.13" cy="836.80" r="1.1" fill="#f80" fill-opacity="0.7"/><circle cx="664.91" cy="834.74" r="1.1" fill="#f80" fill-opacity="0.7"/><circle cx="666.07" cy="832.86" r="1.1" fill="#f80" fill-opacity="0.7"/><circle cx="667.58" cy="831.25" r="1.1" fill="#f80" fill-opacity="0.7"/><circle cx="669.38" cy="829.97" r="1.1" fill="#f80" fill-opacity="0.7"/><circle cx="671.38" cy="829.06" r="1.1" fill="#f80" fill-opacity="0.7"/><circle cx="673.53" cy="828.56" r="1.1" fill="#f80" fill-opacity="0.7"/><circle cx="675.74" cy="828.49" r="1.1" fill="#f80" fill-opacity="0.7"/><circle cx="677.91" cy="828.84" r="1.1" fill="#f80" fill-opacity="0.7"/><circle cx="679.98" cy="829.62" r="1.1" fill="#f80" fill-opacity="0.7"/><circle cx="681.85" cy="830.79" r="1.1" fill="#f80" fill-opacity="0.7"/><circle cx="683.46" cy="832.29" r="1.1" fill="#f80" fill-opacity="0.7"/><circle cx="684.74" cy="834.09" r="1.1" fill="#f80" fill-opacity="0.7"/><circle cx="684.67" cy="833.96" r="1.1" fill="#f80" fill-opacity="0.7"/><circle cx="699.64" cy="824.41" r="1.1" fill="#f80" fill-opacity="0.7"/><circle cx="714.22" cy="814.27" r="1.1" fill="#f80" fill-opacity="0.7"/><circle cx="728.38" cy="803.56" r="1.1" fill="#f80" fill-opacity="0.7"/><circle cx="742.12" cy="792.30" r="1.1" fill="#f80" fill-opacity="0.7"/><circle cx="755.40" cy="780.51" r="1.1" fill="#f80" fill-opacity="0.7"/><circle cx="768.20" cy="768.20" r="1.1" fill="#f80" fill-opacity="0.7"/><circle cx="780.51" cy="755.40" r="1.1" fill="#f80" fill-opacity="0.7"/><circle cx="792.30" cy="742.12" r="1.1" fill="#f80" fill-opacity="0.7"/><circle cx="803.56" cy="728.38" r="1.1" fill="#f80" fill-opacity="0.7"/><circle cx="814.27" cy="714.22" r="1.1" fill="#f80" fill-opacity="0.7"/><circle cx="824.41" cy="699.64" r="1.1" fill="#f80" fill-opacity="0.7"/><circle cx="833.96" cy="684.67" r="1.1" fill="#f80" fill-opacity="0.7"/><circle cx="834.09" cy="684.74" r="1.1" fill="#f80" fill-opacity="0.7"/><circle cx="832.29" cy="683.46" r="1.1" fill="#f80" fill-opacity="0.7"/><circle cx="830.79" cy="681.85" r="1.1" fill="#f80" fill-opacity="0.7"/><circle cx="829.62" cy="679.98" r="1.1" fill="#f80" fill-opacity="0.7"/><circle cx="828.84" cy="677.91" r="1.1" fill="#f80" fill-opacity="0.7"/><circle cx="828.49" cy="675.74" r="1.1" fill="#f80" fill-opacity="0.7"/><circle cx="828.56" cy="673.53" r="1.1" fill="#f80" fill-opacity="0.7"/><circle cx="829.06" cy="671.38" r="1.1" fill="#f80" fill-opacity="0.7"/><circle cx="829.97" cy="669.38" r="1.1" fill="#f80" fill-opacity="0.7"/><circle cx="831.25" cy="667.58" r="1.1" fill="#f80" fill-opacity="0.7"/><circle cx="832.86" cy="666.07" r="1.1" fill="#f80" fill-opacity="0.7"/><circle cx="834.74" cy="664.91" r="1.1" fill="#f80" fill-opacity="0.7"/><circle cx="836.80" cy="664.13" r="1.1" fill="#f80" fill-opacity="0.7"/><circle cx="838.98" cy="663.77" r="1.1" fill="#f80" fill-opacity="0.7"/><circle cx="841.18" cy="663.85" r="1.1" fill="#f80" fill-opacity="0.7"/><circle cx="843.33" cy="664.35" r="1.1" fill="#f80" fill-opacity="0.7"/><circle cx="845.34" cy="665.26" r="1.1" fill="#f80" fill-opacity="0.7"/><circle cx="845.21" cy="665.19" r="1.1" fill="#f80" fill-opacity="0.7"/><circle cx="853.40" cy="649.43" r="1.1" fill="#f80" fill-opacity="0.7"/><circle cx="860.95" cy="633.35" r="1.1" fill="#f80" fill-opacity="0.7"/><circle cx="867.87" cy="617.00" r="1.1" fill="#f80" fill-opacity="0.7"/><circle cx="874.13" cy="600.38" r="1.1" fill="#f80" fill-opacity="0.7"/><circle cx="879.73" cy="583.53" r="1.1" fill="#f80" fill-opacity="0.7"/><circle cx="884.67" cy="566.47" r="1.1" fill="#f80" fill-opacity="0.7"/><circle cx="888.92" cy="549.23" r="1.1" fill="#f80" fill-opacity="0.7"/><circle cx="892.50" cy="531.83" r="1.1" fill="#f80" fill-opacity="0.7"/><circle cx="895.38" cy="514.31" r="1.1" fill="#f80" fill-opacity="0.7"/><circle cx="897.57" cy="496.69" r="1.1" fill="#f80" fill-opacity="0.7"/><circle cx="899.07" cy="478.99" r="1.1" fill="#f80" fill-opacity="0.7"/><circle cx="899.86" cy="461.25" r="1.1" fill="#f80" fill-opacity="0.7"/><circle cx="900.00" cy="461.25" r="1.1" fill="#f80" fill-opacity="0.7"/><circle cx="897.81" cy="461.03" r="1.1" fill="#f80" fill-opacity="0.7"/><circle cx="895.69" cy="460.39" r="1.1" fill="#f80" fill-opacity="0.7"/><circle cx="893.75" cy="459.35" r="1.1" fill="#f80" fill-opacity="0.7"/><circle cx="892.05" cy="457.95" r="1.1" fill="#f80" fill-opacity="0.7"/><circle cx="890.65" cy="456.25" r="1.1" fill="#f80" fill-opacity="0.7"/><circle cx="889.61" cy="454.31" r="1.1" fill="#f80" fill-opacity="0.7"/><circle cx="888.97" cy="452.19" r="1.1" fill="#f80" fill-opacity="0.7"/><circle cx="888.75" cy="450.00" r="1.1" fill="#f80" fill-opacity="0.7"/><circle cx="888.97" cy="447.81" r="1.1" fill="#f80" fill-opacity="0.7"/><circle cx="889.61" cy="445.69" r="1.1" fill="#f80" fill-opacity="0.7"/><circle cx="890.65" cy="443.75" r="1.1" fill="#f80" fill-opacity="0.7"/><circle cx="892.05" cy="442.05" r="1.1" fill="#f80" fill-opacity="0.7"/><circle cx="893.75" cy="440.65" r="1.1" fill="#f80" fill-opacity="0.7"/><circle cx="895.69" cy="439.61" r="1.1" fill="#f80" fill-opacity="0.7"/><circle cx="897.81" cy="438.97" r="1.1" fill="#f80" fill-opacity="0.7"/><circle cx="900.00" cy="438.75" r="1.1" fill="#f80" fill-opacity="0.7"/><text x="4" y="14" fill="#aaa" font-family="monospace" font-size="13">high-curvature — 80 mm disc with 12 notches of r = 1.0 mm — a 6 mm tool cannot enter any of them, but the part is ordinary</text></svg>