<svg xmlns="http://www.w3.org/2000/svg" width="916" height="916" viewBox="-8 -8 916 916"><rect x="-8" y="-8" width="916" height="916" fill="#111"/><path d="M 225.00 900.00 L 675.00 900.00 L 675.00 675.00 L 900.00 675.00 L 900.00 225.00 L 675.00 225.00 L 675.00 0.00 L 225.00 0.00 L 225.00 225.00 L 0.00 225.00 L 0.00 675.00 L 225.00 675.00 Z" fill="none" stroke="#444" stroke-width="1.2"/><line x1="258.75" y1="675.00" x2="258.75" y2="675.00" stroke="#a33" stroke-width="0.6" stroke-dasharray="3 3"/><line x1="258.75" y1="675.00" x2="258.75" y2="675.00" stroke="#fb0" stroke-width="1"/><line x1="258.75" y1="675.00" x2="106.96" y2="523.21" stroke="#fb0" stroke-width="1"/><line x1="106.96" y1="523.21" x2="258.75" y2="675.00" stroke="#fb0" stroke-width="1"/><line x1="258.75" y1="675.00" x2="225.00" y2="641.25" stroke="#fb0" stroke-width="1"/><line x1="225.00" y1="641.25" x2="33.75" y2="641.25" stroke="#fb0" stroke-width="1"/><line x1="33.75" y1="641.25" x2="33.75" y2="258.75" stroke="#fb0" stroke-width="1"/><line x1="33.75" y1="258.75" x2="225.00" y2="258.75" stroke="#fb0" stroke-width="1"/><line x1="225.00" y1="258.75" x2="258.75" y2="225.00" stroke="#fb0" stroke-width="1"/><line x1="258.75" y1="225.00" x2="258.75" y2="33.75" stroke="#fb0" stroke-width="1"/><line x1="258.75" y1="33.75" x2="641.25" y2="33.75" stroke="#fb0" stroke-width="1"/><line x1="641.25" y1="33.75" x2="641.25" y2="225.00" stroke="#fb0" stroke-width="1"/><line x1="641.25" y1="225.00" x2="675.00" y2="258.75" stroke="#fb0" stroke-width="1"/><line x1="675.00" y1="258.75" x2="866.25" y2="258.75" stroke="#fb0" stroke-width="1"/><line x1="866.25" y1="258.75" x2="866.25" y2="641.25" stroke="#fb0" stroke-width="1"/><line x1="866.25" y1="641.25" x2="675.00" y2="641.25" stroke="#fb0" stroke-width="1"/><line x1="675.00" y1="641.25" x2="641.25" y2="675.00" stroke="#fb0" stroke-width="1"/><line x1="641.25" y1="675.00" x2="641.25" y2="866.25" stroke="#fb0" stroke-width="1"/><line x1="641.25" y1="866.25" x2="258.75" y2="866.25" stroke="#fb0" stroke-width="1"/><line x1="258.75" y1="866.25" x2="258.75" y2="675.00" stroke="#fb0" stroke-width="1"/><line x1="258.75" y1="675.00" x2="258.75" y2="675.00" stroke="#a33" stroke-width="0.6" stroke-dasharray="3 3"/><line x1="258.75" y1="675.00" x2="285.75" y2="675.00" stroke="#a33" stroke-width="0.6" stroke-dasharray="3 3"/><line x1="285.75" y1="675.00" x2="285.75" y2="675.00" stroke="#a33" stroke-width="0.6" stroke-dasharray="3 3"/><line x1="285.75" y1="675.00" x2="285.75" y2="675.00" stroke="#fb0" stroke-width="1"/><line x1="285.75" y1="675.00" x2="268.91" y2="461.00" stroke="#fb0" stroke-width="1"/><line x1="268.91" y1="461.00" x2="285.75" y2="675.00" stroke="#fb0" stroke-width="1"/><line x1="285.75" y1="675.00" x2="277.84" y2="655.91" stroke="#fb0" stroke-width="1"/><line x1="277.84" y1="655.91" x2="244.09" y2="622.16" stroke="#fb0" stroke-width="1"/><line x1="244.09" y1="622.16" x2="225.00" y2="614.25" stroke="#fb0" stroke-width="1"/><line x1="225.00" y1="614.25" x2="60.75" y2="614.25" stroke="#fb0" stroke-width="1"/><line x1="60.75" y1="614.25" x2="60.75" y2="285.75" stroke="#fb0" stroke-width="1"/><line x1="60.75" y1="285.75" x2="225.00" y2="285.75" stroke="#fb0" stroke-width="1"/><line x1="225.00" y1="285.75" x2="244.09" y2="277.84" stroke="#fb0" stroke-width="1"/><line x1="244.09" y1="277.84" x2="277.84" y2="244.09" stroke="#fb0" stroke-width="1"/><line x1="277.84" y1="244.09" x2="285.75" y2="225.00" stroke="#fb0" stroke-width="1"/><line x1="285.75" y1="225.00" x2="285.75" y2="60.75" stroke="#fb0" stroke-width="1"/><line x1="285.75" y1="60.75" x2="614.25" y2="60.75" stroke="#fb0" stroke-width="1"/><line x1="614.25" y1="60.75" x2="614.25" y2="225.00" stroke="#fb0" stroke-width="1"/><line x1="614.25" y1="225.00" x2="622.16" y2="244.09" stroke="#fb0" stroke-width="1"/><line x1="622.16" y1="244.09" x2="655.91" y2="277.84" stroke="#fb0" stroke-width="1"/><line x1="655.91" y1="277.84" x2="675.00" y2="285.75" stroke="#fb0" stroke-width="1"/><line x1="675.00" y1="285.75" x2="839.25" y2="285.75" stroke="#fb0" stroke-width="1"/><line x1="839.25" y1="285.75" x2="839.25" y2="614.25" stroke="#fb0" stroke-width="1"/><line x1="839.25" y1="614.25" x2="675.00" y2="614.25" stroke="#fb0" stroke-width="1"/><line x1="675.00" y1="614.25" x2="655.91" y2="622.16" stroke="#fb0" stroke-width="1"/><line x1="655.91" y1="622.16" x2="622.16" y2="655.91" stroke="#fb0" stroke-width="1"/><line x1="622.16" y1="655.91" x2="614.25" y2="675.00" stroke="#fb0" stroke-width="1"/><line x1="614.25" y1="675.00" x2="614.25" y2="839.25" stroke="#fb0" stroke-width="1"/><line x1="614.25" y1="839.25" x2="285.75" y2="839.25" stroke="#fb0" stroke-width="1"/><line x1="285.75" y1="839.25" x2="285.75" y2="675.00" stroke="#fb0" stroke-width="1"/><line x1="285.75" y1="675.00" x2="285.75" y2="675.00" stroke="#a33" stroke-width="0.6" stroke-dasharray="3 3"/><line x1="285.75" y1="675.00" x2="312.75" y2="675.00" stroke="#a33" stroke-width="0.6" stroke-dasharray="3 3"/><line x1="312.75" y1="675.00" x2="312.75" y2="675.00" stroke="#a33" stroke-width="0.6" stroke-dasharray="3 3"/><line x1="312.75" y1="675.00" x2="312.75" y2="675.00" stroke="#fb0" stroke-width="1"/><line x1="312.75" y1="675.00" x2="300.71" y2="460.67" stroke="#fb0" stroke-width="1"/><line x1="300.71" y1="460.67" x2="312.75" y2="675.00" stroke="#fb0" stroke-width="1"/><line x1="312.75" y1="675.00" x2="296.93" y2="636.82" stroke="#fb0" stroke-width="1"/><line x1="296.93" y1="636.82" x2="263.18" y2="603.07" stroke="#fb0" stroke-width="1"/><line x1="263.18" y1="603.07" x2="225.00" y2="587.25" stroke="#fb0" stroke-width="1"/><line x1="225.00" y1="587.25" x2="87.75" y2="587.25" stroke="#fb0" stroke-width="1"/><line x1="87.75" y1="587.25" x2="87.75" y2="312.75" stroke="#fb0" stroke-width="1"/><line x1="87.75" y1="312.75" x2="225.00" y2="312.75" stroke="#fb0" stroke-width="1"/><line x1="225.00" y1="312.75" x2="263.18" y2="296.93" stroke="#fb0" stroke-width="1"/><line x1="263.18" y1="296.93" x2="296.93" y2="263.18" stroke="#fb0" stroke-width="1"/><line x1="296.93" y1="263.18" x2="312.75" y2="225.00" stroke="#fb0" stroke-width="1"/><line x1="312.75" y1="225.00" x2="312.75" y2="87.75" stroke="#fb0" stroke-width="1"/><line x1="312.75" y1="87.75" x2="587.25" y2="87.75" stroke="#fb0" stroke-width="1"/><line x1="587.25" y1="87.75" x2="587.25" y2="225.00" stroke="#fb0" stroke-width="1"/><line x1="587.25" y1="225.00" x2="603.07" y2="263.18" stroke="#fb0" stroke-width="1"/><line x1="603.07" y1="263.18" x2="636.82" y2="296.93" stroke="#fb0" stroke-width="1"/><line x1="636.82" y1="296.93" x2="675.00" y2="312.75" stroke="#fb0" stroke-width="1"/><line x1="675.00" y1="312.75" x2="812.25" y2="312.75" stroke="#fb0" stroke-width="1"/><line x1="812.25" y1="312.75" x2="812.25" y2="587.25" stroke="#fb0" stroke-width="1"/><line x1="812.25" y1="587.25" x2="675.00" y2="587.25" stroke="#fb0" stroke-width="1"/><line x1="675.00" y1="587.25" x2="636.82" y2="603.07" stroke="#fb0" stroke-width="1"/><line x1="636.82" y1="603.07" x2="603.07" y2="636.82" stroke="#fb0" stroke-width="1"/><line x1="603.07" y1="636.82" x2="587.25" y2="675.00" stroke="#fb0" stroke-width="1"/><line x1="587.25" y1="675.00" x2="587.25" y2="812.25" stroke="#fb0" stroke-width="1"/><line x1="587.25" y1="812.25" x2="312.75" y2="812.25" stroke="#fb0" stroke-width="1"/><line x1="312.75" y1="812.25" x2="312.75" y2="675.00" stroke="#fb0" stroke-width="1"/><line x1="312.75" y1="675.00" x2="312.75" y2="675.00" stroke="#a33" stroke-width="0.6" stroke-dasharray="3 3"/><line x1="312.75" y1="675.00" x2="339.75" y2="675.00" stroke="#a33" stroke-width="0.6" stroke-dasharray="3 3"/><line x1="339.75" y1="675.00" x2="339.75" y2="675.00" stroke="#a33" stroke-width="0.6" stroke-dasharray="3 3"/><line x1="339.75" y1="675.00" x2="339.75" y2="675.00" stroke="#fb0" stroke-width="1"/><line x1="339.75" y1="675.00" x2="329.22" y2="460.60" stroke="#fb0" stroke-width="1"/><line x1="329.22" y1="460.60" x2="339.75" y2="675.00" stroke="#fb0" stroke-width="1"/><line x1="339.75" y1="675.00" x2="316.03" y2="617.72" stroke="#fb0" stroke-width="1"/><line x1="316.03" y1="617.72" x2="276.39" y2="578.64" stroke="#fb0" stroke-width="1"/><line x1="276.39" y1="578.64" x2="225.00" y2="560.25" stroke="#fb0" stroke-width="1"/><line x1="225.00" y1="560.25" x2="114.75" y2="560.25" stroke="#fb0" stroke-width="1"/><line x1="114.75" y1="560.25" x2="114.75" y2="339.75" stroke="#fb0" stroke-width="1"/><line x1="114.75" y1="339.75" x2="225.00" y2="339.75" stroke="#fb0" stroke-width="1"/><line x1="225.00" y1="339.75" x2="282.28" y2="316.03" stroke="#fb0" stroke-width="1"/><line x1="282.28" y1="316.03" x2="321.36" y2="276.39" stroke="#fb0" stroke-width="1"/><line x1="321.36" y1="276.39" x2="339.75" y2="225.00" stroke="#fb0" stroke-width="1"/><line x1="339.75" y1="225.00" x2="339.75" y2="114.75" stroke="#fb0" stroke-width="1"/><line x1="339.75" y1="114.75" x2="560.25" y2="114.75" stroke="#fb0" stroke-width="1"/><line x1="560.25" y1="114.75" x2="560.25" y2="225.00" stroke="#fb0" stroke-width="1"/><line x1="560.25" y1="225.00" x2="583.97" y2="282.28" stroke="#fb0" stroke-width="1"/><line x1="583.97" y1="282.28" x2="623.61" y2="321.36" stroke="#fb0" stroke-width="1"/><line x1="623.61" y1="321.36" x2="675.00" y2="339.75" stroke="#fb0" stroke-width="1"/><line x1="675.00" y1="339.75" x2="785.25" y2="339.75" stroke="#fb0" stroke-width="1"/><line x1="785.25" y1="339.75" x2="785.25" y2="560.25" stroke="#fb0" stroke-width="1"/><line x1="785.25" y1="560.25" x2="675.00" y2="560.25" stroke="#fb0" stroke-width="1"/><line x1="675.00" y1="560.25" x2="617.72" y2="583.97" stroke="#fb0" stroke-width="1"/><line x1="617.72" y1="583.97" x2="578.64" y2="623.61" stroke="#fb0" stroke-width="1"/><line x1="578.64" y1="623.61" x2="560.25" y2="675.00" stroke="#fb0" stroke-width="1"/><line x1="560.25" y1="675.00" x2="560.25" y2="785.25" stroke="#fb0" stroke-width="1"/><line x1="560.25" y1="785.25" x2="339.75" y2="785.25" stroke="#fb0" stroke-width="1"/><line x1="339.75" y1="785.25" x2="339.75" y2="675.00" stroke="#fb0" stroke-width="1"/><line x1="339.75" y1="675.00" x2="339.75" y2="675.00" stroke="#a33" stroke-width="0.6" stroke-dasharray="3 3"/><line x1="339.75" y1="675.00" x2="366.75" y2="675.00" stroke="#a33" stroke-width="0.6" stroke-dasharray="3 3"/><line x1="366.75" y1="675.00" x2="366.75" y2="675.00" stroke="#a33" stroke-width="0.6" stroke-dasharray="3 3"/><line x1="366.75" y1="675.00" x2="366.75" y2="675.00" stroke="#fb0" stroke-width="1"/><line x1="366.75" y1="675.00" x2="357.39" y2="460.54" stroke="#fb0" stroke-width="1"/><line x1="357.39" y1="460.54" x2="366.75" y2="675.00" stroke="#fb0" stroke-width="1"/><line x1="366.75" y1="675.00" x2="335.12" y2="598.63" stroke="#fb0" stroke-width="1"/><line x1="335.12" y1="598.63" x2="294.42" y2="558.52" stroke="#fb0" stroke-width="1"/><line x1="294.42" y1="558.52" x2="225.00" y2="533.25" stroke="#fb0" stroke-width="1"/><line x1="225.00" y1="533.25" x2="141.75" y2="533.25" stroke="#fb0" stroke-width="1"/><line x1="141.75" y1="533.25" x2="141.75" y2="366.75" stroke="#fb0" stroke-width="1"/><line x1="141.75" y1="366.75" x2="225.00" y2="366.75" stroke="#fb0" stroke-width="1"/><line x1="225.00" y1="366.75" x2="301.37" y2="335.12" stroke="#fb0" stroke-width="1"/><line x1="301.37" y1="335.12" x2="341.48" y2="294.42" stroke="#fb0" stroke-width="1"/><line x1="341.48" y1="294.42" x2="366.75" y2="225.00" stroke="#fb0" stroke-width="1"/><line x1="366.75" y1="225.00" x2="366.75" y2="141.75" stroke="#fb0" stroke-width="1"/><line x1="366.75" y1="141.75" x2="533.25" y2="141.75" stroke="#fb0" stroke-width="1"/><line x1="533.25" y1="141.75" x2="533.25" y2="225.00" stroke="#fb0" stroke-width="1"/><line x1="533.25" y1="225.00" x2="564.88" y2="301.37" stroke="#fb0" stroke-width="1"/><line x1="564.88" y1="301.37" x2="605.58" y2="341.48" stroke="#fb0" stroke-width="1"/><line x1="605.58" y1="341.48" x2="675.00" y2="366.75" stroke="#fb0" stroke-width="1"/><line x1="675.00" y1="366.75" x2="758.25" y2="366.75" stroke="#fb0" stroke-width="1"/><line x1="758.25" y1="366.75" x2="758.25" y2="533.25" stroke="#fb0" stroke-width="1"/><line x1="758.25" y1="533.25" x2="675.00" y2="533.25" stroke="#fb0" stroke-width="1"/><line x1="675.00" y1="533.25" x2="598.63" y2="564.88" stroke="#fb0" stroke-width="1"/><line x1="598.63" y1="564.88" x2="558.52" y2="605.58" stroke="#fb0" stroke-width="1"/><line x1="558.52" y1="605.58" x2="533.25" y2="675.00" stroke="#fb0" stroke-width="1"/><line x1="533.25" y1="675.00" x2="533.25" y2="758.25" stroke="#fb0" stroke-width="1"/><line x1="533.25" y1="758.25" x2="366.75" y2="758.25" stroke="#fb0" stroke-width="1"/><line x1="366.75" y1="758.25" x2="366.75" y2="675.00" stroke="#fb0" stroke-width="1"/><line x1="366.75" y1="675.00" x2="366.75" y2="675.00" stroke="#a33" stroke-width="0.6" stroke-dasharray="3 3"/><line x1="366.75" y1="675.00" x2="393.75" y2="675.00" stroke="#a33" stroke-width="0.6" stroke-dasharray="3 3"/><line x1="393.75" y1="675.00" x2="393.75" y2="675.00" stroke="#a33" stroke-width="0.6" stroke-dasharray="3 3"/><line x1="393.75" y1="675.00" x2="393.75" y2="675.00" stroke="#fb0" stroke-width="1"/><line x1="393.75" y1="675.00" x2="385.32" y2="460.50" stroke="#fb0" stroke-width="1"/><line x1="385.32" y1="460.50" x2="393.75" y2="675.00" stroke="#fb0" stroke-width="1"/><line x1="393.75" y1="675.00" x2="354.21" y2="579.54" stroke="#fb0" stroke-width="1"/><line x1="354.21" y1="579.54" x2="312.68" y2="538.60" stroke="#fb0" stroke-width="1"/><line x1="312.68" y1="538.60" x2="225.00" y2="506.25" stroke="#fb0" stroke-width="1"/><line x1="225.00" y1="506.25" x2="168.75" y2="506.25" stroke="#fb0" stroke-width="1"/><line x1="168.75" y1="506.25" x2="168.75" y2="393.75" stroke="#fb0" stroke-width="1"/><line x1="168.75" y1="393.75" x2="235.59" y2="393.33" stroke="#fb0" stroke-width="1"/><line x1="235.59" y1="393.33" x2="320.46" y2="354.21" stroke="#fb0" stroke-width="1"/><line x1="320.46" y1="354.21" x2="361.40" y2="312.68" stroke="#fb0" stroke-width="1"/><line x1="361.40" y1="312.68" x2="393.75" y2="225.00" stroke="#fb0" stroke-width="1"/><line x1="393.75" y1="225.00" x2="393.75" y2="168.75" stroke="#fb0" stroke-width="1"/><line x1="393.75" y1="168.75" x2="506.25" y2="168.75" stroke="#fb0" stroke-width="1"/><line x1="506.25" y1="168.75" x2="506.67" y2="235.59" stroke="#fb0" stroke-width="1"/><line x1="506.67" y1="235.59" x2="545.79" y2="320.46" stroke="#fb0" stroke-width="1"/><line x1="545.79" y1="320.46" x2="587.32" y2="361.40" stroke="#fb0" stroke-width="1"/><line x1="587.32" y1="361.40" x2="675.00" y2="393.75" stroke="#fb0" stroke-width="1"/><line x1="675.00" y1="393.75" x2="731.25" y2="393.75" stroke="#fb0" stroke-width="1"/><line x1="731.25" y1="393.75" x2="731.25" y2="506.25" stroke="#fb0" stroke-width="1"/><line x1="731.25" y1="506.25" x2="664.41" y2="506.67" stroke="#fb0" stroke-width="1"/><line x1="664.41" y1="506.67" x2="579.54" y2="545.79" stroke="#fb0" stroke-width="1"/><line x1="579.54" y1="545.79" x2="538.60" y2="587.32" stroke="#fb0" stroke-width="1"/><line x1="538.60" y1="587.32" x2="506.25" y2="675.00" stroke="#fb0" stroke-width="1"/><line x1="506.25" y1="675.00" x2="506.25" y2="731.25" stroke="#fb0" stroke-width="1"/><line x1="506.25" y1="731.25" x2="393.75" y2="731.25" stroke="#fb0" stroke-width="1"/><line x1="393.75" y1="731.25" x2="393.75" y2="675.00" stroke="#fb0" stroke-width="1"/><line x1="393.75" y1="675.00" x2="393.75" y2="675.00" stroke="#a33" stroke-width="0.6" stroke-dasharray="3 3"/><line x1="393.75" y1="675.00" x2="420.75" y2="675.00" stroke="#a33" stroke-width="0.6" stroke-dasharray="3 3"/><line x1="420.75" y1="675.00" x2="420.75" y2="675.00" stroke="#a33" stroke-width="0.6" stroke-dasharray="3 3"/><line x1="420.75" y1="675.00" x2="420.75" y2="675.00" stroke="#fb0" stroke-width="1"/><line x1="420.75" y1="675.00" x2="413.09" y2="460.47" stroke="#fb0" stroke-width="1"/><line x1="413.09" y1="460.47" x2="420.75" y2="675.00" stroke="#fb0" stroke-width="1"/><line x1="420.75" y1="675.00" x2="373.30" y2="560.45" stroke="#fb0" stroke-width="1"/><line x1="373.30" y1="560.45" x2="331.09" y2="518.82" stroke="#fb0" stroke-width="1"/><line x1="331.09" y1="518.82" x2="225.00" y2="479.25" stroke="#fb0" stroke-width="1"/><line x1="225.00" y1="479.25" x2="195.75" y2="479.25" stroke="#fb0" stroke-width="1"/><line x1="195.75" y1="479.25" x2="195.75" y2="420.75" stroke="#fb0" stroke-width="1"/><line x1="195.75" y1="420.75" x2="270.64" y2="414.19" stroke="#fb0" stroke-width="1"/><line x1="270.64" y1="414.19" x2="339.55" y2="373.30" stroke="#fb0" stroke-width="1"/><line x1="339.55" y1="373.30" x2="381.18" y2="331.09" stroke="#fb0" stroke-width="1"/><line x1="381.18" y1="331.09" x2="420.75" y2="225.00" stroke="#fb0" stroke-width="1"/><line x1="420.75" y1="225.00" x2="420.75" y2="195.75" stroke="#fb0" stroke-width="1"/><line x1="420.75" y1="195.75" x2="479.25" y2="195.75" stroke="#fb0" stroke-width="1"/><line x1="479.25" y1="195.75" x2="485.81" y2="270.64" stroke="#fb0" stroke-width="1"/><line x1="485.81" y1="270.64" x2="526.70" y2="339.55" stroke="#fb0" stroke-width="1"/><line x1="526.70" y1="339.55" x2="568.91" y2="381.18" stroke="#fb0" stroke-width="1"/><line x1="568.91" y1="381.18" x2="675.00" y2="420.75" stroke="#fb0" stroke-width="1"/><line x1="675.00" y1="420.75" x2="704.25" y2="420.75" stroke="#fb0" stroke-width="1"/><line x1="704.25" y1="420.75" x2="704.25" y2="479.25" stroke="#fb0" stroke-width="1"/><line x1="704.25" y1="479.25" x2="629.36" y2="485.81" stroke="#fb0" stroke-width="1"/><line x1="629.36" y1="485.81" x2="560.45" y2="526.70" stroke="#fb0" stroke-width="1"/><line x1="560.45" y1="526.70" x2="518.82" y2="568.91" stroke="#fb0" stroke-width="1"/><line x1="518.82" y1="568.91" x2="479.25" y2="675.00" stroke="#fb0" stroke-width="1"/><line x1="479.25" y1="675.00" x2="479.25" y2="704.25" stroke="#fb0" stroke-width="1"/><line x1="479.25" y1="704.25" x2="420.75" y2="704.25" stroke="#fb0" stroke-width="1"/><line x1="420.75" y1="704.25" x2="420.75" y2="675.00" stroke="#fb0" stroke-width="1"/><line x1="420.75" y1="675.00" x2="420.75" y2="675.00" stroke="#a33" stroke-width="0.6" stroke-dasharray="3 3"/><line x1="420.75" y1="675.00" x2="447.75" y2="675.00" stroke="#a33" stroke-width="0.6" stroke-dasharray="3 3"/><line x1="447.75" y1="675.00" x2="447.75" y2="675.00" stroke="#a33" stroke-width="0.6" stroke-dasharray="3 3"/><line x1="447.75" y1="675.00" x2="447.75" y2="675.00" stroke="#fb0" stroke-width="1"/><line x1="447.75" y1="675.00" x2="440.73" y2="460.45" stroke="#fb0" stroke-width="1"/><line x1="440.73" y1="460.45" x2="447.75" y2="675.00" stroke="#fb0" stroke-width="1"/><line x1="447.75" y1="675.00" x2="392.39" y2="541.36" stroke="#fb0" stroke-width="1"/><line x1="392.39" y1="541.36" x2="349.62" y2="499.15" stroke="#fb0" stroke-width="1"/><line x1="349.62" y1="499.15" x2="222.75" y2="452.25" stroke="#fb0" stroke-width="1"/><line x1="222.75" y1="452.25" x2="222.75" y2="447.75" stroke="#fb0" stroke-width="1"/><line x1="222.75" y1="447.75" x2="358.64" y2="392.39" stroke="#fb0" stroke-width="1"/><line x1="358.64" y1="392.39" x2="400.85" y2="349.62" stroke="#fb0" stroke-width="1"/><line x1="400.85" y1="349.62" x2="447.75" y2="222.75" stroke="#fb0" stroke-width="1"/><line x1="447.75" y1="222.75" x2="452.25" y2="222.75" stroke="#fb0" stroke-width="1"/><line x1="452.25" y1="222.75" x2="507.61" y2="358.64" stroke="#fb0" stroke-width="1"/><line x1="507.61" y1="358.64" x2="550.38" y2="400.85" stroke="#fb0" stroke-width="1"/><line x1="550.38" y1="400.85" x2="677.25" y2="447.75" stroke="#fb0" stroke-width="1"/><line x1="677.25" y1="447.75" x2="677.25" y2="452.25" stroke="#fb0" stroke-width="1"/><line x1="677.25" y1="452.25" x2="541.36" y2="507.61" stroke="#fb0" stroke-width="1"/><line x1="541.36" y1="507.61" x2="499.15" y2="550.38" stroke="#fb0" stroke-width="1"/><line x1="499.15" y1="550.38" x2="452.25" y2="677.25" stroke="#fb0" stroke-width="1"/><line x1="452.25" y1="677.25" x2="447.75" y2="675.00" stroke="#fb0" stroke-width="1"/><line x1="447.75" y1="675.00" x2="447.75" y2="675.00" stroke="#a33" stroke-width="0.6" stroke-dasharray="3 3"/><line x1="447.75" y1="675.00" x2="443.59" y2="563.24" stroke="#a33" stroke-width="0.6" stroke-dasharray="3 3"/><line x1="443.59" y1="563.24" x2="443.59" y2="563.24" stroke="#a33" stroke-width="0.6" stroke-dasharray="3 3"/><line x1="443.59" y1="563.24" x2="443.59" y2="563.24" stroke="#fb0" stroke-width="1"/><line x1="443.59" y1="563.24" x2="327.03" y2="382.98" stroke="#fb0" stroke-width="1"/><line x1="327.03" y1="382.98" x2="443.59" y2="563.24" stroke="#fb0" stroke-width="1"/><line x1="443.59" y1="563.24" x2="411.49" y2="522.26" stroke="#fb0" stroke-width="1"/><line x1="411.49" y1="522.26" x2="368.24" y2="479.57" stroke="#fb0" stroke-width="1"/><line x1="368.24" y1="479.57" x2="325.40" y2="450.00" stroke="#fb0" stroke-width="1"/><line x1="325.40" y1="450.00" x2="377.74" y2="411.49" stroke="#fb0" stroke-width="1"/><line x1="377.74" y1="411.49" x2="420.43" y2="368.24" stroke="#fb0" stroke-width="1"/><line x1="420.43" y1="368.24" x2="450.00" y2="325.40" stroke="#fb0" stroke-width="1"/><line x1="450.00" y1="325.40" x2="488.51" y2="377.74" stroke="#fb0" stroke-width="1"/><line x1="488.51" y1="377.74" x2="531.76" y2="420.43" stroke="#fb0" stroke-width="1"/><line x1="531.76" y1="420.43" x2="574.60" y2="450.00" stroke="#fb0" stroke-width="1"/><line x1="574.60" y1="450.00" x2="522.26" y2="488.51" stroke="#fb0" stroke-width="1"/><line x1="522.26" y1="488.51" x2="479.57" y2="531.76" stroke="#fb0" stroke-width="1"/><line x1="479.57" y1="531.76" x2="450.00" y2="574.60" stroke="#fb0" stroke-width="1"/><line x1="450.00" y1="574.60" x2="443.59" y2="563.24" stroke="#fb0" stroke-width="1"/><line x1="443.59" y1="563.24" x2="443.59" y2="563.24" stroke="#a33" stroke-width="0.6" stroke-dasharray="3 3"/><line x1="443.59" y1="563.24" x2="440.62" y2="513.84" stroke="#a33" stroke-width="0.6" stroke-dasharray="3 3"/><line x1="440.62" y1="513.84" x2="440.62" y2="513.84" stroke="#a33" stroke-width="0.6" stroke-dasharray="3 3"/><line x1="440.62" y1="513.84" x2="440.62" y2="513.84" stroke="#fb0" stroke-width="1"/><line x1="440.62" y1="513.84" x2="293.47" y2="357.54" stroke="#fb0" stroke-width="1"/><line x1="293.47" y1="357.54" x2="440.62" y2="513.84" stroke="#fb0" stroke-width="1"/><line x1="440.62" y1="513.84" x2="396.83" y2="469.42" stroke="#fb0" stroke-width="1"/><line x1="396.83" y1="469.42" x2="374.91" y2="450.00" stroke="#fb0" stroke-width="1"/><line x1="374.91" y1="450.00" x2="450.00" y2="374.91" stroke="#fb0" stroke-width="1"/><line x1="450.00" y1="374.91" x2="525.09" y2="450.00" stroke="#fb0" stroke-width="1"/><line x1="525.09" y1="450.00" x2="450.00" y2="525.09" stroke="#fb0" stroke-width="1"/><line x1="450.00" y1="525.09" x2="440.62" y2="513.84" stroke="#fb0" stroke-width="1"/><line x1="440.62" y1="513.84" x2="440.62" y2="513.84" stroke="#a33" stroke-width="0.6" stroke-dasharray="3 3"/><line x1="440.62" y1="513.84" x2="449.67" y2="484.08" stroke="#a33" stroke-width="0.6" stroke-dasharray="3 3"/><line x1="449.67" y1="484.08" x2="449.67" y2="484.08" stroke="#a33" stroke-width="0.6" stroke-dasharray="3 3"/><line x1="449.67" y1="484.08" x2="449.67" y2="484.08" stroke="#fb0" stroke-width="1"/><line x1="449.67" y1="484.08" x2="297.88" y2="332.29" stroke="#fb0" stroke-width="1"/><line x1="297.88" y1="332.29" x2="449.67" y2="484.08" stroke="#fb0" stroke-width="1"/><line x1="449.67" y1="484.08" x2="415.92" y2="450.33" stroke="#fb0" stroke-width="1"/><line x1="415.92" y1="450.33" x2="415.92" y2="449.67" stroke="#fb0" stroke-width="1"/><line x1="415.92" y1="449.67" x2="449.67" y2="415.92" stroke="#fb0" stroke-width="1"/><line x1="449.67" y1="415.92" x2="450.33" y2="415.92" stroke="#fb0" stroke-width="1"/><line x1="450.33" y1="415.92" x2="484.08" y2="449.67" stroke="#fb0" stroke-width="1"/><line x1="484.08" y1="449.67" x2="484.08" y2="450.33" stroke="#fb0" stroke-width="1"/><line x1="484.08" y1="450.33" x2="450.33" y2="484.08" stroke="#fb0" stroke-width="1"/><line x1="450.33" y1="484.08" x2="449.67" y2="484.08" stroke="#fb0" stroke-width="1"/><line x1="449.67" y1="484.08" x2="449.67" y2="484.08" stroke="#a33" stroke-width="0.6" stroke-dasharray="3 3"/><text x="4" y="14" fill="#aaa" font-family="monospace" font-size="13">pocket_reflex-cross — 269 moves, 236 cutting, 2188 mm, 11 runs</text></svg>