0
SECTION
2
HEADER
9
$ACADVER
1
AC1015
9
$INSUNITS
70
4
0
ENDSEC
0
SECTION
2
TABLES
0
TABLE
2
LAYER
70
2
0
LAYER
2
EDGE_OUTER
70
0
62
1
6
CONTINUOUS
0
LAYER
2
EDGE_INNER
70
0
62
3
6
CONTINUOUS
0
ENDTAB
0
ENDSEC
0
SECTION
2
ENTITIES
0
LWPOLYLINE
8
EDGE_OUTER
90
4
70
1
10
0.000000
20
0.000000
10
100.000000
20
0.000000
10
100.000000
20
100.000000
10
0.000000
20
100.000000
0
LWPOLYLINE
8
EDGE_INNER
90
4
70
1
10
14.726887
20
14.726887
10
85.273113
20
14.726887
10
85.273113
20
85.273113
10
14.726887
20
85.273113
0
ENDSEC
0
EOF
