0
SECTION
2
HEADER
9
$ACADVER
1
AC1015
9
$INSUNITS
70
4
0
ENDSEC
0
SECTION
2
TABLES
0
TABLE
2
LAYER
70
1
0
LAYER
2
RIVERS
70
0
62
5
6
CONTINUOUS
0
ENDTAB
0
ENDSEC
0
SECTION
2
ENTITIES
0
LWPOLYLINE
8
RIVERS
90
53
70
0
10
50.065876
20
90.441693
10
50.065876
20
89.459816
10
50.197628
20
89.459816
10
50.197628
20
88.801054
10
50.329381
20
88.669302
10
50.329381
20
88.405797
10
50.461133
20
88.405797
10
50.461133
20
88.274045
10
50.592885
20
88.142292
10
50.592885
20
88.010540
10
50.724638
20
88.010540
10
50.724638
20
87.747036
10
50.856390
20
87.747036
10
50.856390
20
87.615283
10
50.988142
20
87.483531
10
50.988142
20
87.351779
10
51.119895
20
87.220026
10
51.119895
20
87.088274
10
51.251647
20
87.088274
10
51.251647
20
86.956522
10
51.383399
20
86.824769
10
51.383399
20
86.561265
10
51.515152
20
86.561265
10
51.515152
20
86.034256
10
51.646904
20
86.034256
10
51.646904
20
85.638999
10
53.096179
20
85.638999
10
53.096179
20
85.507246
10
53.227931
20
85.375494
10
53.227931
20
85.243742
10
53.359684
20
85.243742
10
53.359684
20
85.111989
10
53.491436
20
85.111989
10
53.491436
20
84.980237
10
54.018445
20
84.980237
10
54.018445
20
85.111989
10
54.150198
20
84.980237
10
54.413702
20
84.980237
10
54.545455
20
84.848485
10
54.677207
20
84.848485
10
55.072464
20
85.243742
10
55.072464
20
85.375494
10
55.204216
20
85.507246
10
55.204216
20
85.770751
10
55.335968
20
85.770751
10
55.335968
20
85.902503
10
55.467721
20
85.902503
10
55.467721
20
86.034256
10
55.599473
20
86.034256
10
55.599473
20
86.166008
10
55.731225
20
86.297760
10
55.731225
20
86.429513
10
55.862978
20
86.429513
0
LWPOLYLINE
8
RIVERS
90
2
70
0
10
66.403162
20
90.441693
10
66.403162
20
90.382082
0
LWPOLYLINE
8
RIVERS
90
5
70
0
10
90.250329
20
90.441693
10
90.250329
20
90.382082
10
90.382082
20
90.382082
10
90.382082
20
90.118577
10
90.441693
20
90.118577
0
LWPOLYLINE
8
RIVERS
90
327
70
0
10
31.225296
20
90.441693
10
31.225296
20
90.382082
10
31.093544
20
90.250329
10
31.093544
20
89.986825
10
30.961792
20
89.855072
10
30.961792
20
89.591568
10
30.830040
20
89.459816
10
30.830040
20
89.064559
10
30.698287
20
89.064559
10
30.698287
20
88.669302
10
30.566535
20
88.537549
10
30.566535
20
88.274045
10
30.434783
20
88.142292
10
30.434783
20
87.878788
10
30.303030
20
87.747036
10
30.303030
20
87.483531
10
30.171278
20
87.351779
10
30.171278
20
87.220026
10
30.039526
20
87.088274
10
30.039526
20
86.956522
10
29.907773
20
86.824769
10
29.907773
20
86.693017
10
29.776021
20
86.693017
10
29.776021
20
86.429513
10
29.644269
20
86.429513
10
29.644269
20
86.297760
10
29.512516
20
86.166008
10
29.512516
20
86.034256
10
29.380764
20
85.902503
10
29.380764
20
85.770751
10
29.249012
20
85.638999
10
29.249012
20
85.507246
10
29.117260
20
85.375494
10
29.117260
20
85.243742
10
28.985507
20
85.243742
10
28.985507
20
85.111989
10
28.853755
20
84.980237
10
28.853755
20
84.848485
10
28.722003
20
84.716733
10
28.722003
20
84.584980
10
28.590250
20
84.453228
10
28.458498
20
84.453228
10
28.458498
20
84.321476
10
27.009223
20
82.872200
10
27.009223
20
82.608696
10
27.272727
20
82.345191
10
27.404480
20
82.345191
10
27.536232
20
82.213439
10
27.667984
20
82.213439
10
27.799736
20
82.081686
10
27.931489
20
82.081686
10
28.063241
20
81.949934
10
28.063241
20
81.818182
10
28.194993
20
81.818182
10
28.194993
20
81.554677
10
28.063241
20
81.422925
10
28.063241
20
81.159420
10
27.931489
20
81.027668
10
27.931489
20
80.764163
10
27.799736
20
80.632411
10
27.799736
20
80.500659
10
28.063241
20
80.500659
10
28.063241
20
80.368906
10
28.326746
20
80.368906
10
28.458498
20
80.237154
10
28.590250
20
80.237154
10
28.722003
20
80.105402
10
28.853755
20
80.105402
10
28.985507
20
79.973650
10
29.249012
20
79.973650
10
29.249012
20
79.841897
10
29.512516
20
79.841897
10
29.644269
20
79.710145
10
29.776021
20
79.710145
10
29.907773
20
79.578393
10
30.039526
20
79.578393
10
30.171278
20
79.446640
10
30.434783
20
79.446640
10
30.434783
20
79.314888
10
30.698287
20
79.314888
10
30.961792
20
79.051383
10
31.093544
20
79.051383
10
31.357049
20
78.787879
10
32.806324
20
78.787879
10
32.938076
20
78.919631
10
33.596838
20
78.919631
10
33.728590
20
79.051383
10
34.387352
20
79.051383
10
34.519104
20
79.183136
10
35.441370
20
79.183136
10
35.573123
20
79.051383
10
36.758893
20
79.051383
10
36.758893
20
78.919631
10
37.417655
20
78.919631
10
37.549407
20
79.051383
10
38.339921
20
79.051383
10
38.339921
20
78.392622
10
38.208169
20
78.392622
10
38.208169
20
78.260870
10
38.339921
20
78.129117
10
38.339921
20
77.865613
10
38.471673
20
77.865613
10
38.471673
20
77.602108
10
38.603426
20
77.470356
10
38.603426
20
77.338603
10
38.735178
20
77.206851
10
38.735178
20
76.943347
10
38.866930
20
76.811594
10
38.866930
20
76.679842
10
38.998682
20
76.548090
10
38.998682
20
76.284585
10
39.130435
20
76.284585
10
39.130435
20
76.021080
10
38.998682
20
76.021080
10
38.998682
20
75.230567
10
39.130435
20
75.230567
10
39.130435
20
75.098814
10
39.262187
20
74.967062
10
39.262187
20
74.835310
10
39.393939
20
74.835310
10
39.393939
20
74.703557
10
39.525692
20
74.703557
10
39.525692
20
74.440053
10
39.393939
20
74.308300
10
39.393939
20
74.176548
10
39.262187
20
74.044796
10
39.262187
20
73.386034
10
39.130435
20
73.254282
10
39.130435
20
73.122530
10
38.998682
20
72.990777
10
38.998682
20
72.859025
10
38.866930
20
72.859025
10
38.866930
20
72.727273
10
38.735178
20
72.595520
10
38.735178
20
72.463768
10
38.603426
20
72.463768
10
38.603426
20
72.332016
10
38.471673
20
72.200264
10
38.471673
20
72.068511
10
38.339921
20
72.068511
10
38.339921
20
71.936759
10
37.285903
20
70.882740
10
36.890646
20
70.882740
10
36.758893
20
70.750988
10
36.495389
20
70.750988
10
36.363636
20
70.619236
10
36.100132
20
70.619236
10
36.100132
20
70.487484
10
35.968379
20
70.487484
10
35.836627
20
70.355731
10
35.704875
20
70.355731
10
35.704875
20
70.223979
10
35.573123
20
70.223979
10
35.309618
20
69.960474
10
35.309618
20
69.828722
10
35.177866
20
69.696970
10
35.177866
20
69.565217
10
35.046113
20
69.433465
10
35.046113
20
69.038208
10
34.914361
20
69.038208
10
34.782609
20
68.906456
10
34.650856
20
68.906456
10
34.650856
20
68.774704
10
34.519104
20
68.774704
10
34.387352
20
68.642951
10
34.255599
20
68.642951
10
34.255599
20
67.852437
10
34.123847
20
67.852437
10
34.123847
20
67.720685
10
33.992095
20
67.588933
10
33.728590
20
67.588933
10
33.728590
20
67.457181
10
33.465086
20
67.457181
10
33.069829
20
67.061924
10
33.069829
20
66.930171
10
32.938076
20
66.930171
10
32.938076
20
66.798419
10
32.806324
20
66.666667
10
32.806324
20
66.271410
10
32.674572
20
66.139657
10
32.674572
20
65.876153
10
32.806324
20
65.744401
10
32.806324
20
65.480896
10
32.674572
20
65.349144
10
32.674572
20
65.217391
10
32.806324
20
65.085639
10
32.806324
20
64.953887
10
32.938076
20
64.953887
10
32.938076
20
64.690382
10
33.069829
20
64.690382
10
33.069829
20
64.426877
10
33.201581
20
64.426877
10
33.201581
20
64.163373
10
33.069829
20
64.031621
10
33.069829
20
63.899868
10
33.201581
20
63.768116
10
33.201581
20
63.504611
10
33.333333
20
63.504611
10
32.938076
20
63.109354
10
32.938076
20
62.714097
10
33.069829
20
62.582345
10
33.069829
20
62.450593
10
33.201581
20
62.450593
10
33.201581
20
62.318841
10
33.333333
20
62.318841
10
33.333333
20
61.396574
10
33.201581
20
61.264822
10
33.201581
20
60.869565
10
33.069829
20
60.737813
10
33.069829
20
60.342556
10
32.938076
20
60.210804
10
32.938076
20
59.947299
10
32.806324
20
59.815547
10
32.674572
20
59.815547
10
32.674572
20
59.683794
10
32.542819
20
59.683794
10
32.542819
20
59.552042
10
32.411067
20
59.420290
10
32.411067
20
58.893281
10
32.542819
20
58.893281
10
32.542819
20
58.629776
10
32.411067
20
58.498024
10
32.411067
20
58.102767
10
32.279315
20
58.102767
10
32.279315
20
57.971014
10
32.147563
20
57.971014
10
32.147563
20
57.839262
10
32.015810
20
57.839262
10
31.752306
20
57.575758
10
31.620553
20
57.575758
10
31.620553
20
57.312253
10
31.488801
20
57.180501
10
31.488801
20
56.785244
10
31.357049
20
56.653491
10
31.357049
20
56.521739
10
31.225296
20
56.521739
10
31.225296
20
56.389987
10
31.093544
20
56.389987
10
30.830040
20
56.126482
10
30.830040
20
55.862978
10
30.698287
20
55.731225
10
30.698287
20
55.467721
10
30.566535
20
55.467721
10
30.566535
20
55.335968
10
30.434783
20
55.204216
10
30.434783
20
54.808959
10
30.303030
20
54.677207
10
30.303030
20
54.413702
10
30.171278
20
54.281950
10
30.039526
20
54.281950
10
30.039526
20
54.150198
10
29.907773
20
54.150198
10
29.907773
20
53.886693
10
30.039526
20
53.886693
10
29.776021
20
53.623188
10
29.776021
20
53.491436
10
29.644269
20
53.491436
10
29.644269
20
53.359684
10
29.512516
20
53.359684
10
29.512516
20
53.227931
10
29.117260
20
53.227931
10
29.117260
20
53.359684
10
28.985507
20
53.359684
10
28.985507
20
53.227931
10
28.853755
20
53.227931
10
28.853755
20
53.359684
10
28.722003
20
53.227931
10
28.590250
20
53.227931
10
28.458498
20
53.096179
10
28.326746
20
53.096179
10
28.326746
20
52.964427
10
28.194993
20
52.964427
10
28.194993
20
52.832675
10
28.063241
20
52.700922
10
27.931489
20
52.700922
10
27.931489
20
52.569170
10
27.667984
20
52.569170
10
27.536232
20
52.437418
10
27.404480
20
52.437418
10
27.404480
20
52.305665
10
26.877470
20
51.778656
10
26.745718
20
51.778656
10
26.745718
20
51.646904
10
26.613966
20
51.646904
10
26.482213
20
51.515152
10
26.350461
20
51.515152
10
26.350461
20
51.383399
10
26.218709
20
51.383399
10
26.218709
20
51.251647
10
25.955204
20
50.988142
10
25.691700
20
50.988142
10
25.296443
20
50.592885
10
25.296443
20
50.197628
10
25.164690
20
50.197628
10
25.164690
20
49.670619
10
25.296443
20
49.670619
10
25.296443
20
49.538867
10
25.164690
20
49.538867
10
25.164690
20
49.407115
10
25.032938
20
49.407115
10
24.901186
20
49.275362
10
24.901186
20
49.011858
10
24.769433
20
48.880105
10
24.769433
20
47.826087
10
24.901186
20
47.826087
10
24.901186
20
47.694335
10
25.032938
20
47.694335
10
25.032938
20
47.562582
10
25.164690
20
47.562582
10
25.164690
20
47.430830
10
25.296443
20
47.430830
10
25.296443
20
47.299078
10
25.559947
20
47.035573
10
25.691700
20
47.035573
10
25.823452
20
46.903821
10
25.955204
20
46.903821
10
25.955204
20
46.772069
10
26.086957
20
46.772069
10
26.218709
20
46.640316
10
26.218709
20
46.508564
10
26.350461
20
46.508564
10
26.350461
20
46.245059
10
26.482213
20
46.113307
10
26.613966
20
46.113307
10
26.613966
20
45.981555
10
26.745718
20
45.981555
10
26.745718
20
45.849802
0
LWPOLYLINE
8
RIVERS
90
53
70
0
10
78.524374
20
88.010540
10
77.733860
20
87.220026
10
77.733860
20
87.088274
10
77.602108
20
86.956522
10
77.602108
20
86.824769
10
77.470356
20
86.693017
10
77.470356
20
86.561265
10
77.338603
20
86.429513
10
77.338603
20
86.297760
10
77.206851
20
86.297760
10
77.206851
20
86.166008
10
77.075099
20
86.166008
10
76.943347
20
86.034256
10
76.943347
20
85.902503
10
76.679842
20
85.638999
10
76.548090
20
85.638999
10
76.548090
20
85.507246
10
76.416337
20
85.507246
10
76.416337
20
85.375494
10
76.284585
20
85.375494
10
76.284585
20
85.111989
10
76.152833
20
85.111989
10
76.152833
20
84.321476
10
76.284585
20
84.321476
10
76.152833
20
84.189723
10
76.152833
20
82.608696
10
76.021080
20
82.476943
10
76.021080
20
82.081686
10
75.889328
20
82.081686
10
75.889328
20
81.949934
10
75.757576
20
81.949934
10
75.757576
20
81.818182
10
75.625823
20
81.686430
10
75.625823
20
81.554677
10
75.494071
20
81.422925
10
75.494071
20
81.291173
10
75.362319
20
81.159420
10
75.362319
20
81.027668
10
75.230567
20
80.895916
10
75.230567
20
80.764163
10
75.098814
20
80.764163
10
74.967062
20
80.632411
10
74.835310
20
80.632411
10
74.835310
20
80.500659
10
74.703557
20
80.368906
10
74.703557
20
80.237154
10
74.440053
20
80.237154
10
74.440053
20
80.895916
10
74.308300
20
80.895916
10
74.308300
20
81.422925
10
74.176548
20
81.422925
10
74.176548
20
81.686430
10
74.308300
20
81.818182
0
LWPOLYLINE
8
RIVERS
90
115
70
0
10
51.383399
20
86.429513
10
51.383399
20
86.297760
10
51.251647
20
86.297760
10
51.251647
20
84.716733
10
51.383399
20
84.716733
10
51.383399
20
83.135705
10
51.515152
20
83.135705
10
51.515152
20
82.872200
10
51.646904
20
82.872200
10
51.646904
20
81.949934
10
51.778656
20
81.949934
10
51.778656
20
81.422925
10
51.910408
20
81.422925
10
51.910408
20
81.027668
10
51.778656
20
80.895916
10
51.778656
20
80.764163
10
51.910408
20
80.632411
10
51.910408
20
80.500659
10
52.042161
20
80.500659
10
52.042161
20
79.973650
10
52.173913
20
79.973650
10
52.173913
20
79.841897
10
52.305665
20
79.841897
10
52.305665
20
79.710145
10
52.437418
20
79.710145
10
52.437418
20
79.578393
10
52.569170
20
79.578393
10
52.569170
20
79.446640
10
52.700922
20
79.446640
10
52.700922
20
79.051383
10
52.569170
20
79.051383
10
52.569170
20
78.656126
10
52.700922
20
78.656126
10
52.700922
20
78.524374
10
52.964427
20
78.260870
10
52.964427
20
78.129117
10
53.096179
20
78.129117
10
53.096179
20
77.997365
10
53.227931
20
77.997365
10
53.227931
20
77.865613
10
53.359684
20
77.733860
10
53.491436
20
77.733860
10
53.491436
20
77.602108
10
53.623188
20
77.602108
10
53.754941
20
77.470356
10
53.886693
20
77.470356
10
53.886693
20
77.338603
10
54.018445
20
77.338603
10
54.018445
20
77.206851
10
54.150198
20
77.206851
10
54.150198
20
77.075099
10
54.018445
20
77.075099
10
54.018445
20
76.548090
10
54.150198
20
76.548090
10
54.018445
20
76.416337
10
54.018445
20
76.152833
10
53.886693
20
76.021080
10
53.886693
20
75.625823
10
53.754941
20
75.625823
10
53.754941
20
74.044796
10
53.623188
20
74.044796
10
53.623188
20
72.463768
10
53.491436
20
72.463768
10
53.491436
20
71.936759
10
53.359684
20
71.805007
10
53.227931
20
71.805007
10
52.964427
20
71.541502
10
52.964427
20
71.146245
10
52.832675
20
71.014493
10
52.832675
20
70.882740
10
52.964427
20
70.882740
10
52.964427
20
70.750988
10
53.096179
20
70.750988
10
53.096179
20
70.619236
10
53.227931
20
70.619236
10
53.227931
20
68.906456
10
53.359684
20
68.906456
10
53.359684
20
68.774704
10
53.491436
20
68.774704
10
53.623188
20
68.642951
10
53.754941
20
68.642951
10
53.754941
20
68.511199
10
53.886693
20
68.511199
10
53.886693
20
68.379447
10
54.018445
20
68.247694
10
54.150198
20
68.247694
10
54.281950
20
68.115942
10
54.413702
20
68.115942
10
54.413702
20
67.984190
10
54.545455
20
67.984190
10
54.545455
20
67.852437
10
54.940711
20
67.852437
10
55.072464
20
67.984190
10
55.731225
20
67.984190
10
55.862978
20
68.115942
10
55.994730
20
68.115942
10
55.994730
20
67.984190
10
56.389987
20
67.984190
10
56.521739
20
67.852437
10
56.916996
20
67.852437
10
56.916996
20
67.720685
10
59.552042
20
67.720685
10
59.552042
20
67.588933
10
59.683794
20
67.588933
10
59.815547
20
67.457181
10
60.079051
20
67.457181
10
60.079051
20
67.588933
10
60.869565
20
67.588933
10
61.001318
20
67.457181
10
61.396574
20
67.457181
10
61.396574
20
67.325428
10
61.528327
20
67.325428
10
61.528327
20
67.193676
10
61.660079
20
67.061924
10
61.660079
20
66.930171
0
LWPOLYLINE
8
RIVERS
90
182
70
0
10
28.326746
20
84.453228
10
28.063241
20
84.453228
10
27.931489
20
84.321476
10
27.272727
20
84.321476
10
27.272727
20
84.189723
10
26.613966
20
84.189723
10
26.482213
20
84.057971
10
25.955204
20
84.057971
10
25.955204
20
83.926219
10
25.823452
20
83.926219
10
25.691700
20
83.794466
10
25.559947
20
83.794466
10
25.428195
20
83.662714
10
25.296443
20
83.662714
10
25.164690
20
83.530962
10
25.032938
20
83.530962
10
24.901186
20
83.399209
10
24.769433
20
83.399209
10
24.637681
20
83.267457
10
24.505929
20
83.267457
10
24.505929
20
83.135705
10
24.242424
20
83.135705
10
24.242424
20
83.003953
10
24.110672
20
83.003953
10
23.715415
20
82.608696
10
23.583663
20
82.608696
10
23.583663
20
82.476943
10
23.451910
20
82.476943
10
23.451910
20
82.345191
10
23.320158
20
82.345191
10
22.924901
20
81.949934
10
22.924901
20
81.818182
10
22.793149
20
81.818182
10
22.793149
20
81.686430
10
22.661397
20
81.554677
10
22.661397
20
81.422925
10
22.529644
20
81.291173
10
22.529644
20
81.159420
10
22.397892
20
81.159420
10
22.397892
20
81.027668
10
22.266140
20
80.895916
10
22.266140
20
80.764163
10
22.134387
20
80.632411
10
22.134387
20
80.500659
10
22.002635
20
80.500659
10
22.002635
20
80.368906
10
21.870883
20
80.237154
10
21.870883
20
80.105402
10
21.739130
20
80.105402
10
21.739130
20
79.973650
10
21.607378
20
79.841897
10
21.607378
20
79.710145
10
21.475626
20
79.578393
10
21.475626
20
79.446640
10
21.343874
20
79.446640
10
21.343874
20
79.314888
10
21.212121
20
79.183136
10
21.212121
20
79.051383
10
21.080369
20
78.919631
10
21.080369
20
78.787879
10
20.948617
20
78.787879
10
20.948617
20
78.656126
10
20.816864
20
78.524374
10
20.816864
20
78.392622
10
20.685112
20
78.392622
10
20.685112
20
78.260870
10
20.553360
20
78.260870
10
20.553360
20
78.129117
10
20.158103
20
77.733860
10
20.158103
20
77.602108
10
20.026350
20
77.602108
10
20.026350
20
77.470356
10
19.894598
20
77.338603
10
19.894598
20
76.679842
10
19.762846
20
76.548090
10
19.762846
20
76.284585
10
19.631094
20
76.152833
10
19.631094
20
75.757576
10
19.499341
20
75.757576
10
19.499341
20
75.362319
10
19.367589
20
75.362319
10
19.367589
20
75.098814
10
19.235837
20
74.967062
10
19.235837
20
74.703557
10
19.104084
20
74.703557
10
19.104084
20
74.440053
10
18.972332
20
74.308300
10
18.972332
20
74.044796
10
18.840580
20
73.913043
10
18.840580
20
73.781291
10
18.708827
20
73.649539
10
18.708827
20
73.517787
10
18.445323
20
73.254282
10
18.445323
20
73.122530
10
18.181818
20
72.859025
10
18.181818
20
72.727273
10
18.050066
20
72.727273
10
18.050066
20
72.595520
10
17.654809
20
72.200264
10
17.654809
20
72.068511
10
17.523057
20
72.068511
10
17.523057
20
71.936759
10
17.391304
20
71.936759
10
17.391304
20
71.805007
10
17.259552
20
71.805007
10
17.259552
20
71.673254
10
16.732543
20
71.146245
10
16.732543
20
71.014493
10
16.600791
20
71.014493
10
16.600791
20
70.882740
10
16.469038
20
70.882740
10
16.469038
20
70.750988
10
16.337286
20
70.750988
10
16.337286
20
70.619236
10
14.756258
20
69.038208
10
14.756258
20
68.906456
10
14.624506
20
68.906456
10
14.624506
20
68.774704
10
14.492754
20
68.774704
10
14.492754
20
68.642951
10
14.361001
20
68.642951
10
14.361001
20
68.511199
10
14.229249
20
68.511199
10
14.229249
20
68.379447
10
14.097497
20
68.379447
10
14.097497
20
68.247694
10
13.965744
20
68.247694
10
13.965744
20
68.115942
10
13.833992
20
68.115942
10
13.833992
20
67.984190
10
13.702240
20
67.984190
10
13.702240
20
67.852437
10
13.570487
20
67.852437
10
13.570487
20
67.720685
10
13.438735
20
67.720685
10
13.438735
20
67.588933
10
13.306983
20
67.588933
10
13.306983
20
67.457181
10
13.175231
20
67.457181
10
13.175231
20
67.325428
10
13.043478
20
67.193676
10
13.043478
20
67.061924
10
12.911726
20
67.061924
10
12.911726
20
66.798419
10
12.779974
20
66.798419
10
12.779974
20
66.666667
10
12.648221
20
66.534914
10
12.648221
20
66.403162
10
12.516469
20
66.271410
10
12.516469
20
66.139657
10
12.384717
20
66.007905
10
12.384717
20
65.876153
10
12.252964
20
65.744401
10
12.252964
20
65.612648
10
12.121212
20
65.480896
10
12.121212
20
65.217391
10
11.989460
20
65.217391
10
11.989460
20
64.953887
10
11.857708
20
64.822134
10
11.857708
20
64.690382
10
11.725955
20
64.558630
10
11.725955
20
64.295125
10
11.594203
20
64.295125
10
11.594203
20
64.031621
10
11.462451
20
64.031621
10
11.462451
20
63.768116
10
11.330698
20
63.636364
10
11.330698
20
63.504611
10
11.067194
20
63.241107
10
10.935441
20
63.241107
10
10.803689
20
63.109354
10
10.671937
20
63.109354
10
10.540184
20
62.977602
10
10.408432
20
62.977602
10
10.408432
20
62.845850
10
10.144928
20
62.845850
10
10.144928
20
62.714097
10
9.881423
20
62.714097
10
9.881423
20
62.582345
10
9.749671
20
62.582345
10
9.617918
20
62.450593
10
9.558307
20
62.450593
0
LWPOLYLINE
8
RIVERS
90
94
70
0
10
90.441693
20
76.943347
10
90.250329
20
76.943347
10
90.250329
20
76.811594
10
89.855072
20
76.811594
10
89.723320
20
76.679842
10
89.723320
20
76.548090
10
89.328063
20
76.152833
10
88.932806
20
76.152833
10
88.932806
20
76.021080
10
88.405797
20
76.021080
10
88.274045
20
75.889328
10
88.142292
20
75.889328
10
88.142292
20
75.757576
10
88.010540
20
75.757576
10
88.010540
20
75.625823
10
87.878788
20
75.494071
10
87.747036
20
75.494071
10
87.747036
20
75.625823
10
86.956522
20
75.625823
10
86.956522
20
75.494071
10
86.824769
20
75.494071
10
86.693017
20
75.362319
10
86.429513
20
75.362319
10
86.429513
20
75.230567
10
86.166008
20
75.230567
10
86.034256
20
75.098814
10
86.034256
20
74.835310
10
85.902503
20
74.703557
10
85.902503
20
74.571805
10
85.770751
20
74.571805
10
85.770751
20
74.440053
10
85.638999
20
74.440053
10
85.638999
20
74.308300
10
85.507246
20
74.308300
10
85.507246
20
74.176548
10
85.375494
20
74.176548
10
85.375494
20
74.044796
10
85.243742
20
74.044796
10
85.243742
20
73.913043
10
85.111989
20
73.913043
10
85.111989
20
73.781291
10
84.980237
20
73.781291
10
84.848485
20
73.649539
10
84.716733
20
73.649539
10
84.584980
20
73.517787
10
84.453228
20
73.517787
10
84.453228
20
73.386034
10
84.321476
20
73.254282
10
84.321476
20
73.122530
10
84.189723
20
73.122530
10
84.189723
20
72.990777
10
83.926219
20
72.990777
10
83.926219
20
72.859025
10
83.662714
20
72.859025
10
83.662714
20
72.727273
10
83.267457
20
72.727273
10
83.267457
20
72.463768
10
83.135705
20
72.463768
10
83.135705
20
72.332016
10
83.003953
20
72.200264
10
83.003953
20
72.068511
10
82.872200
20
72.068511
10
82.740448
20
71.936759
10
82.608696
20
71.936759
10
82.476943
20
71.805007
10
81.686430
20
71.805007
10
81.554677
20
71.673254
10
81.291173
20
71.673254
10
81.159420
20
71.805007
10
80.895916
20
71.805007
10
80.895916
20
71.936759
10
80.632411
20
71.936759
10
80.500659
20
71.805007
10
79.973650
20
71.805007
10
79.973650
20
72.068511
10
80.105402
20
72.068511
10
80.237154
20
72.200264
10
80.368906
20
72.200264
10
80.368906
20
72.332016
10
81.159420
20
72.332016
10
81.159420
20
72.463768
10
81.291173
20
72.463768
10
81.291173
20
72.595520
10
81.422925
20
72.595520
10
81.422925
20
72.727273
10
81.949934
20
72.727273
10
81.949934
20
72.595520
10
82.213439
20
72.595520
10
82.345191
20
72.727273
10
82.608696
20
72.727273
10
82.740448
20
72.859025
10
82.872200
20
72.859025
10
82.872200
20
72.727273
10
83.135705
20
72.727273
0
LWPOLYLINE
8
RIVERS
90
40
70
0
10
70.092227
20
81.291173
10
70.092227
20
81.159420
10
70.355731
20
81.159420
10
70.487484
20
81.027668
10
70.619236
20
81.027668
10
70.750988
20
80.895916
10
70.882740
20
80.895916
10
71.014493
20
80.764163
10
71.014493
20
80.632411
10
71.146245
20
80.632411
10
71.146245
20
80.500659
10
71.673254
20
79.973650
10
71.805007
20
79.973650
10
71.805007
20
79.710145
10
71.936759
20
79.578393
10
71.936759
20
78.787879
10
72.068511
20
78.787879
10
72.068511
20
78.524374
10
72.200264
20
78.392622
10
72.200264
20
78.260870
10
72.463768
20
77.997365
10
72.463768
20
77.865613
10
72.595520
20
77.865613
10
72.595520
20
77.602108
10
72.990777
20
77.602108
10
72.990777
20
78.260870
10
73.517787
20
78.787879
10
73.517787
20
78.919631
10
73.649539
20
79.051383
10
73.649539
20
79.183136
10
73.781291
20
79.314888
10
73.781291
20
79.446640
10
73.913043
20
79.446640
10
73.913043
20
79.710145
10
74.044796
20
79.710145
10
74.044796
20
79.841897
10
74.176548
20
79.841897
10
74.176548
20
79.973650
10
74.308300
20
79.973650
10
74.440053
20
80.105402
0
LWPOLYLINE
8
RIVERS
90
49
70
0
10
72.595520
20
77.075099
10
72.595520
20
76.416337
10
72.727273
20
76.284585
10
72.727273
20
76.152833
10
72.859025
20
76.021080
10
72.859025
20
75.889328
10
72.990777
20
75.757576
10
72.990777
20
75.625823
10
73.386034
20
75.625823
10
73.386034
20
75.494071
10
73.517787
20
75.362319
10
73.517787
20
75.230567
10
73.649539
20
75.230567
10
73.649539
20
75.098814
10
74.044796
20
75.098814
10
74.176548
20
74.967062
10
74.571805
20
74.967062
10
74.571805
20
74.835310
10
74.835310
20
74.835310
10
74.967062
20
74.703557
10
75.098814
20
74.703557
10
75.098814
20
74.571805
10
75.362319
20
74.571805
10
75.362319
20
74.440053
10
75.889328
20
74.440053
10
75.889328
20
74.308300
10
76.416337
20
74.308300
10
76.416337
20
74.176548
10
76.548090
20
74.176548
10
76.679842
20
74.044796
10
76.943347
20
74.044796
10
77.075099
20
73.913043
10
77.338603
20
73.913043
10
77.470356
20
73.781291
10
77.733860
20
73.781291
10
77.865613
20
73.649539
10
77.997365
20
73.649539
10
77.997365
20
73.517787
10
78.129117
20
73.517787
10
78.129117
20
73.386034
10
78.260870
20
73.254282
10
78.260870
20
73.122530
10
78.392622
20
72.990777
10
78.392622
20
72.595520
10
78.524374
20
72.463768
10
78.524374
20
72.068511
10
78.787879
20
72.068511
10
78.919631
20
71.936759
10
79.841897
20
71.936759
0
LWPOLYLINE
8
RIVERS
90
5
70
0
10
54.677207
20
75.494071
10
54.677207
20
75.889328
10
54.545455
20
76.021080
10
54.545455
20
76.679842
10
54.281950
20
76.943347
0
LWPOLYLINE
8
RIVERS
90
51
70
0
10
54.545455
20
75.362319
10
54.677207
20
75.362319
10
54.413702
20
75.098814
10
54.413702
20
74.967062
10
54.545455
20
74.967062
10
54.545455
20
74.835310
10
54.677207
20
74.703557
10
54.677207
20
74.571805
10
54.940711
20
74.308300
10
54.940711
20
74.176548
10
55.072464
20
74.176548
10
55.072464
20
74.044796
10
55.204216
20
74.044796
10
55.204216
20
73.781291
10
55.335968
20
73.649539
10
55.599473
20
73.649539
10
55.599473
20
73.517787
10
55.862978
20
73.517787
10
55.994730
20
73.386034
10
56.258235
20
73.386034
10
56.258235
20
73.254282
10
57.444005
20
73.254282
10
57.444005
20
73.122530
10
58.102767
20
73.122530
10
58.234519
20
72.990777
10
58.498024
20
72.990777
10
58.629776
20
73.122530
10
58.893281
20
73.122530
10
59.025033
20
73.254282
10
59.156785
20
73.254282
10
59.156785
20
73.386034
10
59.288538
20
73.386034
10
59.288538
20
73.517787
10
60.210804
20
73.517787
10
60.342556
20
73.649539
10
60.474308
20
73.649539
10
60.606061
20
73.781291
10
60.737813
20
73.781291
10
60.737813
20
73.913043
10
60.869565
20
73.913043
10
60.869565
20
74.044796
10
61.001318
20
74.176548
10
61.396574
20
74.176548
10
61.396574
20
74.308300
10
61.791831
20
74.308300
10
61.791831
20
74.440053
10
61.923584
20
74.440053
10
61.923584
20
74.571805
10
62.977602
20
74.571805
10
63.109354
20
74.703557
10
63.241107
20
74.703557
0
LWPOLYLINE
8
RIVERS
90
54
70
0
10
72.068511
20
74.703557
10
72.200264
20
74.703557
10
72.068511
20
74.571805
10
71.541502
20
74.571805
10
71.541502
20
74.440053
10
71.277997
20
74.440053
10
71.277997
20
74.308300
10
70.487484
20
74.308300
10
70.355731
20
74.176548
10
70.092227
20
74.176548
10
70.092227
20
74.044796
10
69.301713
20
74.044796
10
69.301713
20
73.913043
10
69.169960
20
73.913043
10
69.169960
20
73.649539
10
69.038208
20
73.517787
10
69.038208
20
73.386034
10
68.906456
20
73.386034
10
68.906456
20
72.859025
10
68.774704
20
72.859025
10
68.774704
20
72.332016
10
68.642951
20
72.200264
10
68.642951
20
71.673254
10
68.774704
20
71.673254
10
68.774704
20
71.541502
10
68.906456
20
71.409750
10
68.906456
20
71.277997
10
69.038208
20
71.277997
10
69.038208
20
70.750988
10
69.169960
20
70.619236
10
69.169960
20
70.223979
10
69.038208
20
70.223979
10
69.038208
20
69.960474
10
68.906456
20
69.960474
10
68.906456
20
69.828722
10
68.774704
20
69.828722
10
68.642951
20
69.696970
10
68.642951
20
69.433465
10
68.511199
20
69.433465
10
68.511199
20
69.565217
10
68.247694
20
69.565217
10
67.984190
20
69.301713
10
67.852437
20
69.433465
10
67.457181
20
69.433465
10
67.457181
20
69.565217
10
67.325428
20
69.433465
10
67.193676
20
69.433465
10
67.061924
20
69.301713
10
66.666667
20
69.301713
10
66.534914
20
69.169960
10
66.534914
20
69.038208
10
66.403162
20
69.038208
10
66.403162
20
68.906456
10
66.139657
20
68.906456
0
LWPOLYLINE
8
RIVERS
90
7
70
0
10
62.055336
20
74.440053
10
61.791831
20
74.176548
10
61.791831
20
73.913043
10
61.660079
20
73.913043
10
61.660079
20
74.044796
10
61.528327
20
74.044796
10
61.528327
20
74.176548
0
LWPOLYLINE
8
RIVERS
90
17
70
0
10
53.096179
20
69.038208
10
53.096179
20
68.906456
10
52.964427
20
68.906456
10
52.964427
20
68.642951
10
52.832675
20
68.511199
10
52.832675
20
68.247694
10
52.700922
20
68.247694
10
52.700922
20
67.588933
10
52.569170
20
67.588933
10
52.569170
20
67.457181
10
51.910408
20
67.457181
10
51.910408
20
67.325428
10
51.778656
20
67.193676
10
51.515152
20
67.193676
10
51.515152
20
67.325428
10
51.646904
20
67.457181
10
51.778656
20
67.457181
0
LWPOLYLINE
8
RIVERS
90
11
70
0
10
51.119895
20
67.193676
10
51.383399
20
67.193676
10
51.515152
20
67.061924
10
51.515152
20
66.666667
10
51.646904
20
66.534914
10
51.646904
20
66.139657
10
51.778656
20
66.007905
10
51.910408
20
66.007905
10
51.910408
20
65.612648
10
52.042161
20
65.612648
10
52.042161
20
65.480896
0
LWPOLYLINE
8
RIVERS
90
108
70
0
10
50.856390
20
66.930171
10
50.724638
20
66.930171
10
50.724638
20
66.534914
10
50.592885
20
66.403162
10
50.592885
20
66.139657
10
50.461133
20
66.007905
10
50.461133
20
65.612648
10
50.329381
20
65.612648
10
50.329381
20
65.480896
10
50.197628
20
65.349144
10
50.197628
20
65.217391
10
50.065876
20
65.217391
10
50.065876
20
65.085639
10
49.802372
20
64.822134
10
49.802372
20
64.690382
10
49.670619
20
64.690382
10
49.670619
20
64.295125
10
49.802372
20
64.295125
10
49.802372
20
64.163373
10
49.670619
20
64.031621
10
49.670619
20
63.899868
10
49.538867
20
63.768116
10
49.407115
20
63.768116
10
49.407115
20
63.636364
10
49.275362
20
63.636364
10
49.143610
20
63.768116
10
49.011858
20
63.768116
10
48.880105
20
63.636364
10
48.748353
20
63.636364
10
48.748353
20
63.504611
10
48.484848
20
63.241107
10
48.484848
20
62.845850
10
48.353096
20
62.714097
10
48.353096
20
62.582345
10
48.221344
20
62.582345
10
48.221344
20
62.450593
10
48.089592
20
62.450593
10
48.089592
20
62.318841
10
47.562582
20
62.318841
10
47.562582
20
62.450593
10
47.430830
20
62.450593
10
47.430830
20
62.582345
10
47.299078
20
62.450593
10
47.167325
20
62.450593
10
47.167325
20
62.187088
10
47.035573
20
62.187088
10
47.035573
20
61.923584
10
46.903821
20
61.923584
10
46.903821
20
61.660079
10
46.772069
20
61.660079
10
46.772069
20
60.869565
10
46.640316
20
60.737813
10
46.640316
20
60.606061
10
46.508564
20
60.606061
10
46.508564
20
60.342556
10
46.376812
20
60.210804
10
46.376812
20
59.815547
10
46.245059
20
59.815547
10
46.245059
20
59.420290
10
46.113307
20
59.288538
10
46.113307
20
59.025033
10
45.981555
20
58.893281
10
45.981555
20
58.761528
10
45.849802
20
58.629776
10
45.849802
20
58.498024
10
45.718050
20
58.498024
10
45.718050
20
58.366271
10
45.586298
20
58.234519
10
45.586298
20
58.102767
10
45.454545
20
57.971014
10
45.454545
20
57.839262
10
45.322793
20
57.839262
10
45.322793
20
57.707510
10
45.191041
20
57.575758
10
45.191041
20
57.444005
10
45.059289
20
57.312253
10
45.059289
20
57.180501
10
44.927536
20
57.180501
10
44.927536
20
56.916996
10
44.795784
20
56.916996
10
44.795784
20
56.785244
10
44.664032
20
56.653491
10
44.664032
20
56.521739
10
44.532279
20
56.521739
10
44.532279
20
56.258235
10
44.400527
20
56.258235
10
44.400527
20
56.126482
10
44.268775
20
56.126482
10
44.137022
20
55.994730
10
44.137022
20
55.731225
10
44.005270
20
55.599473
10
44.005270
20
55.467721
10
43.873518
20
55.335968
10
43.610013
20
55.335968
10
43.214756
20
54.940711
10
43.214756
20
54.808959
10
43.083004
20
54.808959
10
43.083004
20
54.677207
10
42.951252
20
54.677207
10
42.951252
20
54.413702
10
42.819499
20
54.281950
10
42.819499
20
53.886693
10
42.951252
20
53.754941
10
42.951252
20
53.623188
10
43.083004
20
53.623188
10
43.083004
20
53.359684
10
42.951252
20
53.359684
10
42.951252
20
52.437418
0
LWPOLYLINE
8
RIVERS
90
239
70
0
10
65.876153
20
60.210804
10
65.876153
20
60.079051
10
66.007905
20
60.079051
10
66.139657
20
59.947299
10
66.139657
20
59.683794
10
66.271410
20
59.683794
10
66.271410
20
59.288538
10
66.403162
20
59.288538
10
66.403162
20
59.156785
10
66.666667
20
59.156785
10
66.798419
20
59.025033
10
67.457181
20
59.025033
10
67.457181
20
58.893281
10
67.588933
20
58.893281
10
67.588933
20
58.761528
10
67.720685
20
58.761528
10
67.720685
20
58.629776
10
67.852437
20
58.498024
10
67.852437
20
58.234519
10
67.984190
20
58.234519
10
67.984190
20
58.102767
10
68.115942
20
58.102767
10
68.115942
20
57.839262
10
68.379447
20
57.839262
10
68.511199
20
57.707510
10
68.774704
20
57.707510
10
68.774704
20
57.180501
10
68.906456
20
57.180501
10
68.906456
20
56.916996
10
69.038208
20
56.785244
10
69.038208
20
56.653491
10
69.169960
20
56.653491
10
69.169960
20
56.521739
10
69.301713
20
56.389987
10
69.301713
20
56.258235
10
69.169960
20
56.258235
10
69.169960
20
56.126482
10
69.301713
20
55.994730
10
69.301713
20
55.731225
10
69.433465
20
55.731225
10
69.433465
20
55.599473
10
69.301713
20
55.467721
10
69.301713
20
55.335968
10
69.433465
20
55.204216
10
69.433465
20
54.413702
10
69.565217
20
54.413702
10
69.565217
20
54.281950
10
69.696970
20
54.150198
10
69.696970
20
53.754941
10
69.828722
20
53.623188
10
69.696970
20
53.491436
10
69.696970
20
53.359684
10
69.038208
20
53.359684
10
69.038208
20
53.227931
10
68.906456
20
53.227931
10
68.906456
20
53.096179
10
68.774704
20
53.096179
10
68.774704
20
52.964427
10
68.642951
20
52.964427
10
68.642951
20
52.700922
10
68.511199
20
52.569170
10
68.511199
20
52.437418
10
68.379447
20
52.437418
10
68.379447
20
52.305665
10
68.247694
20
52.305665
10
68.247694
20
52.173913
10
68.115942
20
52.173913
10
68.115942
20
52.042161
10
67.984190
20
52.042161
10
67.984190
20
51.910408
10
67.852437
20
51.910408
10
67.852437
20
51.778656
10
67.720685
20
51.778656
10
67.720685
20
51.646904
10
67.588933
20
51.646904
10
67.588933
20
51.515152
10
67.457181
20
51.515152
10
67.457181
20
51.383399
10
67.325428
20
51.383399
10
67.325428
20
51.251647
10
67.193676
20
51.251647
10
67.193676
20
50.592885
10
66.930171
20
50.329381
10
66.930171
20
50.197628
10
66.798419
20
50.065876
10
66.798419
20
49.802372
10
66.930171
20
49.802372
10
66.930171
20
49.407115
10
67.061924
20
49.407115
10
66.930171
20
49.275362
10
66.798419
20
49.275362
10
66.798419
20
49.143610
10
66.666667
20
49.143610
10
66.666667
20
48.880105
10
66.534914
20
48.880105
10
66.534914
20
48.484848
10
66.403162
20
48.353096
10
66.403162
20
47.957839
10
66.271410
20
47.826087
10
66.271410
20
47.694335
10
66.403162
20
47.694335
10
66.403162
20
46.903821
10
66.271410
20
46.903821
10
66.271410
20
46.772069
10
66.139657
20
46.772069
10
66.139657
20
46.113307
10
66.007905
20
46.113307
10
66.007905
20
45.718050
10
65.876153
20
45.586298
10
65.876153
20
45.454545
10
65.744401
20
45.454545
10
65.744401
20
45.322793
10
65.612648
20
45.191041
10
65.612648
20
45.059289
10
65.480896
20
45.059289
10
65.480896
20
44.927536
10
65.349144
20
44.927536
10
65.349144
20
44.795784
10
65.217391
20
44.795784
10
65.217391
20
44.664032
10
65.085639
20
44.664032
10
64.953887
20
44.532279
10
64.822134
20
44.532279
10
64.822134
20
44.400527
10
64.690382
20
44.268775
10
64.690382
20
44.005270
10
64.558630
20
44.005270
10
64.558630
20
43.873518
10
64.426877
20
43.873518
10
64.426877
20
43.741765
10
64.295125
20
43.741765
10
64.295125
20
43.478261
10
64.163373
20
43.346509
10
64.163373
20
43.083004
10
64.031621
20
43.083004
10
64.031621
20
42.819499
10
63.899868
20
42.687747
10
63.899868
20
42.424242
10
63.768116
20
42.292490
10
63.768116
20
42.028986
10
63.636364
20
42.028986
10
63.636364
20
41.897233
10
63.372859
20
41.633729
10
63.372859
20
41.501976
10
63.241107
20
41.501976
10
63.241107
20
41.370224
10
62.977602
20
41.370224
10
62.977602
20
41.238472
10
62.845850
20
41.238472
10
62.845850
20
41.106719
10
62.714097
20
41.106719
10
62.714097
20
40.974967
10
62.582345
20
40.974967
10
62.582345
20
40.843215
10
62.318841
20
40.579710
10
62.318841
20
40.447958
10
62.187088
20
40.447958
10
62.187088
20
40.316206
10
62.055336
20
40.316206
10
62.055336
20
40.184453
10
61.923584
20
40.052701
10
61.923584
20
39.657444
10
61.791831
20
39.525692
10
61.791831
20
39.130435
10
61.660079
20
39.130435
10
61.660079
20
38.076416
10
61.528327
20
38.076416
10
61.528327
20
37.812912
10
61.396574
20
37.812912
10
61.396574
20
37.549407
10
61.133070
20
37.285903
10
61.001318
20
37.285903
10
60.869565
20
37.154150
10
60.737813
20
37.154150
10
60.737813
20
37.285903
10
60.606061
20
37.285903
10
60.606061
20
37.681159
10
60.474308
20
37.681159
10
60.474308
20
37.812912
10
60.342556
20
37.812912
10
60.210804
20
37.944664
10
60.079051
20
37.944664
10
60.079051
20
38.076416
10
59.815547
20
38.076416
10
59.815547
20
38.208169
10
59.288538
20
38.208169
10
59.288538
20
38.339921
10
58.629776
20
38.339921
10
58.498024
20
38.471673
10
57.575758
20
38.471673
10
57.575758
20
38.603426
10
57.444005
20
38.603426
10
57.444005
20
38.471673
10
57.312253
20
38.471673
10
57.312253
20
38.603426
10
57.048748
20
38.866930
10
56.653491
20
38.866930
10
56.653491
20
38.603426
10
56.521739
20
38.603426
10
56.521739
20
38.735178
10
56.389987
20
38.735178
10
56.389987
20
38.603426
10
56.258235
20
38.603426
10
56.258235
20
38.471673
10
55.994730
20
38.471673
10
55.994730
20
38.339921
10
54.808959
20
38.339921
10
54.808959
20
38.208169
10
54.545455
20
38.208169
10
54.413702
20
38.339921
10
53.623188
20
38.339921
10
53.491436
20
38.471673
10
52.964427
20
38.471673
10
52.832675
20
38.339921
10
52.700922
20
38.339921
10
52.569170
20
38.208169
10
52.437418
20
38.208169
10
52.305665
20
38.339921
10
52.173913
20
38.339921
10
52.173913
20
38.471673
10
51.778656
20
38.471673
10
51.778656
20
38.339921
10
51.646904
20
38.471673
10
51.515152
20
38.471673
10
51.383399
20
38.603426
10
49.670619
20
38.603426
10
49.670619
20
38.471673
10
49.538867
20
38.603426
10
49.407115
20
38.603426
10
49.275362
20
38.735178
10
49.143610
20
38.735178
10
49.011858
20
38.866930
10
48.880105
20
38.866930
10
48.880105
20
38.998682
10
48.748353
20
38.998682
10
48.748353
20
39.130435
10
48.616601
20
39.130435
10
48.616601
20
39.262187
10
48.353096
20
39.262187
0
LWPOLYLINE
8
RIVERS
90
14
70
0
10
64.822134
20
51.251647
10
65.349144
20
51.251647
10
65.349144
20
51.119895
10
65.480896
20
51.119895
10
65.744401
20
50.856390
10
65.876153
20
50.856390
10
65.876153
20
50.724638
10
66.007905
20
50.724638
10
66.139657
20
50.592885
10
66.403162
20
50.592885
10
66.403162
20
50.461133
10
66.534914
20
50.461133
10
66.534914
20
50.329381
10
66.798419
20
50.329381
0
LWPOLYLINE
8
RIVERS
90
14
70
0
10
32.147563
20
45.718050
10
32.015810
20
45.586298
10
31.752306
20
45.586298
10
31.752306
20
45.454545
10
31.620553
20
45.454545
10
31.488801
20
45.322793
10
31.488801
20
45.191041
10
30.566535
20
45.191041
10
30.566535
20
45.322793
10
30.434783
20
45.322793
10
30.303030
20
45.454545
10
29.907773
20
45.454545
10
29.907773
20
45.586298
10
29.776021
20
45.586298
0
LWPOLYLINE
8
RIVERS
90
56
70
0
10
9.558307
20
40.447958
10
9.617918
20
40.447958
10
9.881423
20
40.184453
10
10.013175
20
40.184453
10
10.013175
20
40.052701
10
10.144928
20
40.052701
10
10.276680
20
39.920949
10
10.408432
20
39.920949
10
10.408432
20
39.789196
10
10.540184
20
39.789196
10
10.671937
20
39.657444
10
10.803689
20
39.657444
10
10.803689
20
39.525692
10
11.067194
20
39.525692
10
11.067194
20
39.393939
10
11.594203
20
39.393939
10
11.725955
20
39.262187
10
12.252964
20
39.262187
10
12.252964
20
39.130435
10
12.911726
20
39.130435
10
12.911726
20
39.262187
10
13.306983
20
39.262187
10
13.306983
20
39.393939
10
15.151515
20
39.393939
10
15.151515
20
39.262187
10
15.810277
20
39.262187
10
15.942029
20
39.130435
10
16.073781
20
39.130435
10
16.073781
20
38.998682
10
16.205534
20
38.998682
10
16.337286
20
38.866930
10
16.469038
20
38.866930
10
16.469038
20
38.735178
10
16.600791
20
38.735178
10
16.732543
20
38.603426
10
16.864295
20
38.603426
10
16.864295
20
38.471673
10
16.996047
20
38.339921
10
16.996047
20
38.208169
10
17.127800
20
38.208169
10
17.127800
20
38.076416
10
17.259552
20
37.944664
10
17.391304
20
37.944664
10
17.391304
20
37.812912
10
17.523057
20
37.812912
10
17.654809
20
37.681159
10
17.786561
20
37.681159
10
17.786561
20
37.549407
10
17.918314
20
37.549407
10
18.050066
20
37.417655
10
18.445323
20
37.417655
10
18.577075
20
37.285903
10
18.708827
20
37.285903
10
18.972332
20
37.549407
10
19.367589
20
37.549407
10
19.367589
20
37.417655
0
LWPOLYLINE
8
RIVERS
90
140
70
0
10
32.279315
20
38.208169
10
32.279315
20
37.285903
10
32.147563
20
37.154150
10
32.147563
20
36.890646
10
32.279315
20
36.758893
10
32.279315
20
35.309618
10
32.147563
20
35.309618
10
32.147563
20
34.914361
10
32.279315
20
34.782609
10
32.279315
20
34.387352
10
31.752306
20
33.860343
10
31.752306
20
33.728590
10
31.620553
20
33.728590
10
31.620553
20
33.069829
10
31.488801
20
33.069829
10
31.488801
20
32.542819
10
31.357049
20
32.411067
10
31.357049
20
31.884058
10
31.225296
20
31.752306
10
31.225296
20
31.620553
10
31.093544
20
31.620553
10
31.093544
20
30.434783
10
30.961792
20
30.303030
10
30.961792
20
29.907773
10
30.830040
20
29.907773
10
30.830040
20
29.380764
10
30.698287
20
29.380764
10
30.698287
20
29.249012
10
30.566535
20
29.249012
10
30.566535
20
28.853755
10
30.434783
20
28.853755
10
30.434783
20
28.722003
10
30.303030
20
28.590250
10
30.303030
20
28.326746
10
30.171278
20
28.326746
10
30.171278
20
28.194993
10
30.303030
20
28.063241
10
30.303030
20
27.667984
10
30.434783
20
27.667984
10
30.303030
20
27.536232
10
30.303030
20
27.272727
10
30.171278
20
27.272727
10
30.171278
20
26.482213
10
30.303030
20
26.350461
10
30.303030
20
25.296443
10
30.434783
20
25.296443
10
30.434783
20
25.164690
10
30.303030
20
25.164690
10
30.303030
20
25.032938
10
30.171278
20
24.901186
10
30.171278
20
24.769433
10
30.303030
20
24.637681
10
30.303030
20
23.978920
10
30.171278
20
23.847167
10
30.171278
20
23.715415
10
30.039526
20
23.715415
10
30.039526
20
23.320158
10
29.907773
20
23.188406
10
29.907773
20
22.793149
10
29.776021
20
22.661397
10
29.776021
20
22.002635
10
29.907773
20
22.002635
10
29.907773
20
21.343874
10
29.776021
20
21.343874
10
29.776021
20
20.553360
10
29.907773
20
20.421607
10
29.907773
20
20.289855
10
30.039526
20
20.289855
10
30.039526
20
20.158103
10
30.171278
20
20.026350
10
30.039526
20
19.894598
10
30.039526
20
19.367589
10
29.907773
20
19.367589
10
29.907773
20
18.840580
10
29.776021
20
18.708827
10
29.776021
20
18.445323
10
29.907773
20
18.313570
10
29.907773
20
18.181818
10
30.303030
20
17.786561
10
30.303030
20
17.654809
10
30.434783
20
17.654809
10
30.434783
20
17.523057
10
30.566535
20
17.523057
10
30.566535
20
16.732543
10
30.698287
20
16.732543
10
30.698287
20
16.600791
10
30.830040
20
16.600791
10
30.830040
20
16.469038
10
30.961792
20
16.469038
10
30.961792
20
16.337286
10
31.093544
20
16.337286
10
31.093544
20
16.205534
10
31.357049
20
15.942029
10
31.357049
20
15.810277
10
31.488801
20
15.678524
10
31.488801
20
15.546772
10
31.620553
20
15.415020
10
31.620553
20
15.283267
10
31.752306
20
15.283267
10
32.147563
20
14.888011
10
32.147563
20
14.756258
10
32.279315
20
14.756258
10
32.279315
20
14.624506
10
32.411067
20
14.492754
10
32.542819
20
14.492754
10
32.542819
20
14.361001
10
32.674572
20
14.361001
10
32.938076
20
14.097497
10
33.069829
20
14.097497
10
33.069829
20
13.965744
10
33.201581
20
13.965744
10
33.465086
20
13.702240
10
33.596838
20
13.702240
10
33.596838
20
13.570487
10
33.728590
20
13.570487
10
33.860343
20
13.438735
10
33.992095
20
13.438735
10
33.992095
20
13.306983
10
34.123847
20
13.306983
10
34.387352
20
13.043478
10
34.782609
20
13.043478
10
34.914361
20
12.911726
10
35.309618
20
12.911726
10
35.441370
20
12.779974
10
35.836627
20
12.779974
10
35.968379
20
12.648221
10
36.100132
20
12.779974
10
36.758893
20
12.779974
10
36.890646
20
12.911726
10
37.022398
20
12.911726
10
37.154150
20
12.779974
10
37.417655
20
12.779974
10
37.549407
20
12.648221
10
38.339921
20
12.648221
10
38.603426
20
12.911726
10
38.735178
20
12.911726
10
38.866930
20
12.779974
10
38.998682
20
12.779974
10
39.130435
20
12.648221
10
39.262187
20
12.648221
0
LWPOLYLINE
8
RIVERS
90
102
70
0
10
60.737813
20
37.022398
10
60.737813
20
36.890646
10
60.606061
20
36.890646
10
60.606061
20
36.627141
10
60.474308
20
36.495389
10
60.474308
20
36.231884
10
60.342556
20
36.231884
10
60.342556
20
35.968379
10
60.210804
20
35.836627
10
60.210804
20
35.309618
10
60.342556
20
35.309618
10
60.342556
20
35.177866
10
60.474308
20
35.177866
10
60.474308
20
35.046113
10
60.606061
20
35.046113
10
60.606061
20
34.914361
10
60.737813
20
34.914361
10
60.737813
20
34.650856
10
60.606061
20
34.519104
10
60.342556
20
34.519104
10
60.342556
20
34.387352
10
60.079051
20
34.387352
10
60.079051
20
34.255599
10
59.815547
20
33.992095
10
59.815547
20
33.465086
10
59.683794
20
33.333333
10
59.683794
20
32.806324
10
59.552042
20
32.674572
10
59.552042
20
32.411067
10
59.420290
20
32.279315
10
59.420290
20
32.015810
10
59.288538
20
32.015810
10
59.288538
20
31.884058
10
59.156785
20
31.752306
10
59.156785
20
31.620553
10
59.025033
20
31.488801
10
59.025033
20
31.357049
10
58.893281
20
31.357049
10
58.893281
20
30.698287
10
58.761528
20
30.698287
10
58.498024
20
30.434783
10
58.498024
20
29.644269
10
58.366271
20
29.644269
10
58.366271
20
29.512516
10
58.234519
20
29.512516
10
58.234519
20
29.380764
10
58.102767
20
29.380764
10
58.102767
20
29.249012
10
57.971014
20
29.249012
10
57.971014
20
29.380764
10
57.839262
20
29.249012
10
57.839262
20
29.117260
10
57.971014
20
29.117260
10
57.971014
20
28.722003
10
58.102767
20
28.590250
10
58.102767
20
28.063241
10
58.234519
20
28.063241
10
58.234519
20
27.931489
10
58.366271
20
27.799736
10
58.366271
20
27.272727
10
58.234519
20
27.272727
10
58.234519
20
27.009223
10
58.102767
20
26.877470
10
58.102767
20
26.482213
10
57.971014
20
26.350461
10
57.971014
20
25.955204
10
57.839262
20
25.823452
10
57.839262
20
25.691700
10
57.707510
20
25.691700
10
57.707510
20
25.559947
10
57.575758
20
25.428195
10
57.575758
20
25.296443
10
57.312253
20
25.032938
10
57.312253
20
24.242424
10
57.180501
20
24.110672
10
57.180501
20
23.715415
10
57.312253
20
23.715415
10
57.312253
20
23.583663
10
57.444005
20
23.451910
10
57.444005
20
23.188406
10
57.575758
20
23.188406
10
57.575758
20
22.924901
10
57.707510
20
22.924901
10
57.575758
20
22.793149
10
57.575758
20
22.529644
10
57.707510
20
22.397892
10
57.707510
20
22.002635
10
57.971014
20
22.002635
10
57.971014
20
21.870883
10
58.102767
20
21.870883
10
58.234519
20
21.739130
10
58.234519
20
21.475626
10
58.366271
20
21.343874
10
58.366271
20
21.212121
10
58.498024
20
21.212121
10
58.498024
20
21.080369
10
58.629776
20
21.080369
10
58.629776
20
20.685112
10
58.498024
20
20.685112
10
58.498024
20
20.816864
10
58.366271
20
20.816864
10
58.366271
20
21.080369
0
LWPOLYLINE
8
RIVERS
90
8
70
0
10
57.707510
20
29.117260
10
57.575758
20
28.985507
10
57.444005
20
28.985507
10
57.444005
20
28.722003
10
57.575758
20
28.590250
10
57.575758
20
28.458498
10
57.707510
20
28.458498
10
57.971014
20
28.194993
0
LWPOLYLINE
8
RIVERS
90
8
70
0
10
57.048748
20
23.715415
10
57.048748
20
23.056653
10
57.180501
20
23.056653
10
57.180501
20
22.924901
10
57.312253
20
22.924901
10
57.312253
20
22.793149
10
57.444005
20
22.793149
10
57.444005
20
22.661397
0
LWPOLYLINE
8
RIVERS
90
32
70
0
10
10.480573
20
9.558307
10
10.540184
20
9.617918
10
10.671937
20
9.617918
10
10.671937
20
9.749671
10
10.803689
20
9.749671
10
10.803689
20
9.881423
10
10.935441
20
9.881423
10
10.935441
20
10.013175
10
11.198946
20
10.276680
10
11.198946
20
10.540184
10
11.330698
20
10.540184
10
11.330698
20
10.935441
10
11.462451
20
10.935441
10
11.462451
20
11.067194
10
11.594203
20
11.067194
10
11.594203
20
11.198946
10
11.725955
20
11.198946
10
11.725955
20
12.516469
10
11.857708
20
12.648221
10
11.857708
20
13.438735
10
11.989460
20
13.438735
10
11.989460
20
13.833992
10
11.857708
20
13.965744
10
11.857708
20
14.492754
10
11.989460
20
14.492754
10
11.989460
20
14.624506
10
12.121212
20
14.756258
10
12.121212
20
14.888011
10
12.252964
20
14.888011
10
12.252964
20
15.151515
10
12.384717
20
15.283267
10
12.384717
20
16.732543
0
LWPOLYLINE
8
RIVERS
90
17
70
0
10
57.707510
20
21.870883
10
57.707510
20
21.739130
10
57.575758
20
21.607378
10
57.575758
20
21.343874
10
57.707510
20
21.343874
10
57.707510
20
21.212121
10
57.839262
20
21.080369
10
57.839262
20
20.948617
10
57.971014
20
20.816864
10
57.971014
20
20.421607
10
58.102767
20
20.421607
10
58.102767
20
20.289855
10
58.498024
20
20.289855
10
58.498024
20
20.553360
10
58.629776
20
20.421607
10
58.761528
20
20.421607
10
58.761528
20
20.553360
0
LWPOLYLINE
8
RIVERS
90
100
70
0
10
58.629776
20
20.289855
10
58.761528
20
20.289855
10
58.761528
20
20.158103
10
58.893281
20
20.158103
10
58.893281
20
20.026350
10
59.156785
20
20.026350
10
59.156785
20
19.894598
10
59.288538
20
19.894598
10
59.288538
20
19.631094
10
59.420290
20
19.631094
10
59.420290
20
19.367589
10
59.552042
20
19.367589
10
59.552042
20
19.104084
10
59.683794
20
19.104084
10
59.683794
20
18.840580
10
59.815547
20
18.840580
10
59.815547
20
18.577075
10
59.947299
20
18.577075
10
59.947299
20
18.445323
10
60.210804
20
18.445323
10
60.737813
20
17.918314
10
60.737813
20
17.654809
10
60.869565
20
17.523057
10
60.869565
20
16.996047
10
61.001318
20
16.996047
10
61.001318
20
16.864295
10
61.133070
20
16.864295
10
61.264822
20
16.732543
10
61.396574
20
16.732543
10
61.396574
20
16.600791
10
61.528327
20
16.600791
10
61.660079
20
16.469038
10
62.845850
20
16.469038
10
62.977602
20
16.600791
10
63.109354
20
16.600791
10
63.109354
20
16.732543
10
63.372859
20
16.996047
10
63.372859
20
17.127800
10
63.504611
20
17.259552
10
63.504611
20
17.391304
10
63.636364
20
17.391304
10
63.636364
20
17.523057
10
63.768116
20
17.654809
10
63.899868
20
17.654809
10
63.899868
20
17.786561
10
64.953887
20
17.786561
10
65.085639
20
17.654809
10
66.007905
20
17.654809
10
66.139657
20
17.786561
10
66.798419
20
17.786561
10
66.798419
20
17.654809
10
67.061924
20
17.654809
10
67.061924
20
17.391304
10
67.193676
20
17.259552
10
67.193676
20
16.996047
10
67.457181
20
16.732543
10
67.588933
20
16.732543
10
67.720685
20
16.600791
10
68.115942
20
16.600791
10
68.247694
20
16.469038
10
68.906456
20
16.469038
10
69.169960
20
16.205534
10
69.301713
20
16.205534
10
69.301713
20
16.073781
10
69.433465
20
16.073781
10
69.433465
20
15.810277
10
69.565217
20
15.678524
10
69.565217
20
15.546772
10
69.828722
20
15.546772
10
69.828722
20
15.415020
10
70.092227
20
15.415020
10
70.223979
20
15.283267
10
70.487484
20
15.283267
10
70.619236
20
15.151515
10
70.882740
20
15.151515
10
71.014493
20
15.019763
10
71.014493
20
14.888011
10
71.146245
20
14.756258
10
71.146245
20
14.492754
10
71.277997
20
14.492754
10
71.277997
20
14.361001
10
71.409750
20
14.361001
10
71.673254
20
14.097497
10
71.673254
20
13.965744
10
71.805007
20
13.965744
10
72.463768
20
13.306983
10
72.463768
20
13.175231
10
72.595520
20
13.043478
10
72.595520
20
12.648221
10
72.727273
20
12.648221
10
72.727273
20
12.516469
10
73.122530
20
12.121212
10
73.122530
20
11.989460
10
73.254282
20
11.857708
10
73.254282
20
11.594203
10
73.386034
20
11.462451
10
73.386034
20
11.198946
10
73.254282
20
11.067194
10
73.254282
20
10.013175
10
73.709150
20
9.558307
0
LWPOLYLINE
8
RIVERS
90
9
70
0
10
58.893281
20
19.894598
10
58.893281
20
19.762846
10
59.025033
20
19.631094
10
59.025033
20
19.499341
10
59.156785
20
19.499341
10
59.156785
20
19.367589
10
59.288538
20
19.367589
10
59.288538
20
19.235837
10
59.420290
20
19.235837
0
LWPOLYLINE
8
RIVERS
90
8
70
0
10
56.258235
20
19.762846
10
56.389987
20
19.762846
10
56.389987
20
19.631094
10
57.048748
20
19.631094
10
57.048748
20
19.762846
10
57.180501
20
19.762846
10
57.444005
20
20.026350
10
57.971014
20
20.026350
0
LWPOLYLINE
8
RIVERS
90
109
70
0
10
54.808959
20
19.367589
10
54.940711
20
19.367589
10
54.808959
20
19.235837
10
54.677207
20
19.235837
10
54.545455
20
19.367589
10
54.413702
20
19.235837
10
54.281950
20
19.235837
10
54.281950
20
19.104084
10
54.150198
20
18.972332
10
54.150198
20
18.840580
10
54.018445
20
18.708827
10
54.018445
20
18.050066
10
53.886693
20
17.918314
10
53.886693
20
17.786561
10
53.491436
20
17.391304
10
53.491436
20
16.864295
10
53.359684
20
16.732543
10
53.359684
20
16.469038
10
53.227931
20
16.337286
10
53.096179
20
16.337286
10
52.964427
20
16.205534
10
52.832675
20
16.205534
10
52.832675
20
15.942029
10
52.700922
20
15.942029
10
52.700922
20
15.283267
10
52.569170
20
15.283267
10
52.569170
20
14.624506
10
52.437418
20
14.624506
10
52.437418
20
14.492754
10
52.305665
20
14.492754
10
52.305665
20
14.361001
10
52.173913
20
14.361001
10
52.173913
20
14.229249
10
52.042161
20
14.229249
10
52.042161
20
14.097497
10
51.910408
20
14.097497
10
51.910408
20
13.965744
10
51.778656
20
13.965744
10
51.778656
20
13.833992
10
51.251647
20
13.306983
10
51.119895
20
13.306983
10
51.119895
20
13.175231
10
50.988142
20
13.175231
10
50.724638
20
12.911726
10
50.592885
20
12.911726
10
50.461133
20
13.043478
10
50.329381
20
13.043478
10
50.329381
20
13.175231
10
50.197628
20
13.306983
10
50.197628
20
13.438735
10
50.065876
20
13.438735
10
49.934124
20
13.570487
10
49.802372
20
13.570487
10
49.670619
20
13.702240
10
48.748353
20
13.702240
10
48.748353
20
13.570487
10
48.484848
20
13.306983
10
48.484848
20
13.175231
10
48.353096
20
13.175231
10
48.353096
20
13.043478
10
48.221344
20
13.043478
10
48.089592
20
12.911726
10
47.957839
20
12.911726
10
47.826087
20
12.779974
10
47.167325
20
12.779974
10
47.167325
20
12.648221
10
47.035573
20
12.648221
10
46.772069
20
12.384717
10
46.640316
20
12.384717
10
46.640316
20
12.252964
10
46.508564
20
12.252964
10
46.245059
20
11.989460
10
46.113307
20
11.989460
10
45.981555
20
11.857708
10
45.849802
20
11.857708
10
45.849802
20
11.725955
10
45.586298
20
11.725955
10
45.586298
20
11.594203
10
45.454545
20
11.594203
10
45.322793
20
11.462451
10
45.191041
20
11.462451
10
45.059289
20
11.594203
10
44.532279
20
11.594203
10
44.400527
20
11.725955
10
44.137022
20
11.725955
10
44.137022
20
11.857708
10
43.873518
20
11.857708
10
43.741765
20
11.989460
10
43.478261
20
11.989460
10
43.346509
20
12.121212
10
43.214756
20
12.121212
10
43.214756
20
12.384717
10
43.083004
20
12.516469
10
42.819499
20
12.516469
10
42.819499
20
12.648221
10
42.292490
20
12.648221
10
42.160738
20
12.516469
10
41.501976
20
12.516469
10
41.370224
20
12.648221
10
41.238472
20
12.648221
10
41.106719
20
12.779974
10
40.974967
20
12.779974
10
40.843215
20
12.911726
10
40.711462
20
12.779974
10
40.579710
20
12.779974
10
40.447958
20
12.648221
10
40.316206
20
12.648221
10
40.316206
20
12.516469
10
39.525692
20
12.516469
0
LWPOLYLINE
8
RIVERS
90
11
70
0
10
17.391304
20
19.235837
10
17.259552
20
19.104084
10
17.127800
20
19.104084
10
16.996047
20
18.972332
10
16.337286
20
18.972332
10
16.337286
20
18.840580
10
16.073781
20
18.840580
10
16.073781
20
18.708827
10
15.810277
20
18.708827
10
15.678524
20
18.577075
10
15.415020
20
18.577075
0
LWPOLYLINE
8
RIVERS
90
14
70
0
10
59.815547
20
18.445323
10
59.815547
20
18.181818
10
59.683794
20
18.050066
10
59.683794
20
17.786561
10
59.815547
20
17.654809
10
59.815547
20
17.523057
10
59.947299
20
17.523057
10
59.947299
20
17.391304
10
60.079051
20
17.391304
10
60.079051
20
17.259552
10
60.342556
20
17.259552
10
60.474308
20
17.127800
10
60.737813
20
17.127800
10
60.737813
20
16.996047
0
LWPOLYLINE
8
RIVERS
90
20
70
0
10
68.511199
20
16.337286
10
68.642951
20
16.337286
10
68.642951
20
16.205534
10
68.774704
20
16.205534
10
68.774704
20
15.678524
10
68.906456
20
15.546772
10
69.169960
20
15.546772
10
69.169960
20
15.415020
10
69.433465
20
15.415020
10
69.565217
20
15.283267
10
69.696970
20
15.283267
10
69.828722
20
15.151515
10
69.960474
20
15.151515
10
70.092227
20
15.019763
10
70.223979
20
15.019763
10
70.355731
20
14.888011
10
70.619236
20
14.888011
10
70.619236
20
14.756258
10
70.882740
20
14.756258
10
71.014493
20
14.624506
0
LWPOLYLINE
8
RIVERS
90
8
70
0
10
71.146245
20
14.361001
10
71.146245
20
14.097497
10
71.277997
20
13.965744
10
71.277997
20
13.438735
10
71.409750
20
13.438735
10
71.409750
20
13.175231
10
71.277997
20
13.175231
10
71.277997
20
13.306983
0
LWPOLYLINE
8
RIVERS
90
16
70
0
10
71.277997
20
13.043478
10
71.277997
20
12.516469
10
71.409750
20
12.384717
10
71.409750
20
11.725955
10
71.541502
20
11.594203
10
71.541502
20
11.462451
10
71.805007
20
11.198946
10
71.805007
20
10.803689
10
71.936759
20
10.671937
10
71.936759
20
10.540184
10
72.068511
20
10.408432
10
72.200264
20
10.408432
10
72.332016
20
10.276680
10
72.859025
20
10.276680
10
72.859025
20
10.144928
10
73.122530
20
10.144928
0
ENDSEC
0
EOF
